<?xml version="1.0" encoding="UTF-8" standalone="no"?>
<!-- Created with Inkscape (http://www.inkscape.org/) -->

<svg
   xmlns:dc="http://purl.org/dc/elements/1.1/"
   xmlns:cc="http://creativecommons.org/ns#"
   xmlns:rdf="http://www.w3.org/1999/02/22-rdf-syntax-ns#"
   xmlns:svg="http://www.w3.org/2000/svg"
   xmlns="http://www.w3.org/2000/svg"
   xmlns:sodipodi="http://sodipodi.sourceforge.net/DTD/sodipodi-0.dtd"
   xmlns:inkscape="http://www.inkscape.org/namespaces/inkscape"
   width="25.665743mm"
   height="16.556894mm"
   viewBox="0 0 25.665743 16.556894"
   version="1.1"
   id="svg3778"
   inkscape:version="0.92.3 (2405546, 2018-03-11)"
   sodipodi:docname="refinement_2.svg">
  <defs
     id="defs3772" />
  <sodipodi:namedview
     id="base"
     pagecolor="#ffffff"
     bordercolor="#666666"
     borderopacity="1.0"
     inkscape:pageopacity="0.0"
     inkscape:pageshadow="2"
     inkscape:zoom="3.959798"
     inkscape:cx="45.125586"
     inkscape:cy="70.977592"
     inkscape:document-units="mm"
     inkscape:current-layer="layer1"
     showgrid="false"
     inkscape:window-width="1920"
     inkscape:window-height="1015"
     inkscape:window-x="0"
     inkscape:window-y="0"
     inkscape:window-maximized="1" />
  <metadata
     id="metadata3775">
    <rdf:RDF>
      <cc:Work
         rdf:about="">
        <dc:format>image/svg+xml</dc:format>
        <dc:type
           rdf:resource="http://purl.org/dc/dcmitype/StillImage" />
        <dc:title></dc:title>
      </cc:Work>
    </rdf:RDF>
  </metadata>
  <g
     inkscape:label="Camada 1"
     inkscape:groupmode="layer"
     id="layer1"
     transform="translate(431.63049,90.766546)">
    <g
       transform="matrix(0.35277777,0,0,0.35277777,-454.21672,-119.64317)"
       id="g948">
      <path
         inkscape:connector-curvature="0"
         id="path950"
         style="fill:#94b0da;fill-opacity:1;fill-rule:nonzero;stroke:#ffffff;stroke-width:0.76879603;stroke-linecap:butt;stroke-linejoin:miter;stroke-miterlimit:4;stroke-dasharray:none;stroke-opacity:1"
         d="m 136.328,111.184 -10.43,17.191 c -20.394,-0.063 -40.793,0.074 -61.187,0.012 l 10.43,-17.391 -10.43,-17.051 c 20.394,0.063 40.762,-0.14 61.172,-0.082 z" />
    </g>
    <text
       id="text956"
       style="font-variant:normal;font-weight:normal;font-size:3.17499995px;font-family:Roboto;-inkscape-font-specification:Roboto-Regular;writing-mode:lr-tb;fill:#ffffff;fill-opacity:1;fill-rule:nonzero;stroke:none;stroke-width:0.35277775"
       x="-422.79095"
       y="-80.253571">
      <tspan
         style="stroke-width:0.35277775"
         id="tspan952"
         sodipodi:role="line"
         y="-80.253571"
         x="-422.79095 -421.93051 -420.18109 -419.14603 -417.46646 -415.71704">Intent</tspan>
      <tspan
         style="stroke-width:0.35277775"
         id="tspan954"
         sodipodi:role="line"
         y="-76.284821"
         x="-425.659 -423.5889 -421.95377 -420.31863 -418.63907 -415.85776 -414.0766 -413.30823">Assembly</tspan>
    </text>
    <g
       transform="matrix(0.35277777,0,0,0.35277777,-454.21672,-119.64317)"
       id="g958">
      <path
         inkscape:connector-curvature="0"
         id="path960"
         style="fill:#ffffff;fill-opacity:1;fill-rule:nonzero;stroke:#94b0da;stroke-width:0.75;stroke-linecap:butt;stroke-linejoin:miter;stroke-miterlimit:4;stroke-dasharray:none;stroke-opacity:1"
         d="m 111.664,93.293 c 0,6.109 -4.949,11.062 -11.062,11.062 -6.11,0 -11.063,-4.953 -11.063,-11.062 0,-6.109 4.953,-11.063 11.063,-11.063 6.113,0 11.062,4.954 11.062,11.063 z" />
    </g>
    <path
       inkscape:connector-curvature="0"
       id="path962"
       style="fill:#343f3e;fill-opacity:1;fill-rule:nonzero;stroke:none;stroke-width:0.35277775"
       d="m -417.13802,-84.362565 c -0.45861,-0.0014 -0.8308,-0.373591 -0.83221,-0.832555 0,-0.03986 0,-0.08537 0,-0.118534 l -2.00519,-2.002014 c -0.67098,0.169334 -1.27599,-0.445205 -1.09819,-1.112308 0.0138,-0.05221 0.054,-0.09349 0.10618,-0.107244 0.0536,-0.01658 0.11148,-0.0014 0.15029,0.03845 l 0.27552,0.285397 c 0.0497,0.0508 0.12135,0.07691 0.19297,0.06738 0.0688,-0.0095 0.13088,-0.04974 0.16686,-0.110067 0.0508,-0.100894 0.0275,-0.221897 -0.0568,-0.294922 l -0.26317,-0.268817 c -0.0399,-0.03845 -0.055,-0.09666 -0.0399,-0.150283 0.0152,-0.0508 0.0564,-0.08961 0.1076,-0.103364 0.67804,-0.176389 1.29116,0.448027 1.10243,1.121833 l 1.96638,1.956858 c 0.0744,-0.02223 0.15029,-0.03316 0.22719,-0.03316 1.10949,0 1.10949,1.663347 0,1.663347 z m -2.79859,-3.27413 c 0.0399,-0.0014 0.0797,0.01517 0.1076,0.04269 l 2.10291,2.102908 c 0.0233,0.02469 0.0385,0.05644 0.0427,0.08925 0.009,0.06915 0.0152,0.137936 0.0162,0.206728 0,0.472722 0.57079,0.708378 0.90417,0.375003 0.33337,-0.333375 0.0963,-0.90417 -0.37501,-0.90417 -0.073,0 -0.14463,0.01517 -0.2106,0.04551 -0.0564,0.02505 -0.12277,0.01235 -0.16687,-0.0314 l -2.09302,-2.090561 c -0.0402,-0.0441 -0.0498,-0.110419 -0.0251,-0.165453 0.13653,-0.334786 -0.0508,-0.713669 -0.3997,-0.81033 l 0.0141,0.01235 c 0.17886,0.173567 0.21908,0.446617 0.0949,0.66428 -0.17498,0.296334 -0.58138,0.348545 -0.82691,0.107598 l -0.0303,-0.03175 c 0.0416,0.137936 0.12982,0.256116 0.25083,0.333375 0.16121,0.106186 0.36406,0.128411 0.54433,0.05927 0.0166,-0.0042 0.0332,-0.0067 0.0497,-0.0053 z" />
    <path
       inkscape:connector-curvature="0"
       id="path964"
       style="fill:#343f3e;fill-opacity:1;fill-rule:nonzero;stroke:none;stroke-width:0.35277775"
       d="m -417.00679,-84.815884 h -0.26353 c -0.0536,0 -0.10301,-0.02893 -0.13087,-0.07585 l -0.12948,-0.227542 c -0.0275,-0.04692 -0.0275,-0.104775 0,-0.151342 l 0.12948,-0.22613 c 0.0279,-0.04692 0.0773,-0.07585 0.13087,-0.07585 h 0.26353 c 0.055,0 0.10442,0.02893 0.13229,0.07585 l 0.12947,0.22613 c 0.0275,0.04657 0.0275,0.104422 0,0.151342 l -0.12947,0.227542 c -0.0279,0.04692 -0.0773,0.07585 -0.13229,0.07585 z m -0.17533,-0.303389 h 0.0882 l 0.0441,-0.07585 -0.0441,-0.0755 h -0.0882 l -0.0441,0.0755 z" />
    <path
       inkscape:connector-curvature="0"
       id="path966"
       style="fill:#343f3e;fill-opacity:1;fill-rule:nonzero;stroke:none;stroke-width:0.35277775"
       d="m -417.8337,-86.914912 c -0.0399,0 -0.0787,-0.01517 -0.1076,-0.0441 l -0.5334,-0.533047 c -0.0603,-0.05927 -0.0603,-0.155928 0,-0.215195 l 1.21003,-1.209674 c 0.0991,-0.09807 0.23283,-0.153106 0.37359,-0.151695 0.14041,-0.0014 0.27552,0.05221 0.37465,0.151695 0.0991,0.09772 0.15311,0.232833 0.1517,0.371827 0.001,0.140759 -0.0536,0.274461 -0.1517,0.375003 l -1.20967,1.210027 c -0.0293,0.02893 -0.0677,0.04516 -0.1076,0.04516 z m -0.32103,-0.684742 0.32103,0.321027 1.09678,-1.098196 c 0.14323,-0.141817 0.0413,-0.38735 -0.16121,-0.385939 -0.0607,-0.0028 -0.12136,0.02222 -0.16405,0.06491 z" />
    <path
       inkscape:connector-curvature="0"
       id="path968"
       style="fill:#343f3e;fill-opacity:1;fill-rule:nonzero;stroke:none;stroke-width:0.35277775"
       d="m -419.23247,-85.670312 c -0.0399,0 -0.0801,-0.01658 -0.10759,-0.0441 l -0.40217,-0.403931 c -0.0593,-0.05927 -0.0593,-0.155575 0,-0.214841 l 0.48084,-0.480837 c 0.0593,-0.06068 0.15557,-0.06068 0.21484,0 l 0.40393,0.402167 c 0.0275,0.02752 0.0441,0.06632 0.0441,0.107597 -10e-4,0.03986 -0.0166,0.07867 -0.0441,0.108656 l -0.48225,0.481189 c -0.0289,0.02752 -0.0677,0.0441 -0.1076,0.0441 z m -0.18873,-0.555272 0.18873,0.190147 0.26882,-0.267406 -0.19014,-0.191558 z" />
    <path
       inkscape:connector-curvature="0"
       id="path970"
       style="fill:#343f3e;fill-opacity:1;fill-rule:nonzero;stroke:none;stroke-width:0.35277775"
       d="m -418.32442,-86.579773 c -0.0399,0 -0.0783,-0.01517 -0.10724,-0.0441 l -0.40252,-0.403931 c -0.0593,-0.05927 -0.0593,-0.155575 0,-0.214842 l 0.33055,-0.329494 c 0.0593,-0.05927 0.15593,-0.05927 0.2152,0 l 0.40358,0.402519 c 0.0275,0.02752 0.0441,0.06738 0.0441,0.107245 -10e-4,0.04022 -0.0166,0.07867 -0.0441,0.107597 l -0.33197,0.330906 c -0.0275,0.02893 -0.0663,0.0441 -0.1076,0.0441 z m -0.18873,-0.555625 0.18873,0.189089 0.11713,-0.116064 -0.18874,-0.188736 z" />
    <path
       inkscape:connector-curvature="0"
       id="path972"
       style="fill:#343f3e;fill-opacity:1;fill-rule:nonzero;stroke:none;stroke-width:0.35277775"
       d="m -420.69332,-84.362565 c -0.0399,0 -0.0783,-0.01517 -0.10583,-0.0441 l -0.30339,-0.301978 c -0.0508,-0.0508 -0.0579,-0.13088 -0.018,-0.191558 l 0.60501,-0.899583 c 0.0124,-0.02081 0.0303,-0.0374 0.0512,-0.04833 l 0.67945,-0.383117 c 0.0593,-0.03316 0.13335,-0.02328 0.18169,0.02469 l 0.30197,0.303389 c 0.048,0.04657 0.0579,0.121003 0.0247,0.180269 l -0.38594,0.687917 c -0.0109,0.02046 -0.0275,0.03845 -0.0483,0.0508 l -0.89958,0.5969 c -0.0251,0.01623 -0.0526,0.02469 -0.0829,0.02469 z m -0.10583,-0.474133 0.12665,0.128058 0.76623,-0.508353 0.31009,-0.555272 -0.14076,-0.140758 -0.55527,0.301978 z" />
  </g>
</svg>
