<?xml version="1.0" encoding="UTF-8" standalone="no"?>
<!-- Created with Inkscape (http://www.inkscape.org/) -->

<svg
   xmlns:dc="http://purl.org/dc/elements/1.1/"
   xmlns:cc="http://creativecommons.org/ns#"
   xmlns:rdf="http://www.w3.org/1999/02/22-rdf-syntax-ns#"
   xmlns:svg="http://www.w3.org/2000/svg"
   xmlns="http://www.w3.org/2000/svg"
   xmlns:sodipodi="http://sodipodi.sourceforge.net/DTD/sodipodi-0.dtd"
   xmlns:inkscape="http://www.inkscape.org/namespaces/inkscape"
   width="113.3456mm"
   height="31.471661mm"
   viewBox="0 0 113.3456 31.471661"
   version="1.1"
   id="svg1912"
   inkscape:version="0.92.3 (2405546, 2018-03-11)"
   sodipodi:docname="refinement_top.svg">
  <defs
     id="defs1906" />
  <sodipodi:namedview
     id="base"
     pagecolor="#ffffff"
     bordercolor="#666666"
     borderopacity="1.0"
     inkscape:pageopacity="0.0"
     inkscape:pageshadow="2"
     inkscape:zoom="1.979899"
     inkscape:cx="45.824682"
     inkscape:cy="45.275857"
     inkscape:document-units="mm"
     inkscape:current-layer="layer1"
     showgrid="false"
     inkscape:window-width="1920"
     inkscape:window-height="1015"
     inkscape:window-x="0"
     inkscape:window-y="0"
     inkscape:window-maximized="1" />
  <metadata
     id="metadata1909">
    <rdf:RDF>
      <cc:Work
         rdf:about="">
        <dc:format>image/svg+xml</dc:format>
        <dc:type
           rdf:resource="http://purl.org/dc/dcmitype/StillImage" />
        <dc:title />
      </cc:Work>
    </rdf:RDF>
  </metadata>
  <g
     inkscape:label="Camada 1"
     inkscape:groupmode="layer"
     id="layer1"
     transform="translate(414.99423,68.741782)">
    <text
       id="text848"
       style="font-variant:normal;font-weight:normal;font-size:3.17499995px;font-family:Roboto;-inkscape-font-specification:Roboto-Regular;writing-mode:lr-tb;fill:#000000;fill-opacity:1;fill-rule:nonzero;stroke:none;stroke-width:0.35277775"
       x="-321.20602"
       y="-52.545158">
      <tspan
         style="stroke-width:0.35277775"
         id="tspan846"
         sodipodi:role="line"
         y="-52.545158"
         x="-321.20602 -318.94543 -317.26584 -316.2308 -313.84637 -312.03662 -310.96347">Network</tspan>
    </text>
    <g
       transform="matrix(0.35277777,0,0,0.35277777,-417.02918,-69.998377)"
       id="g850">
      <path
         inkscape:connector-curvature="0"
         id="path852"
         style="fill:#343f3e;fill-opacity:1;fill-rule:nonzero;stroke:#000000;stroke-width:0.75;stroke-linecap:butt;stroke-linejoin:miter;stroke-miterlimit:4;stroke-dasharray:none;stroke-opacity:1"
         d="m 313.039,36.215 c 0,-0.203 0.031,-0.406 0.031,-0.61 0,-10.882 -8.929,-19.835 -19.754,-19.835 -7.796,0 -14.511,4.722 -17.656,11.339 -1.371,-0.695 -2.894,-1.082 -4.535,-1.082 -5.004,0 -9.148,4.012 -9.961,8.801 -5.953,2.067 -10.25,7.481 -10.25,14.184 0,8.429 6.781,15.504 15.156,15.504 h 46.746 c 7.614,0 13.872,-6.582 13.872,-14.27 0,-7.715 -5.989,-14.012 -13.649,-14.031 z m -0.305,25.527 -0.543,0.067 h -45.988 c -6.918,0 -12.547,-5.907 -12.547,-12.879 0,-5.403 3.414,-9.887 8.489,-11.649 l 1.421,-0.508 0.254,-1.488 c 0.61,-3.656 3.739,-6.652 7.426,-6.652 1.164,0 2.316,0.269 3.363,0.812 l 2.286,1.153 1.097,-2.321 c 2.809,-5.906 8.813,-9.851 15.289,-9.851 9.356,0 17.067,7.465 17.067,16.875 0,2.254 -0.032,3.437 -0.032,3.437 l 2.571,0.016 c 6.207,0.086 11.093,5.164 11.093,11.41 0,6.246 -5.039,11.543 -11.246,11.578 z" />
    </g>
    <path
       inkscape:connector-curvature="0"
       id="path854"
       style="fill:#343f3e;fill-opacity:1;fill-rule:nonzero;stroke:none;stroke-width:0.35277775"
       d="m -347.12274,-55.836113 c 0,7.125758 -5.77815,12.903905 -12.90391,12.903905 -7.12717,0 -12.9039,-5.778147 -12.9039,-12.903905 0,-7.127522 5.77673,-12.905669 12.9039,-12.905669 7.12576,0 12.90391,5.778147 12.90391,12.905669 z" />
    <path
       inkscape:connector-curvature="0"
       id="path856"
       style="fill:#ffffff;fill-opacity:1;fill-rule:nonzero;stroke:none;stroke-width:0.35277775"
       d="m -369.10256,-57.33683 c -0.0755,-0.02893 -0.121,-0.05785 -0.139,-0.08678 -0.0222,-0.02928 -0.0346,-0.06632 -0.0346,-0.11183 0,-0.05221 0.018,-0.08961 0.0526,-0.112889 0.58279,0 0.90382,-0.0028 0.96168,-0.0085 0.0289,-0.629708 0.1531,-1.10102 0.37359,-1.413581 0.21907,-0.311503 0.55104,-0.46743 0.99624,-0.46743 0.28258,0 0.50589,0.0829 0.66711,0.250825 0.16792,0.168275 0.25223,0.381705 0.25223,0.642408 0,0.369006 -0.12418,0.654403 -0.37359,0.856897 -0.248,0.202848 -0.62971,0.341842 -1.14371,0.416278 v 2.713214 c 0,0.392994 -0.0441,0.745772 -0.12947,1.056922 0.0219,0.02364 0.0716,0.07056 0.14747,0.139347 0.0797,0.0635 0.13476,0.11042 0.16368,0.139348 0.0289,0.02187 0.0815,0.06597 0.15593,0.129469 0.0759,0.06315 0.13088,0.110067 0.16546,0.138995 0.0399,0.02222 0.0977,0.06068 0.17356,0.11183 0.0744,0.04657 0.13759,0.08114 0.19015,0.104775 0.0522,0.02328 0.11571,0.05221 0.19015,0.08678 0.0811,0.02893 0.15698,0.05221 0.22577,0.06879 0.17922,0.03457 0.34326,0.05221 0.49354,0.05221 0.57326,0 1.0033,-0.133703 1.29258,-0.398286 0.29492,-0.272697 0.44097,-0.662517 0.44097,-1.171222 0.007,-0.03422 0.036,-0.0508 0.0868,-0.0508 0.0578,0 0.10195,0.0081 0.13088,0.02469 0.0868,0.06491 0.12947,0.205316 0.12947,0.425802 0,0.479425 -0.20531,0.877712 -0.61595,1.19627 -0.40922,0.31115 -0.90099,0.467078 -1.47285,0.467078 -0.43285,0 -0.81174,-0.08537 -1.13559,-0.259292 -0.32385,-0.173567 -0.641,-0.410633 -0.95356,-0.710847 -0.2607,0.497416 -0.63535,0.745419 -1.12747,0.745419 -0.32244,0 -0.56903,-0.08396 -0.7359,-0.252236 -0.17357,-0.172156 -0.26035,-0.398286 -0.26035,-0.675217 0,-0.27693 0.0896,-0.50553 0.26882,-0.684741 0.17921,-0.179211 0.40216,-0.268817 0.66675,-0.268817 0.26599,0 0.50306,0.05221 0.7112,0.155575 0.0124,-0.242358 0.018,-0.444853 0.018,-0.606072 v -2.610203 c -0.11571,0.0071 -0.266,0.0099 -0.4505,0.0099 -0.18485,0 -0.31291,-0.01517 -0.38206,-0.0441 z m 2.73015,-1.334205 c 0,-0.138995 -0.0512,-0.257528 -0.15593,-0.355248 -0.0977,-0.09948 -0.23142,-0.147461 -0.39829,-0.147461 -0.16263,0 -0.2921,0.105834 -0.38982,0.321028 -0.0991,0.208139 -0.15557,0.579967 -0.17356,1.1176 0.74542,-0.139347 1.1176,-0.45085 1.1176,-0.935919 z m -3.17218,5.374569 c 0,0.380295 0.20249,0.571853 0.60607,0.571853 0.32385,0 0.52635,-0.2921 0.60784,-0.876653 -0.23143,-0.190147 -0.43956,-0.285044 -0.62442,-0.285044 -0.1845,0 -0.32914,0.05221 -0.43392,0.155575 -0.10336,0.104775 -0.15557,0.248003 -0.15557,0.434269 z" />
    <path
       inkscape:connector-curvature="0"
       id="path858"
       style="fill:#ffffff;fill-opacity:1;fill-rule:nonzero;stroke:none;stroke-width:0.35277775"
       d="m -361.69952,-55.949355 c 0,-0.173566 0.0483,-0.303036 0.14746,-0.389819 0.0977,-0.09243 0.21625,-0.139347 0.3556,-0.139347 0.13759,0 0.248,0.04022 0.32914,0.121355 v 2.487436 c 0,0.329142 0.0512,0.578556 0.15593,0.74542 0.10337,0.168275 0.24518,0.252236 0.42439,0.252236 0.17922,0 0.35278,-0.104775 0.51929,-0.312914 0.1972,-0.248003 0.29493,-0.706967 0.29493,-1.37795 0.007,-0.03457 0.0497,-0.05256 0.13087,-0.05256 0.10337,0 0.15593,0.154517 0.15593,0.460375 0,0.490714 -0.10759,0.883356 -0.32103,1.178278 -0.20813,0.294922 -0.50306,0.442383 -0.88335,0.442383 -0.60784,0 -1.00612,-0.274108 -1.19627,-0.822678 -0.22578,0.54857 -0.63923,0.822678 -1.24001,0.822678 -0.35843,0 -0.6477,-0.106186 -0.86678,-0.321028 -0.21943,-0.219075 -0.32949,-0.530577 -0.32949,-0.935919 v -2.157942 c 0,-0.173566 0.0427,-0.303036 0.12947,-0.389819 0.0868,-0.09243 0.1972,-0.139347 0.32949,-0.139347 0.1337,0 0.23954,0.04022 0.32103,0.121355 v 2.487436 c 0,0.687564 0.17356,1.032228 0.5207,1.032228 0.25929,0 0.49354,-0.155928 0.70167,-0.468842 0.21343,-0.31115 0.32103,-0.750711 0.32103,-1.317272 z" />
    <path
       inkscape:connector-curvature="0"
       id="path860"
       style="fill:#ffffff;fill-opacity:1;fill-rule:nonzero;stroke:none;stroke-width:0.35277775"
       d="m -357.25805,-53.063632 v -2.079625 c 0,-0.687564 -0.17356,-1.031875 -0.52105,-1.031875 -0.28928,0 -0.51117,0.159808 -0.6671,0.476602 -0.14993,0.318559 -0.22578,0.879123 -0.22578,1.681339 v 1.36137 c -0.0578,0.08149 -0.1584,0.121355 -0.30339,0.121355 -0.14464,0 -0.26035,-0.04269 -0.34713,-0.129469 -0.0854,-0.09243 -0.12947,-0.226131 -0.12947,-0.399697 v -3.293534 c 0.0579,-0.08114 0.1584,-0.121355 0.30304,-0.121355 0.14463,0 0.2607,0.04692 0.34748,0.139347 0.0868,0.08678 0.12947,0.216253 0.12947,0.389819 0.19685,-0.352777 0.52917,-0.529166 0.99766,-0.529166 0.54856,0 0.91792,0.234244 1.10948,0.702733 0.19544,-0.468489 0.56339,-0.702733 1.10102,-0.702733 0.37465,0 0.6724,0.118533 0.89147,0.3556 0.22613,0.237066 0.33902,0.577497 0.33902,1.02235 v 1.230841 c 0,0.329142 0.0522,0.578556 0.15557,0.74542 0.10337,0.168275 0.25789,0.252236 0.45897,0.252236 0.20814,0 0.39017,-0.126647 0.54716,-0.381706 0.15557,-0.26035 0.23424,-0.69603 0.23424,-1.309158 0.006,-0.03457 0.0483,-0.05256 0.12947,-0.05256 0.10336,0 0.15593,0.154517 0.15593,0.460375 0,0.490714 -0.10619,0.883356 -0.32138,1.178278 -0.20779,0.294922 -0.514,0.442383 -0.91758,0.442383 -0.40534,0 -0.71649,-0.139347 -0.93697,-0.416278 -0.21379,-0.27693 -0.31997,-0.669572 -0.31997,-1.178277 v -1.014236 c 0,-0.687564 -0.17357,-1.031875 -0.5207,-1.031875 -0.58985,0 -0.88336,0.726016 -0.88336,2.175933 v 1.343378 c -0.0579,0.08149 -0.16263,0.121355 -0.31291,0.121355 -0.14464,0 -0.26317,-0.04269 -0.3556,-0.129469 -0.0921,-0.09243 -0.13759,-0.226131 -0.13759,-0.399697 z" />
    <path
       inkscape:connector-curvature="0"
       id="path862"
       style="fill:#ffffff;fill-opacity:1;fill-rule:nonzero;stroke:none;stroke-width:0.35277775"
       d="m -352.79752,-55.949355 c 0,-0.173566 0.0427,-0.303036 0.12946,-0.389819 0.0871,-0.09243 0.19721,-0.139347 0.3295,-0.139347 0.13229,0 0.23989,0.04022 0.32103,0.121355 v 2.487436 c 0,0.329142 0.0635,0.578556 0.19015,0.74542 0.127,0.168275 0.30056,0.252236 0.52105,0.252236 0.21907,0 0.42439,-0.133703 0.61454,-0.399697 0.19156,-0.264584 0.28645,-0.696031 0.28645,-1.291167 0.0113,-0.03457 0.0554,-0.05256 0.12982,-0.05256 0.10478,0 0.15558,0.154517 0.15558,0.460375 0,0.445206 -0.12136,0.826911 -0.36372,1.143706 -0.24271,0.318558 -0.55139,0.476955 -0.92745,0.476955 -0.46849,0 -0.81703,-0.139347 -1.04881,-0.416278 -0.22577,-0.27693 -0.3376,-0.669572 -0.3376,-1.178277 z" />
    <path
       inkscape:connector-curvature="0"
       id="path864"
       style="fill:#ffffff;fill-opacity:1;fill-rule:nonzero;stroke:none;stroke-width:0.35277775"
       d="m -351.99284,-58.661157 c -0.10583,-0.101953 -0.24518,-0.154517 -0.39123,-0.148873 -0.28257,0.01093 -0.514,0.249414 -0.514,0.5334 0,0.125237 0.0427,0.246592 0.12418,0.3429 0.11571,0.139348 0.17886,0.314325 0.17886,0.494948 0,0 -0.0124,0.08255 0.0469,0.08255 h 0.36936 c 0.0607,0 0.0469,-0.08255 0.0469,-0.08255 0,-0.176389 0.0649,-0.350309 0.18732,-0.504473 0.0759,-0.09525 0.11571,-0.20955 0.11571,-0.332316 0,-0.147461 -0.0578,-0.283634 -0.16404,-0.385586 z m -0.0247,0.660047 c -0.1337,0.166511 -0.20532,0.357011 -0.20673,0.551039 h -0.27693 c -0.003,-0.198261 -0.0744,-0.38982 -0.20108,-0.542925 -0.0663,-0.07973 -0.10195,-0.18027 -0.10195,-0.283634 0.001,-0.233186 0.19014,-0.430036 0.42298,-0.439913 0.12276,-0.0053 0.23706,0.03881 0.32385,0.122766 0.0882,0.08396 0.13652,0.197203 0.13652,0.318206 -10e-4,0.100894 -0.0332,0.195791 -0.0967,0.274461 z" />
    <path
       inkscape:connector-curvature="0"
       id="path866"
       style="fill:#ffffff;fill-opacity:1;fill-rule:nonzero;stroke:none;stroke-width:0.35277775"
       d="m -351.74731,-58.967016 c -0.018,-0.0194 -0.0483,-0.0194 -0.0663,0 l -0.1143,0.112889 c -0.018,0.0194 -0.018,0.04833 0,0.06597 0.0194,0.01799 0.0483,0.0194 0.0663,0 l 0.1143,-0.1143 c 0.018,-0.01799 0.018,-0.04692 0,-0.06456 z" />
    <path
       inkscape:connector-curvature="0"
       id="path868"
       style="fill:#ffffff;fill-opacity:1;fill-rule:nonzero;stroke:none;stroke-width:0.35277775"
       d="m -352.17593,-57.292732 h -0.37359 c -0.0261,0 -0.0466,0.02046 -0.0466,0.04657 0,0.02646 0.0204,0.04692 0.0466,0.04692 h 0.37359 c 0.0261,0 0.0469,-0.02187 0.0469,-0.04692 0,-0.02611 -0.0222,-0.04657 -0.0469,-0.04657 z" />
    <path
       inkscape:connector-curvature="0"
       id="path870"
       style="fill:#ffffff;fill-opacity:1;fill-rule:nonzero;stroke:none;stroke-width:0.35277775"
       d="m -352.24613,-57.116343 h -0.23284 c -0.0265,0 -0.0469,0.02046 -0.0469,0.04657 0,0.02646 0.0219,0.04692 0.0469,0.04692 h 0.23284 c 0.0247,0 0.0455,-0.02187 0.0455,-0.04692 0,-0.02611 -0.0208,-0.04657 -0.0455,-0.04657 z" />
    <path
       inkscape:connector-curvature="0"
       id="path872"
       style="fill:#ffffff;fill-opacity:1;fill-rule:nonzero;stroke:none;stroke-width:0.35277775"
       d="m -352.36326,-58.968427 c 0.0261,0 0.0469,-0.02081 0.0469,-0.04692 v -0.161219 c 0,-0.02505 -0.0208,-0.04551 -0.0469,-0.04551 -0.0251,0 -0.0469,0.02046 -0.0469,0.04551 v 0.161219 c 0,0.02611 0.0205,0.04692 0.0469,0.04692 z" />
    <path
       inkscape:connector-curvature="0"
       id="path874"
       style="fill:#ffffff;fill-opacity:1;fill-rule:nonzero;stroke:none;stroke-width:0.35277775"
       d="m -352.79893,-58.786747 c 0.018,-0.01905 0.018,-0.04798 0,-0.06597 l -0.1143,-0.1143 c -0.018,-0.01799 -0.0483,-0.01799 -0.066,0 -0.018,0.01764 -0.018,0.04798 0,0.06597 l 0.1143,0.1143 c 0.018,0.01799 0.0483,0.01799 0.066,0 z" />
    <path
       inkscape:connector-curvature="0"
       id="path876"
       style="fill:#ffffff;fill-opacity:1;fill-rule:nonzero;stroke:none;stroke-width:0.35277775"
       d="m -351.53917,-58.397985 h -0.16121 c -0.0265,0 -0.0469,0.02046 -0.0469,0.04692 0,0.02469 0.0219,0.04551 0.0469,0.04551 h 0.16121 c 0.0261,0 0.0466,-0.02082 0.0466,-0.04551 0,-0.02646 -0.0205,-0.04692 -0.0466,-0.04692 z" />
    <path
       inkscape:connector-curvature="0"
       id="path878"
       style="fill:#ffffff;fill-opacity:1;fill-rule:nonzero;stroke:none;stroke-width:0.35277775"
       d="m -353.02612,-58.397985 h -0.16122 c -0.0261,0 -0.0469,0.02046 -0.0469,0.04692 0,0.02469 0.0208,0.04551 0.0469,0.04551 h 0.16122 c 0.0261,0 0.0469,-0.02082 0.0469,-0.04551 0,-0.02646 -0.0208,-0.04692 -0.0469,-0.04692 z" />
    <g
       transform="matrix(0.35277777,0,0,0.35277777,-417.02918,-69.998377)"
       id="g880">
      <path
         inkscape:connector-curvature="0"
         id="path882"
         style="fill:#343f3e;fill-opacity:1;fill-rule:nonzero;stroke:#000000;stroke-width:0.75;stroke-linecap:butt;stroke-linejoin:miter;stroke-miterlimit:4;stroke-dasharray:none;stroke-opacity:1"
         d="m 243.602,40.078 c 0,0.203 -0.075,0.379 -0.219,0.527 l -8.395,7.735 c -0.234,0.207 -0.488,0.25 -0.765,0.133 -0.278,-0.133 -0.414,-0.344 -0.414,-0.633 v -4.899 h -27.282 c -0.203,0 -0.371,-0.062 -0.504,-0.195 -0.128,-0.133 -0.195,-0.301 -0.195,-0.504 v -4.195 c 0,-0.203 0.067,-0.371 0.195,-0.504 0.133,-0.129 0.301,-0.195 0.504,-0.195 h 27.282 v -4.899 c 0,-0.304 0.136,-0.515 0.414,-0.633 0.277,-0.117 0.531,-0.078 0.765,0.11 l 8.395,7.652 c 0.144,0.145 0.219,0.313 0.219,0.5 z" />
    </g>
    <g
       transform="matrix(0.35277777,0,0,0.35277777,-417.02918,-69.998377)"
       id="g990">
      <path
         inkscape:connector-curvature="0"
         id="path992"
         style="fill:#343f3e;fill-opacity:1;fill-rule:nonzero;stroke:#000000;stroke-width:0.75;stroke-linecap:butt;stroke-linejoin:miter;stroke-miterlimit:4;stroke-dasharray:none;stroke-opacity:1"
         d="m 117.332,40.078 c 0,0.203 -0.07,0.379 -0.219,0.527 l -8.39,7.735 c -0.235,0.207 -0.489,0.25 -0.766,0.133 -0.277,-0.133 -0.418,-0.344 -0.418,-0.633 V 42.941 H 80.262 c -0.203,0 -0.371,-0.062 -0.504,-0.195 -0.129,-0.133 -0.196,-0.301 -0.196,-0.504 v -4.195 c 0,-0.203 0.067,-0.371 0.196,-0.504 0.133,-0.129 0.301,-0.195 0.504,-0.195 h 27.277 v -4.899 c 0,-0.304 0.141,-0.515 0.418,-0.633 0.277,-0.117 0.531,-0.078 0.766,0.11 l 8.39,7.652 c 0.149,0.145 0.219,0.313 0.219,0.5 z" />
    </g>
    <g
       transform="matrix(0.35277777,0,0,0.35277777,-417.02918,-69.998377)"
       id="g994">
      <path
         inkscape:connector-curvature="0"
         id="path996"
         style="fill:none;stroke:#000000;stroke-width:0.545834;stroke-linecap:butt;stroke-linejoin:miter;stroke-miterlimit:4;stroke-dasharray:6.550007, 6.550007;stroke-dashoffset:0;stroke-opacity:1"
         d="M 5.93,90.707 C 40.414,65.363 110.242,79.629 123.258,49.484" />
    </g>
    <g
       transform="matrix(0.35277777,0,0,0.35277777,-417.02918,-69.998377)"
       id="g998">
      <path
         inkscape:connector-curvature="0"
         id="path1000"
         style="fill:none;stroke:#000000;stroke-width:0.545834;stroke-linecap:butt;stroke-linejoin:miter;stroke-miterlimit:4;stroke-dasharray:6.550007, 6.550007;stroke-dashoffset:0;stroke-opacity:1"
         d="M 317.23,90.707 C 282.75,65.363 212.918,79.629 199.906,49.484" />
    </g>
    <text
       id="text1004"
       style="font-variant:normal;font-weight:normal;font-size:3.17499995px;font-family:Roboto;-inkscape-font-specification:Roboto-Regular;writing-mode:lr-tb;fill:#000000;fill-opacity:1;fill-rule:nonzero;stroke:none;stroke-width:0.35277775"
       x="-404.65271"
       y="-47.057636">
      <tspan
         style="stroke-width:0.35277775"
         id="tspan1002"
         sodipodi:role="line"
         y="-47.057636"
         x="-404.65271 -402.58896 -401.82062 -401.05228 -399.37268 -397.62326">Client</tspan>
    </text>
    <g
       transform="matrix(0.35277777,0,0,0.35277777,-417.02918,-69.998377)"
       id="g1006">
      <path
         inkscape:connector-curvature="0"
         id="path1008"
         style="fill:#505a5b;fill-opacity:1;fill-rule:nonzero;stroke:#000000;stroke-width:0.75;stroke-linecap:butt;stroke-linejoin:miter;stroke-miterlimit:4;stroke-dasharray:none;stroke-opacity:1"
         d="m 65.844,48.016 c 1.769,0 3.203,-1.454 3.203,-3.246 V 18.789 c 0,-1.793 -1.434,-3.246 -3.203,-3.246 H 27.426 c -1.77,0 -3.203,1.453 -3.203,3.246 V 44.77 c 0,1.792 1.433,3.246 3.203,3.246 H 21.02 v 3.246 c 0,1.797 1.433,3.246 3.203,3.246 h 44.824 c 1.769,0 3.199,-1.449 3.199,-3.246 V 48.016 Z M 27.426,18.789 H 65.844 V 44.77 H 27.426 Z M 53.039,52.074 H 40.23 v -1.625 h 12.809 z m 6.402,0.813 c -0.886,0 -1.601,-0.727 -1.601,-1.625 0,-0.899 0.715,-1.621 1.601,-1.621 0.883,0 1.602,0.726 1.602,1.621 0,0.898 -0.719,1.625 -1.602,1.625 z m 6.403,0 c -0.887,0 -1.602,-0.727 -1.602,-1.625 0,-0.899 0.715,-1.621 1.602,-1.621 0.886,0 1.601,0.726 1.601,1.621 0,0.898 -0.715,1.625 -1.601,1.625 z" />
    </g>
    <path
       inkscape:connector-curvature="0"
       id="path1010"
       style="fill:#2196f3;fill-opacity:1;fill-rule:nonzero;stroke:none;stroke-width:0.35277775"
       d="m -399.85067,-59.835202 c 0,1.109134 -0.89958,2.00907 -2.01048,2.00907 -1.10913,0 -2.01048,-0.899936 -2.01048,-2.00907 0,-1.110897 0.90135,-2.010833 2.01048,-2.010833 1.1109,0 2.01048,0.899936 2.01048,2.010833 z" />
    <path
       inkscape:connector-curvature="0"
       id="path1012"
       style="fill:#00c853;fill-opacity:1;fill-rule:nonzero;stroke:none;stroke-width:0.35277775"
       d="m -397.28457,-59.639763 c 0,0.22613 -0.18344,0.408164 -0.40816,0.408164 -0.22578,0 -0.40922,-0.182034 -0.40922,-0.408164 0,-0.225778 0.18344,-0.409222 0.40922,-0.409222 0.22472,0 0.40816,0.183444 0.40816,0.409222 z" />
    <path
       inkscape:connector-curvature="0"
       id="path1014"
       style="fill:#f44336;fill-opacity:1;fill-rule:nonzero;stroke:none;stroke-width:0.35277775"
       d="m -398.02046,-58.643166 c 0,0.451909 -0.36512,0.817034 -0.81739,0.817034 -0.45049,0 -0.81703,-0.365125 -0.81703,-0.817034 0,-0.45085 0.36654,-0.817386 0.81703,-0.817386 0.45227,0 0.81739,0.366536 0.81739,0.817386 z" />
    <path
       inkscape:connector-curvature="0"
       id="path1016"
       style="fill:#ffeb3b;fill-opacity:1;fill-rule:nonzero;stroke:none;stroke-width:0.35277775"
       d="m -397.85642,-56.534966 c 0,0.541514 -0.4385,0.981075 -0.98143,0.981075 -0.54151,0 -0.97966,-0.439561 -0.97966,-0.981075 0,-0.541514 0.43815,-0.979664 0.97966,-0.979664 0.54293,0 0.98143,0.43815 0.98143,0.979664 z" />
  </g>
</svg>
