<?xml version="1.0" encoding="UTF-8" standalone="no"?>
<!-- Created with Inkscape (http://www.inkscape.org/) -->

<svg
   xmlns:dc="http://purl.org/dc/elements/1.1/"
   xmlns:cc="http://creativecommons.org/ns#"
   xmlns:rdf="http://www.w3.org/1999/02/22-rdf-syntax-ns#"
   xmlns:svg="http://www.w3.org/2000/svg"
   xmlns="http://www.w3.org/2000/svg"
   xmlns:sodipodi="http://sodipodi.sourceforge.net/DTD/sodipodi-0.dtd"
   xmlns:inkscape="http://www.inkscape.org/namespaces/inkscape"
   width="60.973141mm"
   height="29.042608mm"
   viewBox="0 0 60.97314 29.042608"
   version="1.1"
   id="svg8"
   inkscape:version="0.92.3 (2405546, 2018-03-11)"
   sodipodi:docname="lumi-o.svg">
  <defs
     id="defs2" />
  <sodipodi:namedview
     id="base"
     pagecolor="#ffffff"
     bordercolor="#666666"
     borderopacity="1.0"
     inkscape:pageopacity="0"
     inkscape:pageshadow="2"
     inkscape:zoom="2.3212164"
     inkscape:cx="85.835043"
     inkscape:cy="26.890186"
     inkscape:document-units="mm"
     inkscape:current-layer="layer1"
     showgrid="false"
     fit-margin-top="5"
     fit-margin-left="5"
     fit-margin-right="5"
     fit-margin-bottom="5"
     inkscape:window-width="1920"
     inkscape:window-height="990"
     inkscape:window-x="1280"
     inkscape:window-y="0"
     inkscape:window-maximized="1"
     inkscape:pagecheckerboard="false" />
  <metadata
     id="metadata5">
    <rdf:RDF>
      <cc:Work
         rdf:about="">
        <dc:format>image/svg+xml</dc:format>
        <dc:type
           rdf:resource="http://purl.org/dc/dcmitype/StillImage" />
        <dc:title></dc:title>
      </cc:Work>
    </rdf:RDF>
  </metadata>
  <g
     inkscape:label="Layer 1"
     inkscape:groupmode="layer"
     id="layer1"
     transform="translate(-60.857941,-93.28003)">
    <g
       id="g1019"
       transform="translate(0.59956362,-2.6276943)">
      <g
         transform="matrix(1.524549,0,0,1.524549,-60.146421,-56.82303)"
         id="text817"
         style="font-style:normal;font-variant:normal;font-weight:normal;font-stretch:normal;font-size:14.62614155px;line-height:1.25;font-family:Sofia;-inkscape-font-specification:'Sofia, Normal';font-variant-ligatures:normal;font-variant-caps:normal;font-variant-numeric:normal;font-feature-settings:normal;text-align:start;letter-spacing:0px;word-spacing:0px;writing-mode:lr-tb;text-anchor:start;fill:#ffffff;fill-opacity:1;stroke:none;stroke-width:0.17354858"
         aria-label="Lumi">
        <path
           id="path961"
           style="font-style:normal;font-variant:normal;font-weight:normal;font-stretch:normal;font-size:14.62614155px;font-family:Sofia;-inkscape-font-specification:'Sofia, Normal';font-variant-ligatures:normal;font-variant-caps:normal;font-variant-numeric:normal;font-feature-settings:normal;text-align:start;writing-mode:lr-tb;text-anchor:start;fill:#ffffff;fill-opacity:1;stroke-width:0.17354858"
           d="m 83.661082,107.17561 q -0.190139,-0.0731 -0.234018,-0.14626 -0.0585,-0.0731 -0.0585,-0.19014 0,-0.13164 0.08776,-0.19014 1.477241,0 1.623502,-0.0146 0.07313,-1.59425 0.628924,-2.38406 0.555794,-0.78981 1.682007,-0.78981 0.716681,0 1.126212,0.42416 0.424159,0.42415 0.424159,1.08233 0,0.93607 -0.628925,1.44799 -0.628924,0.51191 -1.93065,0.70205 v 4.57799 q 0,0.99457 -0.219392,1.78438 0.0585,0.0585 0.248644,0.23402 0.204766,0.16089 0.277897,0.23402 0.07313,0.0585 0.26327,0.21939 0.19014,0.16089 0.277897,0.23402 0.102383,0.0585 0.292523,0.19014 0.19014,0.11701 0.321775,0.17551 0.131635,0.0585 0.321775,0.14627 0.204766,0.0731 0.38028,0.11701 0.45341,0.0877 0.83369,0.0877 1.447988,0 2.179295,-0.6728 0.745933,-0.68743 0.745933,-1.97453 0.01463,-0.0878 0.146262,-0.0878 0.146261,0 0.219392,0.0439 0.219392,0.16089 0.219392,0.71668 0,1.21397 -1.038456,2.01841 -1.038456,0.78981 -2.486444,0.78981 -1.096961,0 -1.916025,-0.43878 -0.819064,-0.43879 -1.608875,-1.19935 -0.658177,1.25785 -1.901399,1.25785 -0.819064,0 -1.243222,-0.42416 -0.438784,-0.43878 -0.438784,-1.14083 0,-0.70206 0.45341,-1.15547 0.453411,-0.45341 1.126213,-0.45341 0.672803,0 1.199344,0.26327 0.02925,-0.6143 0.02925,-1.02383 v -4.40247 q -0.292523,0.0146 -0.760559,0.0146 -0.468037,0 -0.643551,-0.0731 z m 4.607235,-2.25243 q 0,-0.35103 -0.26327,-0.59967 -0.248645,-0.24864 -0.672803,-0.24864 -0.409532,0 -0.658176,0.54116 -0.248645,0.52654 -0.292523,1.88678 1.886772,-0.35103 1.886772,-1.57963 z m -5.353168,9.06821 q 0,0.96532 1.02383,0.96532 0.819064,0 1.02383,-1.47724 -0.585046,-0.48266 -1.053082,-0.48266 -0.468037,0 -0.731307,0.26327 -0.263271,0.26327 -0.263271,0.73131 z"
           inkscape:connector-curvature="0" />
        <path
           id="path963"
           style="font-style:normal;font-variant:normal;font-weight:normal;font-stretch:normal;font-size:14.62614155px;font-family:Sofia;-inkscape-font-specification:'Sofia, Normal';font-variant-ligatures:normal;font-variant-caps:normal;font-variant-numeric:normal;font-feature-settings:normal;text-align:start;writing-mode:lr-tb;text-anchor:start;fill:#ffffff;fill-opacity:1;stroke-width:0.17354858"
           d="m 96.151807,109.51579 q 0,-0.43878 0.248645,-0.65818 0.248644,-0.23401 0.599672,-0.23401 0.351027,0 0.555793,0.20476 v 4.1977 q 0,0.83369 0.26327,1.25785 0.263271,0.42416 0.716681,0.42416 0.453411,0 0.877569,-0.52654 0.497289,-0.62892 0.497289,-2.32556 0.01463,-0.0877 0.219394,-0.0877 0.26327,0 0.26327,0.77518 0,1.24322 -0.541169,1.98916 -0.526541,0.74593 -1.491866,0.74593 -1.535745,0 -2.018408,-1.38948 -0.570419,1.38948 -2.091538,1.38948 -0.906821,0 -1.462614,-0.54117 -0.555794,-0.55579 -0.555794,-1.57962 v -3.64191 q 0,-0.43878 0.219393,-0.65818 0.219392,-0.23401 0.555793,-0.23401 0.336401,0 0.541167,0.20476 v 4.1977 q 0,1.74051 0.877569,1.74051 0.658176,0 1.184717,-0.78981 0.541167,-0.78981 0.541167,-2.22317 z"
           inkscape:connector-curvature="0" />
        <path
           id="path965"
           style="font-style:normal;font-variant:normal;font-weight:normal;font-stretch:normal;font-size:14.62614155px;font-family:Sofia;-inkscape-font-specification:'Sofia, Normal';font-variant-ligatures:normal;font-variant-caps:normal;font-variant-numeric:normal;font-feature-settings:normal;text-align:start;writing-mode:lr-tb;text-anchor:start;fill:#ffffff;fill-opacity:1;stroke-width:0.17354858"
           d="m 103.64542,114.3863 v -3.51028 q 0,-1.74051 -0.87757,-1.74051 -0.73131,0 -1.12621,0.80444 -0.38028,0.80444 -0.38028,2.83747 v 2.2963 q -0.14626,0.20477 -0.51192,0.20477 -0.36565,0 -0.58504,-0.21939 -0.219394,-0.23402 -0.219394,-0.6728 v -5.55794 q 0.146264,-0.20476 0.511914,-0.20476 0.36565,0 0.58505,0.23401 0.21939,0.2194 0.21939,0.65818 0.49729,-0.89219 1.68201,-0.89219 1.38948,0 1.87214,1.18471 0.49729,-1.18471 1.85752,-1.18471 0.9507,0 1.50649,0.59967 0.57042,0.59967 0.57042,1.72588 v 2.07691 q 0,0.83369 0.26327,1.25785 0.26327,0.42416 0.77519,0.42416 0.52654,0 0.92145,-0.64355 0.3949,-0.65818 0.3949,-2.20855 0.0146,-0.0877 0.21939,-0.0877 0.26327,0 0.26327,0.77518 0,1.24322 -0.54116,1.98916 -0.52654,0.74593 -1.55037,0.74593 -1.02383,0 -1.57963,-0.70205 -0.54116,-0.70206 -0.54116,-1.98916 v -1.71126 q 0,-1.74051 -0.87757,-1.74051 -1.49187,0 -1.49187,3.67116 v 2.26705 q -0.14626,0.20477 -0.52654,0.20477 -0.36565,0 -0.59967,-0.21939 -0.23402,-0.23402 -0.23402,-0.6728 z"
           inkscape:connector-curvature="0" />
        <path
           sodipodi:nodetypes="scscscsscsssscss"
           inkscape:connector-curvature="0"
           id="path967"
           style="font-style:normal;font-variant:normal;font-weight:normal;font-stretch:normal;font-size:14.62614155px;font-family:Sofia;-inkscape-font-specification:'Sofia, Normal';font-variant-ligatures:normal;font-variant-caps:normal;font-variant-numeric:normal;font-feature-settings:normal;text-align:start;writing-mode:lr-tb;text-anchor:start;fill:#ffffff;fill-opacity:1;stroke-width:0.17354858"
           d="m 111.1724,109.51579 c 0,-0.29252 0.0731,-0.51191 0.21939,-0.65818 0.14626,-0.15601 0.33152,-0.23401 0.55579,-0.23401 0.22427,0 0.40466,0.0683 0.54117,0.20476 v 4.1977 c 0,0.55579 0.10726,0.97508 0.32178,1.25785 0.21451,0.28277 0.50703,0.42416 0.87756,0.42416 0.37053,0 0.71669,-0.22427 1.03846,-0.6728 0.32177,-0.44853 0.48266,-1.17497 0.48266,-2.1793 0.0195,-0.0585 0.0927,-0.0877 0.21939,-0.0877 0.17552,0 0.26328,0.25839 0.26328,0.77518 0,0.75081 -0.20477,1.39436 -0.6143,1.93065 -0.40953,0.53629 -0.9312,0.80444 -1.565,0.80444 -0.78981,0 -1.37973,-0.23402 -1.76976,-0.70205 -0.38028,-0.46804 -0.57042,-1.13109 -0.57042,-1.98916 z" />
      </g>
      <g
         style="fill:#ffffff;fill-opacity:1;stroke-width:22.91086578"
         transform="matrix(0.01154838,0,0,0.01154838,107.50359,101.59217)"
         id="g915">
        <g
           style="fill:#ffffff;fill-opacity:1;stroke-width:22.91086578"
           id="g913">
          <path
             style="fill:#ffffff;fill-opacity:1;stroke-width:22.91086578"
             inkscape:connector-curvature="0"
             d="M 338.6,136.1 C 315,113.4 284,101.7 251.2,102.9 188.3,105.4 137,158.6 136.8,221.6 c -0.1,27.9 9.7,55.1 27.6,76.5 25.8,31 40,70.1 40,110.2 0,0 -2.7,18.4 10.4,18.4 h 82.4 c 13.4,0 10.4,-18.4 10.4,-18.4 0,-39.2 14.4,-78 41.7,-112.2 16.9,-21.3 25.9,-46.9 25.9,-74.1 0,-32.7 -13,-63.3 -36.6,-85.9 z m -5.6,147 c -29.7,37.2 -45.6,79.6 -46.2,122.8 h -61.6 c -0.6,-44.1 -16.4,-87 -44.8,-121.1 -14.7,-17.7 -22.8,-40.1 -22.7,-63.1 0.2,-52 42.5,-95.9 94.4,-98 27.1,-1 52.7,8.7 72.1,27.4 19.5,18.7 30.2,43.9 30.2,70.9 -0.1,22.5 -7.4,43.6 -21.4,61.1 z"
             id="path897" />
          <path
             style="fill:#ffffff;fill-opacity:1;stroke-width:22.91086578"
             inkscape:connector-curvature="0"
             d="m 393.2,67.8 c -4.1,-4.1 -10.7,-4.1 -14.7,0 l -25.4,25.4 c -4.1,4.1 -4.1,10.7 0,14.7 4.1,4 10.7,4.1 14.7,0 l 25.4,-25.4 c 4.1,-4 4.1,-10.6 0,-14.7 z"
             id="path899" />
          <path
             style="fill:#ffffff;fill-opacity:1;stroke-width:22.91086578"
             inkscape:connector-curvature="0"
             d="m 297.6,440.9 h -83.2 c -5.8,0 -10.4,4.7 -10.4,10.4 0,5.8 4.7,10.4 10.4,10.4 h 83.2 c 5.8,0 10.4,-4.7 10.4,-10.4 0,-5.7 -4.7,-10.4 -10.4,-10.4 z"
             id="path901" />
          <path
             style="fill:#ffffff;fill-opacity:1;stroke-width:22.91086578"
             inkscape:connector-curvature="0"
             d="m 281.9,480.1 h -51.7 c -5.8,0 -10.4,4.7 -10.4,10.4 0,5.8 4.7,10.4 10.4,10.4 h 51.7 c 5.8,0 10.4,-4.7 10.4,-10.4 0,-5.7 -4.7,-10.4 -10.4,-10.4 z"
             id="path903" />
          <path
             style="fill:#ffffff;fill-opacity:1;stroke-width:22.91086578"
             inkscape:connector-curvature="0"
             d="m 256,67.7 c 5.8,0 10.4,-4.7 10.4,-10.4 V 21.4 C 266.4,15.6 261.7,11 256,11 c -5.7,0 -10.4,4.7 -10.4,10.4 v 35.9 c 0,5.8 4.6,10.4 10.4,10.4 z"
             id="path905" />
          <path
             style="fill:#ffffff;fill-opacity:1;stroke-width:22.91086578"
             inkscape:connector-curvature="0"
             d="m 158.9,108 c 4.1,-4.1 4.1,-10.7 0,-14.7 L 133.5,67.9 c -4.1,-4.1 -10.7,-4.1 -14.7,0 -4,4.1 -4.1,10.7 0,14.7 l 25.4,25.4 c 4.1,4 10.7,4 14.7,0 z"
             id="path907" />
          <path
             style="fill:#ffffff;fill-opacity:1;stroke-width:22.91086578"
             inkscape:connector-curvature="0"
             d="m 439.6,194.6 h -35.9 c -5.8,0 -10.4,4.7 -10.4,10.4 0,5.7 4.7,10.4 10.4,10.4 h 35.9 c 5.8,0 10.4,-4.7 10.4,-10.4 0,-5.7 -4.7,-10.4 -10.4,-10.4 z"
             id="path909" />
          <path
             style="fill:#ffffff;fill-opacity:1;stroke-width:22.91086578"
             inkscape:connector-curvature="0"
             d="M 108.3,194.6 H 72.4 c -5.8,0 -10.4,4.7 -10.4,10.4 0,5.7 4.7,10.4 10.4,10.4 h 35.9 c 5.8,0 10.4,-4.7 10.4,-10.4 0,-5.7 -4.6,-10.4 -10.4,-10.4 z"
             id="path911" />
        </g>
      </g>
    </g>
  </g>
</svg>
