<?xml version="1.0" encoding="utf-8"?>
<!-- Generator: Adobe Illustrator 23.1.0, SVG Export Plug-In . SVG Version: 6.00 Build 0)  -->
<svg version="1.1" id="Layer_1" xmlns="http://www.w3.org/2000/svg" xmlns:xlink="http://www.w3.org/1999/xlink" x="0px" y="0px"
	 viewBox="0 0 310.1 310.1" style="enable-background:new 0 0 310.1 310.1;" xml:space="preserve">
<style type="text/css">
	.st0{fill:#343F3E;}
</style>
<g>
	<polygon class="st0" points="103.9,243.8 66.3,206.3 66.3,143.7 166.4,243.8 	"/>
	<path class="st0" d="M303.8,6.4c0,0-112.3-0.3-199.9,87.3c-37.4,37.4-37.5,100.1-12.5,125.1s87.7,24.9,125.1-12.5
		C304,118.7,303.8,6.4,303.8,6.4z M178.9,106.2c0-13.8,11.2-25,25-25s25,11.2,25,25s-11.2,25-25,25S178.9,120,178.9,106.2z"/>
	<path class="st0" d="M201.6,202.2c0,0,9.5,47.3-9.5,66.3c-28.4,28.4-75.7,37.9-75.7,37.9l12.5-87.6L201.6,202.2z"/>
	<path class="st0" d="M107.9,108.6c0,0-47.3-9.5-66.3,9.5c-28.4,28.4-37.9,75.7-37.9,75.7l87.6-12.5L107.9,108.6z"/>
	<path class="st0" d="M85.6,248.1c-0.6,0.8-0.9,1.7-1.6,2.4c-12.2,12.2-30.5,6.1-30.5,6.1s-6.1-18.3,6.1-30.5
		c0.7-0.7,1.6-1.1,2.4-1.6l-5.7-5.7c-4.8,1.3-9.3,3.6-13,7.3c-17.1,17.1-14.4,55-14.4,55s37.7,2.9,55-14.4c3.7-3.7,6.1-8.2,7.3-13
		L85.6,248.1z"/>
</g>
</svg>
