<?xml version="1.0" encoding="UTF-8" standalone="no"?>
<!-- Created with Inkscape (http://www.inkscape.org/) -->

<svg
   xmlns:dc="http://purl.org/dc/elements/1.1/"
   xmlns:cc="http://creativecommons.org/ns#"
   xmlns:rdf="http://www.w3.org/1999/02/22-rdf-syntax-ns#"
   xmlns:svg="http://www.w3.org/2000/svg"
   xmlns="http://www.w3.org/2000/svg"
   xmlns:sodipodi="http://sodipodi.sourceforge.net/DTD/sodipodi-0.dtd"
   xmlns:inkscape="http://www.inkscape.org/namespaces/inkscape"
   width="25.665731mm"
   height="16.556894mm"
   viewBox="0 0 25.665731 16.556894"
   version="1.1"
   id="svg4411"
   inkscape:version="0.92.3 (2405546, 2018-03-11)"
   sodipodi:docname="refinement_3.svg">
  <defs
     id="defs4405" />
  <sodipodi:namedview
     id="base"
     pagecolor="#ffffff"
     bordercolor="#666666"
     borderopacity="1.0"
     inkscape:pageopacity="0.0"
     inkscape:pageshadow="2"
     inkscape:zoom="1.4"
     inkscape:cx="147.35174"
     inkscape:cy="-90.536894"
     inkscape:document-units="mm"
     inkscape:current-layer="layer1"
     showgrid="false"
     inkscape:window-width="1920"
     inkscape:window-height="1015"
     inkscape:window-x="0"
     inkscape:window-y="0"
     inkscape:window-maximized="1" />
  <metadata
     id="metadata4408">
    <rdf:RDF>
      <cc:Work
         rdf:about="">
        <dc:format>image/svg+xml</dc:format>
        <dc:type
           rdf:resource="http://purl.org/dc/dcmitype/StillImage" />
        <dc:title></dc:title>
      </cc:Work>
    </rdf:RDF>
  </metadata>
  <g
     inkscape:label="Camada 1"
     inkscape:groupmode="layer"
     id="layer1"
     transform="translate(284.97573,32.558209)">
    <g
       transform="matrix(0.35277777,0,0,0.35277777,-329.14209,-61.434833)"
       id="g924">
      <path
         inkscape:connector-curvature="0"
         id="path926"
         style="fill:#8f91a2;fill-opacity:1;fill-rule:nonzero;stroke:#ffffff;stroke-width:0.76879603;stroke-linecap:butt;stroke-linejoin:miter;stroke-miterlimit:4;stroke-dasharray:none;stroke-opacity:1"
         d="m 197.5,111.184 -10.43,17.191 c -20.394,-0.063 -40.793,0.074 -61.187,0.012 l 10.429,-17.391 -10.429,-17.051 c 20.394,0.063 40.762,-0.14 61.172,-0.082 z" />
    </g>
    <g
       transform="matrix(0.35277777,0,0,0.35277777,-329.14209,-61.434833)"
       id="g928">
      <path
         inkscape:connector-curvature="0"
         id="path930"
         style="fill:#ffffff;fill-opacity:1;fill-rule:nonzero;stroke:#8f91a2;stroke-width:0.75;stroke-linecap:butt;stroke-linejoin:miter;stroke-miterlimit:4;stroke-dasharray:none;stroke-opacity:1"
         d="m 172.637,93.293 c 0,6.109 -4.953,11.062 -11.063,11.062 -6.109,0 -11.062,-4.953 -11.062,-11.062 0,-6.109 4.953,-11.063 11.062,-11.063 6.11,0 11.063,4.954 11.063,11.063 z" />
    </g>
    <path
       inkscape:connector-curvature="0"
       id="path932"
       style="fill:#343f3e;fill-opacity:1;fill-rule:nonzero;stroke:none;stroke-width:0.35277775"
       d="m -271.60228,-27.190693 v 0.889 c 0,0.03845 -0.0152,0.07303 -0.0441,0.103364 -0.03,0.02893 -0.0646,0.0441 -0.10302,0.0441 h -0.889 c -0.0399,0 -0.0744,-0.01517 -0.10336,-0.0441 -0.0303,-0.03034 -0.0455,-0.06491 -0.0455,-0.103364 v -0.889 c 0,-0.03986 0.0152,-0.07444 0.0455,-0.103364 0.0289,-0.03034 0.0635,-0.0441 0.10336,-0.0441 h 0.889 c 0.0385,0 0.073,0.01376 0.10302,0.0441 0.0289,0.02893 0.0441,0.0635 0.0441,0.103364 z m 1.17016,-2.221442 c 0,0.133703 -0.0194,0.257881 -0.0579,0.375003 -0.0388,0.115711 -0.0815,0.20955 -0.12947,0.282575 -0.0483,0.07302 -0.11606,0.14605 -0.20426,0.220486 -0.0868,0.07444 -0.15839,0.128059 -0.21201,0.16122 -0.0536,0.03281 -0.12947,0.07726 -0.22614,0.13088 -0.10054,0.05644 -0.18591,0.136525 -0.25329,0.240948 -0.0677,0.103363 -0.10231,0.186266 -0.10231,0.248355 0,0.04127 -0.0148,0.08114 -0.0437,0.119592 -0.0293,0.03881 -0.0649,0.05786 -0.10336,0.05786 h -0.889 c -0.037,0 -0.0688,-0.02328 -0.0938,-0.06879 -0.0261,-0.04551 -0.0399,-0.09243 -0.0399,-0.138995 v -0.166864 c 0,-0.203905 0.0815,-0.398286 0.2413,-0.578908 0.15981,-0.181681 0.33761,-0.315383 0.52916,-0.402167 0.14605,-0.06632 0.24942,-0.135114 0.31115,-0.206727 0.0621,-0.07161 0.0924,-0.165453 0.0924,-0.281164 0,-0.103364 -0.0579,-0.195792 -0.17215,-0.274109 -0.1143,-0.07867 -0.24659,-0.118533 -0.39829,-0.118533 -0.15981,0 -0.29351,0.03563 -0.3997,0.107244 -0.0854,0.06209 -0.21766,0.203906 -0.39546,0.425803 -0.0332,0.04022 -0.0702,0.05927 -0.11571,0.05927 -0.0289,0 -0.0593,-0.0095 -0.0924,-0.03034 l -0.60607,-0.461433 c -0.0317,-0.02505 -0.0512,-0.05644 -0.0582,-0.09243 -0.005,-0.03704 10e-4,-0.07161 0.0208,-0.104775 0.39405,-0.655814 0.96731,-0.983897 1.71697,-0.983897 0.19861,0 0.39687,0.03881 0.5969,0.1143 0.19967,0.07726 0.38029,0.179211 0.5401,0.307269 0.15981,0.128411 0.29069,0.285397 0.39264,0.471311 0.10054,0.187678 0.1517,0.383117 0.1517,0.587022 z" />
    <text
       id="text938"
       style="font-variant:normal;font-weight:normal;font-size:3.17499995px;font-family:Roboto;-inkscape-font-specification:Roboto-Regular;writing-mode:lr-tb;fill:#ffffff;fill-opacity:1;fill-rule:nonzero;stroke:none;stroke-width:0.35277775"
       x="-276.14062"
       y="-21.722">
      <tspan
         style="stroke-width:0.35277775"
         id="tspan934"
         sodipodi:role="line"
         y="-21.722"
         x="-276.14062 -275.28018 -273.53076 -272.49573 -270.81613 -269.06671">Intent</tspan>
      <tspan
         style="stroke-width:0.35277775"
         id="tspan936"
         sodipodi:role="line"
         y="-17.75325"
         x="-281.25348 -279.18973 -277.37997">Con</tspan>
    </text>
    <text
       id="text942"
       style="font-variant:normal;font-weight:normal;font-size:3.17499995px;font-family:Roboto;-inkscape-font-specification:Roboto-Regular;writing-mode:lr-tb;fill:#ffffff;fill-opacity:1;fill-rule:nonzero;stroke:none;stroke-width:0.35277775"
       x="-275.63055"
       y="-17.75325">
      <tspan
         style="stroke-width:0.35277775"
         id="tspan940"
         y="-17.75325"
         x="-275.63055">ﬁ</tspan>
    </text>
    <text
       id="text946"
       style="font-variant:normal;font-weight:normal;font-size:3.17499995px;font-family:Roboto;-inkscape-font-specification:Roboto-Regular;writing-mode:lr-tb;fill:#ffffff;fill-opacity:1;fill-rule:nonzero;stroke:none;stroke-width:0.35277775"
       x="-273.87479"
       y="-17.75325">
      <tspan
         style="stroke-width:0.35277775"
         id="tspan944"
         sodipodi:role="line"
         y="-17.75325"
         x="-273.87479 -272.80164 -270.02032 -268.2963 -267.26126 -266.49292 -264.68317">rmation</tspan>
    </text>
  </g>
</svg>
