<?xml version="1.0" encoding="UTF-8" standalone="no"?>
<!-- Created with Inkscape (http://www.inkscape.org/) -->

<svg
   xmlns:dc="http://purl.org/dc/elements/1.1/"
   xmlns:cc="http://creativecommons.org/ns#"
   xmlns:rdf="http://www.w3.org/1999/02/22-rdf-syntax-ns#"
   xmlns:svg="http://www.w3.org/2000/svg"
   xmlns="http://www.w3.org/2000/svg"
   xmlns:sodipodi="http://sodipodi.sourceforge.net/DTD/sodipodi-0.dtd"
   xmlns:inkscape="http://www.inkscape.org/namespaces/inkscape"
   width="25.66717mm"
   height="16.556894mm"
   viewBox="0 0 25.66717 16.556894"
   version="1.1"
   id="svg5043"
   inkscape:version="0.92.3 (2405546, 2018-03-11)"
   sodipodi:docname="refinement_4.svg">
  <defs
     id="defs5037" />
  <sodipodi:namedview
     id="base"
     pagecolor="#ffffff"
     bordercolor="#666666"
     borderopacity="1.0"
     inkscape:pageopacity="0.0"
     inkscape:pageshadow="2"
     inkscape:zoom="1.979899"
     inkscape:cx="29.628655"
     inkscape:cy="-68.051153"
     inkscape:document-units="mm"
     inkscape:current-layer="layer1"
     showgrid="false"
     inkscape:window-width="1920"
     inkscape:window-height="1015"
     inkscape:window-x="0"
     inkscape:window-y="0"
     inkscape:window-maximized="1" />
  <metadata
     id="metadata5040">
    <rdf:RDF>
      <cc:Work
         rdf:about="">
        <dc:format>image/svg+xml</dc:format>
        <dc:type
           rdf:resource="http://purl.org/dc/dcmitype/StillImage" />
        <dc:title></dc:title>
      </cc:Work>
    </rdf:RDF>
  </metadata>
  <g
     inkscape:label="Camada 1"
     inkscape:groupmode="layer"
     id="layer1"
     transform="translate(284.22049,55.992733)">
    <g
       transform="matrix(0.35277777,0,0,0.35277777,-349.97225,-84.869357)"
       id="g908">
      <path
         inkscape:connector-curvature="0"
         id="path910"
         style="fill:#94b0da;fill-opacity:1;fill-rule:nonzero;stroke:#ffffff;stroke-width:0.76879603;stroke-linecap:butt;stroke-linejoin:miter;stroke-miterlimit:4;stroke-dasharray:none;stroke-opacity:1"
         d="m 258.691,111.184 -10.433,17.191 c -20.395,-0.063 -40.789,0.074 -61.188,0.012 L 197.5,110.996 187.07,93.945 c 20.399,0.063 40.762,-0.14 61.172,-0.082 z" />
    </g>
    <g
       transform="matrix(0.35277777,0,0,0.35277777,-349.97225,-84.869357)"
       id="g912">
      <path
         inkscape:connector-curvature="0"
         id="path914"
         style="fill:#ffffff;fill-opacity:1;fill-rule:nonzero;stroke:#94b0da;stroke-width:0.75;stroke-linecap:butt;stroke-linejoin:miter;stroke-miterlimit:4;stroke-dasharray:none;stroke-opacity:1"
         d="m 236.461,93.293 c 0,6.109 -4.953,11.062 -11.063,11.062 -6.109,0 -11.062,-4.953 -11.062,-11.062 0,-6.109 4.953,-11.063 11.062,-11.063 6.11,0 11.063,4.954 11.063,11.063 z" />
    </g>
    <path
       inkscape:connector-curvature="0"
       id="path916"
       style="fill:#343f3e;fill-opacity:1;fill-rule:nonzero;stroke:none;stroke-width:0.35277775"
       d="m -268.08795,-51.364992 v 0.506942 c 0,0.02363 -0.008,0.04269 -0.0247,0.05927 -0.0166,0.01658 -0.037,0.02469 -0.0593,0.02469 h -3.63819 v 0.508704 c 0,0.02187 -0.008,0.04269 -0.0261,0.05927 -0.0166,0.01658 -0.0356,0.02469 -0.0593,0.02469 -0.0204,0 -0.0413,-0.0081 -0.0632,-0.02611 l -0.84349,-0.846317 c -0.0152,-0.01517 -0.0233,-0.03563 -0.0233,-0.05785 0,-0.02469 0.008,-0.04551 0.0233,-0.06033 l 0.84596,-0.846314 c 0.0166,-0.01658 0.036,-0.02469 0.0607,-0.02469 0.0236,0 0.0427,0.0095 0.0593,0.02611 0.018,0.01658 0.0261,0.03598 0.0261,0.05927 v 0.506942 h 3.63819 c 0.0222,0 0.0427,0.0085 0.0593,0.02505 0.0166,0.01799 0.0247,0.03704 0.0247,0.06068 z m 0,-1.438628 c 0,0.02469 -0.008,0.04516 -0.0233,0.06032 l -0.84632,0.846314 c -0.0162,0.01658 -0.0356,0.02328 -0.0603,0.02328 -0.0236,0 -0.043,-0.0081 -0.0593,-0.02469 -0.018,-0.01658 -0.0265,-0.03598 -0.0265,-0.05927 v -0.507294 h -3.63786 c -0.0222,0 -0.0427,-0.0095 -0.0593,-0.02611 -0.0166,-0.01658 -0.0247,-0.03563 -0.0247,-0.05927 v -0.506942 c 0,-0.02363 0.008,-0.04269 0.0247,-0.05927 0.0166,-0.01799 0.037,-0.02611 0.0593,-0.02611 h 3.63785 v -0.507295 c 0,-0.02469 0.009,-0.04551 0.0251,-0.06068 0.0152,-0.01658 0.0356,-0.02328 0.0607,-0.02328 0.0204,0 0.0413,0.0081 0.0632,0.02611 l 0.84349,0.843491 c 0.0152,0.01517 0.0233,0.03563 0.0233,0.06068 z" />
    <text
       id="text922"
       style="font-variant:normal;font-weight:normal;font-size:3.17499995px;font-family:Roboto;-inkscape-font-specification:Roboto-Regular;writing-mode:lr-tb;fill:#ffffff;fill-opacity:1;fill-rule:nonzero;stroke:none;stroke-width:0.35277775"
       x="-279.93988"
       y="-45.094509">
      <tspan
         style="stroke-width:0.35277775"
         id="tspan918"
         sodipodi:role="line"
         y="-45.094509"
         x="-279.93988 -277.87613 -276.06638 -274.31696 -273.28192 -272.27228 -270.54825 -268.76071 -267.99237 -266.33185 -265.29678 -264.52841 -262.71869">Contradiction</tspan>
      <tspan
         style="stroke-width:0.35277775"
         id="tspan920"
         sodipodi:role="line"
         y="-41.125759"
         x="-277.19586 -275.11624 -273.43668 -272.40161 -270.72202 -269.06152 -268.02646 -267.25812 -265.44836">Detection</tspan>
    </text>
  </g>
</svg>
