<?xml version="1.0" encoding="UTF-8" standalone="no"?>
<!-- Created with Inkscape (http://www.inkscape.org/) -->

<svg
   xmlns:dc="http://purl.org/dc/elements/1.1/"
   xmlns:cc="http://creativecommons.org/ns#"
   xmlns:rdf="http://www.w3.org/1999/02/22-rdf-syntax-ns#"
   xmlns:svg="http://www.w3.org/2000/svg"
   xmlns="http://www.w3.org/2000/svg"
   xmlns:sodipodi="http://sodipodi.sourceforge.net/DTD/sodipodi-0.dtd"
   xmlns:inkscape="http://www.inkscape.org/namespaces/inkscape"
   width="25.667185mm"
   height="16.622498mm"
   viewBox="0 0 25.667185 16.622498"
   version="1.1"
   id="svg5670"
   inkscape:version="0.92.3 (2405546, 2018-03-11)"
   sodipodi:docname="refinement_5.svg">
  <defs
     id="defs5664" />
  <sodipodi:namedview
     id="base"
     pagecolor="#ffffff"
     bordercolor="#666666"
     borderopacity="1.0"
     inkscape:pageopacity="0.0"
     inkscape:pageshadow="2"
     inkscape:zoom="1.979899"
     inkscape:cx="102.93864"
     inkscape:cy="-57.808772"
     inkscape:document-units="mm"
     inkscape:current-layer="layer1"
     showgrid="false"
     inkscape:window-width="1920"
     inkscape:window-height="1015"
     inkscape:window-x="0"
     inkscape:window-y="0"
     inkscape:window-maximized="1" />
  <metadata
     id="metadata5667">
    <rdf:RDF>
      <cc:Work
         rdf:about="">
        <dc:format>image/svg+xml</dc:format>
        <dc:type
           rdf:resource="http://purl.org/dc/dcmitype/StillImage" />
        <dc:title></dc:title>
      </cc:Work>
    </rdf:RDF>
  </metadata>
  <g
     inkscape:label="Camada 1"
     inkscape:groupmode="layer"
     id="layer1"
     transform="translate(284.97645,71.144586)">
    <g
       transform="matrix(0.35277777,0,0,0.35277777,-372.31395,-100.02121)"
       id="g884">
      <path
         inkscape:connector-curvature="0"
         id="path886"
         style="fill:#8f91a2;fill-opacity:1;fill-rule:nonzero;stroke:#ffffff;stroke-width:0.76879603;stroke-linecap:butt;stroke-linejoin:miter;stroke-miterlimit:4;stroke-dasharray:none;stroke-opacity:1"
         d="m 319.879,111.371 -10.43,17.191 c -20.398,-0.062 -40.793,0.071 -61.191,0.012 l 10.433,-17.39 -10.433,-17.051 c 20.398,0.062 40.762,-0.145 61.176,-0.082 z" />
    </g>
    <g
       transform="matrix(0.35277777,0,0,0.35277777,-372.31395,-100.02121)"
       id="g888">
      <path
         inkscape:connector-curvature="0"
         id="path890"
         style="fill:#ffffff;fill-opacity:1;fill-rule:nonzero;stroke:#8f91a2;stroke-width:0.75;stroke-linecap:butt;stroke-linejoin:miter;stroke-miterlimit:4;stroke-dasharray:none;stroke-opacity:1"
         d="m 295.988,93.293 c 0,6.109 -4.953,11.062 -11.062,11.062 -6.11,0 -11.063,-4.953 -11.063,-11.062 0,-6.109 4.953,-11.063 11.063,-11.063 6.109,0 11.062,4.954 11.062,11.063 z" />
    </g>
    <path
       inkscape:connector-curvature="0"
       id="path892"
       style="fill:#343f3e;fill-opacity:1;fill-rule:nonzero;stroke:none;stroke-width:0.35277775"
       d="m -273.17918,-67.30918 1.58045,1.580445 h -0.98813 l -0.59232,-0.592667 z" />
    <path
       inkscape:connector-curvature="0"
       id="path894"
       style="fill:#343f3e;fill-opacity:1;fill-rule:nonzero;stroke:none;stroke-width:0.35277775"
       d="m -269.4295,-69.47841 c 0,0 -1.77377,-0.0042 -3.15736,1.37795 -0.5909,0.591255 -0.59232,1.582208 -0.19685,1.976261 0.39405,0.395464 1.38501,0.394053 1.97591,-0.197203 1.38218,-1.383594 1.3783,-3.157008 1.3783,-3.157008 z m -1.97203,1.576564 c 0,-0.219075 0.1778,-0.395464 0.39547,-0.395464 0.21907,0 0.39546,0.176389 0.39546,0.395464 0,0.217663 -0.17639,0.395463 -0.39546,0.395463 -0.21767,0 -0.39547,-0.1778 -0.39547,-0.395463 z" />
    <path
       inkscape:connector-curvature="0"
       id="path896"
       style="fill:#343f3e;fill-opacity:1;fill-rule:nonzero;stroke:none;stroke-width:0.35277775"
       d="m -271.04346,-66.384549 c 0,0 0.15028,0.74683 -0.14993,1.045633 -0.44803,0.449439 -1.19627,0.598311 -1.19627,0.598311 l 0.19826,-1.383594 z" />
    <path
       inkscape:connector-curvature="0"
       id="path898"
       style="fill:#343f3e;fill-opacity:1;fill-rule:nonzero;stroke:none;stroke-width:0.35277775"
       d="m -272.52336,-67.864805 c 0,0 -0.74683,-0.14993 -1.04599,0.150284 -0.44908,0.448027 -0.59795,1.196269 -0.59795,1.196269 l 1.38359,-0.198614 z" />
    <path
       inkscape:connector-curvature="0"
       id="path900"
       style="fill:#343f3e;fill-opacity:1;fill-rule:nonzero;stroke:none;stroke-width:0.35277775"
       d="m -272.87473,-65.661355 c -0.008,0.0127 -0.0138,0.02787 -0.0261,0.03881 -0.19155,0.192969 -0.48083,0.09631 -0.48083,0.09631 0,0 -0.0967,-0.289278 0.0963,-0.482247 0.0109,-0.01093 0.0261,-0.01658 0.0385,-0.02469 l -0.091,-0.09102 c -0.0741,0.0194 -0.14605,0.05786 -0.20532,0.115711 -0.26987,0.270228 -0.22578,0.869598 -0.22578,0.869598 0,0 0.59514,0.04692 0.86819,-0.227542 0.0593,-0.05786 0.0963,-0.12947 0.11712,-0.205317 z" />
    <text
       id="text906"
       style="font-variant:normal;font-weight:normal;font-size:3.17499995px;font-family:Roboto;-inkscape-font-specification:Roboto-Regular;writing-mode:lr-tb;fill:#ffffff;fill-opacity:1;fill-rule:nonzero;stroke:none;stroke-width:0.35277775"
       x="-275.93686"
       y="-60.631611">
      <tspan
         style="stroke-width:0.35277775"
         id="tspan902"
         sodipodi:role="line"
         y="-60.631611"
         x="-275.93686 -275.07645 -273.32703 -272.29196 -270.6124 -268.86298">Intent</tspan>
      <tspan
         style="stroke-width:0.35277775"
         id="tspan904"
         sodipodi:role="line"
         y="-56.662861"
         x="-280.30249 -278.22287 -276.5433 -274.76212 -273.99377 -272.21259 -270.71082 -267.92953 -266.24994 -264.50052">Deployment</tspan>
    </text>
  </g>
</svg>
