<?xml version="1.0" encoding="utf-8"?>
<!-- Generator: Adobe Illustrator 23.1.0, SVG Export Plug-In . SVG Version: 6.00 Build 0)  -->
<svg version="1.1" id="Layer_1" xmlns="http://www.w3.org/2000/svg" xmlns:xlink="http://www.w3.org/1999/xlink" x="0px" y="0px"
	 viewBox="0 0 177.98 173.56" style="enable-background:new 0 0 177.98 173.56;" xml:space="preserve">
<style type="text/css">
	.st0{fill:none;stroke:#000000;stroke-width:0.75;}
	.st1{fill:none;stroke:#000000;stroke-width:0.744;}
	.st2{fill:#DCDEDC;}
	.st3{fill:#343F3E;}
	.st4{font-family:'Roboto-Regular';}
	.st5{font-size:8px;}
	.st6{opacity:0.94;enable-background:new    ;}
	.st7{clip-path:url(#SVGID_2_);}
	.st8{opacity:0.94;fill:#343F3E;enable-background:new    ;}
	.st9{font-family:'Roboto-Bold';}
	.st10{clip-path:url(#SVGID_4_);}
	.st11{clip-path:url(#SVGID_6_);}
	.st12{letter-spacing:69;}
	.st13{fill:none;}
</style>
<line class="st0" x1="92.94" y1="14.28" x2="92.94" y2="2.94"/>
<line class="st0" x1="60.79" y1="59.77" x2="81.09" y2="39.47"/>
<line class="st0" x1="125.09" y1="59.77" x2="104.8" y2="39.47"/>
<line class="st1" x1="75.25" y1="104.18" x2="61.55" y2="80.43"/>
<line class="st0" x1="24.38" y1="104.18" x2="38.08" y2="80.43"/>
<path class="st2" d="M108.29,29.62c0,8.47-6.87,15.34-15.34,15.34s-15.34-6.87-15.34-15.34c0-8.48,6.87-15.34,15.34-15.34
	C101.42,14.28,108.29,21.15,108.29,29.62z"/>
<g>
	<path class="st3" d="M96.97,24.02c-0.03-0.07-0.1-0.12-0.18-0.12h-2.11v-4.81c0-0.11-0.09-0.19-0.19-0.19h-3.08
		c-0.1,0-0.19,0.09-0.19,0.19v4.81H89.1c-0.08,0-0.15,0.05-0.18,0.12c-0.03,0.07-0.01,0.16,0.04,0.21l3.84,3.86
		c0.03,0.03,0.09,0.05,0.14,0.05s0.1-0.02,0.14-0.05l3.85-3.86C96.98,24.18,97,24.1,96.97,24.02z"/>
	<path class="st3" d="M96.97,35.22c-0.03,0.07-0.1,0.12-0.18,0.12h-2.11v4.81c0,0.11-0.09,0.2-0.19,0.2h-3.08
		c-0.1,0-0.19-0.09-0.19-0.2v-4.81H89.1c-0.08,0-0.15-0.05-0.18-0.12s-0.01-0.16,0.04-0.21l3.84-3.86c0.03-0.04,0.09-0.05,0.14-0.05
		s0.1,0.02,0.14,0.05l3.85,3.86C96.98,35.07,97,35.15,96.97,35.22z"/>
	<path class="st3" d="M99.44,33.71c-0.07-0.03-0.12-0.1-0.12-0.18v-2.11h-4.81c-0.11,0-0.2-0.09-0.2-0.19v-3.08
		c0-0.11,0.09-0.19,0.2-0.19h4.81v-2.12c0-0.08,0.05-0.15,0.12-0.18s0.16-0.01,0.21,0.04l3.85,3.84c0.04,0.04,0.06,0.09,0.06,0.14
		s-0.02,0.1-0.05,0.14l-3.86,3.85C99.6,33.72,99.52,33.74,99.44,33.71z"/>
	<path class="st3" d="M86.44,33.71c0.07-0.03,0.12-0.1,0.12-0.18v-2.11h4.82c0.11,0,0.19-0.09,0.19-0.19v-3.08
		c0-0.11-0.09-0.19-0.19-0.19h-4.82v-2.12c0-0.08-0.05-0.15-0.12-0.18s-0.16-0.01-0.21,0.04l-3.85,3.84
		c-0.04,0.04-0.06,0.09-0.06,0.14s0.02,0.1,0.06,0.14l3.85,3.85C86.29,33.72,86.37,33.74,86.44,33.71z"/>
</g>
<path class="st2" d="M65.31,70.57c0,8.47-6.87,15.34-15.34,15.34s-15.34-6.87-15.34-15.34s6.87-15.34,15.34-15.34
	S65.31,62.1,65.31,70.57z"/>
<g>
	<path class="st3" d="M53.99,64.98c-0.03-0.07-0.1-0.12-0.18-0.12H51.7v-4.81c0-0.11-0.09-0.19-0.19-0.19h-3.08
		c-0.11,0-0.19,0.09-0.19,0.19v4.81h-2.12c-0.08,0-0.15,0.05-0.18,0.12s-0.01,0.16,0.04,0.21l3.84,3.85
		c0.03,0.04,0.09,0.06,0.14,0.06s0.1-0.02,0.14-0.06l3.85-3.85C54,65.13,54.02,65.05,53.99,64.98z"/>
	<path class="st3" d="M53.99,76.17c-0.03,0.07-0.1,0.12-0.18,0.12H51.7v4.81c0,0.11-0.09,0.19-0.19,0.19h-3.08
		c-0.11,0-0.19-0.09-0.19-0.19v-4.81h-2.12c-0.08,0-0.15-0.05-0.18-0.12s-0.01-0.16,0.04-0.21l3.84-3.86
		c0.03-0.04,0.09-0.05,0.14-0.05s0.1,0.02,0.14,0.05l3.85,3.86C54,76.02,54.02,76.1,53.99,76.17z"/>
	<path class="st3" d="M56.47,74.66c-0.07-0.03-0.12-0.1-0.12-0.18v-2.11h-4.81c-0.1,0-0.19-0.09-0.19-0.19V69.1
		c0-0.11,0.09-0.19,0.19-0.19h4.81v-2.12c0-0.08,0.05-0.15,0.12-0.18s0.15-0.01,0.21,0.04l3.85,3.84c0.03,0.04,0.06,0.09,0.06,0.14
		s-0.02,0.1-0.06,0.14l-3.85,3.85C56.62,74.67,56.53,74.69,56.47,74.66z"/>
	<path class="st3" d="M43.46,74.66c0.07-0.03,0.12-0.1,0.12-0.18v-2.11h4.81c0.11,0,0.19-0.09,0.19-0.19V69.1
		c0-0.11-0.09-0.19-0.19-0.19h-4.81v-2.12c0-0.08-0.05-0.15-0.12-0.18s-0.16-0.01-0.21,0.04l-3.85,3.84
		c-0.04,0.04-0.06,0.09-0.06,0.14s0.02,0.1,0.06,0.14l3.85,3.85C43.31,74.67,43.39,74.69,43.46,74.66z"/>
</g>
<line class="st0" x1="160.77" y1="104.64" x2="146.12" y2="79.29"/>
<line class="st0" x1="109.9" y1="104.64" x2="124.38" y2="79.58"/>
<line class="st1" x1="76.06" y1="145.68" x2="76.06" y2="129.85"/>
<text transform="matrix(1 0 0 1 77.3774 51.1778)" class="st3 st4 st5">Gatew</text>
<text transform="matrix(1 0 0 1 100.0374 51.1778)" class="st3 st4 st5">a</text>
<text transform="matrix(1 0 0 1 104.3474 51.1778)" class="st3 st4 st5">y</text>
<text transform="matrix(6.123234e-17 -1 1 6.123234e-17 61.693 130.2305)" class="st3 st4 st5">Se</text>
<text transform="matrix(6.123234e-17 -1 1 6.123234e-17 61.693 121.25)" class="st3 st4 st5">r</text>
<text transform="matrix(6.123234e-17 -1 1 6.123234e-17 61.693 118.4707)" class="st3 st4 st5">v</text>
<text transform="matrix(6.123234e-17 -1 1 6.123234e-17 61.693 114.6504)" class="st3 st4 st5">ers</text>
<text transform="matrix(6.123234e-17 -1 1 6.123234e-17 9.5847 125.7158)" class="st3 st4 st5">Labs</text>
<text transform="matrix(6.123234e-17 -1 1 6.123234e-17 147.8403 128.9033)" class="st3 st4 st5">Dorms</text>
<polygon class="st2" points="64.9,164.25 64.9,151.32 76.06,144.85 87.22,151.32 87.22,164.25 76.06,170.72 "/>
<g class="st6">
	<g>
		<g>
			<defs>
				<rect id="SVGID_1_" width="178" height="174"/>
			</defs>
			<clipPath id="SVGID_2_">
				<use xlink:href="#SVGID_1_"  style="overflow:visible;"/>
			</clipPath>
			<g class="st7">
				<text transform="matrix(1 0 0 1 69.687 160.6296)" class="st8 st9 st5">I</text>
			</g>
		</g>
	</g>
</g>
<g class="st6">
	<g>
		<g>
			<defs>
				<rect id="SVGID_3_" width="178" height="174"/>
			</defs>
			<clipPath id="SVGID_4_">
				<use xlink:href="#SVGID_3_"  style="overflow:visible;"/>
			</clipPath>
			<g class="st10">
				<text transform="matrix(1 0 0 1 72.0151 160.6296)" class="st8 st9 st5">D</text>
			</g>
		</g>
	</g>
</g>
<g class="st6">
	<g>
		<g>
			<defs>
				<rect id="SVGID_5_" width="178" height="174"/>
			</defs>
			<clipPath id="SVGID_6_">
				<use xlink:href="#SVGID_5_"  style="overflow:visible;"/>
			</clipPath>
			<g class="st11">
				<text transform="matrix(1 0 0 1 77.2183 160.6296)" class="st8 st9 st5">S</text>
			</g>
		</g>
	</g>
</g>
<rect x="149.33" y="104.04" class="st2" width="25.82" height="25.82"/>
<g>
	<path class="st3" d="M167.01,115.06c-0.07-0.03-0.12-0.1-0.12-0.18v-2.11h-4.82c-0.1,0-0.19-0.09-0.19-0.19v-3.08
		c0-0.11,0.09-0.19,0.19-0.19h4.82v-2.12c0-0.08,0.05-0.15,0.12-0.18c0.07-0.03,0.16-0.02,0.21,0.04l3.85,3.84
		c0.03,0.04,0.06,0.08,0.06,0.13c0,0.06-0.02,0.1-0.06,0.14l-3.85,3.85C167.17,115.07,167.08,115.09,167.01,115.06z"/>
	<path class="st3" d="M167.01,123.13c-0.07-0.03-0.12-0.1-0.12-0.18v-2.11h-4.82c-0.1,0-0.19-0.09-0.19-0.2v-3.08
		c0-0.11,0.09-0.19,0.19-0.19h4.82v-2.12c0-0.08,0.05-0.15,0.12-0.18c0.07-0.03,0.16-0.02,0.21,0.04l3.85,3.84
		c0.03,0.03,0.06,0.08,0.06,0.14c0,0.05-0.02,0.1-0.06,0.13l-3.85,3.86C167.17,123.15,167.08,123.16,167.01,123.13z"/>
	<path class="st3" d="M157.46,119.06c0.07-0.03,0.12-0.1,0.12-0.18v-2.11h4.81c0.1,0,0.19-0.08,0.19-0.19v-3.08
		c0-0.11-0.09-0.19-0.19-0.19h-4.81v-2.12c0-0.08-0.05-0.15-0.12-0.18c-0.07-0.03-0.15-0.02-0.21,0.04l-3.86,3.84
		c-0.03,0.04-0.06,0.08-0.06,0.14c0,0.05,0.02,0.1,0.06,0.13l3.85,3.86C157.31,119.07,157.39,119.09,157.46,119.06z"/>
	<path class="st3" d="M157.46,126.88c0.07-0.03,0.12-0.1,0.12-0.18v-2.11h4.81c0.1,0,0.19-0.09,0.19-0.19v-3.08
		c0-0.11-0.09-0.19-0.19-0.19h-4.81v-2.12c0-0.08-0.05-0.15-0.12-0.18c-0.07-0.03-0.15-0.01-0.21,0.04l-3.86,3.84
		c-0.03,0.04-0.06,0.09-0.06,0.14s0.02,0.1,0.06,0.14l3.85,3.85C157.31,126.89,157.39,126.91,157.46,126.88z"/>
</g>
<rect x="97.13" y="104.04" class="st2" width="25.82" height="25.82"/>
<g>
	<path class="st3" d="M114.82,115.06c-0.07-0.03-0.12-0.1-0.12-0.18v-2.11h-4.81c-0.11,0-0.19-0.09-0.19-0.19v-3.08
		c0-0.11,0.09-0.19,0.19-0.19h4.81v-2.12c0-0.08,0.05-0.15,0.12-0.18s0.15-0.02,0.21,0.04l3.86,3.84c0.04,0.04,0.06,0.08,0.06,0.13
		c0,0.06-0.02,0.1-0.06,0.14l-3.85,3.85C114.97,115.07,114.89,115.09,114.82,115.06z"/>
	<path class="st3" d="M114.82,123.13c-0.07-0.03-0.12-0.1-0.12-0.18v-2.11h-4.81c-0.11,0-0.19-0.09-0.19-0.2v-3.08
		c0-0.11,0.09-0.19,0.19-0.19h4.81v-2.12c0-0.08,0.05-0.15,0.12-0.18s0.15-0.02,0.21,0.04l3.86,3.84c0.04,0.03,0.06,0.08,0.06,0.14
		c0,0.05-0.02,0.1-0.06,0.13l-3.85,3.86C114.97,123.15,114.89,123.16,114.82,123.13z"/>
	<path class="st3" d="M105.27,119.06c0.07-0.03,0.12-0.1,0.12-0.18v-2.11h4.82c0.11,0,0.19-0.08,0.19-0.19v-3.08
		c0-0.11-0.09-0.19-0.19-0.19h-4.82v-2.12c0-0.08-0.05-0.15-0.12-0.18s-0.16-0.02-0.21,0.04l-3.85,3.84
		c-0.04,0.04-0.06,0.08-0.06,0.14c0,0.05,0.02,0.1,0.06,0.13l3.85,3.86C105.11,119.07,105.19,119.09,105.27,119.06z"/>
	<path class="st3" d="M105.27,126.88c0.07-0.03,0.12-0.1,0.12-0.18v-2.11h4.82c0.11,0,0.19-0.09,0.19-0.19v-3.08
		c0-0.11-0.09-0.19-0.19-0.19h-4.82v-2.12c0-0.08-0.05-0.15-0.12-0.18s-0.16-0.01-0.21,0.04l-3.85,3.84
		c-0.04,0.04-0.06,0.09-0.06,0.14s0.02,0.1,0.06,0.14l3.85,3.85C105.11,126.89,105.19,126.91,105.27,126.88z"/>
</g>
<rect x="63.15" y="104.04" class="st2" width="25.82" height="25.82"/>
<g>
	<path class="st3" d="M80.84,115.06c-0.07-0.03-0.12-0.1-0.12-0.18v-2.11H75.9c-0.11,0-0.19-0.09-0.19-0.19v-3.08
		c0-0.11,0.09-0.19,0.19-0.19h4.81v-2.12c0-0.08,0.05-0.15,0.12-0.18s0.15-0.02,0.21,0.04l3.86,3.84c0.04,0.04,0.06,0.08,0.06,0.13
		c0,0.06-0.02,0.1-0.06,0.14l-3.85,3.85C80.99,115.07,80.91,115.09,80.84,115.06z"/>
	<path class="st3" d="M80.84,123.13c-0.07-0.03-0.12-0.1-0.12-0.18v-2.11H75.9c-0.11,0-0.19-0.09-0.19-0.2v-3.08
		c0-0.11,0.09-0.19,0.19-0.19h4.81v-2.12c0-0.08,0.05-0.15,0.12-0.18s0.15-0.02,0.21,0.04l3.86,3.84c0.04,0.03,0.06,0.08,0.06,0.14
		c0,0.05-0.02,0.1-0.06,0.13l-3.85,3.86C80.99,123.15,80.91,123.16,80.84,123.13z"/>
	<path class="st3" d="M71.29,119.06c0.07-0.03,0.12-0.1,0.12-0.18v-2.11h4.82c0.1,0,0.19-0.08,0.19-0.19v-3.08
		c0-0.11-0.09-0.19-0.19-0.19H71.4v-2.12c0-0.08-0.05-0.15-0.12-0.18s-0.16-0.02-0.21,0.04l-3.85,3.84
		c-0.03,0.04-0.06,0.08-0.06,0.14c0,0.05,0.02,0.1,0.06,0.13l3.85,3.86C71.13,119.07,71.21,119.09,71.29,119.06z"/>
	<path class="st3" d="M71.29,126.88c0.07-0.03,0.12-0.1,0.12-0.18v-2.11h4.82c0.1,0,0.19-0.09,0.19-0.19v-3.08
		c0-0.11-0.09-0.19-0.19-0.19H71.4v-2.12c0-0.08-0.05-0.15-0.12-0.18s-0.16-0.01-0.21,0.04l-3.85,3.84
		c-0.03,0.04-0.06,0.09-0.06,0.14s0.02,0.1,0.06,0.14l3.85,3.85C71.13,126.89,71.21,126.91,71.29,126.88z"/>
</g>
<rect x="10.96" y="104.04" class="st2" width="25.81" height="25.82"/>
<g>
	<path class="st3" d="M28.64,115.06c-0.08-0.03-0.12-0.1-0.12-0.18v-2.11h-4.81c-0.11,0-0.19-0.09-0.19-0.19v-3.08
		c0-0.11,0.09-0.19,0.19-0.19h4.81v-2.12c0-0.08,0.05-0.15,0.12-0.18c0.07-0.03,0.15-0.02,0.21,0.04l3.85,3.84
		c0.03,0.04,0.06,0.08,0.06,0.13c0,0.06-0.02,0.1-0.06,0.14l-3.85,3.85C28.79,115.07,28.71,115.09,28.64,115.06z"/>
	<path class="st3" d="M28.64,123.13c-0.08-0.03-0.12-0.1-0.12-0.18v-2.11h-4.81c-0.11,0-0.19-0.09-0.19-0.2v-3.08
		c0-0.11,0.09-0.19,0.19-0.19h4.81v-2.12c0-0.08,0.05-0.15,0.12-0.18c0.07-0.03,0.15-0.02,0.21,0.04l3.85,3.84
		c0.03,0.03,0.06,0.08,0.06,0.14c0,0.05-0.02,0.1-0.06,0.13l-3.85,3.86C28.79,123.15,28.71,123.16,28.64,123.13z"/>
	<path class="st3" d="M19.09,119.06c0.07-0.03,0.12-0.1,0.12-0.18v-2.11h4.81c0.11,0,0.19-0.08,0.19-0.19v-3.08
		c0-0.11-0.09-0.19-0.19-0.19h-4.81v-2.12c0-0.08-0.05-0.15-0.12-0.18c-0.07-0.03-0.16-0.02-0.21,0.04l-3.85,3.84
		c-0.04,0.04-0.06,0.08-0.06,0.14c0,0.05,0.02,0.1,0.05,0.13l3.86,3.86C18.93,119.07,19.02,119.09,19.09,119.06z"/>
	<path class="st3" d="M19.09,126.88c0.07-0.03,0.12-0.1,0.12-0.18v-2.11h4.81c0.11,0,0.19-0.09,0.19-0.19v-3.08
		c0-0.11-0.09-0.19-0.19-0.19h-4.81v-2.12c0-0.08-0.05-0.15-0.12-0.18c-0.07-0.03-0.16-0.01-0.21,0.04l-3.85,3.84
		c-0.04,0.04-0.06,0.09-0.06,0.14s0.02,0.1,0.05,0.14l3.86,3.85C18.93,126.89,19.02,126.91,19.09,126.88z"/>
</g>
<path class="st2" d="M150.68,70.57c0,8.47-6.87,15.34-15.34,15.34S120,79.04,120,70.57s6.87-15.34,15.34-15.34
	S150.68,62.1,150.68,70.57z"/>
<g>
	<path class="st3" d="M139.36,64.98c-0.03-0.07-0.1-0.12-0.18-0.12h-2.11v-4.81c0-0.11-0.09-0.19-0.19-0.19h-3.08
		c-0.11,0-0.19,0.09-0.19,0.19v4.81h-2.12c-0.08,0-0.15,0.05-0.18,0.12s-0.01,0.16,0.04,0.21l3.84,3.85
		c0.04,0.04,0.09,0.06,0.14,0.06s0.1-0.02,0.14-0.06l3.85-3.85C139.37,65.13,139.39,65.05,139.36,64.98z"/>
	<path class="st3" d="M139.36,76.17c-0.03,0.07-0.1,0.12-0.18,0.12h-2.11v4.81c0,0.11-0.09,0.19-0.19,0.19h-3.08
		c-0.11,0-0.19-0.09-0.19-0.19v-4.81h-2.12c-0.08,0-0.15-0.05-0.18-0.12s-0.01-0.16,0.04-0.21l3.84-3.86
		c0.04-0.04,0.09-0.05,0.14-0.05s0.1,0.02,0.14,0.05l3.85,3.86C139.37,76.02,139.39,76.1,139.36,76.17z"/>
	<path class="st3" d="M141.84,74.66c-0.07-0.03-0.12-0.1-0.12-0.18v-2.11h-4.81c-0.11,0-0.2-0.09-0.2-0.19V69.1
		c0-0.11,0.09-0.19,0.2-0.19h4.81v-2.12c0-0.08,0.05-0.15,0.12-0.18c0.07-0.03,0.16-0.01,0.21,0.04l3.85,3.84
		c0.04,0.04,0.06,0.09,0.06,0.14s-0.02,0.1-0.06,0.14l-3.85,3.85C141.99,74.67,141.91,74.69,141.84,74.66z"/>
	<path class="st3" d="M128.83,74.66c0.07-0.03,0.12-0.1,0.12-0.18v-2.11h4.82c0.1,0,0.19-0.09,0.19-0.19V69.1
		c0-0.11-0.09-0.19-0.19-0.19h-4.82v-2.12c0-0.08-0.05-0.15-0.12-0.18c-0.07-0.03-0.16-0.01-0.21,0.04l-3.85,3.84
		c-0.04,0.04-0.06,0.09-0.06,0.14s0.02,0.1,0.06,0.14l3.85,3.85C128.68,74.67,128.76,74.69,128.83,74.66z"/>
</g>
<text transform="matrix(1 0 0 1 41.2764 92.606)" class="st3 st4 st5">DM</text>
<text transform="matrix(1 0 0 1 53.5064 92.606)" class="st3 st4 st5 st12">Z</text>
<text transform="matrix(1 0 0 1 127.6764 92.606)" class="st3 st4 st5">L</text>
<text transform="matrix(1 0 0 1 132.0564 92.606)" class="st3 st4 st5">AN</text>
<line class="st13" x1="71.64" y1="94.42" x2="77.91" y2="88.14"/>
</svg>
