<?xml version="1.0" encoding="utf-8"?>
<!-- Generator: Adobe Illustrator 23.1.0, SVG Export Plug-In . SVG Version: 6.00 Build 0)  -->
<svg version="1.1" id="Layer_1" xmlns="http://www.w3.org/2000/svg" xmlns:xlink="http://www.w3.org/1999/xlink" x="0px" y="0px"
	 viewBox="0 0 202.5 224.8" style="enable-background:new 0 0 202.5 224.8;" xml:space="preserve">
<style type="text/css">
	.st0{fill:none;stroke:#000000;stroke-width:0.7512;stroke-miterlimit:11.3386;}
	.st1{fill:none;stroke:#000000;stroke-width:0.5;}
	.st2{fill:none;stroke:#000000;stroke-width:0.75;}
	.st3{fill:none;stroke:#000000;stroke-width:0.744;}
	.st4{fill:#DCDEDC;}
	.st5{fill:#343F3E;}
	.st6{fill:none;}
	.st7{clip-path:url(#SVGID_2_);}
	.st8{clip-path:url(#SVGID_4_);}
	.st9{font-family:'Roboto-Regular';}
	.st10{font-size:9px;}
	.st11{font-family:'Roboto-Bold';}
	.st12{fill:none;stroke:#DA9E94;stroke-width:3;stroke-miterlimit:11.3386;stroke-dasharray:3,3;}
	.st13{fill:#DA9E94;}
	.st14{fill:#A0A0A0;stroke:#000000;stroke-width:0.5;}
	.st15{fill:#282828;}
	.st16{fill:#FFFFFF;}
	.st17{fill-opacity:0.302;}
	.st18{stroke:#000000;stroke-width:0.5;}
	.st19{fill:none;stroke:#DA9E94;stroke-width:3;stroke-dasharray:3,3;}
</style>
<symbol  id="cloud" viewBox="-43 -22.4 86.1 44.9">
	<g id="layer1_1_" transform="translate(-54.754156,-85.921738)">
		<path id="path10_1_" class="st0" d="M55.4,107.8c5.2,0.9,10.9-1.3,14-5.4c0.7-0.7,1-1.6,1.6-2.5c0.2-0.3,0.7-0.3,1.1-0.3
			c3.8-0.2,7.4-2,9.9-4.8c0.2-0.3,0.6-0.6,1-0.5c2.2,0,4.3-0.5,6.2-1.4c3.3-1.5,5.9-4.3,7.2-7.5c1.1-2.8,1.3-5.9,0.5-8.7
			c-0.8-3-2.8-5.8-5.4-7.6c-3.1-2.2-7.1-3.1-10.8-2.4c-0.4,0.1-0.9,0.1-1.3-0.1c-3.6-1.7-8-1.9-11.7-0.3c-0.9,0.3-1.7,0.9-2.6,1.3
			c-0.4,0.3-0.8-0.1-1.2-0.3c-2.7-2.3-6.4-3.5-10-3.4c-3.3,0.1-6.4,1.4-8.9,3.5c-0.3,0.4-0.9,0.2-1.3,0.1c-2.4-0.6-4.9-0.7-7.3-0.1
			c-0.4,0.1-0.7,0.2-1.1,0.3c-0.4-0.1-0.7-0.4-1-0.6c-2.5-1.6-5.5-2.4-8.4-2.3c-3.4,0.1-6.8,1.4-9.3,3.7c-2.7,2.4-4.3,5.8-4.5,9.3
			c-0.2,2.9,0.6,5.9,2.2,8.4c2,3,5.2,5.2,8.8,6c0.3,0.1,0.6,0.1,0.8,0.3c0.2,0.3,0.2,0.6,0.3,0.9c0.8,3.8,3.4,7.3,6.9,9.2
			c3.8,2.2,8.6,2.4,12.6,0.8c0.9-0.3,1.7-0.9,2.6-1.2c0.5,0,0.8,0.5,1.1,0.8C49.1,105.6,52.1,107.3,55.4,107.8L55.4,107.8z"/>
	</g>
</symbol>
<line class="st1" x1="34.6" y1="173.9" x2="21.1" y2="194.5"/>
<line class="st1" x1="47.5" y1="173.9" x2="61" y2="194.5"/>
<g>
	<line class="st2" x1="151.4" y1="104" x2="127.5" y2="80"/>
	<line class="st2" x1="76.7" y1="104" x2="100.6" y2="80"/>
</g>
<line class="st2" x1="114.2" y1="58.8" x2="114.2" y2="47.5"/>
<line class="st3" x1="92.5" y1="148.7" x2="78.8" y2="125"/>
<line class="st2" x1="41.7" y1="148.7" x2="55.4" y2="125"/>
<g>
	<path class="st4" d="M129.4,74.2c0,8.5-6.9,15.3-15.3,15.3s-15.4-6.9-15.4-15.3c0-8.5,6.9-15.3,15.3-15.3
		C122.4,58.9,129.4,65.7,129.4,74.2z"/>
	<g>
		<path class="st5" d="M118.1,68.6c0-0.1-0.1-0.1-0.2-0.1h-2.1v-4.8c0-0.1-0.1-0.2-0.2-0.2h-3.1c-0.1,0-0.2,0.1-0.2,0.2v4.8h-2.1
			c-0.1,0-0.2,0-0.2,0.1s0,0.2,0,0.2l3.8,3.9l0.1,0.1c0,0,0.1,0,0.1-0.1l3.8-3.9C118.1,68.7,118.1,68.6,118.1,68.6z"/>
		<path class="st5" d="M118.1,79.8c0,0.1-0.1,0.1-0.2,0.1h-2.1v4.8c0,0.1-0.1,0.2-0.2,0.2h-3.1c-0.1,0-0.2-0.1-0.2-0.2v-4.8h-2.1
			c-0.1,0-0.2,0-0.2-0.1s0-0.2,0-0.2l3.8-3.9l0.1-0.1c0,0,0.1,0,0.1,0.1l3.8,3.9C118.1,79.6,118.1,79.7,118.1,79.8z"/>
		<path class="st5" d="M120.5,78.2c-0.1,0-0.1-0.1-0.1-0.2v-2.1h-4.8c-0.1,0-0.2-0.1-0.2-0.2v-3.1c0-0.1,0.1-0.2,0.2-0.2h4.8v-2.1
			c0-0.1,0.1-0.2,0.1-0.2h0.2l3.8,3.8l0.1,0.1c0,0.1,0,0.1-0.1,0.1l-3.9,3.8C120.7,78.3,120.6,78.3,120.5,78.2z"/>
		<path class="st5" d="M107.5,78.2c0.1,0,0.1-0.1,0.1-0.2v-2.1h4.8c0.1,0,0.2-0.1,0.2-0.2v-3.1c0-0.1-0.1-0.2-0.2-0.2h-4.8v-2.1
			c0-0.1-0.1-0.2-0.1-0.2h-0.2l-3.8,3.8l-0.1,0.1c0,0.1,0,0.1,0.1,0.1l3.8,3.8C107.4,78.3,107.5,78.3,107.5,78.2z"/>
	</g>
</g>
<line class="st2" x1="186.1" y1="149.2" x2="171.4" y2="123.8"/>
<line class="st2" x1="135.2" y1="149.2" x2="149.7" y2="124.1"/>
<line class="st3" x1="93.3" y1="190.2" x2="93.3" y2="174.4"/>
<polygon class="st4" points="82.1,208.8 82.1,195.9 93.2,189.4 104.4,195.9 104.4,208.8 93.2,215.3 "/>
<g>
	<rect x="174.6" y="148.6" class="st4" width="25.8" height="25.8"/>
	<g>
		<path class="st5" d="M192.3,159.6c-0.1,0-0.1-0.1-0.1-0.2v-2.1h-4.8c-0.1,0-0.2-0.1-0.2-0.2V154c0-0.1,0.1-0.2,0.2-0.2h4.8v-2.1
			c0-0.1,0.1-0.1,0.1-0.2c0.1,0,0.2,0,0.2,0l3.9,3.8l0.1,0.1c0,0.1,0,0.1-0.1,0.1l-3.9,3.8C192.5,159.6,192.4,159.6,192.3,159.6z"/>
		<path class="st5" d="M192.3,167.7c-0.1,0-0.1-0.1-0.1-0.2v-2.1h-4.8c-0.1,0-0.2-0.1-0.2-0.2v-3.1c0-0.1,0.1-0.2,0.2-0.2h4.8v-2.1
			c0-0.1,0.1-0.2,0.1-0.2c0.1,0,0.2,0,0.2,0l3.9,3.8l0.1,0.1c0,0.1,0,0.1-0.1,0.1l-3.9,3.9C192.5,167.7,192.4,167.7,192.3,167.7z"/>
		<path class="st5" d="M182.7,163.6c0.1,0,0.1-0.1,0.1-0.2v-2.1h4.8c0.1,0,0.2-0.1,0.2-0.2V158c0-0.1-0.1-0.2-0.2-0.2h-4.8v-2.1
			c0-0.1-0.1-0.1-0.1-0.2c-0.1,0-0.1,0-0.2,0l-3.9,3.8l-0.1,0.1c0,0.1,0,0.1,0.1,0.1l3.9,3.9C182.6,163.6,182.7,163.6,182.7,163.6z"
			/>
		<path class="st5" d="M182.7,171.4c0.1,0,0.1-0.1,0.1-0.2v-2.1h4.8c0.1,0,0.2-0.1,0.2-0.2v-3.1c0-0.1-0.1-0.2-0.2-0.2h-4.8v-2.1
			c0-0.1-0.1-0.2-0.1-0.2c-0.1,0-0.1,0-0.2,0l-3.9,3.8l-0.1,0.1c0,0,0,0.1,0.1,0.1l3.9,3.8C182.6,171.4,182.7,171.4,182.7,171.4z"/>
	</g>
</g>
<g>
	<rect x="122.4" y="148.6" class="st4" width="25.8" height="25.8"/>
	<g>
		<path class="st5" d="M140.1,159.6c-0.1,0-0.1-0.1-0.1-0.2v-2.1h-4.8c-0.1,0-0.2-0.1-0.2-0.2V154c0-0.1,0.1-0.2,0.2-0.2h4.8v-2.1
			c0-0.1,0.1-0.1,0.1-0.2s0.2,0,0.2,0l3.9,3.8l0.1,0.1c0,0.1,0,0.1-0.1,0.1l-3.8,3.8C140.3,159.6,140.2,159.6,140.1,159.6z"/>
		<path class="st5" d="M140.1,167.7c-0.1,0-0.1-0.1-0.1-0.2v-2.1h-4.8c-0.1,0-0.2-0.1-0.2-0.2v-3.1c0-0.1,0.1-0.2,0.2-0.2h4.8v-2.1
			c0-0.1,0.1-0.2,0.1-0.2h0.2l3.9,3.8l0.1,0.1c0,0.1,0,0.1-0.1,0.1l-3.8,3.9C140.3,167.7,140.2,167.7,140.1,167.7z"/>
		<path class="st5" d="M130.6,163.6c0.1,0,0.1-0.1,0.1-0.2v-2.1h4.8c0.1,0,0.2-0.1,0.2-0.2V158c0-0.1-0.1-0.2-0.2-0.2h-4.8v-2.1
			c0-0.1-0.1-0.1-0.1-0.2s-0.2,0-0.2,0l-3.8,3.8l-0.1,0.1c0,0.1,0,0.1,0.1,0.1l3.8,3.9C130.4,163.6,130.5,163.6,130.6,163.6z"/>
		<path class="st5" d="M130.6,171.4c0.1,0,0.1-0.1,0.1-0.2v-2.1h4.8c0.1,0,0.2-0.1,0.2-0.2v-3.1c0-0.1-0.1-0.2-0.2-0.2h-4.8v-2.1
			c0-0.1-0.1-0.2-0.1-0.2h-0.2l-3.8,3.8l-0.1,0.1c0,0,0,0.1,0.1,0.1l3.8,3.8C130.4,171.4,130.5,171.4,130.6,171.4z"/>
	</g>
</g>
<g>
	<rect x="80.4" y="148.6" class="st4" width="25.8" height="25.8"/>
	<g>
		<path class="st5" d="M98.1,159.6c-0.1,0-0.1-0.1-0.1-0.2v-2.1h-4.8c-0.1,0-0.2-0.1-0.2-0.2V154c0-0.1,0.1-0.2,0.2-0.2H98v-2.1
			c0-0.1,0.1-0.1,0.1-0.2s0.2,0,0.2,0l3.9,3.8l0.1,0.1c0,0.1,0,0.1-0.1,0.1l-3.8,3.8C98.3,159.6,98.2,159.6,98.1,159.6z"/>
		<path class="st5" d="M98.1,167.7c-0.1,0-0.1-0.1-0.1-0.2v-2.1h-4.8c-0.1,0-0.2-0.1-0.2-0.2v-3.1c0-0.1,0.1-0.2,0.2-0.2H98v-2.1
			c0-0.1,0.1-0.2,0.1-0.2h0.2l3.9,3.8l0.1,0.1c0,0.1,0,0.1-0.1,0.1l-3.8,3.9C98.3,167.7,98.2,167.7,98.1,167.7z"/>
		<path class="st5" d="M88.6,163.6c0.1,0,0.1-0.1,0.1-0.2v-2.1h4.8c0.1,0,0.2-0.1,0.2-0.2V158c0-0.1-0.1-0.2-0.2-0.2h-4.8v-2.1
			c0-0.1-0.1-0.1-0.1-0.2s-0.2,0-0.2,0l-3.8,3.8l-0.1,0.1c0,0.1,0,0.1,0.1,0.1l3.8,3.9C88.4,163.6,88.5,163.6,88.6,163.6z"/>
		<path class="st5" d="M88.6,171.4c0.1,0,0.1-0.1,0.1-0.2v-2.1h4.8c0.1,0,0.2-0.1,0.2-0.2v-3.1c0-0.1-0.1-0.2-0.2-0.2h-4.8v-2.1
			c0-0.1-0.1-0.2-0.1-0.2h-0.2l-3.8,3.8l-0.1,0.1c0,0,0,0.1,0.1,0.1l3.8,3.8C88.4,171.4,88.5,171.4,88.6,171.4z"/>
	</g>
</g>
<g>
	<rect x="28.2" y="148.6" class="st4" width="25.8" height="25.8"/>
	<g>
		<path class="st5" d="M45.9,159.6c-0.1,0-0.1-0.1-0.1-0.2v-2.1H41c-0.1,0-0.2-0.1-0.2-0.2V154c0-0.1,0.1-0.2,0.2-0.2h4.8v-2.1
			c0-0.1,0-0.1,0.1-0.2c0.1,0,0.1,0,0.2,0l3.8,3.8l0.1,0.1c0,0.1,0,0.1-0.1,0.1l-3.9,3.8C46.1,159.6,46,159.6,45.9,159.6z"/>
		<path class="st5" d="M45.9,167.7c-0.1,0-0.1-0.1-0.1-0.2v-2.1H41c-0.1,0-0.2-0.1-0.2-0.2v-3.1c0-0.1,0.1-0.2,0.2-0.2h4.8v-2.1
			c0-0.1,0-0.2,0.1-0.2s0.1,0,0.2,0l3.8,3.8l0.1,0.1c0,0.1,0,0.1-0.1,0.1l-3.9,3.9C46.1,167.7,46,167.7,45.9,167.7z"/>
		<path class="st5" d="M36.4,163.6c0.1,0,0.1-0.1,0.1-0.2v-2.1h4.8c0.1,0,0.2-0.1,0.2-0.2V158c0-0.1-0.1-0.2-0.2-0.2h-4.8v-2.1
			c0-0.1,0-0.1-0.1-0.2c-0.1,0-0.2,0-0.2,0l-3.8,3.8l-0.1,0.1c0,0.1,0,0.1,0.1,0.1l3.9,3.9C36.2,163.6,36.3,163.6,36.4,163.6z"/>
		<path class="st5" d="M36.4,171.4c0.1,0,0.1-0.1,0.1-0.2v-2.1h4.8c0.1,0,0.2-0.1,0.2-0.2v-3.1c0-0.1-0.1-0.2-0.2-0.2h-4.8v-2.1
			c0-0.1,0-0.2-0.1-0.2s-0.2,0-0.2,0l-3.8,3.8l-0.1,0.1c0,0,0,0.1,0.1,0.1l3.9,3.8C36.2,171.4,36.3,171.4,36.4,171.4z"/>
	</g>
</g>
<g>
	<path class="st4" d="M82.7,115.1c0,8.5-6.9,15.3-15.3,15.3s-15.3-6.9-15.3-15.3c0-8.4,6.9-15.3,15.3-15.3S82.7,106.6,82.7,115.1z"
		/>
	<g>
		<path class="st5" d="M71.4,109.5c0-0.1-0.1-0.1-0.2-0.1h-2.1v-4.8c0-0.1-0.1-0.2-0.2-0.2h-3.1c-0.1,0-0.2,0.1-0.2,0.2v4.8h-2.1
			c-0.1,0-0.2,0.1-0.2,0.1v0.2l3.8,3.8l0.1,0.1c0,0,0.1,0,0.1-0.1l3.8-3.8C71.4,109.7,71.4,109.6,71.4,109.5z"/>
		<path class="st5" d="M71.4,120.7c0,0.1-0.1,0.1-0.2,0.1h-2.1v4.8c0,0.1-0.1,0.2-0.2,0.2h-3.1c-0.1,0-0.2-0.1-0.2-0.2v-4.8h-2.1
			c-0.1,0-0.2-0.1-0.2-0.1v-0.2l3.8-3.9l0.1-0.1c0,0,0.1,0,0.1,0.1l3.8,3.9C71.4,120.6,71.4,120.6,71.4,120.7z"/>
		<path class="st5" d="M73.9,119.2c-0.1,0-0.1-0.1-0.1-0.2v-2.1H69c-0.1,0-0.2-0.1-0.2-0.2v-3.1c0-0.1,0.1-0.2,0.2-0.2h4.8v-2.1
			c0-0.1,0-0.2,0.1-0.2s0.2,0,0.2,0l3.8,3.8L78,115c0,0,0,0.1-0.1,0.1l-3.8,3.8C74,119.2,73.9,119.2,73.9,119.2z"/>
		<path class="st5" d="M60.9,119.2c0.1,0,0.1-0.1,0.1-0.2v-2.1h4.8c0.1,0,0.2-0.1,0.2-0.2v-3.1c0-0.1-0.1-0.2-0.2-0.2H61v-2.1
			c0-0.1,0-0.2-0.1-0.2s-0.2,0-0.2,0l-3.8,3.8l-0.1,0.1c0,0,0,0.1,0.1,0.1l3.7,4.1C60.7,119.2,60.8,119.2,60.9,119.2z"/>
	</g>
</g>
<g>
	<path class="st4" d="M176.1,115.1c0,8.5-6.9,15.3-15.3,15.3s-15.3-6.9-15.3-15.3c0-8.4,6.9-15.3,15.3-15.3S176.1,106.6,176.1,115.1
		z"/>
	<g>
		<path class="st5" d="M164.8,109.5c0-0.1-0.1-0.1-0.2-0.1h-2.1v-4.8c0-0.1-0.1-0.2-0.2-0.2h-3.1c-0.1,0-0.2,0.1-0.2,0.2v4.8h-2.1
			c-0.1,0-0.1,0.1-0.2,0.1s0,0.2,0,0.2l3.8,3.8l0.1,0.1c0,0,0.1,0,0.1-0.1l3.9-3.8C164.8,109.7,164.8,109.6,164.8,109.5z"/>
		<path class="st5" d="M164.8,120.7c0,0.1-0.1,0.1-0.2,0.1h-2.1v4.8c0,0.1-0.1,0.2-0.2,0.2h-3.1c-0.1,0-0.2-0.1-0.2-0.2v-4.8h-2.1
			c-0.1,0-0.1-0.1-0.2-0.1s0-0.2,0-0.2l3.8-3.9l0.1-0.1c0,0,0.1,0,0.1,0.1l3.9,3.9C164.8,120.6,164.8,120.6,164.8,120.7z"/>
		<path class="st5" d="M167.2,119.2c-0.1,0-0.1-0.1-0.1-0.2v-2.1h-4.8c-0.1,0-0.2-0.1-0.2-0.2v-3.1c0-0.1,0.1-0.2,0.2-0.2h4.8v-2.1
			c0-0.1,0.1-0.2,0.1-0.2c0.1,0,0.2,0,0.2,0l3.9,3.8l0.1,0.1c0,0,0,0.1-0.1,0.1l-3.9,3.8C167.4,119.2,167.3,119.2,167.2,119.2z"/>
		<path class="st5" d="M154.2,119.2c0.1,0,0.1-0.1,0.1-0.2v-2.1h4.8c0.1,0,0.2-0.1,0.2-0.2v-3.1c0-0.1-0.1-0.2-0.2-0.2h-4.8v-2.1
			c0-0.1-0.1-0.2-0.1-0.2c-0.1,0-0.2,0-0.2,0l-3.9,3.8L150,115c0,0,0,0.1,0.1,0.1l3.9,3.8C154.1,119.2,154.2,119.2,154.2,119.2z"/>
	</g>
</g>
<line class="st6" x1="88.9" y1="139" x2="95.2" y2="132.7"/>
<g>
	<g>
		<g>
			<defs>
				<rect id="SVGID_1_" x="71.8" y="2.4" width="86.2" height="45"/>
			</defs>
			<clipPath id="SVGID_2_">
				<use xlink:href="#SVGID_1_"  style="overflow:visible;"/>
			</clipPath>
			<g class="st7">
				<g>
					<g>
						<defs>
							<rect id="SVGID_3_" x="72.2" y="2.3" width="86.1" height="44.9"/>
						</defs>
						<clipPath id="SVGID_4_">
							<use xlink:href="#SVGID_3_"  style="overflow:visible;"/>
						</clipPath>
						<g class="st8">
							<g>
								<defs>
									<rect id="SVGID_5_" x="72.2" y="2.4" width="86.1" height="44.9"/>
								</defs>
								<clipPath id="SVGID_6_">
									<use xlink:href="#SVGID_5_"  style="overflow:visible;"/>
								</clipPath>
								<g style="clip-path:url(#SVGID_6_);">
									
										<use xlink:href="#cloud"  width="86.1" height="44.9" x="-43" y="-22.4" transform="matrix(1 0 0 -1 115.1886 24.829)" style="overflow:visible;"/>
								</g>
							</g>
						</g>
					</g>
				</g>
			</g>
		</g>
	</g>
</g>
<text transform="matrix(1 0 0 1 57.8071 138.4832)" class="st5 st9 st10">DMZ</text>
<text transform="matrix(1 0 0 1 86.2464 204.9485)" class="st5 st11 st10">DPI</text>
<text transform="matrix(1 0 0 1 152.1441 138.4832)" class="st5 st9 st10">LAN</text>
<text transform="matrix(1 0 0 1 96.7729 97.259)" class="st5 st9 st10">Gateway</text>
<text transform="matrix(6.123234e-17 -1 1 6.123234e-17 26.5231 171.1983)" class="st5 st9 st10">Labs</text>
<text transform="matrix(1 0 0 1 99.5464 28.5346)" class="st5 st9 st10">Internet</text>
<text transform="matrix(6.123234e-17 -1 1 6.123234e-17 78.4779 176.4776)" class="st5 st9 st10">Servers</text>
<text transform="matrix(6.123234e-17 -1 1 6.123234e-17 121.0032 175.5245)" class="st5 st9 st10">Guests</text>
<text transform="matrix(6.123234e-17 -1 1 6.123234e-17 173.2604 174.7881)" class="st5 st9 st10">Dorms</text>
<line class="st6" x1="53.7" y1="30.1" x2="53.7" y2="76.1"/>
<g>
	<path class="st12" d="M100.1,44.5c-0.6,11.9-3.3,27.5-14,38.2c-12,12-24.9,8.6-37.4,19.8c-6.7,6-13.9,16.8-16.3,37.7"/>
	<g>
		<polygon class="st13" points="28.1,138.6 31.8,146.7 37.1,139.4 		"/>
	</g>
</g>
<path id="path3" class="st14" d="M34.5,215.6c1.2,0,2.2-1,2.2-2.2v-17.3c0-1.2-1-2.2-2.2-2.2h-26c-1.2,0-2.2,1-2.2,2.2v17.4
	c0,1.2,1,2.2,2.2,2.2H4.2v2.2c0,1.2,1,2.2,2.2,2.2h30.2c1.2,0,2.2-1,2.2-2.2v-2.2L34.5,215.6L34.5,215.6z M8.5,196.2h25.9v17.3H8.5
	V196.2z M25.8,218.3h-8.6v-1.1h8.6C25.8,217.2,25.8,218.3,25.8,218.3z M30.1,218.9c-0.6,0-1.1-0.5-1.1-1.1s0.5-1.1,1.1-1.1
	s1.1,0.5,1.1,1.1S30.7,218.9,30.1,218.9z M34.5,218.9c-0.6,0-1.1-0.5-1.1-1.1s0.5-1.1,1.1-1.1s1.1,0.5,1.1,1.1
	S35.1,218.9,34.5,218.9z"/>
<g>
	<path id="rect2984" class="st15" d="M16.1,197.6h10.8c1,0,1.8,0.8,1.8,1.8v10.8c0,1-0.8,1.8-1.8,1.8H16.1c-1,0-1.8-0.8-1.8-1.8
		v-10.8C14.3,198.4,15.1,197.6,16.1,197.6z"/>
	<path id="path3366" class="st15" d="M24.4,199.2L24.4,199.2c-0.3,0.5-0.3,1.2-0.5,1.8l0,0l0,0c-0.1,0.7-0.3,1.3-0.1,1.9l0,0l0,0
		l0,0l0,0l0.1,0.1c0,0,0,0,0.1,0s0.1-0.1,0.1-0.3l0,0l0,0l0,0l0,0c0.3-1.1,0.5-2.2,0.4-3.3C24.5,199.3,24.5,199.3,24.4,199.2
		C24.5,199.2,24.5,199.2,24.4,199.2C24.5,199.2,24.5,199.2,24.4,199.2L24.4,199.2L24.4,199.2L24.4,199.2z"/>
	<path id="path3364" class="st15" d="M26.9,199.7c-0.5,0.2-0.7,0.8-1,1.2l0,0l0,0c-0.4,0.7-0.9,1.4-1,2.3l0,0c0,0.1,0.1,0.2,0.2,0.2
		c0.1,0,0.2,0,0.3-0.1l0,0l0,0l0,0c0.7-1,1.3-2.2,1.8-3.4l0,0c0-0.1,0-0.1,0-0.2C27.1,199.8,27,199.7,26.9,199.7L26.9,199.7
		L26.9,199.7z"/>
	<path id="path3302" class="st15" d="M19.6,200c-0.1,0-0.2,0.1-0.3,0.1c-0.3,0.1-0.4,0.4-0.5,0.6c-0.1,0.3,0,0.6,0,0.9
		c0,0.3,0.1,0.7,0.2,0.9c0.1,0.2,0.1,0.3,0.1,0.4v0.1l0,0l0,0c0,0,0,0-0.1,0s-0.1,0-0.1,0h-0.1c0,0,0,0-0.1,0l0,0v-0.1
		c0-0.1-0.1-0.2-0.1-0.3c-0.1-0.2-0.3-0.6-0.4-0.8c-0.2-0.3-0.3-0.6-0.5-0.7c-0.1-0.1-0.2-0.2-0.4-0.2c-0.1,0-0.3,0-0.4,0.1
		c-0.3,0.2-0.5,0.5-0.6,0.8s0,0.7,0,1c0.1,0.3,0.1,0.6,0.2,0.8c0,0.1,0,0.2,0.1,0.2v0.2c-0.1,0.2-0.2,0.5-0.2,0.5s-2.5,6.5,2.8,6.1
		c0,0,0.1,0,0.2,0c1-0.2,2-0.5,2.9-0.9c0.2-0.1,0.4-0.2,0.6-0.3c0.5-0.2,1.1-0.5,1.7-0.9c0.6-0.3,1.2-0.7,1.6-1.1
		c0.4-0.4,0.7-0.8,0.7-1.2c-0.1-0.7-0.5-1.2-1.1-1.5c-0.6-0.4-1.3-0.7-2.1-0.8c-0.7-0.2-1.5-0.4-2-0.4c-0.3,0-0.5-0.1-0.7-0.1h-0.1
		l0,0c0,0,0,0-0.1,0c0,0,0,0,0-0.1l0,0v-0.4c0-0.3,0-0.8-0.1-1.2c-0.1-0.4-0.2-0.8-0.4-1.1c-0.1-0.2-0.3-0.3-0.6-0.3
		C19.8,200,19.7,200,19.6,200L19.6,200z"/>
	<path id="path8-6" class="st16" d="M21.9,210.4c0.2-0.1,0.3-0.1,0.4-0.2c0.3-0.3,0.6-0.6,1.4-1.9c0.7-1,0.9-1.5,1.1-2
		c0.1-0.2,0.2-0.7,0.2-0.8v-0.1c0,0-0.1,0.1-0.2,0.2c0,0.1-0.2,0.4-0.3,0.7c-0.2,0.3-0.4,0.8-0.8,1.4c-0.8,1.2-0.8,1.1-0.8,1.1
		s0,0,0-0.1s0.2-0.3,0.3-0.6c0.1-0.1,0.2-0.3,0.2-0.4c0.1-0.1,0.1-0.2,0.2-0.3c0.1-0.1,0.1-0.1,0.1-0.2v-0.1c0,0-0.1,0-0.1,0.1
		c-0.1,0.1-0.1,0.1-0.1,0.1s0.1-0.1,0.3-0.3c0.4-0.5,0.5-0.6,0.6-0.9c0-0.1,0.1-0.4,0-0.4c0,0-0.2,0.2-0.4,0.6
		c-0.1,0.2-0.2,0.4-0.3,0.5c-0.3,0.4-0.9,0.7-1.6,0.7c-0.1,0-0.2,0-0.3,0.1c-0.2,0-0.2,0-0.5,0s-0.5,0-0.6-0.1c0,0-0.1,0-0.2,0
		c-0.2,0-0.3,0-0.6-0.1c-0.4-0.1-0.8-0.3-1-0.5s-0.3-0.3-0.5-0.7c-0.2-0.3-0.2-0.4-0.3-0.4c0,0,0.1,0.4,0.2,0.6
		c0.2,0.3,0.3,0.5,0.7,0.9c0.6,0.6,0.7,0.7,1.1,0.8c0.4,0.1,0.6,0.1,1.1,0.1c0.3,0,0.3,0,0.4,0h0.1h0.1c0,0,0,0.1-0.1,0.1
		c-0.1,0.2-0.2,0.3-0.2,0.4s0,0.1,0.1,0.3c0.1,0.2,0.1,0.2,0.1,0.4c0,0.2,0,0.2-0.1,0.5c-0.1,0.4-0.1,0.6,0,0.6
		C21.8,210.4,21.9,210.4,21.9,210.4L21.9,210.4z M21.1,210.3c0-0.1,0-0.2-0.1-0.4c-0.1-0.4-0.1-0.6-0.1-0.8c0,0,0.1-0.1,0.1-0.2
		c0.1-0.2,0.1-0.2,0.1-0.3c0-0.1,0-0.2-0.1-0.3c-0.1-0.1-0.1-0.1-0.3-0.2c-0.1,0-0.2-0.1-0.3-0.1s-0.2-0.1-0.3-0.1s-0.2,0-0.2,0.1
		s0,0.2,0,0.4c0,0.1,0,0.2,0,0.3c0.1,0.2,0.1,0.2,0,0.3c0,0.1-0.1-0.1-0.2-0.3c-0.1-0.2-0.3-0.7-0.5-1c-0.1-0.2-0.4-0.7-0.8-1.2
		c-0.2-0.3-0.3-0.5-0.4-0.8c-0.1-0.3-0.3-0.5-0.3-0.5c-0.1,0-0.1,0.1,0,0.3c0.3,0.8,0.6,1.6,1.4,2.9c0.3,0.5,0.4,0.7,0.5,0.8
		c0.1,0.1,0.2,0.3,0.3,0.5c0.2,0.3,0.3,0.4,0.4,0.5c0.1,0.1,0.2,0.2,0.2,0.2c0.1,0.1,0.3,0.1,0.3,0.1l0,0L21.1,210.3L21.1,210.3z
		 M21.5,209.4c0-0.1,0-0.1-0.1-0.1C21.4,209.3,21.4,209.3,21.5,209.4C21.4,209.4,21.5,209.4,21.5,209.4L21.5,209.4L21.5,209.4z
		 M21.9,207.4L21.9,207.4c-0.1-0.1-0.4-0.4-0.4-0.5c-0.1,0-0.1,0-0.1,0s0,0-0.2,0.3c-0.1,0.1-0.2,0.2-0.1,0.2
		C21.1,207.4,21.5,207.4,21.9,207.4C21.8,207.5,21.9,207.4,21.9,207.4L21.9,207.4z M22.8,206.8c0.5-0.1,0.7-0.3,1-0.6
		c0.1-0.2,0.2-0.4,0.2-0.4s0,0-0.3-0.1c-0.3,0-0.5-0.1-0.5-0.2c0,0,0,0,0.1,0s0.2,0,0.3,0c0.3,0,0.4,0,0.6,0c0.3,0,0.4-0.1,0.5-0.2
		s0.4-0.3,0.5-0.4s0.1-0.2,0.1-0.3c0-0.1,0-0.2,0-0.6v-0.4h-0.1c-0.1,0-0.2,0-0.3,0c-0.2,0-0.3,0-0.4,0c-0.1,0-0.2,0-0.8,0
		c-0.4,0-0.8,0-0.9,0c-0.2,0-0.3,0-0.4-0.1c-0.1,0-0.1-0.1-0.1-0.1s0.1-0.2,0.2-0.2c0.2-0.1,0.5-0.3,0.5-0.3c0.2-0.1,0.6-0.1,0.9,0
		c0.3,0.1,0.5,0.2,0.6,0.4c0.1,0.1,0.1,0.1,0.2,0.1c0.1,0,0.1,0,0.2,0.1c0.1,0,0.3,0.1,0.3,0.1s0,0,0-0.2s0-0.8,0-1.3
		c0-0.9-0.2-1.6-0.4-2s-0.7-0.7-1.6-0.9c-0.7-0.1-1.4-0.2-2-0.2c-1.5,0.1-2.5,0.3-3,0.7c-0.2,0.2-0.4,0.5-0.5,1.1
		c-0.2,0.8-0.2,1.4-0.2,2.5v0.8l0.1,0.2c0.1,0.4,0.4,0.8,0.6,0.9c0.1,0.1,0.3,0.2,0.4,0.2c0.1,0,0.5,0,0.8,0c0.1,0,0.3,0,0.4,0
		c0.2,0,0.2,0,0.2,0s-0.1,0.1-0.2,0.1c-0.3,0.1-0.4,0.1-0.6,0.1c-0.2,0-0.2,0-0.2,0.1c0.1,0.2,0.3,0.4,0.5,0.5s0.7,0.3,0.9,0.4
		c0.1,0,0.2,0,0.4-0.1c0.1-0.1,0.1-0.1,0.1-0.2c0,0,0-0.1-0.1-0.1l-0.1-0.1c0,0,0-0.1,0-0.2c0-0.3,0-0.4,0-0.4l0,0
		c0,0,0,0.1-0.1,0.1c-0.1,0.1-0.1,0.2-0.1,0.3c0,0.1,0,0.1,0,0.1h-0.1c-0.1-0.1-0.2-0.2-0.2-0.4c0-0.2,0.1-0.3,0.3-0.4
		c0.1-0.1,0.2-0.2,0.3-0.3c0-0.1,0.1-0.5,0.1-0.8c0-0.1,0-0.4,0-0.6v-0.4l-0.1-0.2c-0.1-0.2-0.1-0.3-0.2-0.3c-0.1,0-0.2-0.2-0.3-0.3
		c-0.3-0.3-0.5-0.4-0.7-0.4s-0.3-0.1-0.3-0.2s0.1-0.1,0.3-0.1c0.4,0,0.6,0.1,1.1,0.6c0.4,0.3,0.5,0.4,0.6,0.7c0,0.1,0.1,0.2,0.1,0.3
		c0.1,0.3,0.1,0.4,0.1,1.3c0,0.5,0,0.8,0,0.9s-0.1,0.8-0.1,0.9c0,0.2,0,0.2,0,0.2c0.1,0.1,0.4,0.2,0.6,0.1c0.1,0,0.2,0,0.3-0.1
		l0.1-0.1c0,0,0,0,0.3,0.2C22.4,206.9,22.5,206.9,22.8,206.8L22.8,206.8z M22.6,205.9c0-0.1-0.1-0.3-0.2-0.3c0,0-0.1,0-0.1-0.1h-0.1
		c-0.1,0,0-0.2,0.1-0.2s0.2,0.1,0.3,0.2C22.7,205.7,22.8,205.8,22.6,205.9C22.7,205.9,22.6,206,22.6,205.9
		C22.6,206,22.6,205.9,22.6,205.9z M17.9,204v-0.1c0-0.1,0-0.1,0-0.2v-0.1c0,0,0,0,0.2-0.1c0,0,0.1,0,0.1-0.1
		c0.1-0.1,0.2-0.2,0.3-0.3c0.2-0.1,0.6-0.2,0.9-0.2c0.2,0,0.3,0.1,0.5,0.2c0.4,0.2,0.5,0.3,0.5,0.4s-0.1,0.2-0.2,0.2
		c-0.1,0-0.4,0.1-1,0.1c-0.3,0-0.7,0-0.7,0C18.3,203.9,18,204,17.9,204C18,204,17.9,204,17.9,204L17.9,204z M22.1,203.1v-0.2
		c0.1-0.2,0.3-0.4,0.7-0.7c0.4-0.3,0.7-0.5,1-0.5c0.1,0,0.2,0,0.2,0.1s-0.1,0.1-0.4,0.2c-0.2,0.1-0.2,0.1-0.4,0.2
		C22.9,202.5,22.3,203,22.1,203.1L22.1,203.1L22.1,203.1z M20.6,202.4c0,0-0.2-0.1-0.3-0.2c-0.2-0.2-0.3-0.3-0.6-0.4
		c-0.3-0.2-0.5-0.2-0.9-0.2c-0.3,0-0.5,0.1-0.7,0.3c-0.1,0.1-0.2,0.1-0.2,0.1s0-0.2,0.2-0.3c0.2-0.2,0.4-0.4,0.7-0.4
		c0.2,0,0.4-0.1,0.6,0c0.5,0,0.9,0.2,1.2,0.5c0.2,0.2,0.3,0.3,0.2,0.5C20.9,202.4,20.8,202.5,20.6,202.4L20.6,202.4z M22.1,202.4
		c-0.1-0.1-0.1-0.3-0.1-0.4s0.3-0.3,0.4-0.4c0.5-0.3,1.1-0.5,1.5-0.3c0.3,0.1,0.6,0.3,0.7,0.5c0.1,0.1,0.2,0.2,0.1,0.3
		c0,0-0.1-0.1-0.2-0.1c-0.3-0.3-0.5-0.3-0.9-0.3s-0.8,0.2-1.3,0.6C22.2,202.4,22.2,202.5,22.1,202.4z"/>
	<path id="rect2984-1" class="st17" d="M14.8,211.5c0.3,0.3,0.8,0.5,1.3,0.5h10.8c1,0,1.8-0.8,1.8-1.8v-10.8c0-0.5-0.2-1-0.5-1.3
		L14.8,211.5z"/>
</g>
<path id="path3_1_" class="st14" d="M73.7,215.6c1.2,0,2.2-1,2.2-2.2v-17.3c0-1.2-1-2.2-2.2-2.2h-26c-1.2,0-2.2,1-2.2,2.2v17.4
	c0,1.2,1,2.2,2.2,2.2h-4.3v2.2c0,1.2,1,2.2,2.2,2.2h30.2c1.2,0,2.2-1,2.2-2.2v-2.2L73.7,215.6L73.7,215.6z M47.7,196.2h25.9v17.3
	H47.7V196.2z M65,218.3h-8.6v-1.1H65V218.3z M69.3,218.9c-0.6,0-1.1-0.5-1.1-1.1s0.5-1.1,1.1-1.1s1.1,0.5,1.1,1.1
	S69.9,218.9,69.3,218.9z M73.7,218.9c-0.6,0-1.1-0.5-1.1-1.1s0.5-1.1,1.1-1.1s1.1,0.5,1.1,1.1S74.3,218.9,73.7,218.9z"/>
<g>
	<path id="rect2984_1_" class="st15" d="M55.3,197.6h10.8c1,0,1.8,0.8,1.8,1.8v10.8c0,1-0.8,1.8-1.8,1.8H55.3c-1,0-1.8-0.8-1.8-1.8
		v-10.8C53.5,198.4,54.3,197.6,55.3,197.6z"/>
	<path id="path3366_1_" class="st15" d="M63.7,199.2C63.7,199.2,63.6,199.2,63.7,199.2c-0.3,0.5-0.3,1.2-0.5,1.8l0,0l0,0
		c-0.1,0.7-0.3,1.3-0.1,1.9l0,0l0,0l0,0l0,0l0.1,0.1c0,0,0,0,0.1,0s0.1-0.1,0.1-0.3l0,0l0,0l0,0l0,0c0.3-1.1,0.5-2.2,0.4-3.3
		C63.8,199.3,63.8,199.3,63.7,199.2C63.8,199.2,63.7,199.2,63.7,199.2L63.7,199.2L63.7,199.2L63.7,199.2L63.7,199.2z"/>
	<path id="path3364_1_" class="st15" d="M66.2,199.7c-0.5,0.2-0.7,0.8-1,1.2l0,0l0,0c-0.4,0.7-0.9,1.4-1,2.3l0,0
		c0,0.1,0.1,0.2,0.2,0.2s0.2,0,0.3-0.1l0,0l0,0l0,0c0.7-1,1.3-2.2,1.8-3.4l0,0c0-0.1,0-0.1,0-0.2C66.3,199.8,66.2,199.7,66.2,199.7
		L66.2,199.7L66.2,199.7z"/>
	<path id="path3302_1_" class="st15" d="M58.9,200c-0.1,0-0.2,0.1-0.3,0.1c-0.3,0.1-0.4,0.4-0.5,0.6c-0.1,0.3,0,0.6,0,0.9
		c0,0.3,0.1,0.7,0.2,0.9c0.1,0.2,0.1,0.3,0.1,0.4v0.1l0,0l0,0c0,0,0,0-0.1,0s-0.1,0-0.1,0h-0.1c0,0,0,0-0.1,0l0,0v-0.1
		c0-0.1-0.1-0.2-0.1-0.3c-0.1-0.2-0.3-0.6-0.4-0.8c-0.2-0.3-0.3-0.6-0.5-0.7c-0.1-0.1-0.2-0.2-0.4-0.2c-0.1,0-0.3,0-0.4,0.1
		c-0.3,0.2-0.5,0.5-0.6,0.8s0,0.7,0,1c0.1,0.3,0.1,0.6,0.2,0.8c0,0.1,0,0.2,0.1,0.2v0.2c-0.1,0.2-0.2,0.5-0.2,0.5s-2.5,6.5,2.8,6.1
		c0,0,0.1,0,0.2,0c1-0.2,2-0.5,2.9-0.9c0.2-0.1,0.4-0.2,0.6-0.3c0.5-0.2,1.1-0.5,1.7-0.9c0.6-0.3,1.2-0.7,1.6-1.1s0.7-0.8,0.7-1.2
		c-0.1-0.7-0.5-1.2-1.1-1.5c-0.6-0.4-1.3-0.7-2.1-0.8c-0.7-0.2-1.5-0.4-2-0.4c-0.3,0-0.5-0.1-0.7-0.1h-0.1l0,0c0,0,0,0-0.1,0
		c0,0,0,0,0-0.1l0,0v-0.4c0-0.3,0-0.8-0.1-1.2c-0.1-0.4-0.2-0.8-0.4-1.1c-0.1-0.2-0.3-0.3-0.6-0.3C59.1,200,59,200,58.9,200
		L58.9,200z"/>
	<path id="path8-6_1_" class="st16" d="M61.2,210.4c0.2-0.1,0.3-0.1,0.4-0.2c0.3-0.3,0.6-0.6,1.4-1.9c0.7-1,0.9-1.5,1.1-2
		c0.1-0.2,0.2-0.7,0.2-0.8v-0.1c0,0-0.1,0.1-0.2,0.2c0,0.1-0.2,0.4-0.3,0.7c-0.2,0.3-0.4,0.8-0.8,1.4c-0.8,1.2-0.8,1.1-0.8,1.1
		s0,0,0-0.1s0.2-0.3,0.3-0.6c0.1-0.1,0.2-0.3,0.2-0.4c0.1-0.1,0.1-0.2,0.2-0.3c0.1-0.1,0.1-0.1,0.1-0.2v-0.1c0,0-0.1,0-0.1,0.1
		c-0.1,0.1-0.1,0.1-0.1,0.1s0.1-0.1,0.3-0.3c0.4-0.5,0.5-0.6,0.6-0.9c0-0.1,0.1-0.4,0-0.4c0,0-0.2,0.2-0.4,0.6
		c-0.1,0.2-0.2,0.4-0.3,0.5c-0.3,0.4-0.9,0.7-1.6,0.7c-0.1,0-0.2,0-0.3,0.1c-0.2,0-0.2,0-0.5,0s-0.5,0-0.6-0.1c0,0-0.1,0-0.2,0
		c-0.2,0-0.3,0-0.6-0.1c-0.4-0.1-0.8-0.3-1-0.5s-0.3-0.3-0.5-0.7c-0.2-0.3-0.2-0.4-0.3-0.4c0,0,0.1,0.4,0.2,0.6
		c0.2,0.3,0.3,0.5,0.7,0.9c0.6,0.6,0.7,0.7,1.1,0.8c0.4,0.1,0.6,0.1,1.1,0.1c0.3,0,0.3,0,0.4,0H61h0.1c0,0,0,0.1-0.1,0.1
		c-0.1,0.2-0.2,0.3-0.2,0.4s0,0.1,0.1,0.3c0.1,0.2,0.1,0.2,0.1,0.4c0,0.2,0,0.2-0.1,0.5c-0.1,0.4-0.1,0.6,0,0.6
		C61.1,210.4,61.1,210.4,61.2,210.4L61.2,210.4z M60.3,210.3c0-0.1,0-0.2-0.1-0.4c-0.1-0.4-0.1-0.6-0.1-0.8c0,0,0.1-0.1,0.1-0.2
		c0.1-0.2,0.1-0.2,0.1-0.3c0-0.1,0-0.2-0.1-0.3c-0.1-0.1-0.1-0.1-0.3-0.2c-0.1,0-0.2-0.1-0.3-0.1c-0.1,0-0.2-0.1-0.3-0.1
		c-0.1,0-0.2,0-0.2,0.1s0,0.2,0,0.4c0,0.1,0,0.2,0,0.3c0.1,0.2,0.1,0.2,0,0.3c0,0.1-0.1-0.1-0.2-0.3c-0.1-0.2-0.3-0.7-0.5-1
		c-0.1-0.2-0.4-0.7-0.8-1.2c-0.2-0.3-0.3-0.5-0.4-0.8s-0.3-0.5-0.3-0.5c-0.1,0-0.1,0.1,0,0.3c0.3,0.8,0.6,1.6,1.4,2.9
		c0.3,0.5,0.4,0.7,0.5,0.8c0.1,0.1,0.2,0.3,0.3,0.5c0.2,0.3,0.3,0.4,0.4,0.5s0.2,0.2,0.2,0.2c0.1,0.1,0.3,0.1,0.3,0.1l0,0
		L60.3,210.3L60.3,210.3z M60.8,209.4c0-0.1,0-0.1-0.1-0.1C60.7,209.3,60.7,209.3,60.8,209.4C60.7,209.4,60.7,209.4,60.8,209.4
		L60.8,209.4L60.8,209.4z M61.1,207.4L61.1,207.4c-0.1-0.1-0.4-0.4-0.4-0.5c-0.1,0-0.1,0-0.1,0s0,0-0.2,0.3
		c-0.1,0.1-0.2,0.2-0.1,0.2C60.3,207.4,60.7,207.4,61.1,207.4C61.1,207.5,61.1,207.4,61.1,207.4L61.1,207.4z M62.1,206.8
		c0.5-0.1,0.7-0.3,1-0.6c0.1-0.2,0.2-0.4,0.2-0.4s0,0-0.3-0.1c-0.3,0-0.5-0.1-0.5-0.2c0,0,0,0,0.1,0s0.2,0,0.3,0c0.3,0,0.4,0,0.6,0
		c0.3,0,0.4-0.1,0.5-0.2s0.4-0.3,0.5-0.4s0.1-0.2,0.1-0.3c0-0.1,0-0.2,0-0.6v-0.4h-0.1c-0.1,0-0.2,0-0.3,0c-0.2,0-0.3,0-0.4,0
		s-0.2,0-0.8,0c-0.4,0-0.8,0-0.9,0c-0.2,0-0.3,0-0.4-0.1c-0.1,0-0.1-0.1-0.1-0.1s0.1-0.2,0.2-0.2c0.2-0.1,0.5-0.3,0.5-0.3
		c0.2-0.1,0.6-0.1,0.9,0s0.5,0.2,0.6,0.4c0.1,0.1,0.1,0.1,0.2,0.1s0.1,0,0.2,0.1c0.1,0,0.3,0.1,0.3,0.1s0,0,0-0.2s0-0.8,0-1.3
		c0-0.9-0.2-1.6-0.4-2c-0.2-0.4-0.7-0.7-1.6-0.9c-0.7-0.1-1.4-0.2-2-0.2c-1.5,0.1-2.5,0.3-3,0.7c-0.2,0.2-0.4,0.5-0.5,1.1
		c-0.2,0.8-0.2,1.4-0.2,2.5v0.8l0.1,0.2c0.1,0.4,0.4,0.8,0.6,0.9c0.1,0.1,0.3,0.2,0.4,0.2s0.5,0,0.8,0c0.1,0,0.3,0,0.4,0
		c0.2,0,0.2,0,0.2,0s-0.1,0.1-0.2,0.1c-0.3,0.1-0.4,0.1-0.6,0.1s-0.2,0-0.2,0.1c0.1,0.2,0.3,0.4,0.5,0.5s0.7,0.3,0.9,0.4
		c0.1,0,0.2,0,0.4-0.1c0.1-0.1,0.1-0.1,0.1-0.2c0,0,0-0.1-0.1-0.1l-0.1-0.1c0,0,0-0.1,0-0.2c0-0.3,0-0.4,0-0.4l0,0
		c0,0,0,0.1-0.1,0.1c-0.1,0.1-0.1,0.2-0.1,0.3c0,0.1,0,0.1,0,0.1h-0.1c-0.1-0.1-0.2-0.2-0.2-0.4c0-0.2,0.1-0.3,0.3-0.4
		c0.1-0.1,0.2-0.2,0.3-0.3c0-0.1,0.1-0.5,0.1-0.8c0-0.1,0-0.4,0-0.6v-0.4l-0.1-0.2c-0.1-0.2-0.1-0.3-0.2-0.3s-0.2-0.2-0.3-0.3
		c-0.3-0.3-0.5-0.4-0.7-0.4s-0.3-0.1-0.3-0.2s0.1-0.1,0.3-0.1c0.4,0,0.6,0.1,1.1,0.6c0.4,0.3,0.5,0.4,0.6,0.7c0,0.1,0.1,0.2,0.1,0.3
		c0.1,0.3,0.1,0.4,0.1,1.3c0,0.5,0,0.8,0,0.9s-0.1,0.8-0.1,0.9c0,0.2,0,0.2,0,0.2c0.1,0.1,0.4,0.2,0.6,0.1c0.1,0,0.2,0,0.3-0.1
		l0.1-0.1c0,0,0,0,0.3,0.2C61.6,206.9,61.8,206.9,62.1,206.8L62.1,206.8z M61.9,205.9c0-0.1-0.1-0.3-0.2-0.3c0,0-0.1,0-0.1-0.1h-0.1
		c-0.1,0,0-0.2,0.1-0.2s0.2,0.1,0.3,0.2C62,205.7,62,205.8,61.9,205.9C61.9,205.9,61.9,206,61.9,205.9
		C61.9,206,61.9,205.9,61.9,205.9z M57.2,204v-0.1c0-0.1,0-0.1,0-0.2v-0.1c0,0,0,0,0.2-0.1c0,0,0.1,0,0.1-0.1
		c0.1-0.1,0.2-0.2,0.3-0.3c0.2-0.1,0.6-0.2,0.9-0.2c0.2,0,0.3,0.1,0.5,0.2c0.4,0.2,0.5,0.3,0.5,0.4s-0.1,0.2-0.2,0.2s-0.4,0.1-1,0.1
		c-0.3,0-0.7,0-0.7,0C57.6,203.9,57.3,204,57.2,204L57.2,204L57.2,204z M61.3,203.1v-0.2c0.1-0.2,0.3-0.4,0.7-0.7
		c0.4-0.3,0.7-0.5,1-0.5c0.1,0,0.2,0,0.2,0.1s-0.1,0.1-0.4,0.2c-0.2,0.1-0.2,0.1-0.4,0.2C62.1,202.5,61.5,203,61.3,203.1
		C61.4,203.1,61.4,203.1,61.3,203.1L61.3,203.1z M59.9,202.4c0,0-0.2-0.1-0.3-0.2c-0.2-0.2-0.3-0.3-0.6-0.4
		c-0.3-0.2-0.5-0.2-0.9-0.2c-0.3,0-0.5,0.1-0.7,0.3c-0.1,0.1-0.2,0.1-0.2,0.1s0-0.2,0.2-0.3c0.2-0.2,0.4-0.4,0.7-0.4
		c0.2,0,0.4-0.1,0.6,0c0.5,0,0.9,0.2,1.2,0.5c0.2,0.2,0.3,0.3,0.2,0.5C60.2,202.4,60,202.5,59.9,202.4L59.9,202.4z M61.4,202.4
		c-0.1-0.1-0.1-0.3-0.1-0.4s0.3-0.3,0.4-0.4c0.5-0.3,1.1-0.5,1.5-0.3c0.3,0.1,0.6,0.3,0.7,0.5c0.1,0.1,0.2,0.2,0.1,0.3
		c0,0-0.1-0.1-0.2-0.1c-0.3-0.3-0.5-0.3-0.9-0.3s-0.8,0.2-1.3,0.6C61.5,202.4,61.5,202.5,61.4,202.4z"/>
	<path id="rect2984-1_1_" class="st17" d="M54.1,211.5c0.3,0.3,0.8,0.5,1.3,0.5h10.8c1,0,1.8-0.8,1.8-1.8v-10.8c0-0.5-0.2-1-0.5-1.3
		L54.1,211.5z"/>
</g>
<g>
	<circle class="st18" cx="37.6" cy="187.8" r="0.5"/>
	<circle class="st18" cx="41.1" cy="187.8" r="0.5"/>
	<circle class="st18" cx="44.6" cy="187.8" r="0.5"/>
</g>
<g>
	<g>
		<path class="st19" d="M25.9,175.5c-2.3,3.5-4.7,7.1-7,10.6"/>
		<g>
			<polygon class="st13" points="15.9,182.5 15.4,191.5 23.4,187.5 			"/>
		</g>
	</g>
</g>
<g>
	<g>
		<path class="st19" d="M55.8,175.5c2.3,3.5,4.7,7.1,7,10.6"/>
		<g>
			<polygon class="st13" points="58.3,187.5 66.4,191.5 65.8,182.5 			"/>
		</g>
	</g>
</g>
</svg>
