<?xml version="1.0" encoding="utf-8"?>
<!-- Generator: Adobe Illustrator 23.1.0, SVG Export Plug-In . SVG Version: 6.00 Build 0)  -->
<svg version="1.1" xmlns="http://www.w3.org/2000/svg" xmlns:xlink="http://www.w3.org/1999/xlink" x="0px" y="0px"
	 viewBox="0 0 196.6 236" style="enable-background:new 0 0 196.6 236;" xml:space="preserve">
<style type="text/css">
	.st0{fill:none;stroke:#000000;stroke-width:0.7512;stroke-miterlimit:11.3386;}
	.st1{fill:none;stroke:#000000;stroke-width:0.75;}
	.st2{fill:none;stroke:#000000;stroke-width:0.744;}
	.st3{fill:#DCDEDC;}
	.st4{fill:#343F3E;}
	.st5{fill:none;}
	.st6{font-family:'Roboto-Regular';}
	.st7{font-size:9px;}
	.st8{stroke:#000000;stroke-width:0.5;}
	.st9{fill:none;stroke:#94B0DA;stroke-width:2;stroke-miterlimit:10;stroke-dasharray:8;}
	.st10{fill:#A0A0A0;stroke:#000000;stroke-width:4.777778e-02;stroke-miterlimit:10;}
	.st11{fill:#FAFAFA;stroke:#000000;stroke-width:4.777778e-02;stroke-miterlimit:10;}
	.st12{fill:none;stroke:#DA9E94;stroke-width:8;stroke-miterlimit:2.1669;stroke-dasharray:8,8;}
	.st13{fill:#DA9E94;}
	.st14{clip-path:url(#SVGID_2_);}
	.st15{clip-path:url(#SVGID_4_);}
	.st16{clip-path:url(#SVGID_6_);}
	.st17{clip-path:url(#SVGID_8_);}
</style>
<symbol  id="cloud" viewBox="-43 -22.4 86.1 44.9">
	<g id="layer1_1_" transform="translate(-54.754156,-85.921738)">
		<path id="path10_1_" class="st0" d="M55.4,107.8c5.2,0.9,10.9-1.3,14-5.4c0.7-0.7,1-1.6,1.6-2.5c0.2-0.3,0.7-0.3,1.1-0.3
			c3.8-0.2,7.4-2,9.9-4.8c0.2-0.3,0.6-0.6,1-0.5c2.2,0,4.3-0.5,6.2-1.4c3.3-1.5,5.9-4.3,7.2-7.5c1.1-2.8,1.3-5.9,0.5-8.7
			c-0.8-3-2.8-5.8-5.4-7.6c-3.1-2.2-7.1-3.1-10.8-2.4c-0.4,0.1-0.9,0.1-1.3-0.1c-3.6-1.7-8-1.9-11.7-0.3c-0.9,0.3-1.7,0.9-2.6,1.3
			c-0.4,0.3-0.8-0.1-1.2-0.3c-2.7-2.3-6.4-3.5-10-3.4c-3.3,0.1-6.4,1.4-8.9,3.5c-0.3,0.4-0.9,0.2-1.3,0.1c-2.4-0.6-4.9-0.7-7.3-0.1
			c-0.4,0.1-0.7,0.2-1.1,0.3c-0.4-0.1-0.7-0.4-1-0.6c-2.5-1.6-5.5-2.4-8.4-2.3c-3.4,0.1-6.8,1.4-9.3,3.7c-2.7,2.4-4.3,5.8-4.5,9.3
			c-0.2,2.9,0.6,5.9,2.2,8.4c2,3,5.2,5.2,8.8,6c0.3,0.1,0.6,0.1,0.8,0.3c0.2,0.3,0.2,0.6,0.3,0.9c0.8,3.8,3.4,7.3,6.9,9.2
			c3.8,2.2,8.6,2.4,12.6,0.8c0.9-0.3,1.7-0.9,2.6-1.2c0.5,0,0.8,0.5,1.1,0.8C49.1,105.6,52.1,107.3,55.4,107.8L55.4,107.8z"/>
	</g>
</symbol>
<g id="Layer_2">
</g>
<g id="Layer_1">
	<line class="st1" x1="135.6" y1="109" x2="111.7" y2="85"/>
	<line class="st1" x1="60.9" y1="109" x2="84.8" y2="85"/>
	<line class="st1" x1="98.4" y1="63.8" x2="98.4" y2="52.5"/>
	<line class="st2" x1="76.7" y1="153.7" x2="63" y2="130"/>
	<line class="st1" x1="25.9" y1="153.7" x2="39.6" y2="130"/>
	<path class="st3" d="M113.6,79.2c0,8.5-6.9,15.3-15.3,15.3s-15.4-6.9-15.4-15.3c0-8.5,6.9-15.3,15.3-15.3S113.6,70.7,113.6,79.2z"
		/>
	<path class="st4" d="M102.3,73.6c0-0.1-0.1-0.1-0.2-0.1H100v-4.8c0-0.1-0.1-0.2-0.2-0.2h-3.1c-0.1,0-0.2,0.1-0.2,0.2v4.8h-2.1
		c-0.1,0-0.2,0-0.2,0.1s0,0.2,0,0.2l3.8,3.9l0.1,0.1c0,0,0.1,0,0.1-0.1l3.8-3.9C102.3,73.7,102.3,73.6,102.3,73.6z"/>
	<path class="st4" d="M102.3,84.8c0,0.1-0.1,0.1-0.2,0.1H100v4.8c0,0.1-0.1,0.2-0.2,0.2h-3.1c-0.1,0-0.2-0.1-0.2-0.2v-4.8h-2.1
		c-0.1,0-0.2,0-0.2-0.1s0-0.2,0-0.2l3.8-3.9l0.1-0.1c0,0,0.1,0,0.1,0.1l3.8,3.9C102.3,84.6,102.3,84.7,102.3,84.8z"/>
	<path class="st4" d="M104.7,83.2c-0.1,0-0.1-0.1-0.1-0.2v-2.1h-4.8c-0.1,0-0.2-0.1-0.2-0.2v-3.1c0-0.1,0.1-0.2,0.2-0.2h4.8v-2.1
		c0-0.1,0.1-0.2,0.1-0.2h0.2l3.8,3.8l0.1,0.1c0,0.1,0,0.1-0.1,0.1l-3.9,3.8C104.9,83.3,104.8,83.3,104.7,83.2z"/>
	<path class="st4" d="M91.7,83.2c0.1,0,0.1-0.1,0.1-0.2v-2.1h4.8c0.1,0,0.2-0.1,0.2-0.2v-3.1c0-0.1-0.1-0.2-0.2-0.2h-4.8v-2.1
		c0-0.1-0.1-0.2-0.1-0.2h-0.2l-3.8,3.8L87.6,79c0,0.1,0,0.1,0.1,0.1l3.8,3.8C91.6,83.3,91.7,83.3,91.7,83.2z"/>
	<line class="st1" x1="170.3" y1="154.2" x2="155.6" y2="128.8"/>
	<line class="st1" x1="119.4" y1="154.2" x2="133.9" y2="129.1"/>
	<rect x="158.8" y="153.6" class="st3" width="25.8" height="25.8"/>
	<path class="st4" d="M176.5,164.6c-0.1,0-0.1-0.1-0.1-0.2v-2.1h-4.8c-0.1,0-0.2-0.1-0.2-0.2V159c0-0.1,0.1-0.2,0.2-0.2h4.8v-2.1
		c0-0.1,0.1-0.1,0.1-0.2c0.1,0,0.2,0,0.2,0l3.9,3.8l0.1,0.1c0,0.1,0,0.1-0.1,0.1l-3.9,3.8C176.7,164.6,176.6,164.6,176.5,164.6z"/>
	<path class="st4" d="M176.5,172.7c-0.1,0-0.1-0.1-0.1-0.2v-2.1h-4.8c-0.1,0-0.2-0.1-0.2-0.2v-3.1c0-0.1,0.1-0.2,0.2-0.2h4.8v-2.1
		c0-0.1,0.1-0.2,0.1-0.2c0.1,0,0.2,0,0.2,0l3.9,3.8l0.1,0.1c0,0.1,0,0.1-0.1,0.1l-3.9,3.9C176.7,172.7,176.6,172.7,176.5,172.7z"/>
	<path class="st4" d="M166.9,168.6c0.1,0,0.1-0.1,0.1-0.2v-2.1h4.8c0.1,0,0.2-0.1,0.2-0.2V163c0-0.1-0.1-0.2-0.2-0.2H167v-2.1
		c0-0.1-0.1-0.1-0.1-0.2c-0.1,0-0.1,0-0.2,0l-3.9,3.8l-0.1,0.1c0,0.1,0,0.1,0.1,0.1l3.9,3.9C166.8,168.6,166.9,168.6,166.9,168.6z"
		/>
	<path class="st4" d="M166.9,176.4c0.1,0,0.1-0.1,0.1-0.2v-2.1h4.8c0.1,0,0.2-0.1,0.2-0.2v-3.1c0-0.1-0.1-0.2-0.2-0.2H167v-2.1
		c0-0.1-0.1-0.2-0.1-0.2c-0.1,0-0.1,0-0.2,0l-3.9,3.8l-0.1,0.1c0,0,0,0.1,0.1,0.1l3.9,3.8C166.8,176.4,166.9,176.4,166.9,176.4z"/>
	<rect x="106.6" y="153.6" class="st3" width="25.8" height="25.8"/>
	<path class="st4" d="M124.3,164.6c-0.1,0-0.1-0.1-0.1-0.2v-2.1h-4.8c-0.1,0-0.2-0.1-0.2-0.2V159c0-0.1,0.1-0.2,0.2-0.2h4.8v-2.1
		c0-0.1,0.1-0.1,0.1-0.2s0.2,0,0.2,0l3.9,3.8l0.1,0.1c0,0.1,0,0.1-0.1,0.1l-3.8,3.8C124.5,164.6,124.4,164.6,124.3,164.6z"/>
	<path class="st4" d="M124.3,172.7c-0.1,0-0.1-0.1-0.1-0.2v-2.1h-4.8c-0.1,0-0.2-0.1-0.2-0.2v-3.1c0-0.1,0.1-0.2,0.2-0.2h4.8v-2.1
		c0-0.1,0.1-0.2,0.1-0.2h0.2l3.9,3.8l0.1,0.1c0,0.1,0,0.1-0.1,0.1l-3.8,3.9C124.5,172.7,124.4,172.7,124.3,172.7z"/>
	<path class="st4" d="M114.8,168.6c0.1,0,0.1-0.1,0.1-0.2v-2.1h4.8c0.1,0,0.2-0.1,0.2-0.2V163c0-0.1-0.1-0.2-0.2-0.2h-4.8v-2.1
		c0-0.1-0.1-0.1-0.1-0.2s-0.2,0-0.2,0l-3.8,3.8l-0.1,0.1c0,0.1,0,0.1,0.1,0.1l3.8,3.9C114.6,168.6,114.7,168.6,114.8,168.6z"/>
	<path class="st4" d="M114.8,176.4c0.1,0,0.1-0.1,0.1-0.2v-2.1h4.8c0.1,0,0.2-0.1,0.2-0.2v-3.1c0-0.1-0.1-0.2-0.2-0.2h-4.8v-2.1
		c0-0.1-0.1-0.2-0.1-0.2h-0.2l-3.8,3.8l-0.1,0.1c0,0,0,0.1,0.1,0.1l3.8,3.8C114.6,176.4,114.7,176.4,114.8,176.4z"/>
	<rect x="64.6" y="153.6" class="st3" width="25.8" height="25.8"/>
	<path class="st4" d="M82.3,164.6c-0.1,0-0.1-0.1-0.1-0.2v-2.1h-4.8c-0.1,0-0.2-0.1-0.2-0.2V159c0-0.1,0.1-0.2,0.2-0.2h4.8v-2.1
		c0-0.1,0.1-0.1,0.1-0.2s0.2,0,0.2,0l3.9,3.8l0.1,0.1c0,0.1,0,0.1-0.1,0.1l-3.8,3.8C82.5,164.6,82.4,164.6,82.3,164.6z"/>
	<path class="st4" d="M82.3,172.7c-0.1,0-0.1-0.1-0.1-0.2v-2.1h-4.8c-0.1,0-0.2-0.1-0.2-0.2v-3.1c0-0.1,0.1-0.2,0.2-0.2h4.8v-2.1
		c0-0.1,0.1-0.2,0.1-0.2h0.2l3.9,3.8l0.1,0.1c0,0.1,0,0.1-0.1,0.1l-3.8,3.9C82.5,172.7,82.4,172.7,82.3,172.7z"/>
	<path class="st4" d="M72.8,168.6c0.1,0,0.1-0.1,0.1-0.2v-2.1h4.8c0.1,0,0.2-0.1,0.2-0.2V163c0-0.1-0.1-0.2-0.2-0.2h-4.8v-2.1
		c0-0.1-0.1-0.1-0.1-0.2s-0.2,0-0.2,0l-3.8,3.8l-0.1,0.1c0,0.1,0,0.1,0.1,0.1l3.8,3.9C72.6,168.6,72.7,168.6,72.8,168.6z"/>
	<path class="st4" d="M72.8,176.4c0.1,0,0.1-0.1,0.1-0.2v-2.1h4.8c0.1,0,0.2-0.1,0.2-0.2v-3.1c0-0.1-0.1-0.2-0.2-0.2h-4.8v-2.1
		c0-0.1-0.1-0.2-0.1-0.2h-0.2l-3.8,3.8l-0.1,0.1c0,0,0,0.1,0.1,0.1l3.8,3.8C72.6,176.4,72.7,176.4,72.8,176.4z"/>
	<rect x="12.4" y="153.6" class="st3" width="25.8" height="25.8"/>
	<path class="st4" d="M30.1,164.6c-0.1,0-0.1-0.1-0.1-0.2v-2.1h-4.8c-0.1,0-0.2-0.1-0.2-0.2V159c0-0.1,0.1-0.2,0.2-0.2H30v-2.1
		c0-0.1,0-0.1,0.1-0.2c0.1,0,0.1,0,0.2,0l3.8,3.8l0.1,0.1c0,0.1,0,0.1-0.1,0.1l-3.9,3.8C30.3,164.6,30.2,164.6,30.1,164.6z"/>
	<path class="st4" d="M30.1,172.7c-0.1,0-0.1-0.1-0.1-0.2v-2.1h-4.8c-0.1,0-0.2-0.1-0.2-0.2v-3.1c0-0.1,0.1-0.2,0.2-0.2H30v-2.1
		c0-0.1,0-0.2,0.1-0.2s0.1,0,0.2,0l3.8,3.8l0.1,0.1c0,0.1,0,0.1-0.1,0.1l-3.9,3.9C30.3,172.7,30.2,172.7,30.1,172.7z"/>
	<path class="st4" d="M20.6,168.6c0.1,0,0.1-0.1,0.1-0.2v-2.1h4.8c0.1,0,0.2-0.1,0.2-0.2V163c0-0.1-0.1-0.2-0.2-0.2h-4.8v-2.1
		c0-0.1,0-0.1-0.1-0.2c-0.1,0-0.2,0-0.2,0l-3.8,3.8l-0.1,0.1c0,0.1,0,0.1,0.1,0.1l3.9,3.9C20.4,168.6,20.5,168.6,20.6,168.6z"/>
	<path class="st4" d="M20.6,176.4c0.1,0,0.1-0.1,0.1-0.2v-2.1h4.8c0.1,0,0.2-0.1,0.2-0.2v-3.1c0-0.1-0.1-0.2-0.2-0.2h-4.8v-2.1
		c0-0.1,0-0.2-0.1-0.2s-0.2,0-0.2,0l-3.8,3.8l-0.1,0.1c0,0,0,0.1,0.1,0.1l3.9,3.8C20.4,176.4,20.5,176.4,20.6,176.4z"/>
	<path class="st3" d="M66.9,120.1c0,8.5-6.9,15.3-15.3,15.3s-15.3-6.9-15.3-15.3s6.9-15.3,15.3-15.3S66.9,111.6,66.9,120.1z"/>
	<path class="st4" d="M55.6,114.5c0-0.1-0.1-0.1-0.2-0.1h-2.1v-4.8c0-0.1-0.1-0.2-0.2-0.2H50c-0.1,0-0.2,0.1-0.2,0.2v4.8h-2.1
		c-0.1,0-0.2,0.1-0.2,0.1v0.2l3.8,3.8l0.1,0.1c0,0,0.1,0,0.1-0.1l3.8-3.8C55.6,114.7,55.6,114.6,55.6,114.5z"/>
	<path class="st4" d="M55.6,125.7c0,0.1-0.1,0.1-0.2,0.1h-2.1v4.8c0,0.1-0.1,0.2-0.2,0.2H50c-0.1,0-0.2-0.1-0.2-0.2v-4.8h-2.1
		c-0.1,0-0.2-0.1-0.2-0.1v-0.2l3.8-3.9l0.1-0.1c0,0,0.1,0,0.1,0.1l3.8,3.9C55.6,125.6,55.6,125.6,55.6,125.7z"/>
	<path class="st4" d="M58.1,124.2c-0.1,0-0.1-0.1-0.1-0.2v-2.1h-4.8c-0.1,0-0.2-0.1-0.2-0.2v-3.1c0-0.1,0.1-0.2,0.2-0.2H58v-2.1
		c0-0.1,0-0.2,0.1-0.2s0.2,0,0.2,0l3.8,3.8l0.1,0.1c0,0,0,0.1-0.1,0.1l-3.8,3.8C58.2,124.2,58.1,124.2,58.1,124.2z"/>
	<path class="st4" d="M45.1,124.2c0.1,0,0.1-0.1,0.1-0.2v-2.1H50c0.1,0,0.2-0.1,0.2-0.2v-3.1c0-0.1-0.1-0.2-0.2-0.2h-4.8v-2.1
		c0-0.1,0-0.2-0.1-0.2s-0.2,0-0.2,0l-3.8,3.8L41,120c0,0,0,0.1,0.1,0.1l3.7,4.1C44.9,124.2,45,124.2,45.1,124.2z"/>
	<path class="st3" d="M160.3,120.1c0,8.5-6.9,15.3-15.3,15.3s-15.3-6.9-15.3-15.3s6.9-15.3,15.3-15.3S160.3,111.6,160.3,120.1z"/>
	<path class="st4" d="M149,114.5c0-0.1-0.1-0.1-0.2-0.1h-2.1v-4.8c0-0.1-0.1-0.2-0.2-0.2h-3.1c-0.1,0-0.2,0.1-0.2,0.2v4.8h-2.1
		c-0.1,0-0.1,0.1-0.2,0.1s0,0.2,0,0.2l3.8,3.8l0.1,0.1c0,0,0.1,0,0.1-0.1l3.9-3.8C149,114.7,149,114.6,149,114.5z"/>
	<path class="st4" d="M149,125.7c0,0.1-0.1,0.1-0.2,0.1h-2.1v4.8c0,0.1-0.1,0.2-0.2,0.2h-3.1c-0.1,0-0.2-0.1-0.2-0.2v-4.8h-2.1
		c-0.1,0-0.1-0.1-0.2-0.1s0-0.2,0-0.2l3.8-3.9l0.1-0.1c0,0,0.1,0,0.1,0.1l3.9,3.9C149,125.6,149,125.6,149,125.7z"/>
	<path class="st4" d="M151.4,124.2c-0.1,0-0.1-0.1-0.1-0.2v-2.1h-4.8c-0.1,0-0.2-0.1-0.2-0.2v-3.1c0-0.1,0.1-0.2,0.2-0.2h4.8v-2.1
		c0-0.1,0.1-0.2,0.1-0.2c0.1,0,0.2,0,0.2,0l3.9,3.8l0.1,0.1c0,0,0,0.1-0.1,0.1l-3.9,3.8C151.6,124.2,151.5,124.2,151.4,124.2z"/>
	<path class="st4" d="M138.4,124.2c0.1,0,0.1-0.1,0.1-0.2v-2.1h4.8c0.1,0,0.2-0.1,0.2-0.2v-3.1c0-0.1-0.1-0.2-0.2-0.2h-4.8v-2.1
		c0-0.1-0.1-0.2-0.1-0.2c-0.1,0-0.2,0-0.2,0l-3.9,3.8l-0.1,0.1c0,0,0,0.1,0.1,0.1l3.9,3.8C138.3,124.2,138.4,124.2,138.4,124.2z"/>
	<line class="st5" x1="73.1" y1="144" x2="79.4" y2="137.7"/>
	<text transform="matrix(1 0 0 1 42.0305 143.469)" class="st4 st6 st7">DMZ</text>
	<text transform="matrix(1 0 0 1 136.3674 143.469)" class="st4 st6 st7">LAN</text>
	<text transform="matrix(1 0 0 1 80.9963 102.2448)" class="st4 st6 st7">Gateway</text>
	<text transform="matrix(6.123234e-17 -1 1 6.123234e-17 10.7465 176.1832)" class="st4 st6 st7">Labs</text>
	<text transform="matrix(1 0 0 1 83.7698 33.5204)" class="st4 st6 st7">Internet</text>
	<text transform="matrix(6.123234e-17 -1 1 6.123234e-17 62.7012 181.4625)" class="st4 st6 st7">Servers</text>
	<text transform="matrix(6.123234e-17 -1 1 6.123234e-17 105.2266 180.5094)" class="st4 st6 st7">Guests</text>
	<text transform="matrix(6.123234e-17 -1 1 6.123234e-17 157.4838 179.7731)" class="st4 st6 st7">Dorms</text>
	<line class="st5" x1="37.9" y1="35.1" x2="37.9" y2="81.1"/>
	<path class="st5" d="M83,62.3"/>
	<path class="st0" d="M119.6,68.2"/>
	<path class="st0" d="M119.2,60.8"/>
	<text transform="matrix(1 0 0 1 32.7498 75.1003)" class="st4 st6 st7">No limit</text>
	<circle class="st8" cx="74.8" cy="198.9" r="0.5"/>
	<circle class="st8" cx="78.3" cy="198.9" r="0.5"/>
	<circle class="st8" cx="81.8" cy="198.9" r="0.5"/>
	<line class="st2" x1="91.3" y1="207.1" x2="83.7" y2="179.6"/>
	<line class="st2" x1="64.2" y1="207.1" x2="71.9" y2="179.6"/>
	<path class="st9" d="M53.1,208.7"/>
	<path class="st9" d="M91.6,208.7"/>
	<path id="path6" class="st10" d="M40,207.2c0.6,0,1.1,0,1.7,0c9.8,0,19.5,0,29.3,0c1.2-0.1,2.3,0,3.5,0c0.1,0.3,0.2,0.6,0.2,0.9
		c0.3,0,0.7,0,1.1,0.1v0.1c-0.4,0-0.8,0-1.1,0c0,1.9,0,3.7,0,5.6c0,0.4,0,0.7,0,1.1c-0.5,0-1,0-1.4,0c-10.6,0-21.2,0-31.8,0
		c-0.5,0-0.9,0-1.4-0.1c-0.1-0.3-0.1-0.7-0.1-1c0-1.9,0-3.7,0-5.6c-0.4,0-0.8,0-1.1,0v-0.1c0.3,0,0.7,0,1.1-0.1
		C39.9,207.8,39.9,207.5,40,207.2z"/>
	<path id="path8" class="st11" d="M40.7,208c11,0,22,0,33,0c0,2.1,0,4.2,0,6.2c-11,0-22,0-33,0C40.7,212.1,40.7,210.1,40.7,208z"/>
	<path id="path10-6" class="st10" d="M38.8,208.3c0.4,0,0.8,0,1.1,0c0,1.9,0,3.7,0,5.6c-0.4,0-0.7,0-1.1,0V208.3z"/>
	<path id="path12" class="st10" d="M74.6,208.3c0.4,0,0.8,0,1.1,0v5.6c-0.4,0-0.8,0-1.2,0C74.6,212,74.6,210.2,74.6,208.3z"/>
	<path id="path14" class="st10" d="M39.2,208.7c0.2-0.2,0.5,0.1,0.3,0.3C39.3,209.1,39,208.9,39.2,208.7z"/>
	<path id="path16" class="st10" d="M75,208.7c0.2-0.2,0.5,0,0.3,0.2C75.2,209.1,74.8,208.9,75,208.7z"/>
	<path id="path18" class="st10" d="M49.3,209.5c0.2,0,0.4,0,0.6,0c0,0.2,0,0.4,0.1,0.6c-0.2,0-0.4,0-0.7-0.1
		C49.3,209.9,49.3,209.7,49.3,209.5z"/>
	<path id="path20" class="st10" d="M51.3,209.5c0.2,0,0.4,0,0.6-0.1c0,0.2,0,0.4,0.1,0.7c-0.2,0-0.4,0-0.7,0
		C51.3,209.9,51.3,209.7,51.3,209.5z"/>
	<path id="path22" class="st10" d="M43.4,209.5c0.2,0,0.5,0,0.6,0c0,0.2,0,0.5,0,0.6c-0.2,0-0.4,0-0.6,0
		C43.5,210,43.4,209.7,43.4,209.5z"/>
	<path id="path24" class="st10" d="M45.4,209.5c0.2,0,0.5,0,0.6,0c0,0.2,0,0.5,0,0.6c-0.2,0-0.4,0-0.6,0
		C45.4,210,45.4,209.7,45.4,209.5z"/>
	<path id="path26" class="st10" d="M47.4,209.5c0.2,0,0.5,0,0.6,0c0,0.2,0,0.5,0,0.6c-0.2,0-0.5,0-0.6,0
		C47.4,210,47.4,209.7,47.4,209.5z"/>
	<path id="path28" class="st10" d="M70.9,210.5c0.4-0.3,1.2,0,1.1,0.6c0,0.5-0.7,0.9-1.1,0.6C70.5,211.4,70.5,210.7,70.9,210.5z"/>
	<path id="path30" class="st10" d="M44.4,210.8c0.2,0,0.4,0,0.6,0c0,0.2,0,0.4,0,0.6c-0.2,0-0.4,0-0.6,0
		C44.4,211.2,44.4,211,44.4,210.8z"/>
	<path id="path32" class="st10" d="M46.3,210.8c0.2,0,0.4,0,0.7,0c0,0.2,0,0.4,0,0.6c-0.2,0-0.4,0-0.6,0
		C46.3,211.2,46.3,211,46.3,210.8z"/>
	<path id="path34" class="st10" d="M48.3,210.8c0.2,0,0.4,0,0.7,0c0,0.2,0,0.4,0,0.6c-0.2,0-0.4,0-0.6,0
		C48.3,211.2,48.3,211,48.3,210.8z"/>
	<path id="path36" class="st10" d="M50.3,210.8c0.2,0,0.5,0,0.7,0c0,0.2,0,0.4,0,0.6c-0.2,0-0.4,0-0.6,0
		C50.3,211.2,50.3,211,50.3,210.8z"/>
	<path id="path38" class="st10" d="M52.2,210.8c0.2,0,0.4,0,0.7,0c0,0.2,0,0.4,0,0.6c-0.2,0-0.4,0-0.6,0
		C52.2,211.2,52.2,211,52.2,210.8z"/>
	<path id="path40" class="st10" d="M55.5,210.8c1.8,0,3.6,0,5.4,0c0,0.2,0,0.4,0,0.6c-1.8,0-3.6,0-5.4,0
		C55.5,211.2,55.5,211,55.5,210.8z"/>
	<path id="path42" class="st10" d="M61.4,210.8c0.7,0,1.5,0,2.2,0c0,0.2,0,0.4,0,0.6c-0.7,0-1.5,0-2.2,0
		C61.4,211.2,61.4,211,61.4,210.8z"/>
	<path id="path44" class="st10" d="M64.1,210.8c0.8,0,1.5,0,2.3,0c0,0.2,0,0.4,0,0.6c-0.7,0-1.5,0-2.2,0
		C64.1,211.2,64.1,211,64.1,210.8z"/>
	<path id="path46" class="st10" d="M51.3,212c0.2,0,0.4,0,0.6,0c0,0.2,0,0.4,0.1,0.6c-0.2,0-0.4,0-0.6,0
		C51.3,212.4,51.3,212.2,51.3,212z"/>
	<path id="path48" class="st10" d="M43.5,212c0.2,0,0.5,0,0.6,0c0,0.2,0,0.5,0,0.6c-0.2,0-0.5,0-0.6,0
		C43.5,212.5,43.5,212.2,43.5,212z"/>
	<path id="path50" class="st10" d="M45.4,212c0.2,0,0.5,0,0.6,0c0,0.2,0,0.5,0,0.6c-0.2,0-0.5,0-0.6,0
		C45.4,212.5,45.4,212.2,45.4,212z"/>
	<path id="path52" class="st10" d="M47.4,212c0.2,0,0.5,0,0.6,0c0,0.2,0,0.4,0,0.6c-0.2,0-0.5,0-0.6,0
		C47.4,212.5,47.4,212.2,47.4,212z"/>
	<path id="path54" class="st10" d="M49.3,212c0.2,0,0.5,0,0.6,0c0,0.2,0,0.4,0,0.6c-0.2,0-0.5,0-0.6,0
		C49.3,212.5,49.3,212.2,49.3,212z"/>
	<path id="path56" class="st10" d="M39.2,213.2c0.1-0.2,0.5,0,0.3,0.2C39.3,213.7,39,213.4,39.2,213.2z"/>
	<path id="path58" class="st10" d="M75,213.2c0.1-0.2,0.5,0,0.3,0.2C75.2,213.7,74.9,213.4,75,213.2z"/>
	<path id="path64" class="st10" d="M41.4,215.1c10.6-0.1,21.2,0,31.8,0c0,0.4,0,0.8,0,1.1c-10.6,0.1-21.2,0-31.8,0
		C41.4,215.8,41.4,215.4,41.4,215.1z"/>
	<path id="path66" class="st10" d="M40,216.2c0.4,0,0.9,0,1.3,0c10.6,0,21.2,0,31.8,0c0.4,0,0.8,0,1.1,0.1c0.3,0.2,0.4,0.6,0.5,0.8
		c0.3,0,0.6,0.1,1,0.1v0.1c-0.4,0-0.8,0-1.1,0c0,1.9,0,3.7,0,5.6c0,0.4,0,0.7,0,1.1c-0.5,0-1,0-1.4,0c-10.6,0-21.2,0-31.8,0
		c-0.5,0-1,0-1.4,0c0-0.4,0-0.7,0-1.1c-0.1-1.9,0-3.7,0-5.6c-0.4,0-0.8,0-1.1,0v-0.1c0.3,0,0.7,0,1.1-0.1
		C39.9,216.9,40,216.6,40,216.2z"/>
	<path id="path68" class="st11" d="M40.7,217c11,0,22,0,33.1,0c0,2.1,0,4.2,0,6.2c-11,0-22,0-33.1,0C40.7,221.2,40.7,219.1,40.7,217
		z"/>
	<path id="path70" class="st10" d="M38.8,217.3c0.4,0,0.8,0,1.1,0c0,1.9,0,3.7,0,5.6c-0.4,0-0.8,0-1.2,0V217.3z"/>
	<path id="path72" class="st10" d="M74.6,217.3c0.4,0,0.8,0,1.1,0v5.6c-0.4,0-0.8,0-1.2,0C74.6,221.1,74.6,219.2,74.6,217.3z"/>
	<path id="path74" class="st10" d="M39.1,217.7c0.2-0.2,0.6,0,0.4,0.3C39.3,218.2,38.9,217.9,39.1,217.7z"/>
	<path id="path76" class="st10" d="M75,217.7c0.2-0.2,0.6,0,0.4,0.3C75.2,218.2,74.8,217.9,75,217.7z"/>
	<path id="path78" class="st10" d="M43.5,218.6c0.2,0,0.5,0,0.6,0c0,0.2,0,0.4,0,0.6c-0.2,0-0.5,0-0.6,0
		C43.5,219.1,43.5,218.8,43.5,218.6z"/>
	<path id="path80" class="st10" d="M45.4,218.6c0.2,0,0.5,0,0.6,0c0,0.2,0,0.4,0,0.6c-0.2,0-0.5,0-0.6,0
		C45.4,219.1,45.4,218.8,45.4,218.6z"/>
	<path id="path82" class="st10" d="M47.4,218.6c0.2,0,0.5,0,0.6,0c0,0.2,0,0.4,0,0.6c-0.2,0-0.5,0-0.6,0
		C47.4,219.1,47.4,218.8,47.4,218.6z"/>
	<path id="path84" class="st10" d="M49.3,218.6c0.2,0,0.5,0,0.6,0c0,0.2,0,0.4,0,0.6c-0.2,0-0.5,0-0.6,0
		C49.3,219.1,49.3,218.8,49.3,218.6z"/>
	<path id="path86" class="st10" d="M51.3,218.6c0.2,0,0.4,0,0.6,0c0,0.2,0,0.5,0,0.6c-0.2,0-0.4,0-0.6,0
		C51.3,219,51.3,218.8,51.3,218.6z"/>
	<path id="path88" class="st10" d="M70.9,219.5c0.3-0.2,0.7-0.1,0.9,0.1c0.2,0.3,0.2,0.7,0,1c-0.3,0.2-0.7,0.2-1.1,0
		C70.5,220.4,70.5,219.8,70.9,219.5z"/>
	<path id="path90" class="st10" d="M44.4,219.8c0.2,0,0.4,0,0.6,0c0,0.2,0,0.5,0,0.7c-0.2,0-0.4,0-0.6,0
		C44.4,220.2,44.4,220,44.4,219.8z"/>
	<path id="path92" class="st10" d="M46.3,219.8c0.2,0,0.4,0,0.6,0c0,0.2,0,0.4,0,0.7c-0.2,0-0.4,0-0.6,0
		C46.3,220.2,46.3,220,46.3,219.8z"/>
	<path id="path94" class="st10" d="M48.3,219.8c0.2,0,0.4,0,0.6,0c0,0.2,0,0.4,0,0.6c-0.2,0-0.4,0-0.6,0
		C48.3,220.2,48.3,220,48.3,219.8z"/>
	<path id="path96" class="st10" d="M50.3,219.8c0.2,0,0.4,0,0.6,0c0,0.2,0,0.4,0,0.6c-0.2,0-0.4,0-0.6,0
		C50.3,220.2,50.3,220,50.3,219.8z"/>
	<path id="path98" class="st10" d="M52.2,219.8c0.2,0,0.4,0,0.6,0c0,0.2,0,0.4,0,0.6c-0.2,0-0.4,0-0.6,0
		C52.2,220.2,52.2,220,52.2,219.8z"/>
	<path id="path100" class="st10" d="M55.5,219.8c1.8,0,3.6,0,5.4,0c0,0.2,0,0.4,0,0.6c-1.8,0-3.6,0-5.4,0
		C55.5,220.2,55.5,220,55.5,219.8z"/>
	<path id="path102" class="st10" d="M61.4,219.8c0.7,0,1.5,0,2.2,0c0,0.2,0,0.4,0,0.7c-0.7,0-1.5,0-2.2,0
		C61.4,220.2,61.4,220,61.4,219.8z"/>
	<path id="path104" class="st10" d="M64.1,219.8c0.7,0,1.5,0,2.3,0c0,0.2,0,0.4,0,0.6c-0.7,0-1.5,0-2.3,0
		C64.1,220.2,64.1,220,64.1,219.8z"/>
	<path id="path106" class="st10" d="M43.5,221.1c0.2,0,0.5,0,0.6,0c0,0.2,0,0.4,0,0.6c-0.2,0-0.5,0-0.6,0
		C43.5,221.5,43.5,221.2,43.5,221.1z"/>
	<path id="path108" class="st10" d="M45.4,221.1c0.2,0,0.5,0,0.6,0c0,0.2,0,0.4,0,0.6c-0.2,0-0.5,0-0.6,0
		C45.4,221.5,45.4,221.2,45.4,221.1z"/>
	<path id="path110" class="st10" d="M47.4,221.1c0.2,0,0.5,0,0.6,0c0,0.2,0,0.4,0,0.6c-0.2,0-0.5,0-0.6,0
		C47.4,221.5,47.4,221.2,47.4,221.1z"/>
	<path id="path112" class="st10" d="M49.3,221.1c0.2,0,0.5,0,0.6,0c0,0.2,0,0.4,0,0.6c-0.2,0-0.5,0-0.6,0
		C49.3,221.5,49.3,221.2,49.3,221.1z"/>
	<path id="path114" class="st10" d="M51.3,221.1c0.2,0,0.4,0,0.6,0c0,0.2,0,0.5,0,0.6c-0.2,0-0.4,0-0.6,0
		C51.3,221.5,51.3,221.2,51.3,221.1z"/>
	<path id="path116" class="st10" d="M39.1,222.3c0.2-0.2,0.6,0,0.4,0.3C39.3,222.8,38.9,222.5,39.1,222.3z"/>
	<path id="path118" class="st10" d="M75,222.3c0.2-0.2,0.6,0,0.4,0.3C75.2,222.8,74.8,222.5,75,222.3z"/>
	<path id="path124" class="st10" d="M41.4,224.1c10.6,0,21.2,0,31.8,0c0,0.4,0,0.8,0,1.2c-10.6,0-21.2,0-31.8,0
		C41.4,224.9,41.4,224.5,41.4,224.1z"/>
	<path id="path126" class="st10" d="M39.9,225.3c0.5,0,1,0,1.4,0c10.6,0,21.2,0,31.8,0c0.5,0,1,0,1.4,0c0,0.4,0,0.7,0,1.1
		c0.1,1.9,0,3.7,0,5.6c0.4,0,0.8,0,1.1,0v0.1c-0.3,0-0.7,0-1.1,0.1c-0.1,0.3-0.2,0.6-0.2,0.9c-4.6,0.1-9.1,0-13.7,0
		c-5.8,0-11.5,0-17.3,0c-1.2,0-2.3,0-3.5,0c-0.1-0.3-0.2-0.6-0.2-0.9c-0.3,0-0.7,0-1.1-0.1V232c0.4,0,0.8,0,1.1,0c0-1.9,0-3.7,0-5.6
		C39.9,226,39.9,225.7,39.9,225.3z"/>
	<path id="path128" class="st11" d="M40.7,226.1c11,0,22,0,33,0c0,2.1,0,4.2,0,6.2c-11,0-22,0-33,0
		C40.7,230.2,40.7,228.2,40.7,226.1z"/>
	<path id="path130" class="st10" d="M38.8,226.4c0.4,0,0.8,0,1.2,0c-0.1,1.9,0,3.7,0,5.6c-0.4,0-0.8,0-1.1,0V226.4z"/>
	<path id="path132" class="st10" d="M74.6,226.4c0.4,0,0.8,0,1.2,0v5.6c-0.4,0-0.8,0-1.1,0C74.6,230.1,74.6,228.2,74.6,226.4z"/>
	<path id="path134" class="st10" d="M39.1,226.8c0.2-0.2,0.6,0,0.4,0.3C39.3,227.3,38.9,227,39.1,226.8z"/>
	<path id="path136" class="st10" d="M75,226.8c0.2-0.2,0.6,0,0.4,0.3S74.8,227,75,226.8z"/>
	<path id="path138" class="st10" d="M43.5,227.7c0.2,0,0.5,0,0.6,0c0,0.2,0,0.5,0,0.6c-0.2,0-0.5,0-0.6,0
		C43.5,228.1,43.5,227.8,43.5,227.7z"/>
	<path id="path140" class="st10" d="M45.4,227.7c0.2,0,0.5,0,0.6,0c0,0.2,0,0.5,0,0.6c-0.2,0-0.5,0-0.6,0
		C45.4,228.1,45.4,227.8,45.4,227.7z"/>
	<path id="path142" class="st10" d="M47.4,227.7c0.2,0,0.5,0,0.6,0c0,0.2,0,0.4,0,0.6c-0.2,0-0.5,0-0.6,0
		C47.4,228.1,47.4,227.8,47.4,227.7z"/>
	<path id="path144" class="st10" d="M49.3,227.7c0.2,0,0.5,0,0.6,0c0,0.2,0,0.4,0,0.6c-0.2,0-0.5,0-0.6,0
		C49.3,228.1,49.3,227.8,49.3,227.7z"/>
	<path id="path146" class="st10" d="M51.3,227.7c0.2,0,0.4,0,0.6,0c0,0.2,0,0.5,0,0.6c-0.2,0-0.4,0-0.6,0
		C51.3,228.1,51.3,227.8,51.3,227.7z"/>
	<path id="path148" class="st10" d="M71,228.6c0.5-0.2,1.1,0.2,1,0.8c-0.1,0.6-0.9,0.8-1.2,0.4C70.4,229.4,70.6,228.7,71,228.6z"/>
	<path id="path150" class="st10" d="M44.4,228.9c0.2,0,0.4,0,0.6,0c0,0.2,0,0.4,0,0.7c-0.2,0-0.4,0-0.6,0
		C44.4,229.3,44.4,229.1,44.4,228.9z"/>
	<path id="path152" class="st10" d="M46.3,228.9c0.2,0,0.4,0,0.6,0c0,0.2,0,0.4,0,0.6c-0.2,0-0.4,0-0.6,0
		C46.3,229.3,46.3,229.1,46.3,228.9z"/>
	<path id="path154" class="st10" d="M48.3,228.9c0.2,0,0.4,0,0.6,0c0,0.2,0,0.4,0,0.6c-0.2,0-0.4,0-0.6,0
		C48.3,229.3,48.3,229.1,48.3,228.9z"/>
	<path id="path156" class="st10" d="M50.3,228.9c0.2,0,0.4,0,0.6,0c0,0.2,0,0.4,0,0.6c-0.2,0-0.4,0-0.7,0
		C50.3,229.3,50.3,229.1,50.3,228.9z"/>
	<path id="path158" class="st10" d="M52.2,228.9c0.2,0,0.4,0,0.6,0c0,0.2,0,0.4,0,0.6c-0.2,0-0.4,0-0.7,0
		C52.2,229.3,52.2,229.1,52.2,228.9z"/>
	<path id="path160" class="st10" d="M55.5,228.9c1.8,0,3.6,0,5.4,0c0,0.2,0,0.4,0,0.6c-1.8,0-3.6,0-5.4,0
		C55.5,229.3,55.5,229.1,55.5,228.9z"/>
	<path id="path162" class="st10" d="M61.4,228.9c0.7,0,1.5,0,2.2,0c0,0.2,0,0.4,0,0.6c-0.7,0-1.5,0-2.2,0
		C61.4,229.3,61.4,229.1,61.4,228.9z"/>
	<path id="path164" class="st10" d="M64.1,228.9c0.7,0,1.5,0,2.2,0c0,0.2,0,0.4,0,0.6c-0.7,0-1.5,0-2.3,0
		C64.1,229.3,64.1,229.1,64.1,228.9z"/>
	<path id="path166" class="st10" d="M43.5,230.1c0.2,0,0.5,0,0.6,0c0,0.2,0,0.4,0,0.6c-0.2,0-0.5,0-0.6,0
		C43.5,230.6,43.5,230.3,43.5,230.1z"/>
	<path id="path168" class="st10" d="M45.4,230.1c0.2,0,0.5,0,0.6,0c0,0.2,0,0.4,0,0.6c-0.2,0-0.5,0-0.6,0
		C45.4,230.6,45.4,230.3,45.4,230.1z"/>
	<path id="path170" class="st10" d="M47.4,230.1c0.2,0,0.5,0,0.6,0c0,0.2,0,0.4,0,0.6c-0.2,0-0.5,0-0.6,0
		C47.4,230.6,47.4,230.3,47.4,230.1z"/>
	<path id="path172" class="st10" d="M49.3,230.1c0.2,0,0.5,0,0.6,0c0,0.2,0,0.4,0,0.6c-0.2,0-0.5,0-0.6,0
		C49.3,230.6,49.3,230.3,49.3,230.1z"/>
	<path id="path174" class="st10" d="M51.3,230.1c0.2,0,0.4,0,0.6,0c0,0.2,0,0.5,0,0.6c-0.2,0-0.4,0-0.6,0
		C51.3,230.6,51.3,230.3,51.3,230.1z"/>
	<path id="path176" class="st10" d="M39.3,231.3c0.2-0.1,0.4,0.3,0.1,0.4C39.1,231.8,39,231.4,39.3,231.3z"/>
	<path id="path178" class="st10" d="M75,231.3c0.2-0.2,0.6,0,0.4,0.3C75.2,231.9,74.8,231.6,75,231.3z"/>
	<path id="path6_1_" class="st10" d="M80.5,207.2c0.6,0,1.1,0,1.7,0c9.8,0,19.5,0,29.3,0c1.2-0.1,2.3,0,3.5,0
		c0.1,0.3,0.2,0.6,0.2,0.9c0.3,0,0.7,0,1.1,0.1v0.1c-0.4,0-0.8,0-1.1,0c0,1.9,0,3.7,0,5.6c0,0.4,0,0.7,0,1.1c-0.5,0-1,0-1.4,0
		c-10.6,0-21.2,0-31.8,0c-0.5,0-0.9,0-1.4-0.1c-0.1-0.3-0.1-0.7-0.1-1c0-1.9,0-3.7,0-5.6c-0.4,0-0.8,0-1.1,0v-0.1
		c0.3,0,0.7,0,1.1-0.1C80.4,207.8,80.4,207.5,80.5,207.2z"/>
	<path id="path8_1_" class="st11" d="M81.2,208c11,0,22,0,33,0c0,2.1,0,4.2,0,6.2c-11,0-22,0-33,0C81.2,212.1,81.2,210,81.2,208z"/>
	<path id="path10-6_1_" class="st10" d="M79.3,208.3c0.4,0,0.8,0,1.1,0c0,1.9,0,3.7,0,5.6c-0.4,0-0.7,0-1.1,0V208.3z"/>
	<path id="path12_1_" class="st10" d="M115.1,208.3c0.4,0,0.8,0,1.1,0v5.6c-0.4,0-0.8,0-1.2,0C115.1,212,115.1,210.2,115.1,208.3z"
		/>
	<path id="path14_1_" class="st10" d="M79.7,208.6c0.2-0.2,0.5,0.1,0.3,0.3C79.8,209.1,79.5,208.9,79.7,208.6z"/>
	<path id="path16_1_" class="st10" d="M115.5,208.7c0.2-0.2,0.5,0,0.3,0.2C115.7,209.1,115.3,208.9,115.5,208.7z"/>
	<path id="path18_1_" class="st10" d="M89.8,209.5c0.2,0,0.4,0,0.6,0c0,0.2,0,0.4,0.1,0.6c-0.2,0-0.4,0-0.7-0.1
		C89.8,209.9,89.8,209.7,89.8,209.5z"/>
	<path id="path20_1_" class="st10" d="M91.8,209.5c0.2,0,0.4,0,0.6-0.1c0,0.2,0,0.4,0.1,0.7c-0.2,0-0.4,0-0.7,0
		C91.8,209.9,91.8,209.7,91.8,209.5z"/>
	<path id="path22_1_" class="st10" d="M84,209.5c0.2,0,0.5,0,0.6,0c0,0.2,0,0.5,0,0.6c-0.2,0-0.4,0-0.6,0C84,210,84,209.7,84,209.5z
		"/>
	<path id="path24_1_" class="st10" d="M85.9,209.5c0.2,0,0.5,0,0.6,0c0,0.2,0,0.5,0,0.6c-0.2,0-0.4,0-0.6,0
		C85.9,210,85.9,209.7,85.9,209.5z"/>
	<path id="path26_1_" class="st10" d="M87.9,209.5c0.2,0,0.5,0,0.6,0c0,0.2,0,0.5,0,0.6c-0.2,0-0.5,0-0.6,0
		C87.9,210,87.9,209.7,87.9,209.5z"/>
	<path id="path28_1_" class="st10" d="M111.4,210.5c0.4-0.3,1.2,0,1.1,0.6c0,0.5-0.7,0.9-1.1,0.6C111,211.4,111,210.7,111.4,210.5z"
		/>
	<path id="path30_1_" class="st10" d="M84.9,210.8c0.2,0,0.4,0,0.6,0c0,0.2,0,0.4,0,0.6c-0.2,0-0.4,0-0.6,0
		C84.9,211.2,84.9,211,84.9,210.8z"/>
	<path id="path32_1_" class="st10" d="M86.8,210.8c0.2,0,0.4,0,0.7,0c0,0.2,0,0.4,0,0.6c-0.2,0-0.4,0-0.6,0
		C86.8,211.2,86.8,211,86.8,210.8z"/>
	<path id="path34_1_" class="st10" d="M88.8,210.8c0.2,0,0.4,0,0.7,0c0,0.2,0,0.4,0,0.6c-0.2,0-0.4,0-0.6,0
		C88.8,211.2,88.8,211,88.8,210.8z"/>
	<path id="path36_1_" class="st10" d="M90.8,210.8c0.2,0,0.5,0,0.7,0c0,0.2,0,0.4,0,0.6c-0.2,0-0.4,0-0.6,0
		C90.8,211.2,90.8,211,90.8,210.8z"/>
	<path id="path38_1_" class="st10" d="M92.7,210.7c0.2,0,0.4,0,0.7,0c0,0.2,0,0.4,0,0.6c-0.2,0-0.4,0-0.6,0
		C92.7,211.2,92.7,211,92.7,210.7z"/>
	<path id="path40_1_" class="st10" d="M96,210.7c1.8,0,3.6,0,5.4,0c0,0.2,0,0.4,0,0.6c-1.8,0-3.6,0-5.4,0C96,211.2,96,211,96,210.7z
		"/>
	<path id="path42_1_" class="st10" d="M101.9,210.7c0.7,0,1.5,0,2.2,0c0,0.2,0,0.4,0,0.6c-0.7,0-1.5,0-2.2,0
		C101.9,211.2,101.9,211,101.9,210.7z"/>
	<path id="path44_1_" class="st10" d="M104.6,210.8c0.8,0,1.5,0,2.3,0c0,0.2,0,0.4,0,0.6c-0.7,0-1.5,0-2.2,0
		C104.6,211.2,104.6,211,104.6,210.8z"/>
	<path id="path46_1_" class="st10" d="M91.8,212c0.2,0,0.4,0,0.6,0c0,0.2,0,0.4,0.1,0.6c-0.2,0-0.4,0-0.6,0
		C91.8,212.4,91.8,212.2,91.8,212z"/>
	<path id="path48_1_" class="st10" d="M84,212c0.2,0,0.5,0,0.6,0c0,0.2,0,0.5,0,0.6c-0.2,0-0.5,0-0.6,0C84,212.5,84,212.2,84,212z"
		/>
	<path id="path50_1_" class="st10" d="M85.9,212c0.2,0,0.5,0,0.6,0c0,0.2,0,0.5,0,0.6c-0.2,0-0.5,0-0.6,0
		C85.9,212.5,85.9,212.2,85.9,212z"/>
	<path id="path52_1_" class="st10" d="M87.9,212c0.2,0,0.5,0,0.6,0c0,0.2,0,0.4,0,0.6c-0.2,0-0.5,0-0.6,0
		C87.9,212.5,87.9,212.2,87.9,212z"/>
	<path id="path54_1_" class="st10" d="M89.8,212c0.2,0,0.5,0,0.6,0c0,0.2,0,0.4,0,0.6c-0.2,0-0.5,0-0.6,0
		C89.8,212.5,89.8,212.2,89.8,212z"/>
	<path id="path56_1_" class="st10" d="M79.7,213.2c0.1-0.2,0.5,0,0.3,0.2C79.8,213.7,79.5,213.4,79.7,213.2z"/>
	<path id="path58_1_" class="st10" d="M115.5,213.2c0.1-0.2,0.5,0,0.3,0.2C115.7,213.7,115.4,213.4,115.5,213.2z"/>
	<path id="path64_1_" class="st10" d="M81.9,215c10.6-0.1,21.2,0,31.8,0c0,0.4,0,0.8,0,1.1c-10.6,0.1-21.2,0-31.8,0
		C81.9,215.8,81.9,215.4,81.9,215z"/>
	<path id="path66_1_" class="st10" d="M80.5,216.2c0.4,0,0.9,0,1.3,0c10.6,0,21.2,0,31.8,0c0.4,0,0.8,0,1.1,0.1
		c0.3,0.2,0.4,0.6,0.5,0.8c0.3,0,0.6,0.1,1,0.1v0.1c-0.4,0-0.8,0-1.1,0c0,1.9,0,3.7,0,5.6c0,0.4,0,0.7,0,1.1c-0.5,0-1,0-1.4,0
		c-10.6,0-21.2,0-31.8,0c-0.5,0-1,0-1.4,0c0-0.4,0-0.7,0-1.1c-0.1-1.9,0-3.7,0-5.6c-0.4,0-0.8,0-1.1,0v-0.1c0.3,0,0.7,0,1.1-0.1
		C80.4,216.8,80.5,216.5,80.5,216.2z"/>
	<path id="path68_1_" class="st11" d="M81.2,217c11,0,22,0,33.1,0c0,2.1,0,4.2,0,6.2c-11,0-22,0-33.1,0
		C81.2,221.2,81.2,219.1,81.2,217z"/>
	<path id="path70_1_" class="st10" d="M79.3,217.3c0.4,0,0.8,0,1.1,0c0,1.9,0,3.7,0,5.6c-0.4,0-0.8,0-1.2,0V217.3z"/>
	<path id="path72_1_" class="st10" d="M115.1,217.3c0.4,0,0.8,0,1.1,0v5.6c-0.4,0-0.8,0-1.2,0C115.1,221.1,115.1,219.2,115.1,217.3z
		"/>
	<path id="path74_1_" class="st10" d="M79.6,217.7c0.2-0.2,0.6,0,0.4,0.3C79.8,218.2,79.4,217.9,79.6,217.7z"/>
	<path id="path76_1_" class="st10" d="M115.5,217.7c0.2-0.2,0.6,0,0.4,0.3C115.7,218.2,115.3,217.9,115.5,217.7z"/>
	<path id="path78_1_" class="st10" d="M84,218.6c0.2,0,0.5,0,0.6,0c0,0.2,0,0.4,0,0.6c-0.2,0-0.5,0-0.6,0
		C84,219.1,84,218.8,84,218.6z"/>
	<path id="path80_1_" class="st10" d="M85.9,218.6c0.2,0,0.5,0,0.6,0c0,0.2,0,0.4,0,0.6c-0.2,0-0.5,0-0.6,0
		C85.9,219,85.9,218.7,85.9,218.6z"/>
	<path id="path82_1_" class="st10" d="M87.9,218.6c0.2,0,0.5,0,0.6,0c0,0.2,0,0.4,0,0.6c-0.2,0-0.5,0-0.6,0
		C87.9,219.1,87.9,218.7,87.9,218.6z"/>
	<path id="path84_1_" class="st10" d="M89.8,218.6c0.2,0,0.5,0,0.6,0c0,0.2,0,0.4,0,0.6c-0.2,0-0.5,0-0.6,0
		C89.8,219,89.8,218.8,89.8,218.6z"/>
	<path id="path86_1_" class="st10" d="M91.8,218.6c0.2,0,0.4,0,0.6,0c0,0.2,0,0.5,0,0.6c-0.2,0-0.4,0-0.6,0
		C91.8,219,91.8,218.8,91.8,218.6z"/>
	<path id="path88_1_" class="st10" d="M111.4,219.5c0.3-0.2,0.7-0.1,0.9,0.1c0.2,0.3,0.2,0.7,0,1c-0.3,0.2-0.7,0.2-1.1,0
		C111,220.3,111,219.7,111.4,219.5z"/>
	<path id="path90_1_" class="st10" d="M84.9,219.8c0.2,0,0.4,0,0.6,0c0,0.2,0,0.5,0,0.7c-0.2,0-0.4,0-0.6,0
		C84.9,220.2,84.9,220,84.9,219.8z"/>
	<path id="path92_1_" class="st10" d="M86.8,219.8c0.2,0,0.4,0,0.6,0c0,0.2,0,0.4,0,0.7c-0.2,0-0.4,0-0.6,0
		C86.8,220.2,86.8,220,86.8,219.8z"/>
	<path id="path94_1_" class="st10" d="M88.8,219.8c0.2,0,0.4,0,0.6,0c0,0.2,0,0.4,0,0.6c-0.2,0-0.4,0-0.6,0
		C88.8,220.2,88.8,220,88.8,219.8z"/>
	<path id="path96_1_" class="st10" d="M90.8,219.8c0.2,0,0.4,0,0.6,0c0,0.2,0,0.4,0,0.6c-0.2,0-0.4,0-0.6,0
		C90.8,220.2,90.8,220,90.8,219.8z"/>
	<path id="path98_1_" class="st10" d="M92.7,219.8c0.2,0,0.4,0,0.6,0c0,0.2,0,0.4,0,0.6c-0.2,0-0.4,0-0.6,0
		C92.7,220.2,92.7,220,92.7,219.8z"/>
	<path id="path100_1_" class="st10" d="M96,219.8c1.8,0,3.6,0,5.4,0c0,0.2,0,0.4,0,0.6c-1.8,0-3.6,0-5.4,0C96,220.2,96,220,96,219.8
		z"/>
	<path id="path102_1_" class="st10" d="M101.9,219.8c0.7,0,1.5,0,2.2,0c0,0.2,0,0.4,0,0.7c-0.7,0-1.5,0-2.2,0
		C101.9,220.2,101.9,220,101.9,219.8z"/>
	<path id="path104_1_" class="st10" d="M104.6,219.8c0.7,0,1.5,0,2.3,0c0,0.2,0,0.4,0,0.6c-0.7,0-1.5,0-2.3,0
		C104.6,220.2,104.6,220,104.6,219.8z"/>
	<path id="path106_1_" class="st10" d="M84,221.1c0.2,0,0.5,0,0.6,0c0,0.2,0,0.4,0,0.6c-0.2,0-0.5,0-0.6,0
		C84,221.5,84,221.2,84,221.1z"/>
	<path id="path108_1_" class="st10" d="M85.9,221.1c0.2,0,0.5,0,0.6,0c0,0.2,0,0.4,0,0.6c-0.2,0-0.5,0-0.6,0
		C85.9,221.5,85.9,221.2,85.9,221.1z"/>
	<path id="path110_1_" class="st10" d="M87.9,221.1c0.2,0,0.5,0,0.6,0c0,0.2,0,0.4,0,0.6c-0.2,0-0.5,0-0.6,0
		C87.9,221.5,87.9,221.2,87.9,221.1z"/>
	<path id="path112_1_" class="st10" d="M89.8,221.1c0.2,0,0.5,0,0.6,0c0,0.2,0,0.4,0,0.6c-0.2,0-0.5,0-0.6,0
		C89.8,221.5,89.8,221.2,89.8,221.1z"/>
	<path id="path114_1_" class="st10" d="M91.8,221.1c0.2,0,0.4,0,0.6,0c0,0.2,0,0.5,0,0.6c-0.2,0-0.4,0-0.6,0
		C91.8,221.5,91.8,221.2,91.8,221.1z"/>
	<path id="path116_1_" class="st10" d="M79.6,222.3c0.2-0.2,0.6,0,0.4,0.3C79.8,222.8,79.4,222.5,79.6,222.3z"/>
	<path id="path118_1_" class="st10" d="M115.5,222.3c0.2-0.2,0.6,0,0.4,0.3C115.7,222.8,115.3,222.5,115.5,222.3z"/>
	<path id="path124_1_" class="st10" d="M81.9,224.1c10.6,0,21.2,0,31.8,0c0,0.4,0,0.8,0,1.2c-10.6,0-21.2,0-31.8,0
		C81.9,224.8,81.9,224.5,81.9,224.1z"/>
	<path id="path126_1_" class="st10" d="M80.4,225.3c0.5,0,1,0,1.4,0c10.6,0,21.2,0,31.8,0c0.5,0,1,0,1.4,0c0,0.4,0,0.7,0,1.1
		c0.1,1.9,0,3.7,0,5.6c0.4,0,0.8,0,1.1,0v0.1c-0.3,0-0.7,0-1.1,0.1c-0.1,0.3-0.2,0.6-0.2,0.9c-4.6,0.1-9.1,0-13.7,0
		c-5.8,0-11.5,0-17.3,0c-1.2,0-2.3,0-3.5,0c-0.1-0.3-0.2-0.6-0.2-0.9c-0.3,0-0.7,0-1.1-0.1V232c0.4,0,0.8,0,1.1,0c0-1.9,0-3.7,0-5.6
		C80.4,226,80.4,225.6,80.4,225.3z"/>
	<path id="path128_1_" class="st11" d="M81.2,226.1c11,0,22,0,33,0c0,2.1,0,4.2,0,6.2c-11,0-22,0-33,0
		C81.2,230.2,81.2,228.1,81.2,226.1z"/>
	<path id="path130_1_" class="st10" d="M79.3,226.3c0.4,0,0.8,0,1.2,0c-0.1,1.9,0,3.7,0,5.6c-0.4,0-0.8,0-1.1,0V226.3z"/>
	<path id="path132_1_" class="st10" d="M115.1,226.4c0.4,0,0.8,0,1.2,0v5.6c-0.4,0-0.8,0-1.1,0C115.1,230.1,115.1,228.2,115.1,226.4
		z"/>
	<path id="path134_1_" class="st10" d="M79.6,226.7c0.2-0.2,0.6,0,0.4,0.3C79.8,227.3,79.4,227,79.6,226.7z"/>
	<path id="path136_1_" class="st10" d="M115.5,226.7c0.2-0.2,0.6,0,0.4,0.3C115.7,227.3,115.3,227,115.5,226.7z"/>
	<path id="path138_1_" class="st10" d="M84,227.7c0.2,0,0.5,0,0.6,0c0,0.2,0,0.5,0,0.6c-0.2,0-0.5,0-0.6,0
		C84,228.1,84,227.8,84,227.7z"/>
	<path id="path140_1_" class="st10" d="M85.9,227.7c0.2,0,0.5,0,0.6,0c0,0.2,0,0.5,0,0.6c-0.2,0-0.5,0-0.6,0
		C85.9,228.1,85.9,227.8,85.9,227.7z"/>
	<path id="path142_1_" class="st10" d="M87.9,227.7c0.2,0,0.5,0,0.6,0c0,0.2,0,0.4,0,0.6c-0.2,0-0.5,0-0.6,0
		C87.9,228.1,87.9,227.8,87.9,227.7z"/>
	<path id="path144_1_" class="st10" d="M89.8,227.7c0.2,0,0.5,0,0.6,0c0,0.2,0,0.4,0,0.6c-0.2,0-0.5,0-0.6,0
		C89.8,228.1,89.8,227.8,89.8,227.7z"/>
	<path id="path146_1_" class="st10" d="M91.8,227.7c0.2,0,0.4,0,0.6,0c0,0.2,0,0.5,0,0.6c-0.2,0-0.4,0-0.6,0
		C91.8,228.1,91.8,227.8,91.8,227.7z"/>
	<path id="path148_1_" class="st10" d="M111.6,228.5c0.5-0.2,1.1,0.2,1,0.8c-0.1,0.6-0.9,0.8-1.2,0.4
		C110.9,229.4,111.1,228.7,111.6,228.5z"/>
	<path id="path150_1_" class="st10" d="M84.9,228.9c0.2,0,0.4,0,0.6,0c0,0.2,0,0.4,0,0.7c-0.2,0-0.4,0-0.6,0
		C84.9,229.3,84.9,229.1,84.9,228.9z"/>
	<path id="path152_1_" class="st10" d="M86.8,228.9c0.2,0,0.4,0,0.6,0c0,0.2,0,0.4,0,0.6c-0.2,0-0.4,0-0.6,0
		C86.8,229.3,86.8,229.1,86.8,228.9z"/>
	<path id="path154_1_" class="st10" d="M88.8,228.9c0.2,0,0.4,0,0.6,0c0,0.2,0,0.4,0,0.6c-0.2,0-0.4,0-0.6,0
		C88.8,229.3,88.8,229.1,88.8,228.9z"/>
	<path id="path156_1_" class="st10" d="M90.8,228.9c0.2,0,0.4,0,0.6,0c0,0.2,0,0.4,0,0.6c-0.2,0-0.4,0-0.7,0
		C90.8,229.3,90.8,229.1,90.8,228.9z"/>
	<path id="path158_1_" class="st10" d="M92.7,228.9c0.2,0,0.4,0,0.6,0c0,0.2,0,0.4,0,0.6c-0.2,0-0.4,0-0.7,0
		C92.7,229.3,92.7,229.1,92.7,228.9z"/>
	<path id="path160_1_" class="st10" d="M96,228.9c1.8,0,3.6,0,5.4,0c0,0.2,0,0.4,0,0.6c-1.8,0-3.6,0-5.4,0
		C96,229.3,96,229.1,96,228.9z"/>
	<path id="path162_1_" class="st10" d="M101.9,228.9c0.7,0,1.5,0,2.2,0c0,0.2,0,0.4,0,0.6c-0.7,0-1.5,0-2.2,0
		C101.9,229.3,101.9,229.1,101.9,228.9z"/>
	<path id="path164_1_" class="st10" d="M104.6,228.9c0.7,0,1.5,0,2.2,0c0,0.2,0,0.4,0,0.6c-0.7,0-1.5,0-2.3,0
		C104.6,229.3,104.6,229.1,104.6,228.9z"/>
	<path id="path166_1_" class="st10" d="M84,230.1c0.2,0,0.5,0,0.6,0c0,0.2,0,0.4,0,0.6c-0.2,0-0.5,0-0.6,0
		C84,230.6,84,230.3,84,230.1z"/>
	<path id="path168_1_" class="st10" d="M85.9,230.1c0.2,0,0.5,0,0.6,0c0,0.2,0,0.4,0,0.6c-0.2,0-0.5,0-0.6,0
		C85.9,230.6,85.9,230.3,85.9,230.1z"/>
	<path id="path170_1_" class="st10" d="M87.9,230.1c0.2,0,0.5,0,0.6,0c0,0.2,0,0.4,0,0.6c-0.2,0-0.5,0-0.6,0
		C87.9,230.6,87.9,230.3,87.9,230.1z"/>
	<path id="path172_1_" class="st10" d="M89.8,230.1c0.2,0,0.5,0,0.6,0c0,0.2,0,0.4,0,0.6c-0.2,0-0.5,0-0.6,0
		C89.8,230.6,89.8,230.3,89.8,230.1z"/>
	<path id="path174_1_" class="st10" d="M91.8,230.1c0.2,0,0.4,0,0.6,0c0,0.2,0,0.5,0,0.6c-0.2,0-0.4,0-0.6,0
		C91.8,230.6,91.8,230.3,91.8,230.1z"/>
	<path id="path176_1_" class="st10" d="M79.8,231.3c0.2-0.1,0.4,0.3,0.1,0.4C79.7,231.8,79.5,231.4,79.8,231.3z"/>
	<path id="path178_1_" class="st10" d="M115.5,231.3c0.2-0.2,0.6,0,0.4,0.3C115.7,231.9,115.3,231.6,115.5,231.3z"/>
	<path class="st12" d="M79.3,52.4c0.4,7.5,0.2,18.7-4.4,26.7C69.2,89.2,60.3,91.6,61,98.2c0.9,8.4,15.8,9.3,16.8,18.5
		c0.7,6.3-5.8,8.4-4.9,15.7c0.2,1.1,1.9,2.7,3.8,6.7"/>
	<polygon class="st13" points="69.8,139.8 82,150.1 84.8,134.4 	"/>
	<path class="st12" d="M93.6,183.8c1.2,3.7,2.4,7.3,3.7,11.1"/>
	<polygon class="st13" points="89,195.1 101,205.7 104.2,190.1 	"/>
	<path class="st12" d="M61.4,184c-1.3,3.7-2.4,7.4-3.7,11.1"/>
	<polygon class="st13" points="50.8,190.3 54,205.9 66,195.3 	"/>
	<g>
		<g>
			<defs>
				<rect id="SVGID_1_" x="56.1" y="7.7" width="86.2" height="45"/>
			</defs>
			<clipPath id="SVGID_2_">
				<use xlink:href="#SVGID_1_"  style="overflow:visible;"/>
			</clipPath>
			<g class="st14">
				<g>
					<g>
						<g>
							<g>
								<defs>
									<rect id="SVGID_3_" x="56.5" y="7.6" width="86.1" height="44.9"/>
								</defs>
								<clipPath id="SVGID_4_">
									<use xlink:href="#SVGID_3_"  style="overflow:visible;"/>
								</clipPath>
								<g class="st15">
									<g>
										<g>
											<g>
												<defs>
													<rect id="SVGID_5_" x="56.5" y="7.7" width="86.1" height="44.9"/>
												</defs>
												<clipPath id="SVGID_6_">
													<use xlink:href="#SVGID_5_"  style="overflow:visible;"/>
												</clipPath>
												<g class="st16">
													<g>
														<g>
															<defs>
																<rect id="SVGID_7_" x="56.5" y="7.6" width="86.1" height="44.9"/>
															</defs>
															<clipPath id="SVGID_8_">
																<use xlink:href="#SVGID_7_"  style="overflow:visible;"/>
															</clipPath>
															<g class="st17">
																<g>
																	<defs>
																		<rect id="SVGID_9_" x="56.4" y="7.6" width="86.1" height="44.9"/>
																	</defs>
																	<clipPath id="SVGID_10_">
																		<use xlink:href="#SVGID_9_"  style="overflow:visible;"/>
																	</clipPath>
																	<g style="clip-path:url(#SVGID_10_);">
																		
																			<use xlink:href="#cloud"  width="86.1" height="44.9" x="-43" y="-22.4" transform="matrix(1 0 0 -1 99.417 30.059)" style="overflow:visible;"/>
																	</g>
																</g>
															</g>
														</g>
													</g>
												</g>
											</g>
										</g>
									</g>
								</g>
							</g>
						</g>
					</g>
				</g>
			</g>
		</g>
	</g>
</g>
</svg>
