<?xml version="1.0" encoding="utf-8"?>
<!-- Generator: Adobe Illustrator 23.1.0, SVG Export Plug-In . SVG Version: 6.00 Build 0)  -->
<svg version="1.1" xmlns="http://www.w3.org/2000/svg" xmlns:xlink="http://www.w3.org/1999/xlink" x="0px" y="0px"
	 viewBox="0 0 195 237.4" style="enable-background:new 0 0 195 237.4;" xml:space="preserve">
<style type="text/css">
	.st0{fill:none;stroke:#000000;stroke-width:0.7512;stroke-miterlimit:11.3386;}
	.st1{clip-path:url(#SVGID_2_);}
	.st2{clip-path:url(#SVGID_4_);}
	.st3{clip-path:url(#SVGID_6_);}
	.st4{clip-path:url(#SVGID_8_);}
	.st5{fill:none;stroke:#000000;stroke-width:0.75;}
	.st6{fill:none;stroke:#000000;stroke-width:0.744;}
	.st7{fill:#DCDEDC;}
	.st8{fill:#343F3E;}
	.st9{fill:none;}
	.st10{font-family:'Roboto-Regular';}
	.st11{font-size:9px;}
	.st12{stroke:#000000;stroke-width:0.5;}
	.st13{fill:none;stroke:#94B0DA;stroke-width:2;stroke-miterlimit:10;stroke-dasharray:8;}
	.st14{fill:#A0A0A0;stroke:#000000;stroke-width:4.777778e-02;stroke-miterlimit:10;}
	.st15{fill:#FAFAFA;stroke:#000000;stroke-width:4.777778e-02;stroke-miterlimit:10;}
	.st16{fill:none;stroke:#94B0DA;stroke-width:3;stroke-miterlimit:2.1669;stroke-dasharray:3,3;}
	.st17{fill:#94B0DA;}
</style>
<symbol  id="cloud" viewBox="-43 -22.4 86.1 44.9">
	<g id="layer1_1_" transform="translate(-54.754156,-85.921738)">
		<path id="path10_1_" class="st0" d="M55.4,107.8c5.2,0.9,10.9-1.3,14-5.4c0.7-0.7,1-1.6,1.6-2.5c0.2-0.3,0.7-0.3,1.1-0.3
			c3.8-0.2,7.4-2,9.9-4.8c0.2-0.3,0.6-0.6,1-0.5c2.2,0,4.3-0.5,6.2-1.4c3.3-1.5,5.9-4.3,7.2-7.5c1.1-2.8,1.3-5.9,0.5-8.7
			c-0.8-3-2.8-5.8-5.4-7.6c-3.1-2.2-7.1-3.1-10.8-2.4c-0.4,0.1-0.9,0.1-1.3-0.1c-3.6-1.7-8-1.9-11.7-0.3c-0.9,0.3-1.7,0.9-2.6,1.3
			c-0.4,0.3-0.8-0.1-1.2-0.3c-2.7-2.3-6.4-3.5-10-3.4c-3.3,0.1-6.4,1.4-8.9,3.5c-0.3,0.4-0.9,0.2-1.3,0.1c-2.4-0.6-4.9-0.7-7.3-0.1
			c-0.4,0.1-0.7,0.2-1.1,0.3c-0.4-0.1-0.7-0.4-1-0.6c-2.5-1.6-5.5-2.4-8.4-2.3c-3.4,0.1-6.8,1.4-9.3,3.7c-2.7,2.4-4.3,5.8-4.5,9.3
			c-0.2,2.9,0.6,5.9,2.2,8.4c2,3,5.2,5.2,8.8,6c0.3,0.1,0.6,0.1,0.8,0.3c0.2,0.3,0.2,0.6,0.3,0.9c0.8,3.8,3.4,7.3,6.9,9.2
			c3.8,2.2,8.6,2.4,12.6,0.8c0.9-0.3,1.7-0.9,2.6-1.2c0.5,0,0.8,0.5,1.1,0.8C49.1,105.6,52.1,107.3,55.4,107.8L55.4,107.8z"/>
	</g>
</symbol>
<g id="Layer_2">
	<g>
		<g>
			<defs>
				<rect id="SVGID_1_" x="54.9" y="5.4" width="86.2" height="45"/>
			</defs>
			<clipPath id="SVGID_2_">
				<use xlink:href="#SVGID_1_"  style="overflow:visible;"/>
			</clipPath>
			<g class="st1">
				<g>
					<g>
						<g>
							<g>
								<defs>
									<rect id="SVGID_3_" x="55.3" y="5.3" width="86.1" height="44.9"/>
								</defs>
								<clipPath id="SVGID_4_">
									<use xlink:href="#SVGID_3_"  style="overflow:visible;"/>
								</clipPath>
								<g class="st2">
									<g>
										<g>
											<g>
												<defs>
													<rect id="SVGID_5_" x="55.3" y="5.4" width="86.1" height="44.9"/>
												</defs>
												<clipPath id="SVGID_6_">
													<use xlink:href="#SVGID_5_"  style="overflow:visible;"/>
												</clipPath>
												<g class="st3">
													<g>
														<g>
															<defs>
																<rect id="SVGID_7_" x="55.3" y="5.3" width="86.1" height="44.9"/>
															</defs>
															<clipPath id="SVGID_8_">
																<use xlink:href="#SVGID_7_"  style="overflow:visible;"/>
															</clipPath>
															<g class="st4">
																<g>
																	<defs>
																		<rect id="SVGID_9_" x="55.3" y="5.3" width="86.1" height="44.9"/>
																	</defs>
																	<clipPath id="SVGID_10_">
																		<use xlink:href="#SVGID_9_"  style="overflow:visible;"/>
																	</clipPath>
																	<g style="clip-path:url(#SVGID_10_);">
																		
																			<use xlink:href="#cloud"  width="86.1" height="44.9" x="-43" y="-22.4" transform="matrix(1 0 0 -1 98.2559 27.7383)" style="overflow:visible;"/>
																	</g>
																</g>
															</g>
														</g>
													</g>
												</g>
											</g>
										</g>
									</g>
								</g>
							</g>
						</g>
					</g>
				</g>
			</g>
		</g>
	</g>
</g>
<g id="Layer_1">
	<g>
		<line class="st5" x1="134.5" y1="106.8" x2="110.6" y2="82.8"/>
		<line class="st5" x1="59.8" y1="106.8" x2="83.7" y2="82.8"/>
	</g>
	<line class="st5" x1="97.3" y1="61.6" x2="97.3" y2="50.3"/>
	<line class="st6" x1="75.6" y1="151.5" x2="61.9" y2="127.8"/>
	<line class="st5" x1="24.8" y1="151.5" x2="38.5" y2="127.8"/>
	<g>
		<path class="st7" d="M112.5,77c0,8.5-6.9,15.3-15.3,15.3S81.8,85.4,81.8,77c0-8.5,6.9-15.3,15.3-15.3S112.5,68.5,112.5,77z"/>
		<g>
			<path class="st8" d="M101.2,71.4c0-0.1-0.1-0.1-0.2-0.1h-2.1v-4.8c0-0.1-0.1-0.2-0.2-0.2h-3.1c-0.1,0-0.2,0.1-0.2,0.2v4.8h-2.1
				c-0.1,0-0.2,0-0.2,0.1s0,0.2,0,0.2l3.8,3.9l0.1,0.1c0,0,0.1,0,0.1-0.1l3.8-3.9C101.2,71.5,101.2,71.4,101.2,71.4z"/>
			<path class="st8" d="M101.2,82.6c0,0.1-0.1,0.1-0.2,0.1h-2.1v4.8c0,0.1-0.1,0.2-0.2,0.2h-3.1c-0.1,0-0.2-0.1-0.2-0.2v-4.8h-2.1
				c-0.1,0-0.2,0-0.2-0.1s0-0.2,0-0.2l3.8-3.9l0.1-0.1c0,0,0.1,0,0.1,0.1l3.8,3.9C101.2,82.4,101.2,82.5,101.2,82.6z"/>
			<path class="st8" d="M103.6,81c-0.1,0-0.1-0.1-0.1-0.2v-2.1h-4.8c-0.1,0-0.2-0.1-0.2-0.2v-3.1c0-0.1,0.1-0.2,0.2-0.2h4.8v-2.1
				c0-0.1,0.1-0.2,0.1-0.2h0.2l3.8,3.8l0.1,0.1c0,0.1,0,0.1-0.1,0.1l-3.9,3.8C103.8,81.1,103.7,81.1,103.6,81z"/>
			<path class="st8" d="M90.6,81c0.1,0,0.1-0.1,0.1-0.2v-2.1h4.8c0.1,0,0.2-0.1,0.2-0.2v-3.1c0-0.1-0.1-0.2-0.2-0.2h-4.8v-2.1
				c0-0.1-0.1-0.2-0.1-0.2h-0.2l-3.8,3.8l-0.1,0.1c0,0.1,0,0.1,0.1,0.1l3.8,3.8C90.5,81.1,90.6,81.1,90.6,81z"/>
		</g>
	</g>
	<line class="st5" x1="169.2" y1="152" x2="154.5" y2="126.6"/>
	<line class="st5" x1="118.3" y1="152" x2="132.8" y2="126.9"/>
	<line class="st6" x1="90.2" y1="205" x2="82.6" y2="177.5"/>
	<line class="st6" x1="63.1" y1="205" x2="70.8" y2="177.5"/>
	<g>
		<rect x="157.7" y="151.4" class="st7" width="25.8" height="25.8"/>
		<g>
			<path class="st8" d="M175.4,162.4c-0.1,0-0.1-0.1-0.1-0.2v-2.1h-4.8c-0.1,0-0.2-0.1-0.2-0.2v-3.1c0-0.1,0.1-0.2,0.2-0.2h4.8v-2.1
				c0-0.1,0.1-0.1,0.1-0.2c0.1,0,0.2,0,0.2,0l3.9,3.8l0.1,0.1c0,0.1,0,0.1-0.1,0.1l-3.9,3.8C175.6,162.4,175.5,162.4,175.4,162.4z"
				/>
			<path class="st8" d="M175.4,170.5c-0.1,0-0.1-0.1-0.1-0.2v-2.1h-4.8c-0.1,0-0.2-0.1-0.2-0.2v-3.1c0-0.1,0.1-0.2,0.2-0.2h4.8v-2.1
				c0-0.1,0.1-0.2,0.1-0.2c0.1,0,0.2,0,0.2,0l3.9,3.8l0.1,0.1c0,0.1,0,0.1-0.1,0.1l-3.9,3.9C175.6,170.5,175.5,170.5,175.4,170.5z"
				/>
			<path class="st8" d="M165.8,166.4c0.1,0,0.1-0.1,0.1-0.2v-2.1h4.8c0.1,0,0.2-0.1,0.2-0.2v-3.1c0-0.1-0.1-0.2-0.2-0.2h-4.8v-2.1
				c0-0.1-0.1-0.1-0.1-0.2c-0.1,0-0.1,0-0.2,0l-3.9,3.8l-0.1,0.1c0,0.1,0,0.1,0.1,0.1l3.9,3.9C165.7,166.4,165.8,166.4,165.8,166.4z
				"/>
			<path class="st8" d="M165.8,174.2c0.1,0,0.1-0.1,0.1-0.2v-2.1h4.8c0.1,0,0.2-0.1,0.2-0.2v-3.1c0-0.1-0.1-0.2-0.2-0.2h-4.8v-2.1
				c0-0.1-0.1-0.2-0.1-0.2c-0.1,0-0.1,0-0.2,0l-3.9,3.8l-0.1,0.1c0,0,0,0.1,0.1,0.1l3.9,3.8C165.7,174.2,165.8,174.2,165.8,174.2z"
				/>
		</g>
	</g>
	<g>
		<rect x="105.5" y="151.4" class="st7" width="25.8" height="25.8"/>
		<g>
			<path class="st8" d="M123.2,162.4c-0.1,0-0.1-0.1-0.1-0.2v-2.1h-4.8c-0.1,0-0.2-0.1-0.2-0.2v-3.1c0-0.1,0.1-0.2,0.2-0.2h4.8v-2.1
				c0-0.1,0.1-0.1,0.1-0.2s0.2,0,0.2,0l3.9,3.8l0.1,0.1c0,0.1,0,0.1-0.1,0.1l-3.8,3.8C123.4,162.4,123.3,162.4,123.2,162.4z"/>
			<path class="st8" d="M123.2,170.5c-0.1,0-0.1-0.1-0.1-0.2v-2.1h-4.8c-0.1,0-0.2-0.1-0.2-0.2v-3.1c0-0.1,0.1-0.2,0.2-0.2h4.8v-2.1
				c0-0.1,0.1-0.2,0.1-0.2h0.2l3.9,3.8l0.1,0.1c0,0.1,0,0.1-0.1,0.1l-3.8,3.9C123.4,170.5,123.3,170.5,123.2,170.5z"/>
			<path class="st8" d="M113.7,166.4c0.1,0,0.1-0.1,0.1-0.2v-2.1h4.8c0.1,0,0.2-0.1,0.2-0.2v-3.1c0-0.1-0.1-0.2-0.2-0.2h-4.8v-2.1
				c0-0.1-0.1-0.1-0.1-0.2s-0.2,0-0.2,0l-3.8,3.8l-0.1,0.1c0,0.1,0,0.1,0.1,0.1l3.8,3.9C113.5,166.4,113.6,166.4,113.7,166.4z"/>
			<path class="st8" d="M113.7,174.2c0.1,0,0.1-0.1,0.1-0.2v-2.1h4.8c0.1,0,0.2-0.1,0.2-0.2v-3.1c0-0.1-0.1-0.2-0.2-0.2h-4.8v-2.1
				c0-0.1-0.1-0.2-0.1-0.2h-0.2l-3.8,3.8l-0.1,0.1c0,0,0,0.1,0.1,0.1l3.8,3.8C113.5,174.2,113.6,174.2,113.7,174.2z"/>
		</g>
	</g>
	<g>
		<rect x="63.5" y="151.4" class="st7" width="25.8" height="25.8"/>
		<g>
			<path class="st8" d="M81.2,162.4c-0.1,0-0.1-0.1-0.1-0.2v-2.1h-4.8c-0.1,0-0.2-0.1-0.2-0.2v-3.1c0-0.1,0.1-0.2,0.2-0.2h4.8v-2.1
				c0-0.1,0.1-0.1,0.1-0.2s0.2,0,0.2,0l3.9,3.8l0.1,0.1c0,0.1,0,0.1-0.1,0.1l-3.8,3.8C81.4,162.4,81.3,162.4,81.2,162.4z"/>
			<path class="st8" d="M81.2,170.5c-0.1,0-0.1-0.1-0.1-0.2v-2.1h-4.8c-0.1,0-0.2-0.1-0.2-0.2v-3.1c0-0.1,0.1-0.2,0.2-0.2h4.8v-2.1
				c0-0.1,0.1-0.2,0.1-0.2h0.2l3.9,3.8l0.1,0.1c0,0.1,0,0.1-0.1,0.1l-3.8,3.9C81.4,170.5,81.3,170.5,81.2,170.5z"/>
			<path class="st8" d="M71.7,166.4c0.1,0,0.1-0.1,0.1-0.2v-2.1h4.8c0.1,0,0.2-0.1,0.2-0.2v-3.1c0-0.1-0.1-0.2-0.2-0.2h-4.8v-2.1
				c0-0.1-0.1-0.1-0.1-0.2s-0.2,0-0.2,0l-3.8,3.8l-0.1,0.1c0,0.1,0,0.1,0.1,0.1l3.8,3.9C71.5,166.4,71.6,166.4,71.7,166.4z"/>
			<path class="st8" d="M71.7,174.2c0.1,0,0.1-0.1,0.1-0.2v-2.1h4.8c0.1,0,0.2-0.1,0.2-0.2v-3.1c0-0.1-0.1-0.2-0.2-0.2h-4.8v-2.1
				c0-0.1-0.1-0.2-0.1-0.2h-0.2l-3.8,3.8l-0.1,0.1c0,0,0,0.1,0.1,0.1l3.8,3.8C71.5,174.2,71.6,174.2,71.7,174.2z"/>
		</g>
	</g>
	<g>
		<rect x="11.3" y="151.4" class="st7" width="25.8" height="25.8"/>
		<g>
			<path class="st8" d="M29,162.4c-0.1,0-0.1-0.1-0.1-0.2v-2.1h-4.8c-0.1,0-0.2-0.1-0.2-0.2v-3.1c0-0.1,0.1-0.2,0.2-0.2h4.8v-2.1
				c0-0.1,0-0.1,0.1-0.2c0.1,0,0.1,0,0.2,0l3.8,3.8l0.1,0.1c0,0.1,0,0.1-0.1,0.1l-3.9,3.8C29.2,162.4,29.1,162.4,29,162.4z"/>
			<path class="st8" d="M29,170.5c-0.1,0-0.1-0.1-0.1-0.2v-2.1h-4.8c-0.1,0-0.2-0.1-0.2-0.2v-3.1c0-0.1,0.1-0.2,0.2-0.2h4.8v-2.1
				c0-0.1,0-0.2,0.1-0.2s0.1,0,0.2,0l3.8,3.8l0.1,0.1c0,0.1,0,0.1-0.1,0.1l-3.9,3.9C29.2,170.5,29.1,170.5,29,170.5z"/>
			<path class="st8" d="M19.5,166.4c0.1,0,0.1-0.1,0.1-0.2v-2.1h4.8c0.1,0,0.2-0.1,0.2-0.2v-3.1c0-0.1-0.1-0.2-0.2-0.2h-4.8v-2.1
				c0-0.1,0-0.1-0.1-0.2c-0.1,0-0.2,0-0.2,0l-3.8,3.8l-0.1,0.1c0,0.1,0,0.1,0.1,0.1l3.9,3.9C19.3,166.4,19.4,166.4,19.5,166.4z"/>
			<path class="st8" d="M19.5,174.2c0.1,0,0.1-0.1,0.1-0.2v-2.1h4.8c0.1,0,0.2-0.1,0.2-0.2v-3.1c0-0.1-0.1-0.2-0.2-0.2h-4.8v-2.1
				c0-0.1,0-0.2-0.1-0.2s-0.2,0-0.2,0l-3.8,3.8l-0.1,0.1c0,0,0,0.1,0.1,0.1l3.9,3.8C19.3,174.2,19.4,174.2,19.5,174.2z"/>
		</g>
	</g>
	<g>
		<path class="st7" d="M65.8,117.9c0,8.5-6.9,15.3-15.3,15.3s-15.3-6.9-15.3-15.3s6.9-15.3,15.3-15.3S65.8,109.4,65.8,117.9z"/>
		<g>
			<path class="st8" d="M54.5,112.3c0-0.1-0.1-0.1-0.2-0.1h-2.1v-4.8c0-0.1-0.1-0.2-0.2-0.2h-3.1c-0.1,0-0.2,0.1-0.2,0.2v4.8h-2.1
				c-0.1,0-0.2,0.1-0.2,0.1v0.2l3.8,3.8l0.1,0.1c0,0,0.1,0,0.1-0.1l3.8-3.8C54.5,112.5,54.5,112.4,54.5,112.3z"/>
			<path class="st8" d="M54.5,123.5c0,0.1-0.1,0.1-0.2,0.1h-2.1v4.8c0,0.1-0.1,0.2-0.2,0.2h-3.1c-0.1,0-0.2-0.1-0.2-0.2v-4.8h-2.1
				c-0.1,0-0.2-0.1-0.2-0.1v-0.2l3.8-3.9l0.1-0.1c0,0,0.1,0,0.1,0.1l3.8,3.9C54.5,123.4,54.5,123.4,54.5,123.5z"/>
			<path class="st8" d="M57,122c-0.1,0-0.1-0.1-0.1-0.2v-2.1h-4.8c-0.1,0-0.2-0.1-0.2-0.2v-3.1c0-0.1,0.1-0.2,0.2-0.2h4.8v-2.1
				c0-0.1,0-0.2,0.1-0.2s0.2,0,0.2,0l3.8,3.8l0.1,0.1c0,0,0,0.1-0.1,0.1l-3.8,3.8C57.1,122,57,122,57,122z"/>
			<path class="st8" d="M44,122c0.1,0,0.1-0.1,0.1-0.2v-2.1h4.8c0.1,0,0.2-0.1,0.2-0.2v-3.1c0-0.1-0.1-0.2-0.2-0.2h-4.8v-2.1
				c0-0.1,0-0.2-0.1-0.2s-0.2,0-0.2,0l-3.8,3.8l-0.1,0.1c0,0,0,0.1,0.1,0.1l3.7,4.1C43.8,122,43.9,122,44,122z"/>
		</g>
	</g>
	<g>
		<path class="st7" d="M159.2,117.9c0,8.5-6.9,15.3-15.3,15.3s-15.3-6.9-15.3-15.3s6.9-15.3,15.3-15.3S159.2,109.4,159.2,117.9z"/>
		<g>
			<path class="st8" d="M147.9,112.3c0-0.1-0.1-0.1-0.2-0.1h-2.1v-4.8c0-0.1-0.1-0.2-0.2-0.2h-3.1c-0.1,0-0.2,0.1-0.2,0.2v4.8H140
				c-0.1,0-0.1,0.1-0.2,0.1s0,0.2,0,0.2l3.8,3.8l0.1,0.1c0,0,0.1,0,0.1-0.1l3.9-3.8C147.9,112.5,147.9,112.4,147.9,112.3z"/>
			<path class="st8" d="M147.9,123.5c0,0.1-0.1,0.1-0.2,0.1h-2.1v4.8c0,0.1-0.1,0.2-0.2,0.2h-3.1c-0.1,0-0.2-0.1-0.2-0.2v-4.8H140
				c-0.1,0-0.1-0.1-0.2-0.1s0-0.2,0-0.2l3.8-3.9l0.1-0.1c0,0,0.1,0,0.1,0.1l3.9,3.9C147.9,123.4,147.9,123.4,147.9,123.5z"/>
			<path class="st8" d="M150.3,122c-0.1,0-0.1-0.1-0.1-0.2v-2.1h-4.8c-0.1,0-0.2-0.1-0.2-0.2v-3.1c0-0.1,0.1-0.2,0.2-0.2h4.8v-2.1
				c0-0.1,0.1-0.2,0.1-0.2c0.1,0,0.2,0,0.2,0l3.9,3.8l0.1,0.1c0,0,0,0.1-0.1,0.1l-3.9,3.8C150.5,122,150.4,122,150.3,122z"/>
			<path class="st8" d="M137.3,122c0.1,0,0.1-0.1,0.1-0.2v-2.1h4.8c0.1,0,0.2-0.1,0.2-0.2v-3.1c0-0.1-0.1-0.2-0.2-0.2h-4.8v-2.1
				c0-0.1-0.1-0.2-0.1-0.2c-0.1,0-0.2,0-0.2,0l-3.9,3.8l-0.1,0.1c0,0,0,0.1,0.1,0.1l3.9,3.8C137.2,122,137.3,122,137.3,122z"/>
		</g>
	</g>
	<line class="st9" x1="72" y1="141.8" x2="78.3" y2="135.5"/>
	<text transform="matrix(1 0 0 1 40.8695 141.2479)" class="st8 st10 st11">DMZ</text>
	<text transform="matrix(1 0 0 1 135.2065 141.2479)" class="st8 st10 st11">LAN</text>
	<text transform="matrix(1 0 0 1 79.8353 100.0237)" class="st8 st10 st11">Gateway</text>
	<text transform="matrix(6.123234e-17 -1 1 6.123234e-17 9.5855 173.9615)" class="st8 st10 st11">Labs</text>
	<text transform="matrix(1 0 0 1 82.6088 31.2993)" class="st8 st10 st11">Internet</text>
	<text transform="matrix(6.123234e-17 -1 1 6.123234e-17 61.5403 179.2408)" class="st8 st10 st11">Servers</text>
	<text transform="matrix(6.123234e-17 -1 1 6.123234e-17 104.0656 178.2877)" class="st8 st10 st11">Guests</text>
	<text transform="matrix(6.123234e-17 -1 1 6.123234e-17 156.3228 177.5514)" class="st8 st10 st11">Dorms</text>
	<line class="st9" x1="36.8" y1="32.9" x2="36.8" y2="78.9"/>
	<path class="st9" d="M81.9,60.1"/>
	<g>
		<circle class="st12" cx="72.9" cy="196.4" r="0.5"/>
		<circle class="st12" cx="76.4" cy="196.4" r="0.5"/>
		<circle class="st12" cx="79.9" cy="196.4" r="0.5"/>
	</g>
	<text transform="matrix(1 0 0 1 23.5737 64.3303)" class="st8 st10 st11">5 Gbps</text>
	<text transform="matrix(1 0 0 1 15.5737 75.1303)" class="st8 st10 st11">From 4PM </text>
	<text transform="matrix(1 0 0 1 23.1737 85.9303)" class="st8 st10 st11">to 7PM</text>
	<path class="st13" d="M52,206.6"/>
	<path class="st13" d="M90.5,206.6"/>
	<g id="layer1" transform="translate(-69.837738,-85.953076)">
		<g id="g1481" transform="matrix(0.19111111,0,0,0.19111111,69.970238,79.805469)">
			<path id="path6" class="st14" d="M203,1105.1c2.9,0,5.9-0.1,8.8-0.2c51.1,0.1,102.1,0,153.2,0c6.1-0.3,12.1,0.1,18.2,0.2
				c0.4,1.6,0.8,3.2,1.2,4.9c1.8,0.1,3.7,0.2,5.5,0.3v0.6c-2,0-4,0-6,0c-0.2,9.8,0.2,19.6-0.1,29.4c-0.1,1.9-0.1,3.8-0.2,5.7
				c-2.5,0-5,0.1-7.5,0.2c-55.4,0.1-110.8-0.2-166.2,0.1c-2.4-0.1-4.8-0.1-7.1-0.7c-0.4-1.7-0.6-3.5-0.7-5.3
				c0-9.8,0.2-19.6,0.1-29.4c-2,0-4,0-6,0v-0.6c1.8-0.1,3.7-0.2,5.5-0.3C202.2,1108.4,202.6,1106.8,203,1105.1z"/>
			<path id="path8" class="st15" d="M206.6,1109.3c57.7-0.1,115.3-0.1,172.9,0c0.1,10.9,0.1,21.8,0,32.6c-57.6,0-115.3,0-172.9,0
				C206.5,1131,206.5,1120.2,206.6,1109.3z"/>
			<path id="path10-6" class="st14" d="M196.3,1110.9c2,0,4,0,6,0c0.1,9.8,0,19.6-0.1,29.4c-2,0-3.9,0-5.9,0V1110.9z"/>
			<path id="path12" class="st14" d="M383.9,1111c2,0,4,0,6,0v29.5c-2,0-4.1,0-6.1-0.1C384.1,1130.5,383.7,1120.8,383.9,1111z"/>
			<path id="path14" class="st14" d="M198.5,1112.8c0.8-1.2,2.7,0.3,1.8,1.4C199.4,1115.4,197.5,1113.9,198.5,1112.8z"/>
			<path id="path16" class="st14" d="M385.9,1112.9c0.8-1.2,2.7,0.1,1.8,1.3C387,1115.4,385.1,1114,385.9,1112.9z"/>
			<path id="path18" class="st14" d="M251.7,1117.3c1,0,2-0.1,3-0.1c0.1,1.1,0.2,2.3,0.3,3.4c-1.2-0.1-2.3-0.2-3.5-0.3
				C251.6,1119.3,251.6,1118.3,251.7,1117.3z"/>
			<path id="path20" class="st14" d="M262.1,1117.4c1-0.1,1.9-0.2,2.9-0.3c0.1,1.2,0.2,2.3,0.3,3.5c-1.2-0.1-2.3-0.2-3.5-0.2
				C261.9,1119.4,262,1118.4,262.1,1117.4z"/>
			<path id="path22" class="st14" d="M220.9,1117.5c0.8,0,2.4,0,3.2,0c0,0.8,0,2.4,0,3.2c-0.8,0-2.3,0-3.1,0
				C220.9,1119.8,220.9,1118.3,220.9,1117.5z"/>
			<path id="path24" class="st14" d="M231.2,1117.5c0.8,0,2.4,0,3.2,0c0,0.8,0,2.4,0,3.2c-0.8,0-2.3,0-3.1,0
				C231.2,1119.8,231.2,1118.3,231.2,1117.5z"/>
			<path id="path26" class="st14" d="M241.5,1117.5c0.8,0,2.4,0,3.2,0c0,0.8,0,2.4-0.1,3.2c-0.8,0-2.4,0-3.2,0
				C241.5,1119.9,241.5,1118.3,241.5,1117.5z"/>
			<path id="path28" class="st14" d="M364.5,1122.4c2.3-1.6,6.2,0.1,5.9,3.2c0.1,2.8-3.5,4.7-5.8,3.1
				C362.5,1127.4,362.3,1123.8,364.5,1122.4z"/>
			<path id="path30" class="st14" d="M225.7,1124c1.1-0.1,2.3-0.1,3.4-0.2c-0.1,1.1-0.1,2.3-0.2,3.4c-1-0.1-2.1-0.1-3.1-0.2
				C225.8,1126.1,225.8,1125,225.7,1124z"/>
			<path id="path32" class="st14" d="M235.9,1123.9c1.2,0,2.3-0.1,3.5-0.1c-0.1,1.1-0.1,2.3-0.1,3.4c-1.1,0-2.1-0.1-3.2-0.1
				C236,1126.1,236,1125,235.9,1123.9z"/>
			<path id="path34" class="st14" d="M246.3,1123.9c1.2,0,2.3,0,3.5-0.1c-0.1,1.1-0.1,2.2-0.1,3.4c-1,0-2.1,0-3.2-0.1
				C246.4,1126.1,246.3,1125,246.3,1123.9z"/>
			<path id="path36" class="st14" d="M256.5,1123.9c1.2,0,2.4,0,3.5,0c0,1.1-0.1,2.2-0.1,3.3c-1.1,0-2.2,0-3.3,0
				C256.6,1126.1,256.5,1125,256.5,1123.9z"/>
			<path id="path38" class="st14" d="M266.8,1123.9c1.2,0,2.3,0,3.5,0c-0.1,1.1-0.1,2.2-0.1,3.3c-1.1,0-2.2,0-3.2,0
				C266.9,1126.1,266.9,1125,266.8,1123.9z"/>
			<path id="path40" class="st14" d="M283.9,1123.8c9.5,0.1,19,0,28.5,0.1c0,1.1-0.1,2.1-0.1,3.2c-9.4,0-18.9,0-28.3,0
				C284,1126.1,283.9,1125,283.9,1123.8z"/>
			<path id="path42" class="st14" d="M314.8,1123.8c3.8,0.1,7.7,0.1,11.5,0c0,1.1,0,2.2-0.1,3.4c-3.8-0.1-7.6-0.1-11.3,0
				C314.9,1126.1,314.8,1125,314.8,1123.8z"/>
			<path id="path44" class="st14" d="M328.8,1123.9c4,0,7.9,0,11.9,0.1c0,1.1,0,2.1-0.1,3.2c-3.9,0-7.8,0-11.7,0
				C328.9,1126.1,328.9,1125,328.8,1123.9z"/>
			<path id="path46" class="st14" d="M262,1130.2c1,0,2,0,3-0.1c0.1,1.1,0.2,2.3,0.3,3.4c-1.1-0.1-2.3-0.1-3.4-0.1
				C261.9,1132.4,261.9,1131.3,262,1130.2z"/>
			<path id="path48" class="st14" d="M220.9,1130.4c0.8,0,2.4,0,3.2,0c0,0.8,0,2.4,0,3.1c-0.8,0-2.4,0-3.1,0
				C220.9,1132.8,220.9,1131.2,220.9,1130.4z"/>
			<path id="path50" class="st14" d="M231.2,1130.4c0.8,0,2.4,0,3.2,0c0,0.8,0,2.4,0,3.1c-0.8,0-2.4,0-3.1,0
				C231.2,1132.8,231.2,1131.2,231.2,1130.4z"/>
			<path id="path52" class="st14" d="M241.5,1130.4c0.8,0,2.4,0.1,3.2,0.1c0,0.8,0,2.3,0,3.1c-0.8,0-2.4,0-3.2,0
				C241.5,1132.8,241.5,1131.2,241.5,1130.4z"/>
			<path id="path54" class="st14" d="M251.7,1130.4c0.8,0,2.4,0,3.2,0c0,0.8,0,2.3,0,3.1c-0.8,0-2.4,0-3.2,0.1
				C251.8,1132.8,251.8,1131.2,251.7,1130.4z"/>
			<path id="path56" class="st14" d="M198.5,1136.9c0.7-1.1,2.4,0.2,1.6,1.2C199.4,1139.2,197.7,1137.9,198.5,1136.9z"/>
			<path id="path58" class="st14" d="M386.1,1136.9c0.7-1.1,2.4,0.2,1.6,1.2C387,1139.2,385.3,1137.9,386.1,1136.9z"/>
			<path id="path64" class="st14" d="M210,1146.3c55.4-0.3,110.8-0.1,166.2-0.1c0,2,0,4,0,6c-55.4,0.4-110.8,0-166.2,0.2
				C210,1150.3,210,1148.3,210,1146.3z"/>
			<path id="path66" class="st14" d="M203,1152.5c2.3,0,4.7-0.1,7-0.2c55.4-0.2,110.8,0.2,166.2-0.2c2,0.1,4.1,0,6,0.7
				c1.4,1,1.9,2.9,2.7,4.3c1.7,0.2,3.3,0.4,5,0.6v0.5c-2,0-4,0-6,0c-0.2,9.8,0.2,19.6-0.1,29.4c-0.1,1.9-0.1,3.8-0.2,5.6
				c-2.5,0.1-5,0.1-7.5,0.2c-55.4,0.1-110.8,0.1-166.2,0c-2.5-0.1-5-0.2-7.5-0.2c0-1.9-0.1-3.8-0.1-5.6c-0.3-9.8,0.1-19.6-0.1-29.4
				c-2,0-4,0-6,0v-0.6c1.8-0.1,3.6-0.2,5.5-0.3C202.2,1155.7,202.6,1154.1,203,1152.5z"/>
			<path id="path68" class="st15" d="M206.6,1156.6c57.7-0.1,115.3-0.1,173,0c0.1,10.9,0.1,21.8,0,32.7c-57.7,0-115.3,0-173,0
				C206.5,1178.4,206.5,1167.5,206.6,1156.6z"/>
			<path id="path70" class="st14" d="M196.3,1158.3c2,0,4,0,6,0c0.2,9.8-0.2,19.6,0.1,29.4c-2,0-4.1,0-6.1,0.1V1158.3z"/>
			<path id="path72" class="st14" d="M383.9,1158.3c2,0,4,0,6,0v29.5c-2,0-4.1-0.1-6.1-0.1C384.1,1177.9,383.7,1168.1,383.9,1158.3z
				"/>
			<path id="path74" class="st14" d="M198.3,1160.2c0.9-1.3,3,0.2,2,1.4C199.4,1163,197.4,1161.4,198.3,1160.2z"/>
			<path id="path76" class="st14" d="M385.9,1160.2c0.9-1.3,3,0.2,2,1.4C387,1163,384.9,1161.4,385.9,1160.2z"/>
			<path id="path78" class="st14" d="M220.9,1164.9c0.8,0,2.4,0,3.2,0c0,0.8,0,2.3,0,3.1c-0.8,0-2.4,0-3.1,0.1
				C220.9,1167.3,220.9,1165.7,220.9,1164.9z"/>
			<path id="path80" class="st14" d="M231.2,1164.9c0.8,0,2.4,0,3.1,0.1c0,0.8,0,2.3,0,3.1c-0.8,0-2.4,0-3.2,0.1
				C231.2,1167.3,231.2,1165.7,231.2,1164.9z"/>
			<path id="path82" class="st14" d="M241.5,1164.9c0.8,0,2.4,0,3.2,0c0,0.8,0,2.3,0,3.1c-0.8,0-2.4,0-3.2,0
				C241.5,1167.3,241.5,1165.7,241.5,1164.9z"/>
			<path id="path84" class="st14" d="M251.8,1164.9c0.8,0,2.4,0,3.2,0c0,0.8,0,2.3,0,3.1c-0.8,0-2.4,0-3.2,0
				C251.8,1167.3,251.8,1165.7,251.8,1164.9z"/>
			<path id="path86" class="st14" d="M261.8,1165c1.1,0,2.2-0.1,3.3-0.1c0,0.8,0,2.4,0,3.2c-1.1-0.1-2.2-0.1-3.3-0.1
				C261.8,1167.2,261.8,1165.7,261.8,1165z"/>
			<path id="path88" class="st14" d="M364.6,1169.8c1.5-0.8,3.5-0.7,4.9,0.4c1.3,1.5,1.3,3.9,0,5.4c-1.5,1.3-3.9,1.3-5.5,0
				C362.5,1174,362.6,1171,364.6,1169.8z"/>
			<path id="path90" class="st14" d="M225.8,1171.4c1.1-0.1,2.2-0.2,3.3-0.2c0,1.2,0,2.4,0,3.6c-1.1-0.1-2.2-0.2-3.3-0.2
				C225.8,1173.5,225.8,1172.4,225.8,1171.4z"/>
			<path id="path92" class="st14" d="M236,1171.3c1.1,0,2.2-0.1,3.3-0.1c0,1.2,0,2.3,0,3.5c-1.1,0-2.2-0.1-3.3-0.1
				C236,1173.5,236,1172.4,236,1171.3z"/>
			<path id="path94" class="st14" d="M246.3,1171.3c1.1,0,2.2-0.1,3.4-0.1c0,1.1,0,2.3,0,3.4c-1.1,0-2.2,0-3.3-0.1
				C246.3,1173.5,246.3,1172.4,246.3,1171.3z"/>
			<path id="path96" class="st14" d="M256.6,1171.2c1.1,0,2.3,0,3.4,0c0,1.1,0,2.3,0,3.4c-1.1,0-2.3,0-3.4,0
				C256.6,1173.5,256.6,1172.4,256.6,1171.2z"/>
			<path id="path98" class="st14" d="M266.9,1171.2c1.1,0,2.3,0,3.4,0c0,1.1,0,2.2,0,3.3c-1.1,0-2.2,0-3.3,0
				C266.9,1173.5,266.9,1172.4,266.9,1171.2z"/>
			<path id="path100" class="st14" d="M283.9,1171.2c9.5,0,19,0,28.4,0.1c0,1.1,0,2.2,0,3.3c-9.5,0.1-18.9,0-28.4,0
				C283.9,1173.5,283.9,1172.4,283.9,1171.2z"/>
			<path id="path102" class="st14" d="M314.8,1171.2c3.8,0.1,7.6,0.1,11.4,0c0,1.1,0,2.3,0,3.5c-3.8-0.1-7.6,0-11.4,0
				C314.8,1173.5,314.8,1172.4,314.8,1171.2z"/>
			<path id="path104" class="st14" d="M328.9,1171.2c3.9,0,7.8,0,11.8,0c0,1.1,0,2.2,0,3.3c-3.9,0-7.8,0-11.8,0
				C328.9,1173.5,328.9,1172.4,328.9,1171.2z"/>
			<path id="path106" class="st14" d="M220.9,1177.8c0.8,0,2.4,0,3.1,0.1c0,0.8,0,2.3,0,3.1c-0.8,0-2.4,0-3.2,0
				C220.9,1180.2,220.9,1178.6,220.9,1177.8z"/>
			<path id="path108" class="st14" d="M231.2,1177.8c0.8,0,2.4,0,3.2,0.1c0,0.8,0,2.3,0,3.1c-0.8,0-2.4,0.1-3.1,0.1
				C231.2,1180.2,231.2,1178.6,231.2,1177.8z"/>
			<path id="path110" class="st14" d="M241.5,1177.8c0.8,0,2.4,0,3.2,0c0,0.8,0,2.3,0,3.1c-0.8,0-2.4,0-3.2,0
				C241.5,1180.2,241.5,1178.6,241.5,1177.8z"/>
			<path id="path112" class="st14" d="M251.8,1177.8c0.8,0,2.4,0,3.2,0c0,0.8,0,2.3,0,3.1c-0.8,0-2.4,0-3.2,0
				C251.8,1180.2,251.8,1178.6,251.8,1177.8z"/>
			<path id="path114" class="st14" d="M261.8,1177.9c1.1-0.1,2.2-0.1,3.3-0.1c0,0.8,0,2.4,0,3.2c-1.1-0.1-2.2-0.1-3.3-0.1
				C261.8,1180.1,261.8,1178.7,261.8,1177.9z"/>
			<path id="path116" class="st14" d="M198.4,1184.2c0.9-1.3,3,0.2,2,1.5S197.4,1185.5,198.4,1184.2z"/>
			<path id="path118" class="st14" d="M385.9,1184.2c0.9-1.3,3,0.2,2,1.4C387,1187,384.9,1185.5,385.9,1184.2z"/>
			<path id="path124" class="st14" d="M210,1193.6c55.4,0,110.8,0.1,166.2,0c0,2,0,4.1,0,6.1c-55.4,0-110.8,0-166.2,0
				C210,1197.6,210,1195.6,210,1193.6z"/>
			<path id="path126" class="st14" d="M202.6,1199.9c2.5-0.1,5-0.1,7.5-0.2c55.4,0,110.8,0,166.2,0c2.5,0.1,5,0.1,7.5,0.2
				c0.1,1.9,0.1,3.7,0.2,5.6c0.3,9.8-0.1,19.6,0.1,29.4c2,0,4,0,6,0v0.6c-1.8,0.1-3.7,0.2-5.5,0.3c-0.4,1.6-0.8,3.3-1.2,4.9
				c-23.9,0.4-47.8,0.1-71.6,0.2c-30.1,0-60.2,0-90.4,0c-6.1,0.2-12.2-0.1-18.3-0.2c-0.4-1.6-0.8-3.3-1.2-4.9
				c-1.8-0.1-3.7-0.2-5.5-0.4v-0.6c2,0,4,0,6,0c0.2-9.8-0.2-19.6,0.1-29.4C202.5,1203.6,202.5,1201.8,202.6,1199.9z"/>
			<path id="path128" class="st15" d="M206.6,1204c57.6,0,115.3,0,172.9,0c0.1,10.9,0.1,21.8,0,32.7c-57.6,0.1-115.3,0.1-172.9,0
				C206.5,1225.7,206.5,1214.8,206.6,1204z"/>
			<path id="path130" class="st14" d="M196.3,1205.4c2,0,4.1,0,6.1,0.1c-0.3,9.8,0.1,19.6-0.1,29.4c-2,0-4,0-6,0V1205.4z"/>
			<path id="path132" class="st14" d="M383.8,1205.5c2,0,4.1-0.1,6.1-0.1v29.5c-2,0-4,0-6,0C383.7,1225.1,384.1,1215.3,383.8,1205.5
				z"/>
			<path id="path134" class="st14" d="M198.3,1207.6c0.9-1.3,2.9,0.2,2,1.5C199.4,1210.4,197.4,1208.8,198.3,1207.6z"/>
			<path id="path136" class="st14" d="M385.9,1207.6c0.9-1.3,2.9,0.2,2,1.5S384.9,1208.8,385.9,1207.6z"/>
			<path id="path138" class="st14" d="M220.9,1212.3c0.8,0,2.4,0,3.1,0c0,0.8,0,2.4,0,3.2c-0.8,0-2.4,0-3.2,0
				C220.9,1214.7,220.9,1213.1,220.9,1212.3z"/>
			<path id="path140" class="st14" d="M231.2,1212.3c0.8,0,2.4,0,3.1,0c0,0.8,0,2.4,0,3.1c-0.8,0-2.4,0-3.2,0
				C231.2,1214.7,231.2,1213.1,231.2,1212.3z"/>
			<path id="path142" class="st14" d="M241.5,1212.3c0.8,0,2.4,0,3.2,0c0,0.8,0,2.3,0,3.1c-0.8,0-2.4,0.1-3.2,0.1
				C241.5,1214.7,241.5,1213.1,241.5,1212.3z"/>
			<path id="path144" class="st14" d="M251.8,1212.3c0.8,0,2.4,0,3.2,0.1c0,0.8,0,2.3,0,3.1c-0.8,0-2.4,0-3.2,0.1
				C251.8,1214.7,251.8,1213.1,251.8,1212.3z"/>
			<path id="path146" class="st14" d="M261.8,1212.4c1.1,0,2.2-0.1,3.3-0.1c0,0.8,0,2.4,0,3.2c-1.1-0.1-2.2-0.1-3.3-0.2
				C261.8,1214.6,261.8,1213.1,261.8,1212.4z"/>
			<path id="path148" class="st14" d="M365.3,1216.9c2.6-1,5.7,1.3,5.1,4.1c-0.3,3-4.5,4-6.4,2
				C362.1,1221.2,362.9,1217.8,365.3,1216.9z"/>
			<path id="path150" class="st14" d="M225.8,1218.8c1.1-0.1,2.1-0.1,3.2-0.2c0,1.2,0.1,2.3,0.1,3.5c-1.1-0.1-2.3-0.1-3.4-0.2
				C225.8,1220.8,225.8,1219.8,225.8,1218.8z"/>
			<path id="path152" class="st14" d="M236.1,1218.7c1.1-0.1,2.1-0.1,3.2-0.1c0,1.1,0.1,2.3,0.1,3.4c-1.1,0-2.3-0.1-3.4-0.1
				C236,1220.9,236,1219.8,236.1,1218.7z"/>
			<path id="path154" class="st14" d="M246.4,1218.7c1.1,0,2.1-0.1,3.2-0.1c0,1.1,0.1,2.3,0.1,3.4c-1.1,0-2.3-0.1-3.4-0.1
				C246.3,1220.9,246.3,1219.8,246.4,1218.7z"/>
			<path id="path156" class="st14" d="M256.6,1218.7c1.1,0,2.2,0,3.3,0c0,1.1,0.1,2.2,0.1,3.3c-1.2,0-2.3,0-3.5,0
				C256.5,1220.9,256.6,1219.8,256.6,1218.7z"/>
			<path id="path158" class="st14" d="M266.9,1218.6c1.1,0,2.2,0,3.3,0c0,1.1,0.1,2.2,0.1,3.3c-1.2,0-2.3,0-3.5,0
				C266.9,1220.9,266.9,1219.8,266.9,1218.6z"/>
			<path id="path160" class="st14" d="M284,1218.7c9.4,0.1,18.9,0,28.3,0c0,1.1,0,2.2,0.1,3.3c-9.5,0.1-19,0-28.5,0.1
				C283.9,1220.9,284,1219.8,284,1218.7z"/>
			<path id="path162" class="st14" d="M314.9,1218.6c3.8,0.1,7.6,0.1,11.4,0c0,1.1,0,2.3,0,3.4c-3.8-0.1-7.7-0.1-11.5,0
				C314.8,1220.9,314.9,1219.8,314.9,1218.6z"/>
			<path id="path164" class="st14" d="M329,1218.7c3.9,0.1,7.8,0.1,11.7,0c0,1.1,0,2.2,0,3.3c-3.9,0-7.9,0-11.8,0
				C328.9,1220.9,328.9,1219.8,329,1218.7z"/>
			<path id="path166" class="st14" d="M220.9,1225.2c0.8,0,2.4,0,3.2,0c0,0.8,0,2.3,0,3.1c-0.8,0-2.4,0-3.2,0
				C220.9,1227.6,220.9,1226,220.9,1225.2z"/>
			<path id="path168" class="st14" d="M231.2,1225.2c0.8,0,2.4,0,3.2,0c0,0.8,0,2.3,0,3.1c-0.8,0-2.4,0-3.2,0
				C231.2,1227.6,231.2,1226,231.2,1225.2z"/>
			<path id="path170" class="st14" d="M241.5,1225.2c0.8,0,2.4,0,3.2,0c0,0.8,0,2.3,0,3.1c-0.8,0-2.4,0.1-3.2,0.1
				C241.5,1227.6,241.5,1226,241.5,1225.2z"/>
			<path id="path172" class="st14" d="M251.8,1225.2c0.8,0,2.4,0,3.2,0c0,0.8,0,2.3,0,3.1c-0.8,0-2.4,0-3.2,0.1
				C251.8,1227.6,251.8,1226,251.8,1225.2z"/>
			<path id="path174" class="st14" d="M261.8,1225.3c1.1,0,2.2-0.1,3.3-0.1c0,0.8,0,2.4,0,3.2c-1.1-0.1-2.2-0.1-3.3-0.2
				C261.8,1227.5,261.8,1226,261.8,1225.3z"/>
			<path id="path176" class="st14" d="M199,1231.3c1.3-0.6,2.1,1.7,0.7,2.1C198.4,1234,197.6,1231.7,199,1231.3z"/>
			<path id="path178" class="st14" d="M385.9,1231.6c0.9-1.3,3,0.2,2,1.4C387,1234.4,384.9,1232.8,385.9,1231.6z"/>
		</g>
	</g>
	<g id="layer1_2_" transform="translate(-69.837738,-85.953076)">
		<g id="g1481_1_" transform="matrix(0.19111111,0,0,0.19111111,69.970238,79.805469)">
			<path id="path6_1_" class="st14" d="M414.9,1105.1c2.9,0,5.9-0.1,8.8-0.2c51.1,0.1,102.1,0,153.2,0c6.1-0.3,12.1,0.1,18.2,0.2
				c0.4,1.6,0.8,3.2,1.2,4.9c1.8,0.1,3.7,0.2,5.5,0.3v0.6c-2,0-4,0-6,0c-0.2,9.8,0.2,19.6-0.1,29.4c-0.1,1.9-0.1,3.8-0.2,5.7
				c-2.5,0-5,0.1-7.5,0.2c-55.4,0.1-110.8-0.2-166.2,0.1c-2.4-0.1-4.8-0.1-7.1-0.7c-0.4-1.7-0.6-3.5-0.7-5.3
				c0-9.8,0.2-19.6,0.1-29.4c-2,0-4,0-6,0v-0.6c1.8-0.1,3.7-0.2,5.5-0.3C414.1,1108.3,414.5,1106.7,414.9,1105.1z"/>
			<path id="path8_1_" class="st15" d="M418.6,1109.2c57.7-0.1,115.3-0.1,172.9,0c0.1,10.9,0.1,21.8,0,32.6c-57.6,0-115.3,0-172.9,0
				C418.5,1131,418.5,1120.1,418.6,1109.2z"/>
			<path id="path10-6_1_" class="st14" d="M408.2,1110.9c2,0,4,0,6,0c0.1,9.8,0,19.6-0.1,29.4c-2,0-3.9,0-5.9,0V1110.9z"/>
			<path id="path12_1_" class="st14" d="M595.8,1110.9c2,0,4,0,6,0v29.5c-2,0-4.1,0-6.1-0.1C596.1,1130.5,595.6,1120.7,595.8,1110.9
				z"/>
			<path id="path14_1_" class="st14" d="M410.4,1112.8c0.8-1.2,2.7,0.3,1.8,1.4C411.3,1115.3,409.5,1113.9,410.4,1112.8z"/>
			<path id="path16_1_" class="st14" d="M597.9,1112.8c0.8-1.2,2.7,0.1,1.8,1.3C598.9,1115.3,597,1114,597.9,1112.8z"/>
			<path id="path18_1_" class="st14" d="M463.6,1117.3c1,0,2-0.1,3-0.1c0.1,1.1,0.2,2.3,0.3,3.4c-1.2-0.1-2.3-0.2-3.5-0.3
				C463.5,1119.3,463.6,1118.3,463.6,1117.3z"/>
			<path id="path20_1_" class="st14" d="M474,1117.4c1-0.1,1.9-0.2,2.9-0.3c0.1,1.2,0.2,2.3,0.3,3.5c-1.2-0.1-2.3-0.2-3.5-0.2
				C473.8,1119.4,473.9,1118.4,474,1117.4z"/>
			<path id="path22_1_" class="st14" d="M432.8,1117.4c0.8,0,2.4,0,3.2,0c0,0.8,0,2.4,0,3.2c-0.8,0-2.3,0-3.1,0
				C432.8,1119.8,432.8,1118.2,432.8,1117.4z"/>
			<path id="path24_1_" class="st14" d="M443.1,1117.4c0.8,0,2.4,0,3.2,0c0,0.8,0,2.4,0,3.2c-0.8,0-2.3,0-3.1,0
				C443.1,1119.8,443.1,1118.2,443.1,1117.4z"/>
			<path id="path26_1_" class="st14" d="M453.4,1117.4c0.8,0,2.4,0,3.2,0c0,0.8,0,2.4-0.1,3.2c-0.8,0-2.4,0-3.2,0
				C453.4,1119.8,453.4,1118.2,453.4,1117.4z"/>
			<path id="path28_1_" class="st14" d="M576.5,1122.4c2.3-1.6,6.2,0.1,5.9,3.2c0.1,2.8-3.5,4.7-5.8,3.1
				C574.4,1127.3,574.3,1123.7,576.5,1122.4z"/>
			<path id="path30_1_" class="st14" d="M437.6,1124c1.1-0.1,2.3-0.1,3.4-0.2c-0.1,1.1-0.1,2.3-0.2,3.4c-1-0.1-2.1-0.1-3.1-0.2
				C437.7,1126,437.7,1125,437.6,1124z"/>
			<path id="path32_1_" class="st14" d="M447.9,1123.9c1.2,0,2.3-0.1,3.5-0.1c-0.1,1.1-0.1,2.3-0.1,3.4c-1.1,0-2.1-0.1-3.2-0.1
				C447.9,1126,447.9,1125,447.9,1123.9z"/>
			<path id="path34_1_" class="st14" d="M458.2,1123.9c1.2,0,2.3,0,3.5-0.1c-0.1,1.1-0.1,2.2-0.1,3.4c-1,0-2.1,0-3.2-0.1
				C458.3,1126,458.2,1125,458.2,1123.9z"/>
			<path id="path36_1_" class="st14" d="M468.4,1123.8c1.2,0,2.4,0,3.5,0c0,1.1-0.1,2.2-0.1,3.3c-1.1,0-2.2,0-3.3,0
				C468.5,1126,468.5,1124.9,468.4,1123.8z"/>
			<path id="path38_1_" class="st14" d="M478.7,1123.8c1.2,0,2.3,0,3.5,0c-0.1,1.1-0.1,2.2-0.1,3.3c-1.1,0-2.2,0-3.2,0
				C478.8,1126,478.8,1124.9,478.7,1123.8z"/>
			<path id="path40_1_" class="st14" d="M495.8,1123.8c9.5,0.1,19,0,28.5,0.1c0,1.1-0.1,2.1-0.1,3.2c-9.4,0-18.9,0-28.3,0
				C495.9,1126,495.8,1124.9,495.8,1123.8z"/>
			<path id="path42_1_" class="st14" d="M526.7,1123.8c3.8,0.1,7.7,0.1,11.5,0c0,1.1,0,2.2-0.1,3.4c-3.8-0.1-7.6-0.1-11.3,0
				C526.8,1126,526.7,1124.9,526.7,1123.8z"/>
			<path id="path44_1_" class="st14" d="M540.7,1123.8c4,0,7.9,0,11.9,0.1c0,1.1,0,2.1-0.1,3.2c-3.9,0-7.8,0-11.7,0
				C540.8,1126,540.8,1124.9,540.7,1123.8z"/>
			<path id="path46_1_" class="st14" d="M473.9,1130.2c1,0,2,0,3-0.1c0.1,1.1,0.2,2.3,0.3,3.4c-1.1-0.1-2.3-0.1-3.4-0.1
				C473.8,1132.3,473.8,1131.2,473.9,1130.2z"/>
			<path id="path48_1_" class="st14" d="M432.8,1130.4c0.8,0,2.4,0,3.2,0c0,0.8,0,2.4,0,3.1c-0.8,0-2.4,0-3.1,0
				C432.8,1132.7,432.8,1131.1,432.8,1130.4z"/>
			<path id="path50_1_" class="st14" d="M443.1,1130.3c0.8,0,2.4,0,3.2,0c0,0.8,0,2.4,0,3.1c-0.8,0-2.4,0-3.1,0
				C443.1,1132.7,443.1,1131.1,443.1,1130.3z"/>
			<path id="path52_1_" class="st14" d="M453.4,1130.3c0.8,0,2.4,0.1,3.2,0.1c0,0.8,0,2.3,0,3.1c-0.8,0-2.4,0-3.2,0
				C453.4,1132.7,453.4,1131.1,453.4,1130.3z"/>
			<path id="path54_1_" class="st14" d="M463.7,1130.3c0.8,0,2.4,0,3.2,0c0,0.8,0,2.3,0,3.1c-0.8,0-2.4,0-3.2,0.1
				C463.7,1132.8,463.7,1131.1,463.7,1130.3z"/>
			<path id="path56_1_" class="st14" d="M410.4,1136.9c0.7-1.1,2.4,0.2,1.6,1.2C411.3,1139.1,409.6,1137.8,410.4,1136.9z"/>
			<path id="path58_1_" class="st14" d="M598,1136.9c0.7-1.1,2.4,0.2,1.6,1.2C598.9,1139.1,597.2,1137.8,598,1136.9z"/>
			<path id="path64_1_" class="st14" d="M422,1146.3c55.4-0.3,110.8-0.1,166.2-0.1c0,2,0,4,0,6c-55.4,0.4-110.8,0-166.2,0.2
				C422,1150.3,422,1148.3,422,1146.3z"/>
			<path id="path66_1_" class="st14" d="M415,1152.5c2.3,0,4.7-0.1,7-0.2c55.4-0.2,110.8,0.2,166.2-0.2c2,0.1,4.1,0,6,0.7
				c1.4,1,1.9,2.9,2.7,4.3c1.7,0.2,3.3,0.4,5,0.6v0.5c-2,0-4,0-6,0c-0.2,9.8,0.2,19.6-0.1,29.4c-0.1,1.9-0.1,3.8-0.2,5.6
				c-2.5,0.1-5,0.1-7.5,0.2c-55.4,0.1-110.8,0.1-166.2,0c-2.5-0.1-5-0.2-7.5-0.2c0-1.9-0.1-3.8-0.1-5.6c-0.3-9.8,0.1-19.6-0.1-29.4
				c-2,0-4,0-6,0v-0.6c1.8-0.1,3.6-0.2,5.5-0.3C414.1,1155.7,414.5,1154.1,415,1152.5z"/>
			<path id="path68_1_" class="st15" d="M418.6,1156.6c57.7-0.1,115.3-0.1,173,0c0.1,10.9,0.1,21.8,0,32.7c-57.7,0-115.3,0-173,0
				C418.5,1178.3,418.5,1167.4,418.6,1156.6z"/>
			<path id="path70_1_" class="st14" d="M408.2,1158.2c2,0,4,0,6,0c0.2,9.8-0.2,19.6,0.1,29.4c-2,0-4.1,0-6.1,0.1V1158.2z"/>
			<path id="path72_1_" class="st14" d="M595.8,1158.3c2,0,4,0,6,0v29.5c-2,0-4.1-0.1-6.1-0.1
				C596.1,1177.9,595.6,1168.1,595.8,1158.3z"/>
			<path id="path74_1_" class="st14" d="M410.3,1160.1c0.9-1.3,3,0.2,2,1.4C411.4,1162.9,409.3,1161.3,410.3,1160.1z"/>
			<path id="path76_1_" class="st14" d="M597.8,1160.1c0.9-1.3,3,0.2,2,1.4C598.9,1162.9,596.8,1161.4,597.8,1160.1z"/>
			<path id="path78_1_" class="st14" d="M432.8,1164.8c0.8,0,2.4,0,3.2,0c0,0.8,0,2.3,0,3.1c-0.8,0-2.4,0-3.1,0.1
				C432.8,1167.2,432.8,1165.6,432.8,1164.8z"/>
			<path id="path80_1_" class="st14" d="M443.1,1164.8c0.8,0,2.4,0,3.1,0.1c0,0.8,0,2.3,0,3.1c-0.8,0-2.4,0-3.2,0.1
				C443.1,1167.2,443.1,1165.6,443.1,1164.8z"/>
			<path id="path82_1_" class="st14" d="M453.4,1164.8c0.8,0,2.4,0,3.2,0c0,0.8,0,2.3,0,3.1c-0.8,0-2.4,0-3.2,0
				C453.4,1167.2,453.4,1165.6,453.4,1164.8z"/>
			<path id="path84_1_" class="st14" d="M463.7,1164.8c0.8,0,2.4,0,3.2,0c0,0.8,0,2.3,0,3.1c-0.8,0-2.4,0-3.2,0
				C463.7,1167.2,463.7,1165.6,463.7,1164.8z"/>
			<path id="path86_1_" class="st14" d="M473.8,1164.9c1.1,0,2.2-0.1,3.3-0.1c0,0.8,0,2.4,0,3.2c-1.1-0.1-2.2-0.1-3.3-0.1
				C473.7,1167.2,473.8,1165.7,473.8,1164.9z"/>
			<path id="path88_1_" class="st14" d="M576.5,1169.8c1.5-0.8,3.5-0.7,4.9,0.4c1.3,1.5,1.3,3.9,0,5.4c-1.5,1.3-3.9,1.3-5.5,0
				C574.4,1174,574.5,1170.9,576.5,1169.8z"/>
			<path id="path90_1_" class="st14" d="M437.7,1171.3c1.1-0.1,2.2-0.2,3.3-0.2c0,1.2,0,2.4,0,3.6c-1.1-0.1-2.2-0.2-3.3-0.2
				C437.7,1173.4,437.7,1172.4,437.7,1171.3z"/>
			<path id="path92_1_" class="st14" d="M447.9,1171.3c1.1,0,2.2-0.1,3.3-0.1c0,1.2,0,2.3,0,3.5c-1.1,0-2.2-0.1-3.3-0.1
				C447.9,1173.4,447.9,1172.3,447.9,1171.3z"/>
			<path id="path94_1_" class="st14" d="M458.2,1171.2c1.1,0,2.2-0.1,3.4-0.1c0,1.1,0,2.3,0,3.4c-1.1,0-2.2,0-3.3-0.1
				C458.2,1173.4,458.2,1172.3,458.2,1171.2z"/>
			<path id="path96_1_" class="st14" d="M468.5,1171.2c1.1,0,2.3,0,3.4,0c0,1.1,0,2.3,0,3.4c-1.1,0-2.3,0-3.4,0
				C468.5,1173.4,468.5,1172.3,468.5,1171.2z"/>
			<path id="path98_1_" class="st14" d="M478.8,1171.2c1.1,0,2.3,0,3.4,0c0,1.1,0,2.2,0,3.3c-1.1,0-2.2,0-3.3,0
				C478.8,1173.4,478.8,1172.3,478.8,1171.2z"/>
			<path id="path100_1_" class="st14" d="M495.8,1171.2c9.5,0,19,0,28.4,0.1c0,1.1,0,2.2,0,3.3c-9.5,0.1-18.9,0-28.4,0
				C495.8,1173.4,495.8,1172.3,495.8,1171.2z"/>
			<path id="path102_1_" class="st14" d="M526.8,1171.1c3.8,0.1,7.6,0.1,11.4,0c0,1.1,0,2.3,0,3.5c-3.8-0.1-7.6,0-11.4,0
				C526.8,1173.5,526.8,1172.3,526.8,1171.1z"/>
			<path id="path104_1_" class="st14" d="M540.8,1171.2c3.9,0,7.8,0,11.8,0c0,1.1,0,2.2,0,3.3c-3.9,0-7.8,0-11.8,0
				C540.8,1173.4,540.8,1172.3,540.8,1171.2z"/>
			<path id="path106_1_" class="st14" d="M432.9,1177.7c0.8,0,2.4,0,3.1,0.1c0,0.8,0,2.3,0,3.1c-0.8,0-2.4,0-3.2,0
				C432.8,1180.2,432.9,1178.5,432.9,1177.7z"/>
			<path id="path108_1_" class="st14" d="M443.1,1177.7c0.8,0,2.4,0,3.2,0.1c0,0.8,0,2.3,0,3.1c-0.8,0-2.4,0.1-3.1,0.1
				C443.1,1180.2,443.1,1178.6,443.1,1177.7z"/>
			<path id="path110_1_" class="st14" d="M453.4,1177.7c0.8,0,2.4,0,3.2,0c0,0.8,0,2.3,0,3.1c-0.8,0-2.4,0-3.2,0
				C453.4,1180.2,453.4,1178.6,453.4,1177.7z"/>
			<path id="path112_1_" class="st14" d="M463.7,1177.8c0.8,0,2.4,0,3.2,0c0,0.8,0,2.3,0,3.1c-0.8,0-2.4,0-3.2,0
				C463.7,1180.2,463.7,1178.6,463.7,1177.8z"/>
			<path id="path114_1_" class="st14" d="M473.7,1177.9c1.1-0.1,2.2-0.1,3.3-0.1c0,0.8,0,2.4,0,3.2c-1.1-0.1-2.2-0.1-3.3-0.1
				C473.8,1180.1,473.7,1178.6,473.7,1177.9z"/>
			<path id="path116_1_" class="st14" d="M410.3,1184.2c0.9-1.3,3,0.2,2,1.5C411.4,1187,409.3,1185.4,410.3,1184.2z"/>
			<path id="path118_1_" class="st14" d="M597.8,1184.2c0.9-1.3,3,0.2,2,1.4C598.9,1187,596.8,1185.4,597.8,1184.2z"/>
			<path id="path124_1_" class="st14" d="M422,1193.5c55.4,0,110.8,0.1,166.2,0c0,2,0,4.1,0,6.1c-55.4,0-110.8,0-166.2,0
				C422,1197.6,422,1195.5,422,1193.5z"/>
			<path id="path126_1_" class="st14" d="M414.5,1199.8c2.5-0.1,5-0.1,7.5-0.2c55.4,0,110.8,0,166.2,0c2.5,0.1,5,0.1,7.5,0.2
				c0.1,1.9,0.1,3.7,0.2,5.6c0.3,9.8-0.1,19.6,0.1,29.4c2,0,4,0,6,0v0.6c-1.8,0.1-3.7,0.2-5.5,0.3c-0.4,1.6-0.8,3.3-1.2,4.9
				c-23.9,0.4-47.8,0.1-71.6,0.2c-30.1,0-60.2,0-90.4,0c-6.1,0.2-12.2-0.1-18.3-0.2c-0.4-1.6-0.8-3.3-1.2-4.9
				c-1.8-0.1-3.7-0.2-5.5-0.4v-0.6c2,0,4,0,6,0c0.2-9.8-0.2-19.6,0.1-29.4C414.4,1203.6,414.4,1201.7,414.5,1199.8z"/>
			<path id="path128_1_" class="st15" d="M418.6,1203.9c57.6,0,115.3,0,172.9,0c0.1,10.9,0.1,21.8,0,32.7
				c-57.6,0.1-115.3,0.1-172.9,0C418.5,1225.7,418.5,1214.8,418.6,1203.9z"/>
			<path id="path130_1_" class="st14" d="M408.2,1205.4c2,0,4.1,0,6.1,0.1c-0.3,9.8,0.1,19.6-0.1,29.4c-2,0-4,0-6,0V1205.4z"/>
			<path id="path132_1_" class="st14" d="M595.7,1205.5c2,0,4.1-0.1,6.1-0.1v29.5c-2,0-4,0-6,0
				C595.6,1225,596.1,1215.3,595.7,1205.5z"/>
			<path id="path134_1_" class="st14" d="M410.3,1207.5c0.9-1.3,2.9,0.2,2,1.5S409.3,1208.7,410.3,1207.5z"/>
			<path id="path136_1_" class="st14" d="M597.8,1207.5c0.9-1.3,2.9,0.2,2,1.5C598.9,1210.3,596.8,1208.7,597.8,1207.5z"/>
			<path id="path138_1_" class="st14" d="M432.8,1212.2c0.8,0,2.4,0,3.1,0c0,0.8,0,2.4,0,3.2c-0.8,0-2.4,0-3.2,0
				C432.8,1214.6,432.8,1213,432.8,1212.2z"/>
			<path id="path140_1_" class="st14" d="M443.1,1212.2c0.8,0,2.4,0,3.1,0c0,0.8,0,2.4,0,3.1c-0.8,0-2.4,0-3.2,0
				C443.1,1214.6,443.1,1213,443.1,1212.2z"/>
			<path id="path142_1_" class="st14" d="M453.4,1212.2c0.8,0,2.4,0,3.2,0c0,0.8,0,2.3,0,3.1c-0.8,0-2.4,0.1-3.2,0.1
				C453.4,1214.6,453.4,1213,453.4,1212.2z"/>
			<path id="path144_1_" class="st14" d="M463.7,1212.2c0.8,0,2.4,0,3.2,0.1c0,0.8,0,2.3,0,3.1c-0.8,0-2.4,0-3.2,0.1
				C463.7,1214.6,463.7,1213,463.7,1212.2z"/>
			<path id="path146_1_" class="st14" d="M473.7,1212.3c1.1,0,2.2-0.1,3.3-0.1c0,0.8,0,2.4,0,3.2c-1.1-0.1-2.2-0.1-3.3-0.2
				C473.8,1214.6,473.7,1213.1,473.7,1212.3z"/>
			<path id="path148_1_" class="st14" d="M577.2,1216.9c2.6-1,5.7,1.3,5.1,4.1c-0.3,3-4.5,4-6.4,2
				C574,1221.2,574.8,1217.8,577.2,1216.9z"/>
			<path id="path150_1_" class="st14" d="M437.7,1218.7c1.1-0.1,2.1-0.1,3.2-0.2c0,1.2,0.1,2.3,0.1,3.5c-1.1-0.1-2.3-0.1-3.4-0.2
				C437.7,1220.8,437.7,1219.7,437.7,1218.7z"/>
			<path id="path152_1_" class="st14" d="M448,1218.7c1.1-0.1,2.1-0.1,3.2-0.1c0,1.1,0.1,2.3,0.1,3.4c-1.1,0-2.3-0.1-3.4-0.1
				C447.9,1220.8,447.9,1219.7,448,1218.7z"/>
			<path id="path154_1_" class="st14" d="M458.3,1218.7c1.1,0,2.1-0.1,3.2-0.1c0,1.1,0.1,2.3,0.1,3.4c-1.1,0-2.3-0.1-3.4-0.1
				C458.2,1220.8,458.3,1219.7,458.3,1218.7z"/>
			<path id="path156_1_" class="st14" d="M468.5,1218.6c1.1,0,2.2,0,3.3,0c0,1.1,0.1,2.2,0.1,3.3c-1.2,0-2.3,0-3.5,0
				C468.5,1220.8,468.5,1219.7,468.5,1218.6z"/>
			<path id="path158_1_" class="st14" d="M478.9,1218.6c1.1,0,2.2,0,3.3,0c0,1.1,0.1,2.2,0.1,3.3c-1.2,0-2.3,0-3.5,0
				C478.8,1220.8,478.8,1219.7,478.9,1218.6z"/>
			<path id="path160_1_" class="st14" d="M495.9,1218.6c9.4,0.1,18.9,0,28.3,0c0,1.1,0,2.2,0.1,3.3c-9.5,0.1-19,0-28.5,0.1
				C495.8,1220.9,495.9,1219.7,495.9,1218.6z"/>
			<path id="path162_1_" class="st14" d="M526.8,1218.6c3.8,0.1,7.6,0.1,11.4,0c0,1.1,0,2.3,0,3.4c-3.8-0.1-7.7-0.1-11.5,0
				C526.7,1220.8,526.8,1219.7,526.8,1218.6z"/>
			<path id="path164_1_" class="st14" d="M540.9,1218.6c3.9,0.1,7.8,0.1,11.7,0c0,1.1,0,2.2,0,3.3c-3.9,0-7.9,0-11.8,0
				C540.8,1220.8,540.8,1219.7,540.9,1218.6z"/>
			<path id="path166_1_" class="st14" d="M432.8,1225.1c0.8,0,2.4,0,3.2,0c0,0.8,0,2.3,0,3.1c-0.8,0-2.4,0-3.2,0
				C432.8,1227.5,432.8,1225.9,432.8,1225.1z"/>
			<path id="path168_1_" class="st14" d="M443.1,1225.1c0.8,0,2.4,0,3.2,0c0,0.8,0,2.3,0,3.1c-0.8,0-2.4,0-3.2,0
				C443.1,1227.5,443.1,1225.9,443.1,1225.1z"/>
			<path id="path170_1_" class="st14" d="M453.4,1225.2c0.8,0,2.4,0,3.2,0c0,0.8,0,2.3,0,3.1c-0.8,0-2.4,0.1-3.2,0.1
				C453.4,1227.6,453.4,1226,453.4,1225.2z"/>
			<path id="path172_1_" class="st14" d="M463.7,1225.2c0.8,0,2.4,0,3.2,0c0,0.8,0,2.3,0,3.1c-0.8,0-2.4,0-3.2,0.1
				C463.7,1227.6,463.7,1226,463.7,1225.2z"/>
			<path id="path174_1_" class="st14" d="M473.7,1225.2c1.1,0,2.2-0.1,3.3-0.1c0,0.8,0,2.4,0,3.2c-1.1-0.1-2.2-0.1-3.3-0.2
				C473.8,1227.5,473.7,1226,473.7,1225.2z"/>
			<path id="path176_1_" class="st14" d="M410.9,1231.2c1.3-0.6,2.1,1.7,0.7,2.1C410.3,1233.9,409.5,1231.7,410.9,1231.2z"/>
			<path id="path178_1_" class="st14" d="M597.8,1231.5c0.9-1.3,3,0.2,2,1.4C598.9,1234.3,596.8,1232.8,597.8,1231.5z"/>
		</g>
	</g>
	<g>
		<g>
			<path class="st16" d="M79.9,50.3c0.4,7.5,0.2,18.7-4.8,26.7C68.8,87.1,59,89.5,59.8,96.1c1,8.4,17.4,9.3,18.5,18.5
				c0.8,6.3-6.4,8.4-5.4,15.7c0.2,1.4,3.5,3.7,6.1,11.4"/>
			<g>
				<polygon class="st17" points="74.3,141.8 80.8,148 83,139.3 				"/>
			</g>
		</g>
	</g>
	<g>
		<g>
			<path class="st16" d="M88.9,179c2,6,4,12,6,18"/>
			<g>
				<polygon class="st17" points="90.2,197.2 96.9,203.1 98.7,194.3 				"/>
			</g>
		</g>
	</g>
	<g>
		<g>
			<path class="st16" d="M63.9,179.2c-2,6-4,12-6,18"/>
			<g>
				<polygon class="st17" points="54,194.5 55.8,203.3 62.5,197.4 				"/>
			</g>
		</g>
	</g>
</g>
</svg>
