<?xml version="1.0" encoding="utf-8"?>
<!-- Generator: Adobe Illustrator 23.1.0, SVG Export Plug-In . SVG Version: 6.00 Build 0)  -->
<svg version="1.1" xmlns="http://www.w3.org/2000/svg" xmlns:xlink="http://www.w3.org/1999/xlink" x="0px" y="0px"
	 viewBox="0 0 199.6 224.8" style="enable-background:new 0 0 199.6 224.8;" xml:space="preserve">
<style type="text/css">
	.st0{fill:none;stroke:#000000;stroke-width:0.7512;stroke-miterlimit:11.3386;}
	.st1{clip-path:url(#SVGID_2_);}
	.st2{clip-path:url(#SVGID_4_);}
	.st3{fill:none;stroke:#000000;stroke-width:0.5;}
	.st4{fill:none;stroke:#000000;stroke-width:0.75;}
	.st5{fill:none;stroke:#000000;stroke-width:0.744;}
	.st6{fill:#DCDEDC;}
	.st7{fill:#343F3E;}
	.st8{fill:none;}
	.st9{font-family:'Roboto-Regular';}
	.st10{font-size:9px;}
	.st11{font-family:'Roboto-Bold';}
	.st12{fill:none;stroke:#DA9E94;stroke-width:3;stroke-miterlimit:11.3386;stroke-dasharray:3,3;}
	.st13{fill:#DA9E94;}
	.st14{fill:#A0A0A0;stroke:#000000;stroke-width:0.5;}
	.st15{stroke:#000000;stroke-width:0.5;}
	.st16{fill:none;stroke:#DA9E94;stroke-width:3;stroke-dasharray:3,3;}
	.st17{clip-path:url(#SVGID_8_);}
	.st18{clip-path:url(#SVGID_10_);}
	.st19{clip-path:url(#SVGID_12_);}
	.st20{clip-path:url(#SVGID_14_);}
	.st21{clip-path:url(#SVGID_16_);}
</style>
<symbol  id="cloud" viewBox="-43 -22.4 86.1 44.9">
	<g id="layer1_2_" transform="translate(-54.754156,-85.921738)">
		<path id="path10_2_" class="st0" d="M55.4,107.8c5.2,0.9,10.9-1.3,14-5.4c0.7-0.7,1-1.6,1.6-2.5c0.2-0.3,0.7-0.3,1.1-0.3
			c3.8-0.2,7.4-2,9.9-4.8c0.2-0.3,0.6-0.6,1-0.5c2.2,0,4.3-0.5,6.2-1.4c3.3-1.5,5.9-4.3,7.2-7.5c1.1-2.8,1.3-5.9,0.5-8.7
			c-0.8-3-2.8-5.8-5.4-7.6c-3.1-2.2-7.1-3.1-10.8-2.4c-0.4,0.1-0.9,0.1-1.3-0.1c-3.6-1.7-8-1.9-11.7-0.3c-0.9,0.3-1.7,0.9-2.6,1.3
			c-0.4,0.3-0.8-0.1-1.2-0.3c-2.7-2.3-6.4-3.5-10-3.4c-3.3,0.1-6.4,1.4-8.9,3.5c-0.3,0.4-0.9,0.2-1.3,0.1c-2.4-0.6-4.9-0.7-7.3-0.1
			c-0.4,0.1-0.7,0.2-1.1,0.3c-0.4-0.1-0.7-0.4-1-0.6c-2.5-1.6-5.5-2.4-8.4-2.3c-3.4,0.1-6.8,1.4-9.3,3.7c-2.7,2.4-4.3,5.8-4.5,9.3
			c-0.2,2.9,0.6,5.9,2.2,8.4c2,3,5.2,5.2,8.8,6c0.3,0.1,0.6,0.1,0.8,0.3c0.2,0.3,0.2,0.6,0.3,0.9c0.8,3.8,3.4,7.3,6.9,9.2
			c3.8,2.2,8.6,2.4,12.6,0.8c0.9-0.3,1.7-0.9,2.6-1.2c0.5,0,0.8,0.5,1.1,0.8C49.1,105.6,52.1,107.3,55.4,107.8L55.4,107.8z"/>
	</g>
</symbol>
<g id="Layer_2">
</g>
<g id="Layer_1">
	<g>
		<g>
			<g>
				<g>
					<g>
						<g>
							<g>
								<g>
									<g>
										<defs>
											<path id="SVGID_1_" d="M68.3,47.3c10.1,0,20.1,0,30.2,0c18.7,0,37.3,0,56,0c0-15,0-30,0-45H68.3V47.3z"/>
										</defs>
										<clipPath id="SVGID_2_">
											<use xlink:href="#SVGID_1_"  style="overflow:visible;"/>
										</clipPath>
										<g class="st1">
											<g>
												<g>
													<g>
														<g>
															<g>
																<g>
																	<g>
																		<defs>
																			<rect id="SVGID_3_" x="68.8" y="2.3" width="86.1" height="44.9"/>
																		</defs>
																		<clipPath id="SVGID_4_">
																			<use xlink:href="#SVGID_3_"  style="overflow:visible;"/>
																		</clipPath>
																		<g class="st2">
																			<g>
																				<g>
																					<g>
																						<g>
																							<g>
																								<g>
																									<defs>
																										<rect id="SVGID_5_" x="68.8" y="2.3" width="86.1" height="44.9"/>
																									</defs>
																									<clipPath id="SVGID_6_">
																										<use xlink:href="#SVGID_5_"  style="overflow:visible;"/>
																									</clipPath>
																								</g>
																							</g>
																						</g>
																					</g>
																				</g>
																			</g>
																		</g>
																	</g>
																</g>
															</g>
														</g>
													</g>
												</g>
											</g>
										</g>
									</g>
								</g>
							</g>
						</g>
					</g>
				</g>
			</g>
		</g>
	</g>
	<line class="st3" x1="32" y1="173.6" x2="18.5" y2="194.2"/>
	<line class="st3" x1="44.9" y1="173.6" x2="58.4" y2="194.2"/>
	<g>
		<line class="st4" x1="148.8" y1="103.7" x2="124.9" y2="79.7"/>
		<line class="st4" x1="74.1" y1="103.7" x2="98" y2="79.7"/>
	</g>
	<line class="st4" x1="111.6" y1="58.5" x2="111.6" y2="47.2"/>
	<line class="st5" x1="89.9" y1="148.4" x2="76.2" y2="124.7"/>
	<line class="st4" x1="39.1" y1="148.4" x2="52.8" y2="124.7"/>
	<g>
		<path class="st6" d="M126.8,73.9c0,8.5-6.9,15.3-15.3,15.3s-15.4-6.9-15.4-15.3c0-8.5,6.9-15.3,15.3-15.3
			C119.8,58.6,126.8,65.4,126.8,73.9z"/>
		<g>
			<path class="st7" d="M115.5,68.3c0-0.1-0.1-0.1-0.2-0.1h-2.1v-4.8c0-0.1-0.1-0.2-0.2-0.2h-3.1c-0.1,0-0.2,0.1-0.2,0.2v4.8h-2.1
				c-0.1,0-0.2,0-0.2,0.1s0,0.2,0,0.2l3.8,3.9l0.1,0.1c0,0,0.1,0,0.1-0.1l3.8-3.9C115.5,68.4,115.5,68.3,115.5,68.3z"/>
			<path class="st7" d="M115.5,79.5c0,0.1-0.1,0.1-0.2,0.1h-2.1v4.8c0,0.1-0.1,0.2-0.2,0.2h-3.1c-0.1,0-0.2-0.1-0.2-0.2v-4.8h-2.1
				c-0.1,0-0.2,0-0.2-0.1s0-0.2,0-0.2l3.8-3.9l0.1-0.1c0,0,0.1,0,0.1,0.1l3.8,3.9C115.5,79.3,115.5,79.4,115.5,79.5z"/>
			<path class="st7" d="M117.9,77.9c-0.1,0-0.1-0.1-0.1-0.2v-2.1H113c-0.1,0-0.2-0.1-0.2-0.2v-3.1c0-0.1,0.1-0.2,0.2-0.2h4.8V70
				c0-0.1,0.1-0.2,0.1-0.2h0.2l3.8,3.8l0.1,0.1c0,0.1,0,0.1-0.1,0.1l-3.9,3.8C118.1,78,118,78,117.9,77.9z"/>
			<path class="st7" d="M104.9,77.9c0.1,0,0.1-0.1,0.1-0.2v-2.1h4.8c0.1,0,0.2-0.1,0.2-0.2v-3.1c0-0.1-0.1-0.2-0.2-0.2H105V70
				c0-0.1-0.1-0.2-0.1-0.2h-0.2l-3.8,3.8l-0.1,0.1c0,0.1,0,0.1,0.1,0.1l3.8,3.8C104.8,78,104.9,78,104.9,77.9z"/>
		</g>
	</g>
	<line class="st4" x1="183.5" y1="148.9" x2="168.8" y2="123.5"/>
	<line class="st4" x1="132.6" y1="148.9" x2="147.1" y2="123.8"/>
	<line class="st5" x1="90.7" y1="189.9" x2="90.7" y2="174.1"/>
	<polygon class="st6" points="79.5,208.5 79.5,195.6 90.6,189.1 101.8,195.6 101.8,208.5 90.6,215 	"/>
	<g>
		<rect x="172" y="148.3" class="st6" width="25.8" height="25.8"/>
		<g>
			<path class="st7" d="M189.7,159.3c-0.1,0-0.1-0.1-0.1-0.2V157h-4.8c-0.1,0-0.2-0.1-0.2-0.2v-3.1c0-0.1,0.1-0.2,0.2-0.2h4.8v-2.1
				c0-0.1,0.1-0.1,0.1-0.2c0.1,0,0.2,0,0.2,0l3.9,3.8l0.1,0.1c0,0.1,0,0.1-0.1,0.1l-3.9,3.8C189.9,159.3,189.8,159.3,189.7,159.3z"
				/>
			<path class="st7" d="M189.7,167.4c-0.1,0-0.1-0.1-0.1-0.2v-2.1h-4.8c-0.1,0-0.2-0.1-0.2-0.2v-3.1c0-0.1,0.1-0.2,0.2-0.2h4.8v-2.1
				c0-0.1,0.1-0.2,0.1-0.2c0.1,0,0.2,0,0.2,0l3.9,3.8l0.1,0.1c0,0.1,0,0.1-0.1,0.1l-3.9,3.9C189.9,167.4,189.8,167.4,189.7,167.4z"
				/>
			<path class="st7" d="M180.1,163.3c0.1,0,0.1-0.1,0.1-0.2V161h4.8c0.1,0,0.2-0.1,0.2-0.2v-3.1c0-0.1-0.1-0.2-0.2-0.2h-4.8v-2.1
				c0-0.1-0.1-0.1-0.1-0.2c-0.1,0-0.1,0-0.2,0L176,159l-0.1,0.1c0,0.1,0,0.1,0.1,0.1l3.9,3.9C180,163.3,180.1,163.3,180.1,163.3z"/>
			<path class="st7" d="M180.1,171.1c0.1,0,0.1-0.1,0.1-0.2v-2.1h4.8c0.1,0,0.2-0.1,0.2-0.2v-3.1c0-0.1-0.1-0.2-0.2-0.2h-4.8v-2.1
				c0-0.1-0.1-0.2-0.1-0.2c-0.1,0-0.1,0-0.2,0l-3.9,3.8l-0.1,0.1c0,0,0,0.1,0.1,0.1l3.9,3.8C180,171.1,180.1,171.1,180.1,171.1z"/>
		</g>
	</g>
	<g>
		<rect x="119.8" y="148.3" class="st6" width="25.8" height="25.8"/>
		<g>
			<path class="st7" d="M137.5,159.3c-0.1,0-0.1-0.1-0.1-0.2V157h-4.8c-0.1,0-0.2-0.1-0.2-0.2v-3.1c0-0.1,0.1-0.2,0.2-0.2h4.8v-2.1
				c0-0.1,0.1-0.1,0.1-0.2s0.2,0,0.2,0l3.9,3.8l0.1,0.1c0,0.1,0,0.1-0.1,0.1l-3.8,3.8C137.7,159.3,137.6,159.3,137.5,159.3z"/>
			<path class="st7" d="M137.5,167.4c-0.1,0-0.1-0.1-0.1-0.2v-2.1h-4.8c-0.1,0-0.2-0.1-0.2-0.2v-3.1c0-0.1,0.1-0.2,0.2-0.2h4.8v-2.1
				c0-0.1,0.1-0.2,0.1-0.2h0.2l3.9,3.8l0.1,0.1c0,0.1,0,0.1-0.1,0.1l-3.8,3.9C137.7,167.4,137.6,167.4,137.5,167.4z"/>
			<path class="st7" d="M128,163.3c0.1,0,0.1-0.1,0.1-0.2V161h4.8c0.1,0,0.2-0.1,0.2-0.2v-3.1c0-0.1-0.1-0.2-0.2-0.2h-4.8v-2.1
				c0-0.1-0.1-0.1-0.1-0.2s-0.2,0-0.2,0L124,159l-0.1,0.1c0,0.1,0,0.1,0.1,0.1l3.8,3.9C127.8,163.3,127.9,163.3,128,163.3z"/>
			<path class="st7" d="M128,171.1c0.1,0,0.1-0.1,0.1-0.2v-2.1h4.8c0.1,0,0.2-0.1,0.2-0.2v-3.1c0-0.1-0.1-0.2-0.2-0.2h-4.8v-2.1
				c0-0.1-0.1-0.2-0.1-0.2h-0.2l-3.8,3.8l-0.1,0.1c0,0,0,0.1,0.1,0.1l3.8,3.8C127.8,171.1,127.9,171.1,128,171.1z"/>
		</g>
	</g>
	<g>
		<rect x="77.8" y="148.3" class="st6" width="25.8" height="25.8"/>
		<g>
			<path class="st7" d="M95.5,159.3c-0.1,0-0.1-0.1-0.1-0.2V157h-4.8c-0.1,0-0.2-0.1-0.2-0.2v-3.1c0-0.1,0.1-0.2,0.2-0.2h4.8v-2.1
				c0-0.1,0.1-0.1,0.1-0.2s0.2,0,0.2,0l3.9,3.8l0.1,0.1c0,0.1,0,0.1-0.1,0.1l-3.8,3.8C95.7,159.3,95.6,159.3,95.5,159.3z"/>
			<path class="st7" d="M95.5,167.4c-0.1,0-0.1-0.1-0.1-0.2v-2.1h-4.8c-0.1,0-0.2-0.1-0.2-0.2v-3.1c0-0.1,0.1-0.2,0.2-0.2h4.8v-2.1
				c0-0.1,0.1-0.2,0.1-0.2h0.2l3.9,3.8l0.1,0.1c0,0.1,0,0.1-0.1,0.1l-3.8,3.9C95.7,167.4,95.6,167.4,95.5,167.4z"/>
			<path class="st7" d="M86,163.3c0.1,0,0.1-0.1,0.1-0.2V161h4.8c0.1,0,0.2-0.1,0.2-0.2v-3.1c0-0.1-0.1-0.2-0.2-0.2h-4.8v-2.1
				c0-0.1-0.1-0.1-0.1-0.2s-0.2,0-0.2,0L82,159l-0.1,0.1c0,0.1,0,0.1,0.1,0.1l3.8,3.9C85.8,163.3,85.9,163.3,86,163.3z"/>
			<path class="st7" d="M86,171.1c0.1,0,0.1-0.1,0.1-0.2v-2.1h4.8c0.1,0,0.2-0.1,0.2-0.2v-3.1c0-0.1-0.1-0.2-0.2-0.2h-4.8v-2.1
				c0-0.1-0.1-0.2-0.1-0.2h-0.2l-3.8,3.8l-0.1,0.1c0,0,0,0.1,0.1,0.1l3.8,3.8C85.8,171.1,85.9,171.1,86,171.1z"/>
		</g>
	</g>
	<g>
		<rect x="25.6" y="148.3" class="st6" width="25.8" height="25.8"/>
		<g>
			<path class="st7" d="M43.3,159.3c-0.1,0-0.1-0.1-0.1-0.2V157h-4.8c-0.1,0-0.2-0.1-0.2-0.2v-3.1c0-0.1,0.1-0.2,0.2-0.2h4.8v-2.1
				c0-0.1,0-0.1,0.1-0.2c0.1,0,0.1,0,0.2,0l3.8,3.8l0.1,0.1c0,0.1,0,0.1-0.1,0.1l-3.9,3.8C43.5,159.3,43.4,159.3,43.3,159.3z"/>
			<path class="st7" d="M43.3,167.4c-0.1,0-0.1-0.1-0.1-0.2v-2.1h-4.8c-0.1,0-0.2-0.1-0.2-0.2v-3.1c0-0.1,0.1-0.2,0.2-0.2h4.8v-2.1
				c0-0.1,0-0.2,0.1-0.2s0.1,0,0.2,0l3.8,3.8l0.1,0.1c0,0.1,0,0.1-0.1,0.1l-3.9,3.9C43.5,167.4,43.4,167.4,43.3,167.4z"/>
			<path class="st7" d="M33.8,163.3c0.1,0,0.1-0.1,0.1-0.2V161h4.8c0.1,0,0.2-0.1,0.2-0.2v-3.1c0-0.1-0.1-0.2-0.2-0.2h-4.8v-2.1
				c0-0.1,0-0.1-0.1-0.2c-0.1,0-0.2,0-0.2,0l-3.8,3.8l-0.1,0.1c0,0.1,0,0.1,0.1,0.1l3.9,3.9C33.6,163.3,33.7,163.3,33.8,163.3z"/>
			<path class="st7" d="M33.8,171.1c0.1,0,0.1-0.1,0.1-0.2v-2.1h4.8c0.1,0,0.2-0.1,0.2-0.2v-3.1c0-0.1-0.1-0.2-0.2-0.2h-4.8v-2.1
				c0-0.1,0-0.2-0.1-0.2s-0.2,0-0.2,0l-3.8,3.8l-0.1,0.1c0,0,0,0.1,0.1,0.1l3.9,3.8C33.6,171.1,33.7,171.1,33.8,171.1z"/>
		</g>
	</g>
	<g>
		<path class="st6" d="M80.1,114.8c0,8.5-6.9,15.3-15.3,15.3s-15.3-6.9-15.3-15.3s6.9-15.3,15.3-15.3S80.1,106.3,80.1,114.8z"/>
		<g>
			<path class="st7" d="M68.8,109.2c0-0.1-0.1-0.1-0.2-0.1h-2.1v-4.8c0-0.1-0.1-0.2-0.2-0.2h-3.1c-0.1,0-0.2,0.1-0.2,0.2v4.8h-2.1
				c-0.1,0-0.2,0.1-0.2,0.1v0.2l3.8,3.8l0.1,0.1c0,0,0.1,0,0.1-0.1l3.8-3.8C68.8,109.4,68.8,109.3,68.8,109.2z"/>
			<path class="st7" d="M68.8,120.4c0,0.1-0.1,0.1-0.2,0.1h-2.1v4.8c0,0.1-0.1,0.2-0.2,0.2h-3.1c-0.1,0-0.2-0.1-0.2-0.2v-4.8h-2.1
				c-0.1,0-0.2-0.1-0.2-0.1v-0.2l3.8-3.9l0.1-0.1c0,0,0.1,0,0.1,0.1l3.8,3.9C68.8,120.3,68.8,120.3,68.8,120.4z"/>
			<path class="st7" d="M71.3,118.9c-0.1,0-0.1-0.1-0.1-0.2v-2.1h-4.8c-0.1,0-0.2-0.1-0.2-0.2v-3.1c0-0.1,0.1-0.2,0.2-0.2h4.8V111
				c0-0.1,0-0.2,0.1-0.2s0.2,0,0.2,0l3.8,3.8l0.1,0.1c0,0,0,0.1-0.1,0.1l-3.8,3.8C71.4,118.9,71.3,118.9,71.3,118.9z"/>
			<path class="st7" d="M58.3,118.9c0.1,0,0.1-0.1,0.1-0.2v-2.1h4.8c0.1,0,0.2-0.1,0.2-0.2v-3.1c0-0.1-0.1-0.2-0.2-0.2h-4.8V111
				c0-0.1,0-0.2-0.1-0.2s-0.2,0-0.2,0l-3.8,3.8l-0.1,0.1c0,0,0,0.1,0.1,0.1l3.7,4.1C58.1,118.9,58.2,118.9,58.3,118.9z"/>
		</g>
	</g>
	<g>
		<path class="st6" d="M173.5,114.8c0,8.5-6.9,15.3-15.3,15.3s-15.3-6.9-15.3-15.3s6.9-15.3,15.3-15.3S173.5,106.3,173.5,114.8z"/>
		<g>
			<path class="st7" d="M162.2,109.2c0-0.1-0.1-0.1-0.2-0.1h-2.1v-4.8c0-0.1-0.1-0.2-0.2-0.2h-3.1c-0.1,0-0.2,0.1-0.2,0.2v4.8h-2.1
				c-0.1,0-0.1,0.1-0.2,0.1s0,0.2,0,0.2l3.8,3.8l0.1,0.1c0,0,0.1,0,0.1-0.1l3.9-3.8C162.2,109.4,162.2,109.3,162.2,109.2z"/>
			<path class="st7" d="M162.2,120.4c0,0.1-0.1,0.1-0.2,0.1h-2.1v4.8c0,0.1-0.1,0.2-0.2,0.2h-3.1c-0.1,0-0.2-0.1-0.2-0.2v-4.8h-2.1
				c-0.1,0-0.1-0.1-0.2-0.1s0-0.2,0-0.2l3.8-3.9l0.1-0.1c0,0,0.1,0,0.1,0.1l3.9,3.9C162.2,120.3,162.2,120.3,162.2,120.4z"/>
			<path class="st7" d="M164.6,118.9c-0.1,0-0.1-0.1-0.1-0.2v-2.1h-4.8c-0.1,0-0.2-0.1-0.2-0.2v-3.1c0-0.1,0.1-0.2,0.2-0.2h4.8V111
				c0-0.1,0.1-0.2,0.1-0.2c0.1,0,0.2,0,0.2,0l3.9,3.8l0.1,0.1c0,0,0,0.1-0.1,0.1l-3.9,3.8C164.8,118.9,164.7,118.9,164.6,118.9z"/>
			<path class="st7" d="M151.6,118.9c0.1,0,0.1-0.1,0.1-0.2v-2.1h4.8c0.1,0,0.2-0.1,0.2-0.2v-3.1c0-0.1-0.1-0.2-0.2-0.2h-4.8V111
				c0-0.1-0.1-0.2-0.1-0.2c-0.1,0-0.2,0-0.2,0l-3.9,3.8l-0.1,0.1c0,0,0,0.1,0.1,0.1l3.9,3.8C151.5,118.9,151.6,118.9,151.6,118.9z"
				/>
		</g>
	</g>
	<line class="st8" x1="86.3" y1="138.7" x2="92.6" y2="132.4"/>
	<text transform="matrix(1 0 0 1 55.2071 138.1906)" class="st7 st9 st10">DMZ</text>
	<text transform="matrix(1 0 0 1 83.6464 204.6559)" class="st7 st11 st10">DPI</text>
	<text transform="matrix(1 0 0 1 149.5441 138.1906)" class="st7 st9 st10">LAN</text>
	<text transform="matrix(1 0 0 1 94.1729 96.9664)" class="st7 st9 st10">Gateway</text>
	<text transform="matrix(6.123234e-17 -1 1 6.123234e-17 23.9231 170.9059)" class="st7 st9 st10">Labs</text>
	<text transform="matrix(1 0 0 1 96.9464 28.842)" class="st7 st9 st10">Internet</text>
	<text transform="matrix(6.123234e-17 -1 1 6.123234e-17 75.8779 176.1852)" class="st7 st9 st10">Servers</text>
	<text transform="matrix(6.123234e-17 -1 1 6.123234e-17 118.4032 175.2321)" class="st7 st9 st10">Guests</text>
	<text transform="matrix(6.123234e-17 -1 1 6.123234e-17 170.6604 174.4957)" class="st7 st9 st10">Dorms</text>
	<line class="st8" x1="51.1" y1="29.8" x2="51.1" y2="75.8"/>
	<g>
		<path class="st12" d="M97.5,44.2c-0.6,11.9-3.3,27.5-14,38.2c-12,12-24.9,8.6-37.4,19.8c-6.7,6-13.9,16.8-16.3,37.7"/>
		<g>
			<polygon class="st13" points="25.5,138.3 29.2,146.4 34.5,139.1 			"/>
		</g>
	</g>
	<path id="path3" class="st14" d="M31.9,215.3c1.2,0,2.2-1,2.2-2.2v-17.3c0-1.2-1-2.2-2.2-2.2h-26c-1.2,0-2.2,1-2.2,2.2v17.4
		c0,1.2,1,2.2,2.2,2.2H1.6v2.2c0,1.2,1,2.2,2.2,2.2H34c1.2,0,2.2-1,2.2-2.2v-2.2L31.9,215.3L31.9,215.3z M5.9,195.9h25.9v17.3H5.9
		V195.9z M23.2,218h-8.6v-1.1h8.6V218z M27.5,218.6c-0.6,0-1.1-0.5-1.1-1.1s0.5-1.1,1.1-1.1s1.1,0.5,1.1,1.1S28.1,218.6,27.5,218.6z
		 M31.9,218.6c-0.6,0-1.1-0.5-1.1-1.1s0.5-1.1,1.1-1.1s1.1,0.5,1.1,1.1S32.5,218.6,31.9,218.6z"/>
	<path id="path3_1_" class="st14" d="M71.1,215.3c1.2,0,2.2-1,2.2-2.2v-17.3c0-1.2-1-2.2-2.2-2.2h-26c-1.2,0-2.2,1-2.2,2.2v17.4
		c0,1.2,1,2.2,2.2,2.2h-4.3v2.2c0,1.2,1,2.2,2.2,2.2h30.2c1.2,0,2.2-1,2.2-2.2v-2.2L71.1,215.3L71.1,215.3z M45.1,195.9H71v17.3
		H45.1V195.9z M62.4,218h-8.6v-1.1h8.6V218z M66.7,218.6c-0.6,0-1.1-0.5-1.1-1.1s0.5-1.1,1.1-1.1s1.1,0.5,1.1,1.1
		S67.3,218.6,66.7,218.6z M71.1,218.6c-0.6,0-1.1-0.5-1.1-1.1s0.5-1.1,1.1-1.1s1.1,0.5,1.1,1.1S71.7,218.6,71.1,218.6z"/>
	<g>
		<circle class="st15" cx="35" cy="187.5" r="0.5"/>
		<circle class="st15" cx="38.5" cy="187.5" r="0.5"/>
		<circle class="st15" cx="42" cy="187.5" r="0.5"/>
	</g>
	<g>
		<g>
			<path class="st16" d="M23.3,175.2c-2.3,3.5-4.7,7.1-7,10.6"/>
			<g>
				<polygon class="st13" points="13.3,182.2 12.8,191.2 20.8,187.2 				"/>
			</g>
		</g>
	</g>
	<g>
		<g>
			<path class="st16" d="M53.2,175.2c2.3,3.5,4.7,7.1,7,10.6"/>
			<g>
				<polygon class="st13" points="55.7,187.2 63.8,191.2 63.2,182.2 				"/>
			</g>
		</g>
	</g>
	
		<image style="overflow:visible;enable-background:new    ;" width="145" height="53" xlink:href="../../../../../../Downloads/Icons/png/f2movies.png"  transform="matrix(0.1519 0 0 0.1519 7.8873 200.5247)">
	</image>
	
		<image style="overflow:visible;enable-background:new    ;" width="145" height="53" xlink:href="../../../../../../Downloads/Icons/png/f2movies.png"  transform="matrix(0.1519 0 0 0.1519 47.0873 200.5247)">
	</image>
	<g>
		<g>
			<g>
				<defs>
					<rect id="SVGID_7_" x="69.3" y="2.2" width="86.2" height="45"/>
				</defs>
				<clipPath id="SVGID_8_">
					<use xlink:href="#SVGID_7_"  style="overflow:visible;"/>
				</clipPath>
				<g class="st17">
					<g>
						<g>
							<g>
								<g>
									<g>
										<defs>
											<rect id="SVGID_9_" x="69.7" y="2.1" width="86.1" height="44.9"/>
										</defs>
										<clipPath id="SVGID_10_">
											<use xlink:href="#SVGID_9_"  style="overflow:visible;"/>
										</clipPath>
										<g class="st18">
											<g>
												<g>
													<g>
														<g>
															<defs>
																<rect id="SVGID_11_" x="69.7" y="2.2" width="86.1" height="44.9"/>
															</defs>
															<clipPath id="SVGID_12_">
																<use xlink:href="#SVGID_11_"  style="overflow:visible;"/>
															</clipPath>
															<g class="st19">
																<g>
																	<g>
																		<g>
																			<defs>
																				<rect id="SVGID_13_" x="69.7" y="2.1" width="86.1" height="44.9"/>
																			</defs>
																			<clipPath id="SVGID_14_">
																				<use xlink:href="#SVGID_13_"  style="overflow:visible;"/>
																			</clipPath>
																			<g class="st20">
																				<g>
																					<g>
																						<defs>
																							<rect id="SVGID_15_" x="69.7" y="2.1" width="86.1" height="44.9"/>
																						</defs>
																						<clipPath id="SVGID_16_">
																							<use xlink:href="#SVGID_15_"  style="overflow:visible;"/>
																						</clipPath>
																						<g class="st21">
																							<g>
																								<defs>
																									<rect id="SVGID_17_" x="69.6" y="2.1" width="86.1" height="44.9"/>
																								</defs>
																								<clipPath id="SVGID_18_">
																									<use xlink:href="#SVGID_17_"  style="overflow:visible;"/>
																								</clipPath>
																								<g style="clip-path:url(#SVGID_18_);">
																									
																										<use xlink:href="#cloud"  width="86.1" height="44.9" x="-43" y="-22.4" transform="matrix(1 0 0 -1 112.5966 24.5251)" style="overflow:visible;"/>
																								</g>
																							</g>
																						</g>
																					</g>
																				</g>
																			</g>
																		</g>
																	</g>
																</g>
															</g>
														</g>
													</g>
												</g>
											</g>
										</g>
									</g>
								</g>
							</g>
						</g>
					</g>
				</g>
			</g>
		</g>
	</g>
</g>
</svg>
