<?xml version="1.0" encoding="utf-8"?>
<!-- Generator: Adobe Illustrator 23.1.0, SVG Export Plug-In . SVG Version: 6.00 Build 0)  -->
<svg version="1.1" id="Layer_1" xmlns="http://www.w3.org/2000/svg" xmlns:xlink="http://www.w3.org/1999/xlink" x="0px" y="0px"
	 viewBox="0 0 200.9 226.3" style="enable-background:new 0 0 200.9 226.3;" xml:space="preserve">
<style type="text/css">
	.st0{fill:none;stroke:#000000;stroke-width:0.7512;stroke-miterlimit:11.3386;}
	.st1{fill:none;stroke:#000000;stroke-width:0.5;}
	.st2{fill:none;stroke:#000000;stroke-width:0.75;}
	.st3{fill:none;stroke:#000000;stroke-width:0.744;}
	.st4{fill:#DBDDDB;}
	.st5{fill:#363E3E;}
	.st6{fill:none;}
	.st7{clip-path:url(#SVGID_2_);}
	.st8{clip-path:url(#SVGID_4_);}
	.st9{clip-path:url(#SVGID_6_);}
	.st10{clip-path:url(#SVGID_8_);}
	.st11{font-family:'Roboto-Regular';}
	.st12{font-size:9px;}
	.st13{font-family:'Roboto-Bold';}
	.st14{fill:none;stroke:#94B0DA;stroke-width:3;stroke-miterlimit:11.3386;stroke-dasharray:3,3;}
	.st15{fill:#94B0DA;}
	.st16{fill:#9F9F9F;stroke:#000000;stroke-width:0.5;}
	.st17{stroke:#000000;stroke-width:0.5;}
	.st18{fill:#DA9E94;stroke:#DA9E94;stroke-miterlimit:10;}
	.st19{fill:none;stroke:#DA9E94;stroke-width:2;stroke-miterlimit:10;}
</style>
<symbol  id="cloud" viewBox="-43 -22.4 86.1 44.9">
	<g id="layer1_1_" transform="translate(-54.754156,-85.921738)">
		<path id="path10_1_" class="st0" d="M55.4,107.8c5.2,0.9,10.9-1.3,14-5.4c0.7-0.7,1-1.6,1.6-2.5c0.2-0.3,0.7-0.3,1.1-0.3
			c3.8-0.2,7.4-2,9.9-4.8c0.2-0.3,0.6-0.6,1-0.5c2.2,0,4.3-0.5,6.2-1.4c3.3-1.5,5.9-4.3,7.2-7.5c1.1-2.8,1.3-5.9,0.5-8.7
			c-0.8-3-2.8-5.8-5.4-7.6c-3.1-2.2-7.1-3.1-10.8-2.4c-0.4,0.1-0.9,0.1-1.3-0.1c-3.6-1.7-8-1.9-11.7-0.3c-0.9,0.3-1.7,0.9-2.6,1.3
			c-0.4,0.3-0.8-0.1-1.2-0.3c-2.7-2.3-6.4-3.5-10-3.4c-3.3,0.1-6.4,1.4-8.9,3.5c-0.3,0.4-0.9,0.2-1.3,0.1c-2.4-0.6-4.9-0.7-7.3-0.1
			c-0.4,0.1-0.7,0.2-1.1,0.3c-0.4-0.1-0.7-0.4-1-0.6c-2.5-1.6-5.5-2.4-8.4-2.3c-3.4,0.1-6.8,1.4-9.3,3.7c-2.7,2.4-4.3,5.8-4.5,9.3
			c-0.2,2.9,0.6,5.9,2.2,8.4c2,3,5.2,5.2,8.8,6c0.3,0.1,0.6,0.1,0.8,0.3c0.2,0.3,0.2,0.6,0.3,0.9c0.8,3.8,3.4,7.3,6.9,9.2
			c3.8,2.2,8.6,2.4,12.6,0.8c0.9-0.3,1.7-0.9,2.6-1.2c0.5,0,0.8,0.5,1.1,0.8C49.1,105.6,52.1,107.3,55.4,107.8L55.4,107.8z"/>
	</g>
</symbol>
<line class="st1" x1="33.1" y1="174.8" x2="19.6" y2="195.4"/>
<line class="st1" x1="46" y1="174.8" x2="59.5" y2="195.4"/>
<g>
	<line class="st2" x1="149.9" y1="104.9" x2="126" y2="80.9"/>
	<line class="st2" x1="75.2" y1="104.9" x2="99.1" y2="80.9"/>
</g>
<line class="st2" x1="112.7" y1="59.7" x2="112.7" y2="48.4"/>
<line class="st3" x1="91" y1="149.6" x2="77.3" y2="125.9"/>
<line class="st2" x1="40.2" y1="149.6" x2="53.9" y2="125.9"/>
<g>
	<path class="st4" d="M127.9,75.1c0,8.5-6.9,15.3-15.3,15.3s-15.4-6.9-15.4-15.3c0-8.5,6.9-15.3,15.3-15.3S127.9,66.6,127.9,75.1z"
		/>
	<g>
		<path class="st5" d="M116.6,69.5c0-0.1-0.1-0.1-0.2-0.1h-2.1v-4.8c0-0.1-0.1-0.2-0.2-0.2H111c-0.1,0-0.2,0.1-0.2,0.2v4.8h-2.1
			c-0.1,0-0.2,0-0.2,0.1s0,0.2,0,0.2l3.8,3.9l0.1,0.1c0,0,0.1,0,0.1-0.1l3.8-3.9C116.6,69.6,116.6,69.5,116.6,69.5z"/>
		<path class="st5" d="M116.6,80.7c0,0.1-0.1,0.1-0.2,0.1h-2.1v4.8c0,0.1-0.1,0.2-0.2,0.2H111c-0.1,0-0.2-0.1-0.2-0.2v-4.8h-2.1
			c-0.1,0-0.2,0-0.2-0.1s0-0.2,0-0.2l3.8-3.9l0.1-0.1c0,0,0.1,0,0.1,0.1l3.8,3.9C116.6,80.5,116.6,80.6,116.6,80.7z"/>
		<path class="st5" d="M119,79.1c-0.1,0-0.1-0.1-0.1-0.2v-2.1h-4.8c-0.1,0-0.2-0.1-0.2-0.2v-3.1c0-0.1,0.1-0.2,0.2-0.2h4.8v-2.1
			c0-0.1,0.1-0.2,0.1-0.2h0.2l3.8,3.8l0.1,0.1c0,0.1,0,0.1-0.1,0.1l-3.9,3.8C119.2,79.2,119.1,79.2,119,79.1z"/>
		<path class="st5" d="M106,79.1c0.1,0,0.1-0.1,0.1-0.2v-2.1h4.8c0.1,0,0.2-0.1,0.2-0.2v-3.1c0-0.1-0.1-0.2-0.2-0.2h-4.8v-2.1
			c0-0.1-0.1-0.2-0.1-0.2h-0.2l-3.8,3.8l-0.1,0.1c0,0.1,0,0.1,0.1,0.1l3.8,3.8C105.9,79.2,106,79.2,106,79.1z"/>
	</g>
</g>
<line class="st2" x1="184.6" y1="150.1" x2="169.9" y2="124.7"/>
<line class="st2" x1="133.7" y1="150.1" x2="148.2" y2="125"/>
<line class="st3" x1="91.8" y1="191.1" x2="91.8" y2="175.3"/>
<polygon class="st4" points="80.6,209.7 80.6,196.8 91.7,190.3 102.9,196.8 102.9,209.7 91.7,216.2 "/>
<g>
	<rect x="173.1" y="149.5" class="st4" width="25.8" height="25.8"/>
	<g>
		<path class="st5" d="M190.8,160.5c-0.1,0-0.1-0.1-0.1-0.2v-2.1h-4.8c-0.1,0-0.2-0.1-0.2-0.2v-3.1c0-0.1,0.1-0.2,0.2-0.2h4.8v-2.1
			c0-0.1,0.1-0.1,0.1-0.2c0.1,0,0.2,0,0.2,0l3.9,3.8l0.1,0.1c0,0.1,0,0.1-0.1,0.1l-3.9,3.8C191,160.5,190.9,160.5,190.8,160.5z"/>
		<path class="st5" d="M190.8,168.6c-0.1,0-0.1-0.1-0.1-0.2v-2.1h-4.8c-0.1,0-0.2-0.1-0.2-0.2V163c0-0.1,0.1-0.2,0.2-0.2h4.8v-2.1
			c0-0.1,0.1-0.2,0.1-0.2c0.1,0,0.2,0,0.2,0l3.9,3.8l0.1,0.1c0,0.1,0,0.1-0.1,0.1l-3.9,3.9C191,168.6,190.9,168.6,190.8,168.6z"/>
		<path class="st5" d="M181.2,164.5c0.1,0,0.1-0.1,0.1-0.2v-2.1h4.8c0.1,0,0.2-0.1,0.2-0.2v-3.1c0-0.1-0.1-0.2-0.2-0.2h-4.8v-2.1
			c0-0.1-0.1-0.1-0.1-0.2c-0.1,0-0.1,0-0.2,0l-3.9,3.8l-0.1,0.1c0,0.1,0,0.1,0.1,0.1l3.9,3.9C181.1,164.5,181.2,164.5,181.2,164.5z"
			/>
		<path class="st5" d="M181.2,172.3c0.1,0,0.1-0.1,0.1-0.2V170h4.8c0.1,0,0.2-0.1,0.2-0.2v-3.1c0-0.1-0.1-0.2-0.2-0.2h-4.8v-2.1
			c0-0.1-0.1-0.2-0.1-0.2c-0.1,0-0.1,0-0.2,0l-3.9,3.8l-0.1,0.1c0,0,0,0.1,0.1,0.1l3.9,3.8C181.1,172.3,181.2,172.3,181.2,172.3z"/>
	</g>
</g>
<g>
	<rect x="120.9" y="149.5" class="st4" width="25.8" height="25.8"/>
	<g>
		<path class="st5" d="M138.6,160.5c-0.1,0-0.1-0.1-0.1-0.2v-2.1h-4.8c-0.1,0-0.2-0.1-0.2-0.2v-3.1c0-0.1,0.1-0.2,0.2-0.2h4.8v-2.1
			c0-0.1,0.1-0.1,0.1-0.2s0.2,0,0.2,0l3.9,3.8l0.1,0.1c0,0.1,0,0.1-0.1,0.1l-3.8,3.8C138.8,160.5,138.7,160.5,138.6,160.5z"/>
		<path class="st5" d="M138.6,168.6c-0.1,0-0.1-0.1-0.1-0.2v-2.1h-4.8c-0.1,0-0.2-0.1-0.2-0.2V163c0-0.1,0.1-0.2,0.2-0.2h4.8v-2.1
			c0-0.1,0.1-0.2,0.1-0.2h0.2l3.9,3.8l0.1,0.1c0,0.1,0,0.1-0.1,0.1l-3.8,3.9C138.8,168.6,138.7,168.6,138.6,168.6z"/>
		<path class="st5" d="M129.1,164.5c0.1,0,0.1-0.1,0.1-0.2v-2.1h4.8c0.1,0,0.2-0.1,0.2-0.2v-3.1c0-0.1-0.1-0.2-0.2-0.2h-4.8v-2.1
			c0-0.1-0.1-0.1-0.1-0.2s-0.2,0-0.2,0l-3.8,3.8l-0.1,0.1c0,0.1,0,0.1,0.1,0.1l3.8,3.9C128.9,164.5,129,164.5,129.1,164.5z"/>
		<path class="st5" d="M129.1,172.3c0.1,0,0.1-0.1,0.1-0.2V170h4.8c0.1,0,0.2-0.1,0.2-0.2v-3.1c0-0.1-0.1-0.2-0.2-0.2h-4.8v-2.1
			c0-0.1-0.1-0.2-0.1-0.2h-0.2l-3.8,3.8l-0.1,0.1c0,0,0,0.1,0.1,0.1l3.8,3.8C128.9,172.3,129,172.3,129.1,172.3z"/>
	</g>
</g>
<g>
	<rect x="78.9" y="149.5" class="st4" width="25.8" height="25.8"/>
	<g>
		<path class="st5" d="M96.6,160.5c-0.1,0-0.1-0.1-0.1-0.2v-2.1h-4.8c-0.1,0-0.2-0.1-0.2-0.2v-3.1c0-0.1,0.1-0.2,0.2-0.2h4.8v-2.1
			c0-0.1,0.1-0.1,0.1-0.2s0.2,0,0.2,0l3.9,3.8l0.1,0.1c0,0.1,0,0.1-0.1,0.1l-3.8,3.8C96.8,160.5,96.7,160.5,96.6,160.5z"/>
		<path class="st5" d="M96.6,168.6c-0.1,0-0.1-0.1-0.1-0.2v-2.1h-4.8c-0.1,0-0.2-0.1-0.2-0.2V163c0-0.1,0.1-0.2,0.2-0.2h4.8v-2.1
			c0-0.1,0.1-0.2,0.1-0.2h0.2l3.9,3.8l0.1,0.1c0,0.1,0,0.1-0.1,0.1l-3.8,3.9C96.8,168.6,96.7,168.6,96.6,168.6z"/>
		<path class="st5" d="M87.1,164.5c0.1,0,0.1-0.1,0.1-0.2v-2.1H92c0.1,0,0.2-0.1,0.2-0.2v-3.1c0-0.1-0.1-0.2-0.2-0.2h-4.8v-2.1
			c0-0.1-0.1-0.1-0.1-0.2s-0.2,0-0.2,0l-3.8,3.8l-0.1,0.1c0,0.1,0,0.1,0.1,0.1l3.8,3.9C86.9,164.5,87,164.5,87.1,164.5z"/>
		<path class="st5" d="M87.1,172.3c0.1,0,0.1-0.1,0.1-0.2V170H92c0.1,0,0.2-0.1,0.2-0.2v-3.1c0-0.1-0.1-0.2-0.2-0.2h-4.8v-2.1
			c0-0.1-0.1-0.2-0.1-0.2h-0.2l-3.8,3.8l-0.1,0.1c0,0,0,0.1,0.1,0.1l3.8,3.8C86.9,172.3,87,172.3,87.1,172.3z"/>
	</g>
</g>
<g>
	<rect x="26.7" y="149.5" class="st4" width="25.8" height="25.8"/>
	<g>
		<path class="st5" d="M44.4,160.5c-0.1,0-0.1-0.1-0.1-0.2v-2.1h-4.8c-0.1,0-0.2-0.1-0.2-0.2v-3.1c0-0.1,0.1-0.2,0.2-0.2h4.8v-2.1
			c0-0.1,0-0.1,0.1-0.2c0.1,0,0.1,0,0.2,0l3.8,3.8l0.1,0.1c0,0.1,0,0.1-0.1,0.1l-3.9,3.8C44.6,160.5,44.5,160.5,44.4,160.5z"/>
		<path class="st5" d="M44.4,168.6c-0.1,0-0.1-0.1-0.1-0.2v-2.1h-4.8c-0.1,0-0.2-0.1-0.2-0.2V163c0-0.1,0.1-0.2,0.2-0.2h4.8v-2.1
			c0-0.1,0-0.2,0.1-0.2s0.1,0,0.2,0l3.8,3.8l0.1,0.1c0,0.1,0,0.1-0.1,0.1l-3.9,3.9C44.6,168.6,44.5,168.6,44.4,168.6z"/>
		<path class="st5" d="M34.9,164.5c0.1,0,0.1-0.1,0.1-0.2v-2.1h4.8c0.1,0,0.2-0.1,0.2-0.2v-3.1c0-0.1-0.1-0.2-0.2-0.2H35v-2.1
			c0-0.1,0-0.1-0.1-0.2c-0.1,0-0.2,0-0.2,0l-3.8,3.8l-0.1,0.1c0,0.1,0,0.1,0.1,0.1l3.9,3.9C34.7,164.5,34.8,164.5,34.9,164.5z"/>
		<path class="st5" d="M34.9,172.3c0.1,0,0.1-0.1,0.1-0.2V170h4.8c0.1,0,0.2-0.1,0.2-0.2v-3.1c0-0.1-0.1-0.2-0.2-0.2H35v-2.1
			c0-0.1,0-0.2-0.1-0.2s-0.2,0-0.2,0l-3.8,3.8l-0.1,0.1c0,0,0,0.1,0.1,0.1l3.9,3.8C34.7,172.3,34.8,172.3,34.9,172.3z"/>
	</g>
</g>
<g>
	<path class="st4" d="M81.2,116c0,8.5-6.9,15.3-15.3,15.3s-15.3-6.9-15.3-15.3s6.9-15.3,15.3-15.3S81.2,107.5,81.2,116z"/>
	<g>
		<path class="st5" d="M69.9,110.4c0-0.1-0.1-0.1-0.2-0.1h-2.1v-4.8c0-0.1-0.1-0.2-0.2-0.2h-3.1c-0.1,0-0.2,0.1-0.2,0.2v4.8H62
			c-0.1,0-0.2,0.1-0.2,0.1v0.2l3.8,3.8l0.1,0.1c0,0,0.1,0,0.1-0.1l3.8-3.8C69.9,110.6,69.9,110.5,69.9,110.4z"/>
		<path class="st5" d="M69.9,121.6c0,0.1-0.1,0.1-0.2,0.1h-2.1v4.8c0,0.1-0.1,0.2-0.2,0.2h-3.1c-0.1,0-0.2-0.1-0.2-0.2v-4.8H62
			c-0.1,0-0.2-0.1-0.2-0.1v-0.2l3.8-3.9l0.1-0.1c0,0,0.1,0,0.1,0.1l3.8,3.9C69.9,121.5,69.9,121.5,69.9,121.6z"/>
		<path class="st5" d="M72.4,120.1c-0.1,0-0.1-0.1-0.1-0.2v-2.1h-4.8c-0.1,0-0.2-0.1-0.2-0.2v-3.1c0-0.1,0.1-0.2,0.2-0.2h4.8v-2.1
			c0-0.1,0-0.2,0.1-0.2s0.2,0,0.2,0l3.8,3.8l0.1,0.1c0,0,0,0.1-0.1,0.1l-3.8,3.8C72.5,120.1,72.4,120.1,72.4,120.1z"/>
		<path class="st5" d="M59.4,120.1c0.1,0,0.1-0.1,0.1-0.2v-2.1h4.8c0.1,0,0.2-0.1,0.2-0.2v-3.1c0-0.1-0.1-0.2-0.2-0.2h-4.8v-2.1
			c0-0.1,0-0.2-0.1-0.2s-0.2,0-0.2,0l-3.8,3.8l-0.1,0.1c0,0,0,0.1,0.1,0.1l3.7,4.1C59.2,120.1,59.3,120.1,59.4,120.1z"/>
	</g>
</g>
<g>
	<path class="st4" d="M174.6,116c0,8.5-6.9,15.3-15.3,15.3S144,124.4,144,116s6.9-15.3,15.3-15.3S174.6,107.5,174.6,116z"/>
	<g>
		<path class="st5" d="M163.3,110.4c0-0.1-0.1-0.1-0.2-0.1H161v-4.8c0-0.1-0.1-0.2-0.2-0.2h-3.1c-0.1,0-0.2,0.1-0.2,0.2v4.8h-2.1
			c-0.1,0-0.1,0.1-0.2,0.1s0,0.2,0,0.2l3.8,3.8l0.1,0.1c0,0,0.1,0,0.1-0.1l3.9-3.8C163.3,110.6,163.3,110.5,163.3,110.4z"/>
		<path class="st5" d="M163.3,121.6c0,0.1-0.1,0.1-0.2,0.1H161v4.8c0,0.1-0.1,0.2-0.2,0.2h-3.1c-0.1,0-0.2-0.1-0.2-0.2v-4.8h-2.1
			c-0.1,0-0.1-0.1-0.2-0.1s0-0.2,0-0.2l3.8-3.9l0.1-0.1c0,0,0.1,0,0.1,0.1l3.9,3.9C163.3,121.5,163.3,121.5,163.3,121.6z"/>
		<path class="st5" d="M165.7,120.1c-0.1,0-0.1-0.1-0.1-0.2v-2.1h-4.8c-0.1,0-0.2-0.1-0.2-0.2v-3.1c0-0.1,0.1-0.2,0.2-0.2h4.8v-2.1
			c0-0.1,0.1-0.2,0.1-0.2c0.1,0,0.2,0,0.2,0l3.9,3.8l0.1,0.1c0,0,0,0.1-0.1,0.1l-3.9,3.8C165.9,120.1,165.8,120.1,165.7,120.1z"/>
		<path class="st5" d="M152.7,120.1c0.1,0,0.1-0.1,0.1-0.2v-2.1h4.8c0.1,0,0.2-0.1,0.2-0.2v-3.1c0-0.1-0.1-0.2-0.2-0.2h-4.8v-2.1
			c0-0.1-0.1-0.2-0.1-0.2c-0.1,0-0.2,0-0.2,0l-3.9,3.8l-0.1,0.1c0,0,0,0.1,0.1,0.1l3.9,3.8C152.6,120.1,152.7,120.1,152.7,120.1z"/>
	</g>
</g>
<line class="st6" x1="87.4" y1="139.9" x2="93.7" y2="133.6"/>
<g>
	<g>
		<g>
			<g>
				<g>
					<defs>
						<rect id="SVGID_1_" x="70.3" y="3.3" width="86.2" height="45"/>
					</defs>
					<clipPath id="SVGID_2_">
						<use xlink:href="#SVGID_1_"  style="overflow:visible;"/>
					</clipPath>
					<g class="st7">
						<g>
							<g>
								<g>
									<g>
										<defs>
											<rect id="SVGID_3_" x="70.7" y="3.2" width="86.1" height="44.9"/>
										</defs>
										<clipPath id="SVGID_4_">
											<use xlink:href="#SVGID_3_"  style="overflow:visible;"/>
										</clipPath>
										<g class="st8">
											<g>
												<g>
													<g>
														<defs>
															<rect id="SVGID_5_" x="70.7" y="3.3" width="86.1" height="44.9"/>
														</defs>
														<clipPath id="SVGID_6_">
															<use xlink:href="#SVGID_5_"  style="overflow:visible;"/>
														</clipPath>
														<g class="st9">
															<g>
																<g>
																	<defs>
																		<rect id="SVGID_7_" x="70.7" y="3.2" width="86.1" height="44.9"/>
																	</defs>
																	<clipPath id="SVGID_8_">
																		<use xlink:href="#SVGID_7_"  style="overflow:visible;"/>
																	</clipPath>
																	<g class="st10">
																		<g>
																			<defs>
																				<rect id="SVGID_9_" x="70.7" y="3.2" width="86.1" height="44.9"/>
																			</defs>
																			<clipPath id="SVGID_10_">
																				<use xlink:href="#SVGID_9_"  style="overflow:visible;"/>
																			</clipPath>
																			<g style="clip-path:url(#SVGID_10_);">
																				
																					<use xlink:href="#cloud"  width="86.1" height="44.9" x="-43" y="-22.4" transform="matrix(1 0 0 -1 113.6728 25.6725)" style="overflow:visible;"/>
																			</g>
																		</g>
																	</g>
																</g>
															</g>
														</g>
													</g>
												</g>
											</g>
										</g>
									</g>
								</g>
							</g>
						</g>
					</g>
				</g>
			</g>
		</g>
	</g>
</g>
<text transform="matrix(1 0 0 1 56.3433 139.3773)" class="st5 st11 st12">DMZ</text>
<text transform="matrix(1 0 0 1 84.7826 205.8425)" class="st5 st13 st12">DPI</text>
<text transform="matrix(1 0 0 1 150.6803 139.3773)" class="st5 st11 st12">LAN</text>
<text transform="matrix(1 0 0 1 95.3091 98.1531)" class="st5 st11 st12">Gateway</text>
<text transform="matrix(6.123234e-17 -1 1 6.123234e-17 25.0593 172.0924)" class="st5 st11 st12">Labs</text>
<text transform="matrix(1 0 0 1 98.0826 29.4287)" class="st5 st11 st12">Internet</text>
<text transform="matrix(6.123234e-17 -1 1 6.123234e-17 77.0141 177.3717)" class="st5 st11 st12">Servers</text>
<text transform="matrix(6.123234e-17 -1 1 6.123234e-17 119.5394 176.4186)" class="st5 st11 st12">Guests</text>
<text transform="matrix(6.123234e-17 -1 1 6.123234e-17 171.7965 175.6823)" class="st5 st11 st12">Dorms</text>
<line class="st6" x1="52.2" y1="31" x2="52.2" y2="77"/>
<path class="st14" d="M98.6,45.4c-0.6,11.9-3.3,27.5-14,38.2c-12,12-24.9,8.6-37.4,19.8c-6.7,6-13.9,16.8-16.3,37.7"/>
<polygon class="st15" points="26.6,139.5 30.3,147.6 35.6,140.3 "/>
<path id="path3" class="st16" d="M33,216.5c1.2,0,2.2-1,2.2-2.2V197c0-1.2-1-2.2-2.2-2.2H7c-1.2,0-2.2,1-2.2,2.2v17.4
	c0,1.2,1,2.2,2.2,2.2H2.7v2.2c0,1.2,1,2.2,2.2,2.2h30.2c1.2,0,2.2-1,2.2-2.2v-2.2L33,216.5L33,216.5z M7,197.1h25.9v17.3H7V197.1z
	 M24.3,219.2h-8.6v-1.1h8.6V219.2z M28.6,219.8c-0.6,0-1.1-0.5-1.1-1.1s0.5-1.1,1.1-1.1s1.1,0.5,1.1,1.1S29.2,219.8,28.6,219.8z
	 M33,219.8c-0.6,0-1.1-0.5-1.1-1.1s0.5-1.1,1.1-1.1s1.1,0.5,1.1,1.1S33.6,219.8,33,219.8z"/>
<path id="path3_1_" class="st16" d="M72.2,216.5c1.2,0,2.2-1,2.2-2.2V197c0-1.2-1-2.2-2.2-2.2h-26c-1.2,0-2.2,1-2.2,2.2v17.4
	c0,1.2,1,2.2,2.2,2.2h-4.3v2.2c0,1.2,1,2.2,2.2,2.2h30.2c1.2,0,2.2-1,2.2-2.2v-2.2L72.2,216.5L72.2,216.5z M46.2,197.1h25.9v17.3
	H46.2V197.1z M63.5,219.2h-8.6v-1.1h8.6V219.2z M67.8,219.8c-0.6,0-1.1-0.5-1.1-1.1s0.5-1.1,1.1-1.1s1.1,0.5,1.1,1.1
	S68.4,219.8,67.8,219.8z M72.2,219.8c-0.6,0-1.1-0.5-1.1-1.1s0.5-1.1,1.1-1.1s1.1,0.5,1.1,1.1S72.8,219.8,72.2,219.8z"/>
<g>
	<circle class="st17" cx="36.1" cy="188.7" r="0.5"/>
	<circle class="st17" cx="39.6" cy="188.7" r="0.5"/>
	<circle class="st17" cx="43.1" cy="188.7" r="0.5"/>
</g>
<g id="aBBHwy.tif">
</g>
<g id="aBBHwy.tif_1_">
</g>
<g>
	<path class="st18" d="M31,132.2c-4.3,0-7.7,3.5-7.7,7.7c0,4.3,3.5,7.7,7.7,7.7s7.7-3.5,7.7-7.7S35.2,132.2,31,132.2z M31,133.7
		c3.4,0,6.2,2.8,6.2,6.2s-2.8,6.2-6.2,6.2s-6.2-2.8-6.2-6.2S27.6,133.7,31,133.7"/>
	<line class="st19" x1="35.8" y1="144.7" x2="26.2" y2="135.1"/>
</g>
<image style="overflow:visible;" width="145" height="53" xlink:href="../../../../../../Downloads/Icons/png/f2movies.png"  transform="matrix(0.1519 0 0 0.1519 8.9873 201.5738)">
</image>
<image style="overflow:visible;" width="145" height="53" xlink:href="../../../../../../Downloads/Icons/png/f2movies.png"  transform="matrix(0.1519 0 0 0.1519 48.1873 201.5738)">
</image>
</svg>
