<?xml version="1.0" encoding="utf-8"?>
<!-- Generator: Adobe Illustrator 23.1.0, SVG Export Plug-In . SVG Version: 6.00 Build 0)  -->
<svg version="1.1" id="Layer_1" xmlns="http://www.w3.org/2000/svg" xmlns:xlink="http://www.w3.org/1999/xlink" x="0px" y="0px"
	 viewBox="0 0 196.6 236" style="enable-background:new 0 0 196.6 236;" xml:space="preserve">
<style type="text/css">
	.st0{fill:none;stroke:#000000;stroke-width:0.744;}
	.st1{fill:none;stroke:#000000;stroke-width:0.75;}
	.st2{fill:#DCDEDC;}
	.st3{fill:#343F3E;}
	.st4{fill:none;}
	.st5{clip-path:url(#SVGID_2_);}
	.st6{clip-path:url(#SVGID_4_);}
	.st7{clip-path:url(#SVGID_6_);}
	.st8{clip-path:url(#SVGID_8_);}
	.st9{fill:none;stroke:#000000;stroke-width:0.7512;stroke-miterlimit:11.3386;}
	.st10{font-family:'Roboto-Regular';}
	.st11{font-size:9px;}
	.st12{stroke:#000000;stroke-width:0.5;}
	.st13{fill:#A0A0A0;stroke:#000000;stroke-width:0.5;}
	.st14{fill:none;stroke:#DA9E94;stroke-width:7;stroke-miterlimit:11.3386;stroke-dasharray:8,8;}
	.st15{fill:#DA9E94;}
	.st16{fill:none;stroke:#DA9E94;stroke-width:7;stroke-miterlimit:10;stroke-dasharray:8,8;}
	.st17{fill:#5ACF5F;}
</style>
<line class="st0" x1="160.7" y1="204.7" x2="128.8" y2="178.7"/>
<g>
	<line class="st1" x1="135.6" y1="109" x2="111.7" y2="85"/>
	<line class="st1" x1="60.9" y1="109" x2="84.8" y2="85"/>
</g>
<line class="st1" x1="98.4" y1="63.8" x2="98.4" y2="52.5"/>
<line class="st0" x1="76.7" y1="153.7" x2="63" y2="130"/>
<line class="st1" x1="25.9" y1="153.7" x2="39.6" y2="130"/>
<g>
	<path class="st2" d="M113.6,79.2c0,8.5-6.9,15.3-15.3,15.3s-15.4-6.9-15.4-15.3c0-8.5,6.9-15.3,15.3-15.3S113.6,70.7,113.6,79.2z"
		/>
	<g>
		<path class="st3" d="M102.3,73.6c0-0.1-0.1-0.1-0.2-0.1H100v-4.8c0-0.1-0.1-0.2-0.2-0.2h-3.1c-0.1,0-0.2,0.1-0.2,0.2v4.8h-2.1
			c-0.1,0-0.2,0-0.2,0.1s0,0.2,0,0.2l3.8,3.9l0.1,0.1c0,0,0.1,0,0.1-0.1l3.8-3.9C102.3,73.7,102.3,73.6,102.3,73.6z"/>
		<path class="st3" d="M102.3,84.8c0,0.1-0.1,0.1-0.2,0.1H100v4.8c0,0.1-0.1,0.2-0.2,0.2h-3.1c-0.1,0-0.2-0.1-0.2-0.2v-4.8h-2.1
			c-0.1,0-0.2,0-0.2-0.1s0-0.2,0-0.2l3.8-3.9l0.1-0.1c0,0,0.1,0,0.1,0.1l3.8,3.9C102.3,84.6,102.3,84.7,102.3,84.8z"/>
		<path class="st3" d="M104.7,83.2c-0.1,0-0.1-0.1-0.1-0.2v-2.1h-4.8c-0.1,0-0.2-0.1-0.2-0.2v-3.1c0-0.1,0.1-0.2,0.2-0.2h4.8v-2.1
			c0-0.1,0.1-0.2,0.1-0.2h0.2l3.8,3.8l0.1,0.1c0,0.1,0,0.1-0.1,0.1l-3.9,3.8C104.9,83.3,104.8,83.3,104.7,83.2z"/>
		<path class="st3" d="M91.7,83.2c0.1,0,0.1-0.1,0.1-0.2v-2.1h4.8c0.1,0,0.2-0.1,0.2-0.2v-3.1c0-0.1-0.1-0.2-0.2-0.2h-4.8v-2.1
			c0-0.1-0.1-0.2-0.1-0.2h-0.2l-3.8,3.8L87.6,79c0,0.1,0,0.1,0.1,0.1l3.8,3.8C91.6,83.3,91.7,83.3,91.7,83.2z"/>
	</g>
</g>
<line class="st1" x1="170.3" y1="154.2" x2="155.6" y2="128.8"/>
<line class="st1" x1="119.4" y1="154.2" x2="133.9" y2="129.1"/>
<line class="st0" x1="128.4" y1="206.4" x2="120.8" y2="178.8"/>
<line class="st0" x1="110.7" y1="206.4" x2="118.3" y2="178.8"/>
<line class="st0" x1="80.9" y1="202.5" x2="110" y2="178.7"/>
<g>
	<rect x="158.8" y="153.6" class="st2" width="25.8" height="25.8"/>
	<g>
		<path class="st3" d="M176.5,164.6c-0.1,0-0.1-0.1-0.1-0.2v-2.1h-4.8c-0.1,0-0.2-0.1-0.2-0.2V159c0-0.1,0.1-0.2,0.2-0.2h4.8v-2.1
			c0-0.1,0.1-0.1,0.1-0.2c0.1,0,0.2,0,0.2,0l3.9,3.8l0.1,0.1c0,0.1,0,0.1-0.1,0.1l-3.9,3.8C176.7,164.6,176.6,164.6,176.5,164.6z"/>
		<path class="st3" d="M176.5,172.7c-0.1,0-0.1-0.1-0.1-0.2v-2.1h-4.8c-0.1,0-0.2-0.1-0.2-0.2v-3.1c0-0.1,0.1-0.2,0.2-0.2h4.8v-2.1
			c0-0.1,0.1-0.2,0.1-0.2c0.1,0,0.2,0,0.2,0l3.9,3.8l0.1,0.1c0,0.1,0,0.1-0.1,0.1l-3.9,3.9C176.7,172.7,176.6,172.7,176.5,172.7z"/>
		<path class="st3" d="M166.9,168.6c0.1,0,0.1-0.1,0.1-0.2v-2.1h4.8c0.1,0,0.2-0.1,0.2-0.2V163c0-0.1-0.1-0.2-0.2-0.2H167v-2.1
			c0-0.1-0.1-0.1-0.1-0.2c-0.1,0-0.1,0-0.2,0l-3.9,3.8l-0.1,0.1c0,0.1,0,0.1,0.1,0.1l3.9,3.9C166.8,168.6,166.9,168.6,166.9,168.6z"
			/>
		<path class="st3" d="M166.9,176.4c0.1,0,0.1-0.1,0.1-0.2v-2.1h4.8c0.1,0,0.2-0.1,0.2-0.2v-3.1c0-0.1-0.1-0.2-0.2-0.2H167v-2.1
			c0-0.1-0.1-0.2-0.1-0.2c-0.1,0-0.1,0-0.2,0l-3.9,3.8l-0.1,0.1c0,0,0,0.1,0.1,0.1l3.9,3.8C166.8,176.4,166.9,176.4,166.9,176.4z"/>
	</g>
</g>
<g>
	<rect x="106.6" y="153.6" class="st2" width="25.8" height="25.8"/>
	<g>
		<path class="st3" d="M124.3,164.6c-0.1,0-0.1-0.1-0.1-0.2v-2.1h-4.8c-0.1,0-0.2-0.1-0.2-0.2V159c0-0.1,0.1-0.2,0.2-0.2h4.8v-2.1
			c0-0.1,0.1-0.1,0.1-0.2s0.2,0,0.2,0l3.9,3.8l0.1,0.1c0,0.1,0,0.1-0.1,0.1l-3.8,3.8C124.5,164.6,124.4,164.6,124.3,164.6z"/>
		<path class="st3" d="M124.3,172.7c-0.1,0-0.1-0.1-0.1-0.2v-2.1h-4.8c-0.1,0-0.2-0.1-0.2-0.2v-3.1c0-0.1,0.1-0.2,0.2-0.2h4.8v-2.1
			c0-0.1,0.1-0.2,0.1-0.2h0.2l3.9,3.8l0.1,0.1c0,0.1,0,0.1-0.1,0.1l-3.8,3.9C124.5,172.7,124.4,172.7,124.3,172.7z"/>
		<path class="st3" d="M114.8,168.6c0.1,0,0.1-0.1,0.1-0.2v-2.1h4.8c0.1,0,0.2-0.1,0.2-0.2V163c0-0.1-0.1-0.2-0.2-0.2h-4.8v-2.1
			c0-0.1-0.1-0.1-0.1-0.2s-0.2,0-0.2,0l-3.8,3.8l-0.1,0.1c0,0.1,0,0.1,0.1,0.1l3.8,3.9C114.6,168.6,114.7,168.6,114.8,168.6z"/>
		<path class="st3" d="M114.8,176.4c0.1,0,0.1-0.1,0.1-0.2v-2.1h4.8c0.1,0,0.2-0.1,0.2-0.2v-3.1c0-0.1-0.1-0.2-0.2-0.2h-4.8v-2.1
			c0-0.1-0.1-0.2-0.1-0.2h-0.2l-3.8,3.8l-0.1,0.1c0,0,0,0.1,0.1,0.1l3.8,3.8C114.6,176.4,114.7,176.4,114.8,176.4z"/>
	</g>
</g>
<g>
	<rect x="64.6" y="153.6" class="st2" width="25.8" height="25.8"/>
	<g>
		<path class="st3" d="M82.3,164.6c-0.1,0-0.1-0.1-0.1-0.2v-2.1h-4.8c-0.1,0-0.2-0.1-0.2-0.2V159c0-0.1,0.1-0.2,0.2-0.2h4.8v-2.1
			c0-0.1,0.1-0.1,0.1-0.2s0.2,0,0.2,0l3.9,3.8l0.1,0.1c0,0.1,0,0.1-0.1,0.1l-3.8,3.8C82.5,164.6,82.4,164.6,82.3,164.6z"/>
		<path class="st3" d="M82.3,172.7c-0.1,0-0.1-0.1-0.1-0.2v-2.1h-4.8c-0.1,0-0.2-0.1-0.2-0.2v-3.1c0-0.1,0.1-0.2,0.2-0.2h4.8v-2.1
			c0-0.1,0.1-0.2,0.1-0.2h0.2l3.9,3.8l0.1,0.1c0,0.1,0,0.1-0.1,0.1l-3.8,3.9C82.5,172.7,82.4,172.7,82.3,172.7z"/>
		<path class="st3" d="M72.8,168.6c0.1,0,0.1-0.1,0.1-0.2v-2.1h4.8c0.1,0,0.2-0.1,0.2-0.2V163c0-0.1-0.1-0.2-0.2-0.2h-4.8v-2.1
			c0-0.1-0.1-0.1-0.1-0.2s-0.2,0-0.2,0l-3.8,3.8l-0.1,0.1c0,0.1,0,0.1,0.1,0.1l3.8,3.9C72.6,168.6,72.7,168.6,72.8,168.6z"/>
		<path class="st3" d="M72.8,176.4c0.1,0,0.1-0.1,0.1-0.2v-2.1h4.8c0.1,0,0.2-0.1,0.2-0.2v-3.1c0-0.1-0.1-0.2-0.2-0.2h-4.8v-2.1
			c0-0.1-0.1-0.2-0.1-0.2h-0.2l-3.8,3.8l-0.1,0.1c0,0,0,0.1,0.1,0.1l3.8,3.8C72.6,176.4,72.7,176.4,72.8,176.4z"/>
	</g>
</g>
<g>
	<rect x="12.4" y="153.6" class="st2" width="25.8" height="25.8"/>
	<g>
		<path class="st3" d="M30.1,164.6c-0.1,0-0.1-0.1-0.1-0.2v-2.1h-4.8c-0.1,0-0.2-0.1-0.2-0.2V159c0-0.1,0.1-0.2,0.2-0.2H30v-2.1
			c0-0.1,0-0.1,0.1-0.2c0.1,0,0.1,0,0.2,0l3.8,3.8l0.1,0.1c0,0.1,0,0.1-0.1,0.1l-3.9,3.8C30.3,164.6,30.2,164.6,30.1,164.6z"/>
		<path class="st3" d="M30.1,172.7c-0.1,0-0.1-0.1-0.1-0.2v-2.1h-4.8c-0.1,0-0.2-0.1-0.2-0.2v-3.1c0-0.1,0.1-0.2,0.2-0.2H30v-2.1
			c0-0.1,0-0.2,0.1-0.2s0.1,0,0.2,0l3.8,3.8l0.1,0.1c0,0.1,0,0.1-0.1,0.1l-3.9,3.9C30.3,172.7,30.2,172.7,30.1,172.7z"/>
		<path class="st3" d="M20.6,168.6c0.1,0,0.1-0.1,0.1-0.2v-2.1h4.8c0.1,0,0.2-0.1,0.2-0.2V163c0-0.1-0.1-0.2-0.2-0.2h-4.8v-2.1
			c0-0.1,0-0.1-0.1-0.2c-0.1,0-0.2,0-0.2,0l-3.8,3.8l-0.1,0.1c0,0.1,0,0.1,0.1,0.1l3.9,3.9C20.4,168.6,20.5,168.6,20.6,168.6z"/>
		<path class="st3" d="M20.6,176.4c0.1,0,0.1-0.1,0.1-0.2v-2.1h4.8c0.1,0,0.2-0.1,0.2-0.2v-3.1c0-0.1-0.1-0.2-0.2-0.2h-4.8v-2.1
			c0-0.1,0-0.2-0.1-0.2s-0.2,0-0.2,0l-3.8,3.8l-0.1,0.1c0,0,0,0.1,0.1,0.1l3.9,3.8C20.4,176.4,20.5,176.4,20.6,176.4z"/>
	</g>
</g>
<g>
	<path class="st2" d="M66.9,120.1c0,8.5-6.9,15.3-15.3,15.3s-15.3-6.9-15.3-15.3s6.9-15.3,15.3-15.3S66.9,111.6,66.9,120.1z"/>
	<g>
		<path class="st3" d="M55.6,114.5c0-0.1-0.1-0.1-0.2-0.1h-2.1v-4.8c0-0.1-0.1-0.2-0.2-0.2H50c-0.1,0-0.2,0.1-0.2,0.2v4.8h-2.1
			c-0.1,0-0.2,0.1-0.2,0.1v0.2l3.8,3.8l0.1,0.1c0,0,0.1,0,0.1-0.1l3.8-3.8C55.6,114.7,55.6,114.6,55.6,114.5z"/>
		<path class="st3" d="M55.6,125.7c0,0.1-0.1,0.1-0.2,0.1h-2.1v4.8c0,0.1-0.1,0.2-0.2,0.2H50c-0.1,0-0.2-0.1-0.2-0.2v-4.8h-2.1
			c-0.1,0-0.2-0.1-0.2-0.1v-0.2l3.8-3.9l0.1-0.1c0,0,0.1,0,0.1,0.1l3.8,3.9C55.6,125.6,55.6,125.6,55.6,125.7z"/>
		<path class="st3" d="M58.1,124.2c-0.1,0-0.1-0.1-0.1-0.2v-2.1h-4.8c-0.1,0-0.2-0.1-0.2-0.2v-3.1c0-0.1,0.1-0.2,0.2-0.2H58v-2.1
			c0-0.1,0-0.2,0.1-0.2s0.2,0,0.2,0l3.8,3.8l0.1,0.1c0,0,0,0.1-0.1,0.1l-3.8,3.8C58.2,124.2,58.1,124.2,58.1,124.2z"/>
		<path class="st3" d="M45.1,124.2c0.1,0,0.1-0.1,0.1-0.2v-2.1H50c0.1,0,0.2-0.1,0.2-0.2v-3.1c0-0.1-0.1-0.2-0.2-0.2h-4.8v-2.1
			c0-0.1,0-0.2-0.1-0.2s-0.2,0-0.2,0l-3.8,3.8L41,120c0,0,0,0.1,0.1,0.1l3.7,4.1C44.9,124.2,45,124.2,45.1,124.2z"/>
	</g>
</g>
<g>
	<path class="st2" d="M160.3,120.1c0,8.5-6.9,15.3-15.3,15.3s-15.3-6.9-15.3-15.3s6.9-15.3,15.3-15.3S160.3,111.6,160.3,120.1z"/>
	<g>
		<path class="st3" d="M149,114.5c0-0.1-0.1-0.1-0.2-0.1h-2.1v-4.8c0-0.1-0.1-0.2-0.2-0.2h-3.1c-0.1,0-0.2,0.1-0.2,0.2v4.8h-2.1
			c-0.1,0-0.1,0.1-0.2,0.1s0,0.2,0,0.2l3.8,3.8l0.1,0.1c0,0,0.1,0,0.1-0.1l3.9-3.8C149,114.7,149,114.6,149,114.5z"/>
		<path class="st3" d="M149,125.7c0,0.1-0.1,0.1-0.2,0.1h-2.1v4.8c0,0.1-0.1,0.2-0.2,0.2h-3.1c-0.1,0-0.2-0.1-0.2-0.2v-4.8h-2.1
			c-0.1,0-0.1-0.1-0.2-0.1s0-0.2,0-0.2l3.8-3.9l0.1-0.1c0,0,0.1,0,0.1,0.1l3.9,3.9C149,125.6,149,125.6,149,125.7z"/>
		<path class="st3" d="M151.4,124.2c-0.1,0-0.1-0.1-0.1-0.2v-2.1h-4.8c-0.1,0-0.2-0.1-0.2-0.2v-3.1c0-0.1,0.1-0.2,0.2-0.2h4.8v-2.1
			c0-0.1,0.1-0.2,0.1-0.2c0.1,0,0.2,0,0.2,0l3.9,3.8l0.1,0.1c0,0,0,0.1-0.1,0.1l-3.9,3.8C151.6,124.2,151.5,124.2,151.4,124.2z"/>
		<path class="st3" d="M138.4,124.2c0.1,0,0.1-0.1,0.1-0.2v-2.1h4.8c0.1,0,0.2-0.1,0.2-0.2v-3.1c0-0.1-0.1-0.2-0.2-0.2h-4.8v-2.1
			c0-0.1-0.1-0.2-0.1-0.2c-0.1,0-0.2,0-0.2,0l-3.9,3.8l-0.1,0.1c0,0,0,0.1,0.1,0.1l3.9,3.8C138.3,124.2,138.4,124.2,138.4,124.2z"/>
	</g>
</g>
<line class="st4" x1="73.1" y1="144" x2="79.4" y2="137.7"/>
<g>
	<g>
		<g>
			<g>
				<g>
					<g>
						<g>
							<defs>
								<path id="SVGID_1_" d="M56,52.4c10.1,0,20.1,0,30.2,0c18.7,0,37.3,0,56,0c0-15,0-30,0-45H56V52.4z"/>
							</defs>
							<clipPath id="SVGID_2_">
								<use xlink:href="#SVGID_1_"  style="overflow:visible;"/>
							</clipPath>
							<g class="st5">
								<g>
									<g>
										<g>
											<g>
												<g>
													<g>
														<defs>
															<rect id="SVGID_3_" x="56.4" y="7.4" width="86.1" height="44.9"/>
														</defs>
														<clipPath id="SVGID_4_">
															<use xlink:href="#SVGID_3_"  style="overflow:visible;"/>
														</clipPath>
														<g class="st6">
															<g>
																<g>
																	<g>
																		<g>
																			<g>
																				<defs>
																					<rect id="SVGID_5_" x="56.4" y="7.4" width="86.1" height="44.9"/>
																				</defs>
																				<clipPath id="SVGID_6_">
																					<use xlink:href="#SVGID_5_"  style="overflow:visible;"/>
																				</clipPath>
																				<g class="st7">
																					<g>
																						<g>
																							<g>
																								<g>
																									<defs>
																										<rect id="SVGID_7_" x="56.4" y="7.3" width="86.1" height="44.9"/>
																									</defs>
																									<clipPath id="SVGID_8_">
																										<use xlink:href="#SVGID_7_"  style="overflow:visible;"/>
																									</clipPath>
																									<g class="st8">
																										<g id="layer1_1_" transform="translate(-54.754156,-85.921738)">
																											<path id="path10_1_" class="st9" d="M154.8,93.9c5.2-0.9,10.9,1.3,14,5.4c0.7,0.7,1,1.6,1.6,2.5
																												c0.2,0.3,0.7,0.3,1.1,0.3c3.8,0.2,7.4,2,9.9,4.8c0.2,0.3,0.6,0.6,1,0.5c2.2,0,4.3,0.5,6.2,1.4
																												c3.3,1.5,5.9,4.3,7.2,7.5c1.1,2.8,1.3,5.9,0.5,8.7c-0.8,3-2.8,5.8-5.4,7.6c-3.1,2.2-7.1,3.1-10.8,2.4
																												c-0.4-0.1-0.9-0.1-1.3,0.1c-3.6,1.7-8,1.9-11.7,0.3c-0.9-0.3-1.7-0.9-2.6-1.3c-0.4-0.3-0.8,0.1-1.2,0.3
																												c-2.7,2.3-6.4,3.5-10,3.4c-3.3-0.1-6.4-1.4-8.9-3.5c-0.3-0.4-0.9-0.2-1.3-0.1c-2.4,0.6-4.9,0.7-7.3,0.1
																												c-0.4-0.1-0.7-0.2-1.1-0.3c-0.4,0.1-0.7,0.4-1,0.6c-2.5,1.6-5.5,2.4-8.4,2.3c-3.4-0.1-6.8-1.4-9.3-3.7
																												c-2.7-2.4-4.3-5.8-4.5-9.3c-0.2-2.9,0.6-5.9,2.2-8.4c2-3,5.2-5.2,8.8-6c0.3-0.1,0.6-0.1,0.8-0.3
																												c0.2-0.3,0.2-0.6,0.3-0.9c0.8-3.8,3.4-7.3,6.9-9.2c3.8-2.2,8.6-2.4,12.6-0.8c0.9,0.3,1.7,0.9,2.6,1.2
																												c0.5,0,0.8-0.5,1.1-0.8C148.5,96.1,151.5,94.4,154.8,93.9z"/>
																										</g>
																									</g>
																								</g>
																							</g>
																						</g>
																					</g>
																				</g>
																			</g>
																		</g>
																	</g>
																</g>
															</g>
														</g>
													</g>
												</g>
											</g>
										</g>
									</g>
								</g>
							</g>
						</g>
					</g>
				</g>
			</g>
		</g>
	</g>
</g>
<text transform="matrix(1 0 0 1 42.0305 143.469)" class="st3 st10 st11">DMZ</text>
<text transform="matrix(1 0 0 1 136.3674 143.469)" class="st3 st10 st11">LAN</text>
<text transform="matrix(1 0 0 1 80.9963 102.2448)" class="st3 st10 st11">Gateway</text>
<text transform="matrix(6.123234e-17 -1 1 6.123234e-17 10.7465 176.1836)" class="st3 st10 st11">Labs</text>
<text transform="matrix(1 0 0 1 83.7698 33.5204)" class="st3 st10 st11">Internet</text>
<text transform="matrix(6.123234e-17 -1 1 6.123234e-17 62.7012 181.4629)" class="st3 st10 st11">Servers</text>
<text transform="matrix(6.123234e-17 -1 1 6.123234e-17 105.2266 180.5098)" class="st3 st10 st11">Guests</text>
<text transform="matrix(6.123234e-17 -1 1 6.123234e-17 157.4838 179.7734)" class="st3 st10 st11">Dorms</text>
<line class="st4" x1="37.9" y1="35.1" x2="37.9" y2="81.1"/>
<path class="st4" d="M83,62.3"/>
<g>
	<circle class="st12" cx="116" cy="202.7" r="0.5"/>
	<circle class="st12" cx="119.5" cy="202.7" r="0.5"/>
	<circle class="st12" cx="123.1" cy="202.7" r="0.5"/>
</g>
<path id="path3" class="st13" d="M78.5,217.3c1.2,0,2.2-1,2.2-2.2v-17.3c0-1.2-1-2.2-2.2-2.2H52.6c-1.2,0-2.2,1-2.2,2.2v17.3
	c0,1.2,1,2.2,2.2,2.2h-4.3v2.2c0,1.2,1,2.2,2.2,2.2h30.2c1.2,0,2.2-1,2.2-2.2v-2.2H78.5z M52.6,197.9h25.9v17.3H52.6V197.9z
	 M69.9,220h-8.6v-1h8.6V220z M74.2,220.6c-0.6,0-1.1-0.5-1.1-1.1s0.5-1.1,1.1-1.1s1.1,0.5,1.1,1.1S74.8,220.6,74.2,220.6z
	 M78.5,220.6c-0.6,0-1.1-0.5-1.1-1.1s0.5-1.1,1.1-1.1s1.1,0.5,1.1,1.1S79.1,220.6,78.5,220.6z"/>
<path id="path3_1_" class="st13" d="M186.5,217.3c1.2,0,2.2-1,2.2-2.2v-17.3c0-1.2-1-2.2-2.2-2.2h-25.9c-1.2,0-2.2,1-2.2,2.2v17.3
	c0,1.2,1,2.2,2.2,2.2h-4.3v2.2c0,1.2,1,2.2,2.2,2.2h30.2c1.2,0,2.2-1,2.2-2.2v-2.2H186.5z M160.6,197.9h25.9v17.3h-25.9V197.9z
	 M177.8,220h-8.6v-1h8.6V220z M182.2,220.6c-0.6,0-1.1-0.5-1.1-1.1s0.5-1.1,1.1-1.1s1.1,0.5,1.1,1.1S182.8,220.6,182.2,220.6z
	 M186.5,220.6c-0.6,0-1.1-0.5-1.1-1.1s0.5-1.1,1.1-1.1s1.1,0.5,1.1,1.1S187.1,220.6,186.5,220.6z"/>
<path id="path3_2_" class="st13" d="M114.5,228.4c1.2,0,2.2-1,2.2-2.2V209c0-1.2-1-2.2-2.2-2.2H88.6c-1.2,0-2.2,1-2.2,2.2v17.3
	c0,1.2,1,2.2,2.2,2.2h-4.3v2.2c0,1.2,1,2.2,2.2,2.2h30.2c1.2,0,2.2-1,2.2-2.2v-2.2h-4.4C114.5,228.5,114.5,228.4,114.5,228.4z
	 M88.6,209h25.9v17.3H88.6V209z M105.9,231.1h-8.6V230h8.6V231.1z M110.2,231.6c-0.6,0-1.1-0.5-1.1-1.1s0.5-1.1,1.1-1.1
	s1.1,0.5,1.1,1.1S110.8,231.6,110.2,231.6z M114.5,231.6c-0.6,0-1.1-0.5-1.1-1.1s0.5-1.1,1.1-1.1s1.1,0.5,1.1,1.1
	S115.1,231.6,114.5,231.6z"/>
<path id="path3_3_" class="st13" d="M150.5,228.4c1.2,0,2.2-1,2.2-2.2V209c0-1.2-1-2.2-2.2-2.2h-25.9c-1.2,0-2.2,1-2.2,2.2v17.3
	c0,1.2,1,2.2,2.2,2.2h-4.3v2.2c0,1.2,1,2.2,2.2,2.2h30.2c1.2,0,2.2-1,2.2-2.2v-2.2h-4.4V228.4z M124.6,209h25.9v17.3h-25.9V209z
	 M141.9,231.1h-8.6V230h8.6V231.1z M146.2,231.6c-0.6,0-1.1-0.5-1.1-1.1s0.5-1.1,1.1-1.1s1.1,0.5,1.1,1.1S146.8,231.6,146.2,231.6z
	 M150.5,231.6c-0.6,0-1.1-0.5-1.1-1.1s0.5-1.1,1.1-1.1s1.1,0.5,1.1,1.1S151.1,231.6,150.5,231.6z"/>
<path class="st9" d="M119.6,68.2"/>
<path class="st9" d="M119.2,60.8"/>
<text transform="matrix(1 0 0 1 136.2498 81.3817)" class="st3 st10 st11">10 Gbps</text>
<g>
	<g>
		<path class="st14" d="M111.6,52.2c0.7,5.5,2.5,14,8.1,22.4c7.2,10.8,15.5,13.4,15.3,20.7c-0.2,5.3-4.6,5.5-10.2,16.6
			c-2.3,4.6-3.3,8.3-5.4,15.6c-0.9,3.3-2,7.4-3,12.2"/>
		<g>
			<polygon class="st15" points="109.9,136.5 114.6,149.6 123.7,139 			"/>
		</g>
	</g>
</g>
<g>
	<g>
		<path class="st16" d="M110.3,184c-1.8,4-3.6,7.9-5.4,11.9"/>
		<g>
			<polygon class="st15" points="99.4,191.2 100.8,205.1 112.1,196.9 			"/>
		</g>
	</g>
</g>
<g>
	<g>
		<path class="st16" d="M142.1,180.5c3.6,2.7,7.2,5.5,10.8,8.2"/>
		<g>
			<polygon class="st15" points="147.1,193 160.9,194.7 155.5,181.9 			"/>
		</g>
	</g>
</g>
<g>
	<g>
		<path class="st16" d="M97.1,180.5c-3.6,2.7-7.2,5.5-10.8,8.2"/>
		<g>
			<polygon class="st15" points="83.7,181.9 78.3,194.7 92.2,193 			"/>
		</g>
	</g>
</g>
<g>
	<g>
		<path class="st16" d="M129,184c1.8,4,3.6,7.9,5.4,11.9"/>
		<g>
			<polygon class="st15" points="127.1,196.9 138.5,205.1 139.9,191.2 			"/>
		</g>
	</g>
</g>
<g id="_x31_4-utorrent">
	<g>
		<g>
			<path class="st17" d="M71.3,208.1c-0.4,0-0.7,0-1-0.1c-0.7-0.2-0.9-0.5-0.9-0.5c0-0.1-0.1-0.1-0.2-0.1c-0.1,0-0.2,0.1-0.2,0.2
				c0,0-0.3,1-1.2,1.4c-0.9,0.4-2.4,0.3-2.5,0.3c-0.1,0-0.2,0-0.2,0.1c0,0.1-0.1,0.2,0,0.2l1.2,2.7c0,0.1,0.1,0.1,0.2,0.1
				c0,0,0,0,0,0c2.3-0.4,4.1-1.9,4.9-4.1c0-0.1,0-0.2,0-0.2C71.5,208.2,71.4,208.1,71.3,208.1L71.3,208.1z"/>
			<path class="st17" d="M65.6,199.9c-3.5,0-6.3,2.8-6.3,6.3c0,2.8,1.8,5.3,4.5,6.1c0,0,0,0,0.1,0c0.1,0,0.1,0,0.2-0.1
				c0.1-0.1,0.1-0.2,0-0.2c-2.5-6.3-2.9-7.8-3-8.1c0.3-0.2,1.5-0.4,1.8-0.4c0.1,0.1,0.3,0.6,0.4,1c0.6,1.5,1.5,3.8,2.8,3.9
				c0.9,0.1,1.7-0.3,2.2-0.9c0.3-0.4,0.4-0.8,0.3-1.2c-0.2-0.5-1.1-2.5-1.4-3.3l1.4-0.4c0.3,0.7,1.4,3.3,1.9,4
				c0.2,0.3,0.6,0.4,1.2,0.5c0.1,0,0.2-0.1,0.3-0.2c0-0.2,0-0.5,0-0.7C71.9,202.8,69.1,199.9,65.6,199.9L65.6,199.9z"/>
		</g>
	</g>
</g>
<g id="_x31_4-utorrent_1_">
	<g>
		<g>
			<path class="st17" d="M179.3,208.1c-0.4,0-0.7,0-1-0.1c-0.7-0.2-0.9-0.5-0.9-0.5c0-0.1-0.1-0.1-0.2-0.1c-0.1,0-0.2,0.1-0.2,0.2
				c0,0-0.3,1-1.2,1.4c-0.9,0.4-2.4,0.3-2.5,0.3c-0.1,0-0.2,0-0.2,0.1c0,0.1-0.1,0.2,0,0.2l1.2,2.7c0,0.1,0.1,0.1,0.2,0.1
				c0,0,0,0,0,0c2.3-0.4,4.1-1.9,4.9-4.1c0-0.1,0-0.2,0-0.2C179.5,208.2,179.4,208.1,179.3,208.1L179.3,208.1z"/>
			<path class="st17" d="M173.6,199.9c-3.5,0-6.3,2.8-6.3,6.3c0,2.8,1.8,5.3,4.5,6.1c0,0,0,0,0.1,0c0.1,0,0.1,0,0.2-0.1
				c0.1-0.1,0.1-0.2,0-0.2c-2.5-6.3-2.9-7.8-3-8.1c0.3-0.2,1.5-0.4,1.8-0.4c0.1,0.1,0.3,0.6,0.4,1c0.6,1.5,1.5,3.8,2.8,3.9
				c0.9,0.1,1.7-0.3,2.2-0.9c0.3-0.4,0.4-0.8,0.3-1.2c-0.2-0.5-1.1-2.5-1.4-3.3l1.4-0.4c0.3,0.7,1.4,3.3,1.9,4
				c0.2,0.3,0.6,0.4,1.2,0.5c0.1,0,0.2-0.1,0.3-0.2c0-0.2,0-0.5,0-0.7C179.9,202.8,177.1,199.9,173.6,199.9L173.6,199.9z"/>
		</g>
	</g>
</g>
<g id="_x31_4-utorrent_2_">
	<g>
		<g>
			<path class="st17" d="M107.3,219.2c-0.4,0-0.7,0-1-0.1c-0.7-0.2-0.9-0.5-0.9-0.5c0-0.1-0.1-0.1-0.2-0.1c-0.1,0-0.2,0.1-0.2,0.2
				c0,0-0.3,1-1.2,1.4c-0.9,0.4-2.4,0.3-2.5,0.3c-0.1,0-0.2,0-0.2,0.1c0,0.1-0.1,0.2,0,0.2l1.2,2.7c0,0.1,0.1,0.1,0.2,0.1
				c0,0,0,0,0,0c2.3-0.4,4.1-1.9,4.9-4.1c0-0.1,0-0.2,0-0.2C107.5,219.2,107.4,219.2,107.3,219.2L107.3,219.2z"/>
			<path class="st17" d="M101.6,211c-3.5,0-6.3,2.8-6.3,6.3c0,2.8,1.8,5.3,4.5,6.1c0,0,0,0,0.1,0c0.1,0,0.1,0,0.2-0.1
				c0.1-0.1,0.1-0.2,0-0.2c-2.5-6.3-2.9-7.8-3-8.1c0.3-0.2,1.5-0.4,1.8-0.4c0.1,0.1,0.3,0.6,0.4,1c0.6,1.5,1.5,3.8,2.8,3.9
				c0.9,0.1,1.7-0.3,2.2-0.9c0.3-0.4,0.4-0.8,0.3-1.2c-0.2-0.5-1.1-2.5-1.4-3.3l1.4-0.4c0.3,0.7,1.4,3.3,1.9,4
				c0.2,0.3,0.6,0.4,1.2,0.5c0.1,0,0.2-0.1,0.3-0.2c0-0.2,0-0.5,0-0.7C107.9,213.8,105.1,211,101.6,211L101.6,211z"/>
		</g>
	</g>
</g>
<g id="_x31_4-utorrent_3_">
	<g>
		<g>
			<path class="st17" d="M143.3,219.2c-0.4,0-0.7,0-1-0.1c-0.7-0.2-0.9-0.5-0.9-0.5c0-0.1-0.1-0.1-0.2-0.1c-0.1,0-0.2,0.1-0.2,0.2
				c0,0-0.3,1-1.2,1.4c-0.9,0.4-2.4,0.3-2.5,0.3c-0.1,0-0.2,0-0.2,0.1c0,0.1-0.1,0.2,0,0.2l1.2,2.7c0,0.1,0.1,0.1,0.2,0.1
				c0,0,0,0,0,0c2.3-0.4,4.1-1.9,4.9-4.1c0-0.1,0-0.2,0-0.2C143.5,219.2,143.4,219.2,143.3,219.2L143.3,219.2z"/>
			<path class="st17" d="M137.6,211c-3.5,0-6.3,2.8-6.3,6.3c0,2.8,1.8,5.3,4.5,6.1c0,0,0,0,0.1,0c0.1,0,0.1,0,0.2-0.1
				c0.1-0.1,0.1-0.2,0-0.2c-2.5-6.3-2.9-7.8-3-8.1c0.3-0.2,1.5-0.4,1.8-0.4c0.1,0.1,0.3,0.6,0.4,1c0.6,1.5,1.5,3.8,2.8,3.9
				c0.9,0.1,1.7-0.3,2.2-0.9c0.3-0.4,0.4-0.8,0.3-1.2c-0.2-0.5-1.1-2.5-1.4-3.3l1.4-0.4c0.3,0.7,1.4,3.3,1.9,4
				c0.2,0.3,0.6,0.4,1.2,0.5c0.1,0,0.2-0.1,0.3-0.2c0-0.2,0-0.5,0-0.7C143.9,213.8,141.1,211,137.6,211L137.6,211z"/>
		</g>
	</g>
</g>
</svg>
