<?xml version="1.0" encoding="utf-8"?>
<!-- Generator: Adobe Illustrator 23.1.0, SVG Export Plug-In . SVG Version: 6.00 Build 0)  -->
<svg version="1.1" id="Layer_1" xmlns="http://www.w3.org/2000/svg" xmlns:xlink="http://www.w3.org/1999/xlink" x="0px" y="0px"
	 viewBox="0 0 203 225.7" style="enable-background:new 0 0 203 225.7;" xml:space="preserve">
<style type="text/css">
	.st0{fill:none;stroke:#000000;stroke-width:0.7512;stroke-miterlimit:11.3386;}
	.st1{fill:none;stroke:#000000;stroke-width:0.5;}
	.st2{fill:#A0A0A0;stroke:#000000;stroke-width:0.5;}
	.st3{fill:#282828;}
	.st4{fill:#FFFFFF;}
	.st5{fill-opacity:0.302;}
	.st6{stroke:#000000;stroke-width:0.5;}
	.st7{fill:none;stroke:#94B0D9;stroke-width:3;stroke-dasharray:3,3;}
	.st8{fill:#94B0D9;}
	.st9{fill:none;stroke:#94B0DA;stroke-width:3;stroke-miterlimit:10;stroke-dasharray:3,3;}
	.st10{fill:#94B0DA;}
	.st11{fill:none;stroke:#000000;stroke-width:0.75;}
	.st12{fill:none;stroke:#000000;stroke-width:0.744;}
	.st13{fill:#DCDEDC;}
	.st14{fill:#343F3E;}
	.st15{fill:none;}
	.st16{clip-path:url(#SVGID_2_);}
	.st17{clip-path:url(#SVGID_4_);}
	.st18{clip-path:url(#SVGID_6_);}
	.st19{clip-path:url(#SVGID_8_);}
	.st20{font-family:'Roboto-Regular';}
	.st21{font-size:9px;}
	.st22{font-family:'Roboto-Bold';}
</style>
<symbol  id="cloud" viewBox="-43 -22.4 86.1 44.9">
	<g id="layer1_1_" transform="translate(-54.754156,-85.921738)">
		<path id="path10_1_" class="st0" d="M55.4,107.8c5.2,0.9,10.9-1.3,14-5.4c0.7-0.7,1-1.6,1.6-2.5c0.2-0.3,0.7-0.3,1.1-0.3
			c3.8-0.2,7.4-2,9.9-4.8c0.2-0.3,0.6-0.6,1-0.5c2.2,0,4.3-0.5,6.2-1.4c3.3-1.5,5.9-4.3,7.2-7.5c1.1-2.8,1.3-5.9,0.5-8.7
			c-0.8-3-2.8-5.8-5.4-7.6c-3.1-2.2-7.1-3.1-10.8-2.4c-0.4,0.1-0.9,0.1-1.3-0.1c-3.6-1.7-8-1.9-11.7-0.3c-0.9,0.3-1.7,0.9-2.6,1.3
			c-0.4,0.3-0.8-0.1-1.2-0.3c-2.7-2.3-6.4-3.5-10-3.4c-3.3,0.1-6.4,1.4-8.9,3.5c-0.3,0.4-0.9,0.2-1.3,0.1c-2.4-0.6-4.9-0.7-7.3-0.1
			c-0.4,0.1-0.7,0.2-1.1,0.3c-0.4-0.1-0.7-0.4-1-0.6c-2.5-1.6-5.5-2.4-8.4-2.3c-3.4,0.1-6.8,1.4-9.3,3.7c-2.7,2.4-4.3,5.8-4.5,9.3
			c-0.2,2.9,0.6,5.9,2.2,8.4c2,3,5.2,5.2,8.8,6c0.3,0.1,0.6,0.1,0.8,0.3c0.2,0.3,0.2,0.6,0.3,0.9c0.8,3.8,3.4,7.3,6.9,9.2
			c3.8,2.2,8.6,2.4,12.6,0.8c0.9-0.3,1.7-0.9,2.6-1.2c0.5,0,0.8,0.5,1.1,0.8C49.1,105.6,52.1,107.3,55.4,107.8L55.4,107.8z"/>
	</g>
</symbol>
<line class="st1" x1="33.4" y1="176.3" x2="19.8" y2="197"/>
<line class="st1" x1="46.2" y1="176.3" x2="59.8" y2="197"/>
<path id="path3" class="st2" d="M33.2,218c1.2,0,2.2-1,2.2-2.2v-17.3c0-1.2-1-2.2-2.2-2.2h-26c-1.2,0-2.2,1-2.2,2.2v17.4
	c0,1.2,1,2.2,2.2,2.2H2.9v2.2c0,1.2,1,2.2,2.2,2.2h30.2c1.2,0,2.2-1,2.2-2.2v-2.2L33.2,218L33.2,218z M7.2,198.6h25.9v17.3H7.2
	V198.6z M24.5,220.7h-8.6v-1.1h8.6V220.7z M28.8,221.3c-0.6,0-1.1-0.5-1.1-1.1s0.5-1.1,1.1-1.1s1.1,0.5,1.1,1.1
	S29.4,221.3,28.8,221.3z M33.2,221.3c-0.6,0-1.1-0.5-1.1-1.1s0.5-1.1,1.1-1.1s1.1,0.5,1.1,1.1S33.8,221.3,33.2,221.3z"/>
<g>
	<path id="rect2984" class="st3" d="M14.8,200h10.8c1,0,1.8,0.8,1.8,1.8v10.8c0,1-0.8,1.8-1.8,1.8H14.8c-1,0-1.8-0.8-1.8-1.8v-10.8
		C13,200.8,13.8,200,14.8,200z"/>
	<path id="path3366" class="st3" d="M23.2,201.6C23.1,201.6,23.1,201.6,23.2,201.6c-0.3,0.5-0.3,1.2-0.5,1.8l0,0l0,0
		c-0.1,0.7-0.3,1.3-0.1,1.9l0,0l0,0l0,0l0,0l0.1,0.1c0,0,0,0,0.1,0s0.1-0.1,0.1-0.3l0,0l0,0l0,0l0,0c0.3-1.1,0.5-2.2,0.4-3.3
		C23.3,201.7,23.3,201.7,23.2,201.6C23.3,201.7,23.2,201.6,23.2,201.6L23.2,201.6L23.2,201.6L23.2,201.6L23.2,201.6z"/>
	<path id="path3364" class="st3" d="M25.7,202.1c-0.5,0.2-0.7,0.8-1,1.2l0,0l0,0c-0.4,0.7-0.9,1.4-1,2.3l0,0c0,0.1,0.1,0.2,0.2,0.2
		c0.1,0,0.2,0,0.3-0.1l0,0l0,0l0,0c0.7-1,1.3-2.2,1.8-3.4l0,0c0-0.1,0-0.1,0-0.2C25.8,202.2,25.7,202.1,25.7,202.1
		C25.7,202.2,25.7,202.1,25.7,202.1L25.7,202.1z"/>
	<path id="path3302" class="st3" d="M18.4,202.5c-0.1,0-0.2,0.1-0.3,0.1c-0.3,0.1-0.4,0.4-0.5,0.6c-0.1,0.3,0,0.6,0,0.9
		c0,0.3,0.1,0.7,0.2,0.9c0.1,0.2,0.1,0.3,0.1,0.4v0.1l0,0l0,0c0,0,0,0-0.1,0s-0.1,0-0.1,0h-0.1c0,0,0,0-0.1,0l0,0v-0.1
		c0-0.1-0.1-0.2-0.1-0.3c-0.1-0.2-0.3-0.6-0.4-0.8c-0.2-0.3-0.3-0.6-0.5-0.7c-0.1-0.1-0.2-0.2-0.4-0.2c-0.1,0-0.3,0-0.4,0.1
		c-0.3,0.2-0.5,0.5-0.6,0.8s0,0.7,0,1c0.1,0.3,0.1,0.6,0.2,0.8c0,0.1,0,0.2,0.1,0.2v0.2c-0.1,0.2-0.2,0.5-0.2,0.5s-2.5,6.5,2.8,6.1
		c0,0,0.1,0,0.2,0c1-0.2,2-0.5,2.9-0.9c0.2-0.1,0.4-0.2,0.6-0.3c0.5-0.2,1.1-0.5,1.7-0.9c0.6-0.3,1.2-0.7,1.6-1.1
		c0.4-0.4,0.7-0.8,0.7-1.2c-0.1-0.7-0.5-1.2-1.1-1.5c-0.6-0.4-1.3-0.7-2.1-0.8c-0.7-0.2-1.5-0.4-2-0.4c-0.3,0-0.5-0.1-0.7-0.1h-0.1
		l0,0c0,0,0,0-0.1,0c0,0,0,0,0-0.1l0,0v-0.4c0-0.3,0-0.8-0.1-1.2s-0.2-0.8-0.4-1.1c-0.1-0.2-0.3-0.3-0.6-0.3
		C18.6,202.5,18.5,202.5,18.4,202.5L18.4,202.5z"/>
	<path id="path8-6" class="st4" d="M20.7,212.8c0.2-0.1,0.3-0.1,0.4-0.2c0.3-0.3,0.6-0.6,1.4-1.9c0.7-1,0.9-1.5,1.1-2
		c0.1-0.2,0.2-0.7,0.2-0.8v-0.1c0,0-0.1,0.1-0.2,0.2c0,0.1-0.2,0.4-0.3,0.7c-0.2,0.3-0.4,0.8-0.8,1.4c-0.8,1.2-0.8,1.1-0.8,1.1
		s0,0,0-0.1s0.2-0.3,0.3-0.6c0.1-0.1,0.2-0.3,0.2-0.4c0.1-0.1,0.1-0.2,0.2-0.3c0.1-0.1,0.1-0.1,0.1-0.2v-0.1c0,0-0.1,0-0.1,0.1
		c-0.1,0.1-0.1,0.1-0.1,0.1s0.1-0.1,0.3-0.3c0.4-0.5,0.5-0.6,0.6-0.9c0-0.1,0.1-0.4,0-0.4c0,0-0.2,0.2-0.4,0.6
		c-0.1,0.2-0.2,0.4-0.3,0.5c-0.3,0.4-0.9,0.7-1.6,0.7c-0.1,0-0.2,0-0.3,0.1c-0.2,0-0.2,0-0.5,0s-0.5,0-0.6-0.1c0,0-0.1,0-0.2,0
		c-0.2,0-0.3,0-0.6-0.1c-0.4-0.1-0.8-0.3-1-0.5s-0.3-0.3-0.5-0.7c-0.2-0.3-0.2-0.4-0.3-0.4c0,0,0.1,0.4,0.2,0.6
		c0.2,0.3,0.3,0.5,0.7,0.9c0.6,0.6,0.7,0.7,1.1,0.8c0.4,0.1,0.6,0.1,1.1,0.1c0.3,0,0.3,0,0.4,0h0.1h0.1c0,0,0,0.1-0.1,0.1
		c-0.1,0.2-0.2,0.3-0.2,0.4s0,0.1,0.1,0.3c0.1,0.2,0.1,0.2,0.1,0.4c0,0.2,0,0.2-0.1,0.5c-0.1,0.4-0.1,0.6,0,0.6
		C20.6,212.9,20.6,212.9,20.7,212.8L20.7,212.8z M19.8,212.7c0-0.1,0-0.2-0.1-0.4c-0.1-0.4-0.1-0.6-0.1-0.8c0,0,0.1-0.1,0.1-0.2
		c0.1-0.2,0.1-0.2,0.1-0.3c0-0.1,0-0.2-0.1-0.3c-0.1-0.1-0.1-0.1-0.3-0.2c-0.1,0-0.2-0.1-0.3-0.1s-0.2-0.1-0.3-0.1s-0.2,0-0.2,0.1
		s0,0.2,0,0.4c0,0.1,0,0.2,0,0.3c0.1,0.2,0.1,0.2,0,0.3c0,0.1-0.1-0.1-0.2-0.3c-0.1-0.2-0.3-0.7-0.5-1c-0.1-0.2-0.4-0.7-0.8-1.2
		c-0.2-0.3-0.3-0.5-0.4-0.8c-0.1-0.3-0.3-0.5-0.3-0.5c-0.1,0-0.1,0.1,0,0.3c0.3,0.8,0.6,1.6,1.4,2.9c0.3,0.5,0.4,0.7,0.5,0.8
		c0.1,0.1,0.2,0.3,0.3,0.5c0.2,0.3,0.3,0.4,0.4,0.5c0.1,0.1,0.2,0.2,0.2,0.2c0.1,0.1,0.3,0.1,0.3,0.1l0,0L19.8,212.7L19.8,212.7z
		 M20.3,211.8c0-0.1,0-0.1-0.1-0.1C20.2,211.7,20.2,211.8,20.3,211.8C20.2,211.9,20.2,211.9,20.3,211.8
		C20.3,211.9,20.3,211.9,20.3,211.8L20.3,211.8z M20.6,209.9C20.6,209.9,20.6,209.8,20.6,209.9c-0.1-0.1-0.4-0.4-0.4-0.5
		c-0.1,0-0.1,0-0.1,0s0,0-0.2,0.3c-0.1,0.1-0.2,0.2-0.1,0.2C19.8,209.9,20.2,209.9,20.6,209.9C20.6,209.9,20.6,209.9,20.6,209.9
		L20.6,209.9z M21.6,209.3c0.5-0.1,0.7-0.3,1-0.6c0.1-0.2,0.2-0.4,0.2-0.4s0,0-0.3-0.1c-0.3,0-0.5-0.1-0.5-0.2c0,0,0,0,0.1,0
		s0.2,0,0.3,0c0.3,0,0.4,0,0.6,0c0.3,0,0.4-0.1,0.5-0.2s0.4-0.3,0.5-0.4s0.1-0.2,0.1-0.3s0-0.2,0-0.6v-0.4H24c-0.1,0-0.2,0-0.3,0
		c-0.2,0-0.3,0-0.4,0c-0.1,0-0.2,0-0.8,0c-0.4,0-0.8,0-0.9,0c-0.2,0-0.3,0-0.4-0.1c-0.1,0-0.1-0.1-0.1-0.1s0.1-0.2,0.2-0.2
		c0.2-0.1,0.5-0.3,0.5-0.3c0.2-0.1,0.6-0.1,0.9,0c0.3,0.1,0.5,0.2,0.6,0.4c0.1,0.1,0.1,0.1,0.2,0.1c0.1,0,0.1,0,0.2,0.1
		c0.1,0,0.3,0.1,0.3,0.1s0,0,0-0.2s0-0.8,0-1.3c0-0.9-0.2-1.6-0.4-2s-0.7-0.7-1.6-0.9c-0.7-0.1-1.4-0.2-2-0.2
		c-1.5,0.1-2.5,0.3-3,0.7c-0.2,0.2-0.4,0.5-0.5,1.1c-0.2,0.8-0.2,1.4-0.2,2.5v0.8l0.1,0.2c0.1,0.4,0.4,0.8,0.6,0.9
		c0.1,0.1,0.3,0.2,0.4,0.2c0.1,0,0.5,0,0.8,0c0.1,0,0.3,0,0.4,0c0.2,0,0.2,0,0.2,0s-0.1,0.1-0.2,0.1c-0.3,0.1-0.4,0.1-0.6,0.1
		c-0.2,0-0.2,0-0.2,0.1c0.1,0.2,0.3,0.4,0.5,0.5s0.7,0.3,0.9,0.4c0.1,0,0.2,0,0.4-0.1c0.1-0.1,0.1-0.1,0.1-0.2c0,0,0-0.1-0.1-0.1
		l-0.1-0.1c0,0,0-0.1,0-0.2c0-0.3,0-0.4,0-0.4l0,0c0,0,0,0.1-0.1,0.1c-0.1,0.1-0.1,0.2-0.1,0.3c0,0.1,0,0.1,0,0.1h-0.1
		c-0.1-0.1-0.2-0.2-0.2-0.4c0-0.2,0.1-0.3,0.3-0.4c0.1-0.1,0.2-0.2,0.3-0.3c0-0.1,0.1-0.5,0.1-0.8c0-0.1,0-0.4,0-0.6v-0.4l-0.1-0.2
		c-0.1-0.2-0.1-0.3-0.2-0.3c-0.1,0-0.2-0.2-0.3-0.3c-0.3-0.3-0.5-0.4-0.7-0.4s-0.3-0.1-0.3-0.2c0-0.1,0.1-0.1,0.3-0.1
		c0.4,0,0.6,0.1,1.1,0.6c0.4,0.3,0.5,0.4,0.6,0.7c0,0.1,0.1,0.2,0.1,0.3c0.1,0.3,0.1,0.4,0.1,1.3c0,0.5,0,0.8,0,0.9
		s-0.1,0.8-0.1,0.9c0,0.2,0,0.2,0,0.2c0.1,0.1,0.4,0.2,0.6,0.1c0.1,0,0.2,0,0.3-0.1l0.1-0.1c0,0,0,0,0.3,0.2
		C21.1,209.3,21.3,209.3,21.6,209.3L21.6,209.3z M21.4,208.3c0-0.1-0.1-0.3-0.2-0.3c0,0-0.1,0-0.1-0.1H21c-0.1,0,0-0.2,0.1-0.2
		s0.2,0.1,0.3,0.2C21.5,208.1,21.5,208.3,21.4,208.3C21.4,208.4,21.4,208.4,21.4,208.3C21.4,208.4,21.4,208.4,21.4,208.3z
		 M16.7,206.4v-0.1c0-0.1,0-0.1,0-0.2V206c0,0,0,0,0.2-0.1c0,0,0.1,0,0.1-0.1c0.1-0.1,0.2-0.2,0.3-0.3c0.2-0.1,0.6-0.2,0.9-0.2
		c0.2,0,0.3,0.1,0.5,0.2c0.4,0.2,0.5,0.3,0.5,0.4c0,0.1-0.1,0.2-0.2,0.2c-0.1,0-0.4,0.1-1,0.1c-0.3,0-0.7,0-0.7,0
		C17.1,206.3,16.8,206.4,16.7,206.4C16.7,206.5,16.7,206.5,16.7,206.4L16.7,206.4z M20.8,205.5v-0.2c0.1-0.2,0.3-0.4,0.7-0.7
		s0.7-0.5,1-0.5c0.1,0,0.2,0,0.2,0.1s-0.1,0.1-0.4,0.2c-0.2,0.1-0.2,0.1-0.4,0.2C21.6,204.9,21,205.4,20.8,205.5
		C20.9,205.6,20.8,205.6,20.8,205.5L20.8,205.5z M19.4,204.8c0,0-0.2-0.1-0.3-0.2c-0.2-0.2-0.3-0.3-0.6-0.4
		c-0.3-0.2-0.5-0.2-0.9-0.2c-0.3,0-0.5,0.1-0.7,0.3c-0.1,0.1-0.2,0.1-0.2,0.1s0-0.2,0.2-0.3c0.2-0.2,0.4-0.4,0.7-0.4
		c0.2,0,0.4-0.1,0.6,0c0.5,0,0.9,0.2,1.2,0.5c0.2,0.2,0.3,0.3,0.2,0.5C19.7,204.9,19.5,204.9,19.4,204.8L19.4,204.8z M20.9,204.9
		c-0.1-0.1-0.1-0.3-0.1-0.4c0-0.1,0.3-0.3,0.4-0.4c0.5-0.3,1.1-0.5,1.5-0.3c0.3,0.1,0.6,0.3,0.7,0.5c0.1,0.1,0.2,0.2,0.1,0.3
		c0,0-0.1-0.1-0.2-0.1c-0.3-0.3-0.5-0.3-0.9-0.3s-0.8,0.2-1.3,0.6C21,204.9,21,204.9,20.9,204.9z"/>
	<path id="rect2984-1" class="st5" d="M13.5,213.9c0.3,0.3,0.8,0.5,1.3,0.5h10.8c1,0,1.8-0.8,1.8-1.8v-10.8c0-0.5-0.2-1-0.5-1.3
		L13.5,213.9z"/>
</g>
<path id="path3_1_" class="st2" d="M72.5,218c1.2,0,2.2-1,2.2-2.2v-17.3c0-1.2-1-2.2-2.2-2.2h-26c-1.2,0-2.2,1-2.2,2.2v17.4
	c0,1.2,1,2.2,2.2,2.2h-4.3v2.2c0,1.2,1,2.2,2.2,2.2h30.2c1.2,0,2.2-1,2.2-2.2v-2.2L72.5,218L72.5,218z M46.5,198.6h25.9v17.3H46.5
	V198.6z M63.8,220.7h-8.6v-1.1h8.6V220.7z M68.1,221.3c-0.6,0-1.1-0.5-1.1-1.1s0.5-1.1,1.1-1.1s1.1,0.5,1.1,1.1
	S68.7,221.3,68.1,221.3z M72.5,221.3c-0.6,0-1.1-0.5-1.1-1.1s0.5-1.1,1.1-1.1s1.1,0.5,1.1,1.1S73.1,221.3,72.5,221.3z"/>
<g>
	<path id="rect2984_1_" class="st3" d="M54.1,200h10.8c1,0,1.8,0.8,1.8,1.8v10.8c0,1-0.8,1.8-1.8,1.8H54.1c-1,0-1.8-0.8-1.8-1.8
		v-10.8C52.3,200.8,53.1,200,54.1,200z"/>
	<path id="path3366_1_" class="st3" d="M62.4,201.6L62.4,201.6c-0.3,0.5-0.3,1.2-0.5,1.8l0,0l0,0c-0.1,0.7-0.3,1.3-0.1,1.9l0,0l0,0
		l0,0l0,0l0.1,0.1c0,0,0,0,0.1,0s0.1-0.1,0.1-0.3l0,0l0,0l0,0l0,0c0.3-1.1,0.5-2.2,0.4-3.3C62.5,201.7,62.5,201.7,62.4,201.6
		C62.5,201.7,62.5,201.6,62.4,201.6C62.5,201.6,62.5,201.6,62.4,201.6C62.5,201.6,62.5,201.6,62.4,201.6
		C62.5,201.6,62.5,201.6,62.4,201.6L62.4,201.6z"/>
	<path id="path3364_1_" class="st3" d="M64.9,202.1c-0.5,0.2-0.7,0.8-1,1.2l0,0l0,0c-0.4,0.7-0.9,1.4-1,2.3l0,0
		c0,0.1,0.1,0.2,0.2,0.2s0.2,0,0.3-0.1l0,0l0,0l0,0c0.7-1,1.3-2.2,1.8-3.4l0,0c0-0.1,0-0.1,0-0.2C65.1,202.2,65,202.1,64.9,202.1
		C65,202.2,64.9,202.1,64.9,202.1L64.9,202.1z"/>
	<path id="path3302_1_" class="st3" d="M57.7,202.5c-0.1,0-0.2,0.1-0.3,0.1c-0.3,0.1-0.4,0.4-0.5,0.6c-0.1,0.3,0,0.6,0,0.9
		c0,0.3,0.1,0.7,0.2,0.9s0.1,0.3,0.1,0.4v0.1l0,0l0,0c0,0,0,0-0.1,0s-0.1,0-0.1,0h-0.1c0,0,0,0-0.1,0l0,0v-0.1
		c0-0.1-0.1-0.2-0.1-0.3c-0.1-0.2-0.3-0.6-0.4-0.8c-0.2-0.3-0.3-0.6-0.5-0.7c-0.1-0.1-0.2-0.2-0.4-0.2c-0.1,0-0.3,0-0.4,0.1
		c-0.3,0.2-0.5,0.5-0.6,0.8s0,0.7,0,1c0.1,0.3,0.1,0.6,0.2,0.8c0,0.1,0,0.2,0.1,0.2v0.2c-0.1,0.2-0.2,0.5-0.2,0.5s-2.5,6.5,2.8,6.1
		c0,0,0.1,0,0.2,0c1-0.2,2-0.5,2.9-0.9c0.2-0.1,0.4-0.2,0.6-0.3c0.5-0.2,1.1-0.5,1.7-0.9c0.6-0.3,1.2-0.7,1.6-1.1s0.7-0.8,0.7-1.2
		c-0.1-0.7-0.5-1.2-1.1-1.5c-0.6-0.4-1.3-0.7-2.1-0.8c-0.7-0.2-1.5-0.4-2-0.4c-0.3,0-0.5-0.1-0.7-0.1H59l0,0c0,0,0,0-0.1,0
		c0,0,0,0,0-0.1l0,0v-0.4c0-0.3,0-0.8-0.1-1.2s-0.2-0.8-0.4-1.1c-0.1-0.2-0.3-0.3-0.6-0.3C57.8,202.5,57.7,202.5,57.7,202.5
		L57.7,202.5z"/>
	<path id="path8-6_1_" class="st4" d="M60,212.8c0.2-0.1,0.3-0.1,0.4-0.2c0.3-0.3,0.6-0.6,1.4-1.9c0.7-1,0.9-1.5,1.1-2
		c0.1-0.2,0.2-0.7,0.2-0.8v-0.1c0,0-0.1,0.1-0.2,0.2c0,0.1-0.2,0.4-0.3,0.7c-0.2,0.3-0.4,0.8-0.8,1.4c-0.8,1.2-0.8,1.1-0.8,1.1
		s0,0,0-0.1s0.2-0.3,0.3-0.6c0.1-0.1,0.2-0.3,0.2-0.4c0.1-0.1,0.1-0.2,0.2-0.3c0.1-0.1,0.1-0.1,0.1-0.2v-0.1c0,0-0.1,0-0.1,0.1
		c-0.1,0.1-0.1,0.1-0.1,0.1s0.1-0.1,0.3-0.3c0.4-0.5,0.5-0.6,0.6-0.9c0-0.1,0.1-0.4,0-0.4c0,0-0.2,0.2-0.4,0.6
		c-0.1,0.2-0.2,0.4-0.3,0.5c-0.3,0.4-0.9,0.7-1.6,0.7c-0.1,0-0.2,0-0.3,0.1c-0.2,0-0.2,0-0.5,0s-0.5,0-0.6-0.1c0,0-0.1,0-0.2,0
		c-0.2,0-0.3,0-0.6-0.1c-0.4-0.1-0.8-0.3-1-0.5s-0.3-0.3-0.5-0.7c-0.2-0.3-0.2-0.4-0.3-0.4c0,0,0.1,0.4,0.2,0.6
		c0.2,0.3,0.3,0.5,0.7,0.9c0.6,0.6,0.7,0.7,1.1,0.8c0.4,0.1,0.6,0.1,1.1,0.1c0.3,0,0.3,0,0.4,0h0.1h0.1c0,0,0,0.1-0.1,0.1
		c-0.1,0.2-0.2,0.3-0.2,0.4s0,0.1,0.1,0.3c0.1,0.2,0.1,0.2,0.1,0.4c0,0.2,0,0.2-0.1,0.5c-0.1,0.4-0.1,0.6,0,0.6
		C59.8,212.9,59.9,212.9,60,212.8L60,212.8z M59.1,212.7c0-0.1,0-0.2-0.1-0.4c-0.1-0.4-0.1-0.6-0.1-0.8c0,0,0.1-0.1,0.1-0.2
		c0.1-0.2,0.1-0.2,0.1-0.3c0-0.1,0-0.2-0.1-0.3c-0.1-0.1-0.1-0.1-0.3-0.2c-0.1,0-0.2-0.1-0.3-0.1c-0.1,0-0.2-0.1-0.3-0.1
		c-0.1,0-0.2,0-0.2,0.1s0,0.2,0,0.4c0,0.1,0,0.2,0,0.3c0.1,0.2,0.1,0.2,0,0.3c0,0.1-0.1-0.1-0.2-0.3c-0.1-0.2-0.3-0.7-0.5-1
		c-0.1-0.2-0.4-0.7-0.8-1.2c-0.2-0.3-0.3-0.5-0.4-0.8s-0.3-0.5-0.3-0.5c-0.1,0-0.1,0.1,0,0.3c0.3,0.8,0.6,1.6,1.4,2.9
		c0.3,0.5,0.4,0.7,0.5,0.8c0.1,0.1,0.2,0.3,0.3,0.5c0.2,0.3,0.3,0.4,0.4,0.5s0.2,0.2,0.2,0.2c0.1,0.1,0.3,0.1,0.3,0.1l0,0
		L59.1,212.7L59.1,212.7z M59.5,211.8c0-0.1,0-0.1-0.1-0.1C59.5,211.7,59.5,211.8,59.5,211.8C59.5,211.9,59.5,211.9,59.5,211.8
		C59.5,211.9,59.5,211.9,59.5,211.8L59.5,211.8z M59.9,209.9C59.9,209.9,59.9,209.8,59.9,209.9c-0.1-0.1-0.4-0.4-0.4-0.5
		c-0.1,0-0.1,0-0.1,0s0,0-0.2,0.3c-0.1,0.1-0.2,0.2-0.1,0.2C59.1,209.9,59.5,209.9,59.9,209.9C59.9,209.9,59.9,209.9,59.9,209.9
		L59.9,209.9z M60.8,209.3c0.5-0.1,0.7-0.3,1-0.6c0.1-0.2,0.2-0.4,0.2-0.4s0,0-0.3-0.1c-0.3,0-0.5-0.1-0.5-0.2c0,0,0,0,0.1,0
		s0.2,0,0.3,0c0.3,0,0.4,0,0.6,0c0.3,0,0.4-0.1,0.5-0.2s0.4-0.3,0.5-0.4s0.1-0.2,0.1-0.3s0-0.2,0-0.6v-0.4h-0.1c-0.1,0-0.2,0-0.3,0
		c-0.2,0-0.3,0-0.4,0s-0.2,0-0.8,0c-0.4,0-0.8,0-0.9,0c-0.2,0-0.3,0-0.4-0.1c-0.1,0-0.1-0.1-0.1-0.1s0.1-0.2,0.2-0.2
		c0.2-0.1,0.5-0.3,0.5-0.3c0.2-0.1,0.6-0.1,0.9,0s0.5,0.2,0.6,0.4c0.1,0.1,0.1,0.1,0.2,0.1s0.1,0,0.2,0.1c0.1,0,0.3,0.1,0.3,0.1
		s0,0,0-0.2s0-0.8,0-1.3c0-0.9-0.2-1.6-0.4-2c-0.2-0.4-0.7-0.7-1.6-0.9c-0.7-0.1-1.4-0.2-2-0.2c-1.5,0.1-2.5,0.3-3,0.7
		c-0.2,0.2-0.4,0.5-0.5,1.1c-0.2,0.8-0.2,1.4-0.2,2.5v0.8l0.1,0.2c0.1,0.4,0.4,0.8,0.6,0.9c0.1,0.1,0.3,0.2,0.4,0.2s0.5,0,0.8,0
		c0.1,0,0.3,0,0.4,0c0.2,0,0.2,0,0.2,0s-0.1,0.1-0.2,0.1c-0.3,0.1-0.4,0.1-0.6,0.1s-0.2,0-0.2,0.1c0.1,0.2,0.3,0.4,0.5,0.5
		s0.7,0.3,0.9,0.4c0.1,0,0.2,0,0.4-0.1c0.1-0.1,0.1-0.1,0.1-0.2c0,0,0-0.1-0.1-0.1l-0.1-0.1c0,0,0-0.1,0-0.2c0-0.3,0-0.4,0-0.4l0,0
		c0,0,0,0.1-0.1,0.1c-0.1,0.1-0.1,0.2-0.1,0.3c0,0.1,0,0.1,0,0.1h-0.1c-0.1-0.1-0.2-0.2-0.2-0.4c0-0.2,0.1-0.3,0.3-0.4
		c0.1-0.1,0.2-0.2,0.3-0.3c0-0.1,0.1-0.5,0.1-0.8c0-0.1,0-0.4,0-0.6v-0.4l-0.1-0.2c-0.1-0.2-0.1-0.3-0.2-0.3s-0.2-0.2-0.3-0.3
		c-0.3-0.3-0.5-0.4-0.7-0.4s-0.3-0.1-0.3-0.2c0-0.1,0.1-0.1,0.3-0.1c0.4,0,0.6,0.1,1.1,0.6c0.4,0.3,0.5,0.4,0.6,0.7
		c0,0.1,0.1,0.2,0.1,0.3c0.1,0.3,0.1,0.4,0.1,1.3c0,0.5,0,0.8,0,0.9s-0.1,0.8-0.1,0.9c0,0.2,0,0.2,0,0.2c0.1,0.1,0.4,0.2,0.6,0.1
		c0.1,0,0.2,0,0.3-0.1l0.1-0.1c0,0,0,0,0.3,0.2C60.4,209.3,60.5,209.3,60.8,209.3L60.8,209.3z M60.6,208.3c0-0.1-0.1-0.3-0.2-0.3
		c0,0-0.1,0-0.1-0.1h-0.1c-0.1,0,0-0.2,0.1-0.2s0.2,0.1,0.3,0.2C60.7,208.1,60.8,208.3,60.6,208.3C60.7,208.4,60.7,208.4,60.6,208.3
		C60.7,208.4,60.7,208.4,60.6,208.3z M56,206.4v-0.1c0-0.1,0-0.1,0-0.2V206c0,0,0,0,0.2-0.1c0,0,0.1,0,0.1-0.1
		c0.1-0.1,0.2-0.2,0.3-0.3c0.2-0.1,0.6-0.2,0.9-0.2c0.2,0,0.3,0.1,0.5,0.2c0.4,0.2,0.5,0.3,0.5,0.4c0,0.1-0.1,0.2-0.2,0.2
		s-0.4,0.1-1,0.1c-0.3,0-0.7,0-0.7,0C56.3,206.3,56.1,206.4,56,206.4C56,206.5,56,206.5,56,206.4L56,206.4z M60.1,205.5v-0.2
		c0.1-0.2,0.3-0.4,0.7-0.7c0.4-0.3,0.7-0.5,1-0.5c0.1,0,0.2,0,0.2,0.1s-0.1,0.1-0.4,0.2c-0.2,0.1-0.2,0.1-0.4,0.2
		C60.9,204.9,60.3,205.4,60.1,205.5C60.2,205.6,60.1,205.6,60.1,205.5L60.1,205.5z M58.7,204.8c0,0-0.2-0.1-0.3-0.2
		c-0.2-0.2-0.3-0.3-0.6-0.4c-0.3-0.2-0.5-0.2-0.9-0.2c-0.3,0-0.5,0.1-0.7,0.3c-0.1,0.1-0.2,0.1-0.2,0.1s0-0.2,0.2-0.3
		c0.2-0.2,0.4-0.4,0.7-0.4c0.2,0,0.4-0.1,0.6,0c0.5,0,0.9,0.2,1.2,0.5c0.2,0.2,0.3,0.3,0.2,0.5C58.9,204.9,58.8,204.9,58.7,204.8
		L58.7,204.8z M60.1,204.9c-0.1-0.1-0.1-0.3-0.1-0.4c0-0.1,0.3-0.3,0.4-0.4c0.5-0.3,1.1-0.5,1.5-0.3c0.3,0.1,0.6,0.3,0.7,0.5
		c0.1,0.1,0.2,0.2,0.1,0.3c0,0-0.1-0.1-0.2-0.1c-0.3-0.3-0.5-0.3-0.9-0.3s-0.8,0.2-1.3,0.6C60.3,204.9,60.2,204.9,60.1,204.9z"/>
	<path id="rect2984-1_1_" class="st5" d="M52.8,213.9c0.3,0.3,0.8,0.5,1.3,0.5h10.8c1,0,1.8-0.8,1.8-1.8v-10.8c0-0.5-0.2-1-0.5-1.3
		L52.8,213.9z"/>
</g>
<g>
	<circle class="st6" cx="36.4" cy="190.2" r="0.5"/>
	<circle class="st6" cx="39.9" cy="190.2" r="0.5"/>
	<circle class="st6" cx="43.4" cy="190.2" r="0.5"/>
</g>
<g>
	<g>
		<path class="st7" d="M24.7,177.9c-2.3,3.5-4.7,7.1-7,10.6"/>
		<g>
			<polygon class="st8" points="14.7,185 14.1,193.9 22.1,189.9 			"/>
		</g>
	</g>
</g>
<g>
	<g>
		<path class="st7" d="M54.6,177.9c2.3,3.5,4.7,7.1,7,10.6"/>
		<g>
			<polygon class="st8" points="57.1,189.9 65.1,193.9 64.6,185 			"/>
		</g>
	</g>
</g>
<g>
	<g>
		<path class="st9" d="M99.4,47.1c-0.4,4.8,0.1,12-3.2,20c-5.6,13.7-9.3,13.4-11.8,23.3c0,0-7,18.4,3.7,38.1c4.9,9,14,7.8,19.6,18.1
			c4.7,8.4,4.1,17,3.5,25c-0.7,9.9-1.4,20.2-9,25.2c-6,3.9-13.4,2.6-14.4,2.4c-3.3-0.6-6.5-2-9.6-4.4c-4.6-3.6-6.4-8.5-7.7-11.9
			c-7.1-18.7-3.3-35-9.7-39c-2.7-1.6-6.2-0.2-6.6,0c-1.1,0.4-1.9,0.9-2.5,1.3"/>
		<g>
			<polygon class="st10" points="49.9,140.9 47.1,149.4 55.8,147.6 			"/>
		</g>
	</g>
</g>
<g>
	<line class="st11" x1="150.2" y1="105.9" x2="126.3" y2="81.9"/>
	<line class="st11" x1="75.5" y1="105.9" x2="99.4" y2="81.9"/>
</g>
<line class="st11" x1="113" y1="60.7" x2="113" y2="49.4"/>
<line class="st12" x1="91.3" y1="150.6" x2="77.6" y2="126.9"/>
<line class="st11" x1="40.5" y1="150.6" x2="54.2" y2="126.9"/>
<g>
	<path class="st13" d="M128.2,76.1c0,8.5-6.9,15.3-15.3,15.3c-8.4,0-15.4-6.9-15.4-15.3c0-8.5,6.9-15.3,15.3-15.3
		C121.2,60.8,128.2,67.6,128.2,76.1z"/>
	<g>
		<path class="st14" d="M116.9,70.5c0-0.1-0.1-0.1-0.2-0.1h-2.1v-4.8c0-0.1-0.1-0.2-0.2-0.2h-3.1c-0.1,0-0.2,0.1-0.2,0.2v4.8H109
			c-0.1,0-0.2,0-0.2,0.1s0,0.2,0,0.2l3.8,3.9l0.1,0.1c0,0,0.1,0,0.1-0.1l3.8-3.9C116.9,70.6,116.9,70.5,116.9,70.5z"/>
		<path class="st14" d="M116.9,81.7c0,0.1-0.1,0.1-0.2,0.1h-2.1v4.8c0,0.1-0.1,0.2-0.2,0.2h-3.1c-0.1,0-0.2-0.1-0.2-0.2v-4.8H109
			c-0.1,0-0.2,0-0.2-0.1s0-0.2,0-0.2l3.8-3.9l0.1-0.1c0,0,0.1,0,0.1,0.1l3.8,3.9C116.9,81.5,116.9,81.6,116.9,81.7z"/>
		<path class="st14" d="M119.3,80.1c-0.1,0-0.1-0.1-0.1-0.2v-2.1h-4.8c-0.1,0-0.2-0.1-0.2-0.2v-3.1c0-0.1,0.1-0.2,0.2-0.2h4.8v-2.1
			c0-0.1,0.1-0.2,0.1-0.2h0.2l3.8,3.8l0.1,0.1c0,0.1,0,0.1-0.1,0.1l-3.9,3.8C119.5,80.2,119.4,80.2,119.3,80.1z"/>
		<path class="st14" d="M106.3,80.1c0.1,0,0.1-0.1,0.1-0.2v-2.1h4.8c0.1,0,0.2-0.1,0.2-0.2v-3.1c0-0.1-0.1-0.2-0.2-0.2h-4.8v-2.1
			c0-0.1-0.1-0.2-0.1-0.2h-0.2l-3.8,3.8l-0.1,0.1c0,0.1,0,0.1,0.1,0.1l3.8,3.8C106.2,80.2,106.3,80.2,106.3,80.1z"/>
	</g>
</g>
<line class="st11" x1="184.9" y1="151.1" x2="170.2" y2="125.7"/>
<line class="st11" x1="134" y1="151.1" x2="148.5" y2="126"/>
<line class="st12" x1="92.1" y1="192.1" x2="92.1" y2="176.3"/>
<polygon class="st8" points="80.9,210.7 80.9,197.8 92,191.3 103.2,197.8 103.2,210.7 92,217.2 "/>
<g>
	<rect x="173.4" y="150.5" class="st13" width="25.8" height="25.8"/>
	<g>
		<path class="st14" d="M191.1,161.5c-0.1,0-0.1-0.1-0.1-0.2v-2.1h-4.8c-0.1,0-0.2-0.1-0.2-0.2v-3.1c0-0.1,0.1-0.2,0.2-0.2h4.8v-2.1
			c0-0.1,0.1-0.1,0.1-0.2c0.1,0,0.2,0,0.2,0l3.9,3.8l0.1,0.1c0,0.1,0,0.1-0.1,0.1l-3.9,3.8C191.3,161.5,191.2,161.5,191.1,161.5z"/>
		<path class="st14" d="M191.1,169.6c-0.1,0-0.1-0.1-0.1-0.2v-2.1h-4.8c-0.1,0-0.2-0.1-0.2-0.2V164c0-0.1,0.1-0.2,0.2-0.2h4.8v-2.1
			c0-0.1,0.1-0.2,0.1-0.2c0.1,0,0.2,0,0.2,0l3.9,3.8l0.1,0.1c0,0.1,0,0.1-0.1,0.1l-3.9,3.9C191.3,169.6,191.2,169.6,191.1,169.6z"/>
		<path class="st14" d="M181.5,165.5c0.1,0,0.1-0.1,0.1-0.2v-2.1h4.8c0.1,0,0.2-0.1,0.2-0.2v-3.1c0-0.1-0.1-0.2-0.2-0.2h-4.8v-2.1
			c0-0.1-0.1-0.1-0.1-0.2c-0.1,0-0.1,0-0.2,0l-3.9,3.8l-0.1,0.1c0,0.1,0,0.1,0.1,0.1l3.9,3.9C181.4,165.5,181.5,165.5,181.5,165.5z"
			/>
		<path class="st14" d="M181.5,173.3c0.1,0,0.1-0.1,0.1-0.2V171h4.8c0.1,0,0.2-0.1,0.2-0.2v-3.1c0-0.1-0.1-0.2-0.2-0.2h-4.8v-2.1
			c0-0.1-0.1-0.2-0.1-0.2c-0.1,0-0.1,0-0.2,0l-3.9,3.8l-0.1,0.1c0,0,0,0.1,0.1,0.1l3.9,3.8C181.4,173.3,181.5,173.3,181.5,173.3z"/>
	</g>
</g>
<g>
	<rect x="121.2" y="150.5" class="st13" width="25.8" height="25.8"/>
	<g>
		<path class="st14" d="M138.9,161.5c-0.1,0-0.1-0.1-0.1-0.2v-2.1H134c-0.1,0-0.2-0.1-0.2-0.2v-3.1c0-0.1,0.1-0.2,0.2-0.2h4.8v-2.1
			c0-0.1,0.1-0.1,0.1-0.2s0.2,0,0.2,0l3.9,3.8l0.1,0.1c0,0.1,0,0.1-0.1,0.1l-3.8,3.8C139.1,161.5,139,161.5,138.9,161.5z"/>
		<path class="st14" d="M138.9,169.6c-0.1,0-0.1-0.1-0.1-0.2v-2.1H134c-0.1,0-0.2-0.1-0.2-0.2V164c0-0.1,0.1-0.2,0.2-0.2h4.8v-2.1
			c0-0.1,0.1-0.2,0.1-0.2h0.2l3.9,3.8l0.1,0.1c0,0.1,0,0.1-0.1,0.1l-3.8,3.9C139.1,169.6,139,169.6,138.9,169.6z"/>
		<path class="st14" d="M129.4,165.5c0.1,0,0.1-0.1,0.1-0.2v-2.1h4.8c0.1,0,0.2-0.1,0.2-0.2v-3.1c0-0.1-0.1-0.2-0.2-0.2h-4.8v-2.1
			c0-0.1-0.1-0.1-0.1-0.2s-0.2,0-0.2,0l-3.8,3.8l-0.1,0.1c0,0.1,0,0.1,0.1,0.1l3.8,3.9C129.2,165.5,129.3,165.5,129.4,165.5z"/>
		<path class="st14" d="M129.4,173.3c0.1,0,0.1-0.1,0.1-0.2V171h4.8c0.1,0,0.2-0.1,0.2-0.2v-3.1c0-0.1-0.1-0.2-0.2-0.2h-4.8v-2.1
			c0-0.1-0.1-0.2-0.1-0.2h-0.2l-3.8,3.8l-0.1,0.1c0,0,0,0.1,0.1,0.1l3.8,3.8C129.2,173.3,129.3,173.3,129.4,173.3z"/>
	</g>
</g>
<g>
	<rect x="79.2" y="150.5" class="st13" width="25.8" height="25.8"/>
	<g>
		<path class="st14" d="M96.9,161.5c-0.1,0-0.1-0.1-0.1-0.2v-2.1H92c-0.1,0-0.2-0.1-0.2-0.2v-3.1c0-0.1,0.1-0.2,0.2-0.2h4.8v-2.1
			c0-0.1,0.1-0.1,0.1-0.2s0.2,0,0.2,0l3.9,3.8l0.1,0.1c0,0.1,0,0.1-0.1,0.1l-3.8,3.8C97.1,161.5,97,161.5,96.9,161.5z"/>
		<path class="st14" d="M96.9,169.6c-0.1,0-0.1-0.1-0.1-0.2v-2.1H92c-0.1,0-0.2-0.1-0.2-0.2V164c0-0.1,0.1-0.2,0.2-0.2h4.8v-2.1
			c0-0.1,0.1-0.2,0.1-0.2h0.2l3.9,3.8l0.1,0.1c0,0.1,0,0.1-0.1,0.1l-3.8,3.9C97.1,169.6,97,169.6,96.9,169.6z"/>
		<path class="st14" d="M87.4,165.5c0.1,0,0.1-0.1,0.1-0.2v-2.1h4.8c0.1,0,0.2-0.1,0.2-0.2v-3.1c0-0.1-0.1-0.2-0.2-0.2h-4.8v-2.1
			c0-0.1-0.1-0.1-0.1-0.2s-0.2,0-0.2,0l-3.8,3.8l-0.1,0.1c0,0.1,0,0.1,0.1,0.1l3.8,3.9C87.2,165.5,87.3,165.5,87.4,165.5z"/>
		<path class="st14" d="M87.4,173.3c0.1,0,0.1-0.1,0.1-0.2V171h4.8c0.1,0,0.2-0.1,0.2-0.2v-3.1c0-0.1-0.1-0.2-0.2-0.2h-4.8v-2.1
			c0-0.1-0.1-0.2-0.1-0.2h-0.2l-3.8,3.8l-0.1,0.1c0,0,0,0.1,0.1,0.1l3.8,3.8C87.2,173.3,87.3,173.3,87.4,173.3z"/>
	</g>
</g>
<g>
	<rect x="27" y="150.5" class="st13" width="25.8" height="25.8"/>
	<g>
		<path class="st14" d="M44.7,161.5c-0.1,0-0.1-0.1-0.1-0.2v-2.1h-4.8c-0.1,0-0.2-0.1-0.2-0.2v-3.1c0-0.1,0.1-0.2,0.2-0.2h4.8v-2.1
			c0-0.1,0-0.1,0.1-0.2c0.1,0,0.1,0,0.2,0l3.8,3.8l0.1,0.1c0,0.1,0,0.1-0.1,0.1l-3.9,3.8C44.9,161.5,44.8,161.5,44.7,161.5z"/>
		<path class="st14" d="M44.7,169.6c-0.1,0-0.1-0.1-0.1-0.2v-2.1h-4.8c-0.1,0-0.2-0.1-0.2-0.2V164c0-0.1,0.1-0.2,0.2-0.2h4.8v-2.1
			c0-0.1,0-0.2,0.1-0.2s0.1,0,0.2,0l3.8,3.8l0.1,0.1c0,0.1,0,0.1-0.1,0.1l-3.9,3.9C44.9,169.6,44.8,169.6,44.7,169.6z"/>
		<path class="st14" d="M35.2,165.5c0.1,0,0.1-0.1,0.1-0.2v-2.1h4.8c0.1,0,0.2-0.1,0.2-0.2v-3.1c0-0.1-0.1-0.2-0.2-0.2h-4.8v-2.1
			c0-0.1,0-0.1-0.1-0.2c-0.1,0-0.2,0-0.2,0l-3.8,3.8l-0.1,0.1c0,0.1,0,0.1,0.1,0.1l3.9,3.9C35,165.5,35.1,165.5,35.2,165.5z"/>
		<path class="st14" d="M35.2,173.3c0.1,0,0.1-0.1,0.1-0.2V171h4.8c0.1,0,0.2-0.1,0.2-0.2v-3.1c0-0.1-0.1-0.2-0.2-0.2h-4.8v-2.1
			c0-0.1,0-0.2-0.1-0.2s-0.2,0-0.2,0l-3.8,3.8l-0.1,0.1c0,0,0,0.1,0.1,0.1l3.9,3.8C35,173.3,35.1,173.3,35.2,173.3z"/>
	</g>
</g>
<g>
	<path class="st13" d="M81.5,117c0,8.5-6.9,15.3-15.3,15.3s-15.3-6.9-15.3-15.3c0-8.4,6.9-15.3,15.3-15.3S81.5,108.5,81.5,117z"/>
	<g>
		<path class="st14" d="M70.2,111.4c0-0.1-0.1-0.1-0.2-0.1h-2.1v-4.8c0-0.1-0.1-0.2-0.2-0.2h-3.1c-0.1,0-0.2,0.1-0.2,0.2v4.8h-2.1
			c-0.1,0-0.2,0.1-0.2,0.1v0.2l3.8,3.8l0.1,0.1c0,0,0.1,0,0.1-0.1l3.8-3.8C70.2,111.6,70.2,111.5,70.2,111.4z"/>
		<path class="st14" d="M70.2,122.6c0,0.1-0.1,0.1-0.2,0.1h-2.1v4.8c0,0.1-0.1,0.2-0.2,0.2h-3.1c-0.1,0-0.2-0.1-0.2-0.2v-4.8h-2.1
			c-0.1,0-0.2-0.1-0.2-0.1v-0.2l3.8-3.9l0.1-0.1c0,0,0.1,0,0.1,0.1l3.8,3.9C70.2,122.5,70.2,122.5,70.2,122.6z"/>
		<path class="st14" d="M72.7,121.1c-0.1,0-0.1-0.1-0.1-0.2v-2.1h-4.8c-0.1,0-0.2-0.1-0.2-0.2v-3.1c0-0.1,0.1-0.2,0.2-0.2h4.8v-2.1
			c0-0.1,0-0.2,0.1-0.2s0.2,0,0.2,0l3.8,3.8l0.1,0.1c0,0,0,0.1-0.1,0.1l-3.8,3.8C72.8,121.1,72.7,121.1,72.7,121.1z"/>
		<path class="st14" d="M59.7,121.1c0.1,0,0.1-0.1,0.1-0.2v-2.1h4.8c0.1,0,0.2-0.1,0.2-0.2v-3.1c0-0.1-0.1-0.2-0.2-0.2h-4.8v-2.1
			c0-0.1,0-0.2-0.1-0.2s-0.2,0-0.2,0l-3.8,3.8l-0.1,0.1c0,0,0,0.1,0.1,0.1l3.7,4.1C59.5,121.1,59.6,121.1,59.7,121.1z"/>
	</g>
</g>
<g>
	<path class="st13" d="M174.9,117c0,8.5-6.9,15.3-15.3,15.3s-15.3-6.9-15.3-15.3c0-8.4,6.9-15.3,15.3-15.3S174.9,108.5,174.9,117z"
		/>
	<g>
		<path class="st14" d="M163.6,111.4c0-0.1-0.1-0.1-0.2-0.1h-2.1v-4.8c0-0.1-0.1-0.2-0.2-0.2H158c-0.1,0-0.2,0.1-0.2,0.2v4.8h-2.1
			c-0.1,0-0.1,0.1-0.2,0.1s0,0.2,0,0.2l3.8,3.8l0.1,0.1c0,0,0.1,0,0.1-0.1l3.9-3.8C163.6,111.6,163.6,111.5,163.6,111.4z"/>
		<path class="st14" d="M163.6,122.6c0,0.1-0.1,0.1-0.2,0.1h-2.1v4.8c0,0.1-0.1,0.2-0.2,0.2H158c-0.1,0-0.2-0.1-0.2-0.2v-4.8h-2.1
			c-0.1,0-0.1-0.1-0.2-0.1s0-0.2,0-0.2l3.8-3.9l0.1-0.1c0,0,0.1,0,0.1,0.1l3.9,3.9C163.6,122.5,163.6,122.5,163.6,122.6z"/>
		<path class="st14" d="M166,121.1c-0.1,0-0.1-0.1-0.1-0.2v-2.1h-4.8c-0.1,0-0.2-0.1-0.2-0.2v-3.1c0-0.1,0.1-0.2,0.2-0.2h4.8v-2.1
			c0-0.1,0.1-0.2,0.1-0.2c0.1,0,0.2,0,0.2,0l3.9,3.8l0.1,0.1c0,0,0,0.1-0.1,0.1l-3.9,3.8C166.2,121.1,166.1,121.1,166,121.1z"/>
		<path class="st14" d="M153,121.1c0.1,0,0.1-0.1,0.1-0.2v-2.1h4.8c0.1,0,0.2-0.1,0.2-0.2v-3.1c0-0.1-0.1-0.2-0.2-0.2h-4.8v-2.1
			c0-0.1-0.1-0.2-0.1-0.2c-0.1,0-0.2,0-0.2,0l-3.9,3.8l-0.1,0.1c0,0,0,0.1,0.1,0.1l3.9,3.8C152.9,121.1,153,121.1,153,121.1z"/>
	</g>
</g>
<line class="st15" x1="87.7" y1="140.9" x2="94" y2="134.6"/>
<g>
	<g>
		<g>
			<g>
				<g>
					<defs>
						<path id="SVGID_1_" d="M70.6,49.3c10.1,0,20.1,0,30.2,0c18.7,0,37.3,0,56,0c0-15,0-30,0-45H70.6V49.3z"/>
					</defs>
					<clipPath id="SVGID_2_">
						<use xlink:href="#SVGID_1_"  style="overflow:visible;"/>
					</clipPath>
					<g class="st16">
						<g>
							<g>
								<g>
									<g>
										<defs>
											<rect id="SVGID_3_" x="71" y="4.3" width="86.1" height="44.9"/>
										</defs>
										<clipPath id="SVGID_4_">
											<use xlink:href="#SVGID_3_"  style="overflow:visible;"/>
										</clipPath>
										<g class="st17">
											<g>
												<g>
													<g>
														<defs>
															<rect id="SVGID_5_" x="71" y="4.3" width="86.1" height="44.9"/>
														</defs>
														<clipPath id="SVGID_6_">
															<use xlink:href="#SVGID_5_"  style="overflow:visible;"/>
														</clipPath>
														<g class="st18">
															<g>
																<g>
																	<defs>
																		<rect id="SVGID_7_" x="70.9" y="4.2" width="86.1" height="44.9"/>
																	</defs>
																	<clipPath id="SVGID_8_">
																		<use xlink:href="#SVGID_7_"  style="overflow:visible;"/>
																	</clipPath>
																	<g class="st19">
																		<g>
																			<defs>
																				<rect id="SVGID_9_" x="70.9" y="4.2" width="86.1" height="44.9"/>
																			</defs>
																			<clipPath id="SVGID_10_">
																				<use xlink:href="#SVGID_9_"  style="overflow:visible;"/>
																			</clipPath>
																			<g style="clip-path:url(#SVGID_10_);">
																				
																					<use xlink:href="#cloud"  width="86.1" height="44.9" x="-43" y="-22.4" transform="matrix(1 0 0 -1 113.8842 26.722)" style="overflow:visible;"/>
																			</g>
																		</g>
																	</g>
																</g>
															</g>
														</g>
													</g>
												</g>
											</g>
										</g>
									</g>
								</g>
							</g>
						</g>
					</g>
				</g>
			</g>
		</g>
	</g>
</g>
<text transform="matrix(1 0 0 1 56.5547 140.4267)" class="st14 st20 st21">DMZ</text>
<text transform="matrix(1 0 0 1 84.994 206.8921)" class="st14 st22 st21">DPI</text>
<text transform="matrix(1 0 0 1 150.8917 140.4267)" class="st14 st20 st21">LAN</text>
<text transform="matrix(1 0 0 1 95.5205 99.2026)" class="st14 st20 st21">Gateway</text>
<text transform="matrix(6.123234e-17 -1 1 6.123234e-17 25.2707 173.1412)" class="st14 st20 st21">Labs</text>
<text transform="matrix(1 0 0 1 98.294 30.478)" class="st14 st20 st21">Internet</text>
<text transform="matrix(6.123234e-17 -1 1 6.123234e-17 77.2255 178.4214)" class="st14 st20 st21">Servers</text>
<text transform="matrix(6.123234e-17 -1 1 6.123234e-17 119.7508 177.4673)" class="st14 st20 st21">Guests</text>
<text transform="matrix(6.123234e-17 -1 1 6.123234e-17 172.008 176.731)" class="st14 st20 st21">Dorms</text>
<line class="st15" x1="52.5" y1="32" x2="52.5" y2="78"/>
<path class="st15" d="M97.6,59.2"/>
</svg>
