<?xml version="1.0" encoding="utf-8"?>
<!-- Generator: Adobe Illustrator 23.1.0, SVG Export Plug-In . SVG Version: 6.00 Build 0)  -->
<svg version="1.1" id="Layer_1" xmlns="http://www.w3.org/2000/svg" xmlns:xlink="http://www.w3.org/1999/xlink" x="0px" y="0px"
	 viewBox="0 0 242.8 234" style="enable-background:new 0 0 242.8 234;" xml:space="preserve">
<style type="text/css">
	.st0{fill:none;stroke:#000000;stroke-width:0.7512;stroke-miterlimit:11.3386;}
	.st1{fill:none;stroke:#000000;stroke-width:0.744;}
	.st2{fill:none;stroke:#000000;stroke-width:0.75;}
	.st3{fill:#DCDEDC;}
	.st4{fill:#343F3E;}
	.st5{fill:none;}
	.st6{font-family:'Roboto-Regular';}
	.st7{font-size:9px;}
	.st8{stroke:#000000;stroke-width:0.5;}
	.st9{fill:#A0A0A0;stroke:#000000;stroke-width:0.5;}
	.st10{fill:none;stroke:#94B0DA;stroke-width:3;stroke-dasharray:3,3;}
	.st11{fill:#94B0DA;}
	.st12{fill:none;stroke:#94B0DA;stroke-width:3;stroke-miterlimit:10;stroke-dasharray:3,3;}
	.st13{clip-path:url(#SVGID_2_);}
	.st14{clip-path:url(#SVGID_4_);}
</style>
<symbol  id="cloud" viewBox="-43 -22.4 86.1 44.9">
	<g id="layer1_1_" transform="translate(-54.754156,-85.921738)">
		<path id="path10_1_" class="st0" d="M55.4,107.8c5.2,0.9,10.9-1.3,14-5.4c0.7-0.7,1-1.6,1.6-2.5c0.2-0.3,0.7-0.3,1.1-0.3
			c3.8-0.2,7.4-2,9.9-4.8c0.2-0.3,0.6-0.6,1-0.5c2.2,0,4.3-0.5,6.2-1.4c3.3-1.5,5.9-4.3,7.2-7.5c1.1-2.8,1.3-5.9,0.5-8.7
			c-0.8-3-2.8-5.8-5.4-7.6c-3.1-2.2-7.1-3.1-10.8-2.4c-0.4,0.1-0.9,0.1-1.3-0.1c-3.6-1.7-8-1.9-11.7-0.3c-0.9,0.3-1.7,0.9-2.6,1.3
			c-0.4,0.3-0.8-0.1-1.2-0.3c-2.7-2.3-6.4-3.5-10-3.4c-3.3,0.1-6.4,1.4-8.9,3.5c-0.3,0.4-0.9,0.2-1.3,0.1c-2.4-0.6-4.9-0.7-7.3-0.1
			c-0.4,0.1-0.7,0.2-1.1,0.3c-0.4-0.1-0.7-0.4-1-0.6c-2.5-1.6-5.5-2.4-8.4-2.3c-3.4,0.1-6.8,1.4-9.3,3.7c-2.7,2.4-4.3,5.8-4.5,9.3
			c-0.2,2.9,0.6,5.9,2.2,8.4c2,3,5.2,5.2,8.8,6c0.3,0.1,0.6,0.1,0.8,0.3c0.2,0.3,0.2,0.6,0.3,0.9c0.8,3.8,3.4,7.3,6.9,9.2
			c3.8,2.2,8.6,2.4,12.6,0.8c0.9-0.3,1.7-0.9,2.6-1.2c0.5,0,0.8,0.5,1.1,0.8C49.1,105.6,52.1,107.3,55.4,107.8L55.4,107.8z"/>
	</g>
</symbol>
<line class="st1" x1="209.6" y1="201" x2="177.7" y2="175"/>
<g>
	<line class="st2" x1="132.5" y1="105.3" x2="108.6" y2="81.3"/>
	<line class="st2" x1="57.8" y1="105.3" x2="81.7" y2="81.3"/>
</g>
<line class="st2" x1="95.3" y1="60.1" x2="95.3" y2="48.8"/>
<line class="st1" x1="73.6" y1="150" x2="59.9" y2="126.3"/>
<line class="st2" x1="22.8" y1="150" x2="36.5" y2="126.3"/>
<g>
	<path class="st3" d="M110.5,75.5c0,8.5-6.9,15.3-15.3,15.3s-15.4-6.9-15.4-15.3c0-8.5,6.9-15.3,15.3-15.3S110.5,67,110.5,75.5z"/>
	<g>
		<path class="st4" d="M99.2,69.9c0-0.1-0.1-0.1-0.2-0.1h-2.1V65c0-0.1-0.1-0.2-0.2-0.2h-3.1c-0.1,0-0.2,0.1-0.2,0.2v4.8h-2.1
			c-0.1,0-0.2,0-0.2,0.1s0,0.2,0,0.2l3.8,3.9l0.1,0.1c0,0,0.1,0,0.1-0.1l3.8-3.9C99.2,70,99.2,69.9,99.2,69.9z"/>
		<path class="st4" d="M99.2,81.1c0,0.1-0.1,0.1-0.2,0.1h-2.1V86c0,0.1-0.1,0.2-0.2,0.2h-3.1c-0.1,0-0.2-0.1-0.2-0.2v-4.8h-2.1
			c-0.1,0-0.2,0-0.2-0.1s0-0.2,0-0.2l3.8-3.9l0.1-0.1c0,0,0.1,0,0.1,0.1l3.8,3.9C99.2,80.9,99.2,81,99.2,81.1z"/>
		<path class="st4" d="M101.6,79.5c-0.1,0-0.1-0.1-0.1-0.2v-2.1h-4.8c-0.1,0-0.2-0.1-0.2-0.2v-3.1c0-0.1,0.1-0.2,0.2-0.2h4.8v-2.1
			c0-0.1,0.1-0.2,0.1-0.2h0.2l3.8,3.8l0.1,0.1c0,0.1,0,0.1-0.1,0.1l-3.9,3.8C101.8,79.6,101.7,79.6,101.6,79.5z"/>
		<path class="st4" d="M88.6,79.5c0.1,0,0.1-0.1,0.1-0.2v-2.1h4.8c0.1,0,0.2-0.1,0.2-0.2v-3.1c0-0.1-0.1-0.2-0.2-0.2h-4.8v-2.1
			c0-0.1-0.1-0.2-0.1-0.2h-0.2l-3.8,3.8l-0.1,0.1c0,0.1,0,0.1,0.1,0.1l3.8,3.8C88.5,79.6,88.6,79.6,88.6,79.5z"/>
	</g>
</g>
<line class="st2" x1="167.2" y1="150.5" x2="152.5" y2="125.1"/>
<line class="st2" x1="116.3" y1="150.5" x2="130.8" y2="125.4"/>
<line class="st1" x1="177.3" y1="202.7" x2="169.7" y2="175.1"/>
<line class="st1" x1="159.6" y1="202.7" x2="167.2" y2="175.1"/>
<line class="st1" x1="129.8" y1="198.8" x2="158.9" y2="175"/>
<g>
	<rect x="155.7" y="149.9" class="st3" width="25.8" height="25.8"/>
	<g>
		<path class="st4" d="M173.4,160.9c-0.1,0-0.1-0.1-0.1-0.2v-2.1h-4.8c-0.1,0-0.2-0.1-0.2-0.2v-3.1c0-0.1,0.1-0.2,0.2-0.2h4.8V153
			c0-0.1,0.1-0.1,0.1-0.2c0.1,0,0.2,0,0.2,0l3.9,3.8l0.1,0.1c0,0.1,0,0.1-0.1,0.1l-3.9,3.8C173.6,160.9,173.5,160.9,173.4,160.9z"/>
		<path class="st4" d="M173.4,169c-0.1,0-0.1-0.1-0.1-0.2v-2.1h-4.8c-0.1,0-0.2-0.1-0.2-0.2v-3.1c0-0.1,0.1-0.2,0.2-0.2h4.8v-2.1
			c0-0.1,0.1-0.2,0.1-0.2c0.1,0,0.2,0,0.2,0l3.9,3.8l0.1,0.1c0,0.1,0,0.1-0.1,0.1l-3.9,3.9C173.6,169,173.5,169,173.4,169z"/>
		<path class="st4" d="M163.8,164.9c0.1,0,0.1-0.1,0.1-0.2v-2.1h4.8c0.1,0,0.2-0.1,0.2-0.2v-3.1c0-0.1-0.1-0.2-0.2-0.2h-4.8V157
			c0-0.1-0.1-0.1-0.1-0.2c-0.1,0-0.1,0-0.2,0l-3.9,3.8l-0.1,0.1c0,0.1,0,0.1,0.1,0.1l3.9,3.9C163.7,164.9,163.8,164.9,163.8,164.9z"
			/>
		<path class="st4" d="M163.8,172.7c0.1,0,0.1-0.1,0.1-0.2v-2.1h4.8c0.1,0,0.2-0.1,0.2-0.2v-3.1c0-0.1-0.1-0.2-0.2-0.2h-4.8v-2.1
			c0-0.1-0.1-0.2-0.1-0.2c-0.1,0-0.1,0-0.2,0l-3.9,3.8l-0.1,0.1c0,0,0,0.1,0.1,0.1l3.9,3.8C163.7,172.7,163.8,172.7,163.8,172.7z"/>
	</g>
</g>
<g>
	<rect x="103.5" y="149.9" class="st3" width="25.8" height="25.8"/>
	<g>
		<path class="st4" d="M121.2,160.9c-0.1,0-0.1-0.1-0.1-0.2v-2.1h-4.8c-0.1,0-0.2-0.1-0.2-0.2v-3.1c0-0.1,0.1-0.2,0.2-0.2h4.8V153
			c0-0.1,0.1-0.1,0.1-0.2s0.2,0,0.2,0l3.9,3.8l0.1,0.1c0,0.1,0,0.1-0.1,0.1l-3.8,3.8C121.4,160.9,121.3,160.9,121.2,160.9z"/>
		<path class="st4" d="M121.2,169c-0.1,0-0.1-0.1-0.1-0.2v-2.1h-4.8c-0.1,0-0.2-0.1-0.2-0.2v-3.1c0-0.1,0.1-0.2,0.2-0.2h4.8v-2.1
			c0-0.1,0.1-0.2,0.1-0.2h0.2l3.9,3.8l0.1,0.1c0,0.1,0,0.1-0.1,0.1l-3.8,3.9C121.4,169,121.3,169,121.2,169z"/>
		<path class="st4" d="M111.7,164.9c0.1,0,0.1-0.1,0.1-0.2v-2.1h4.8c0.1,0,0.2-0.1,0.2-0.2v-3.1c0-0.1-0.1-0.2-0.2-0.2h-4.8V157
			c0-0.1-0.1-0.1-0.1-0.2s-0.2,0-0.2,0l-3.8,3.8l-0.1,0.1c0,0.1,0,0.1,0.1,0.1l3.8,3.9C111.5,164.9,111.6,164.9,111.7,164.9z"/>
		<path class="st4" d="M111.7,172.7c0.1,0,0.1-0.1,0.1-0.2v-2.1h4.8c0.1,0,0.2-0.1,0.2-0.2v-3.1c0-0.1-0.1-0.2-0.2-0.2h-4.8v-2.1
			c0-0.1-0.1-0.2-0.1-0.2h-0.2l-3.8,3.8l-0.1,0.1c0,0,0,0.1,0.1,0.1l3.8,3.8C111.5,172.7,111.6,172.7,111.7,172.7z"/>
	</g>
</g>
<g>
	<rect x="61.5" y="149.9" class="st3" width="25.8" height="25.8"/>
	<g>
		<path class="st4" d="M79.2,160.9c-0.1,0-0.1-0.1-0.1-0.2v-2.1h-4.8c-0.1,0-0.2-0.1-0.2-0.2v-3.1c0-0.1,0.1-0.2,0.2-0.2h4.8V153
			c0-0.1,0.1-0.1,0.1-0.2s0.2,0,0.2,0l3.9,3.8l0.1,0.1c0,0.1,0,0.1-0.1,0.1l-3.8,3.8C79.4,160.9,79.3,160.9,79.2,160.9z"/>
		<path class="st4" d="M79.2,169c-0.1,0-0.1-0.1-0.1-0.2v-2.1h-4.8c-0.1,0-0.2-0.1-0.2-0.2v-3.1c0-0.1,0.1-0.2,0.2-0.2h4.8v-2.1
			c0-0.1,0.1-0.2,0.1-0.2h0.2l3.9,3.8l0.1,0.1c0,0.1,0,0.1-0.1,0.1l-3.8,3.9C79.4,169,79.3,169,79.2,169z"/>
		<path class="st4" d="M69.7,164.9c0.1,0,0.1-0.1,0.1-0.2v-2.1h4.8c0.1,0,0.2-0.1,0.2-0.2v-3.1c0-0.1-0.1-0.2-0.2-0.2h-4.8V157
			c0-0.1-0.1-0.1-0.1-0.2s-0.2,0-0.2,0l-3.8,3.8l-0.1,0.1c0,0.1,0,0.1,0.1,0.1l3.8,3.9C69.5,164.9,69.6,164.9,69.7,164.9z"/>
		<path class="st4" d="M69.7,172.7c0.1,0,0.1-0.1,0.1-0.2v-2.1h4.8c0.1,0,0.2-0.1,0.2-0.2v-3.1c0-0.1-0.1-0.2-0.2-0.2h-4.8v-2.1
			c0-0.1-0.1-0.2-0.1-0.2h-0.2l-3.8,3.8l-0.1,0.1c0,0,0,0.1,0.1,0.1l3.8,3.8C69.5,172.7,69.6,172.7,69.7,172.7z"/>
	</g>
</g>
<g>
	<rect x="9.3" y="149.9" class="st3" width="25.8" height="25.8"/>
	<g>
		<path class="st4" d="M27,160.9c-0.1,0-0.1-0.1-0.1-0.2v-2.1h-4.8c-0.1,0-0.2-0.1-0.2-0.2v-3.1c0-0.1,0.1-0.2,0.2-0.2h4.8V153
			c0-0.1,0-0.1,0.1-0.2c0.1,0,0.1,0,0.2,0l3.8,3.8l0.1,0.1c0,0.1,0,0.1-0.1,0.1l-3.9,3.8C27.2,160.9,27.1,160.9,27,160.9z"/>
		<path class="st4" d="M27,169c-0.1,0-0.1-0.1-0.1-0.2v-2.1h-4.8c-0.1,0-0.2-0.1-0.2-0.2v-3.1c0-0.1,0.1-0.2,0.2-0.2h4.8v-2.1
			c0-0.1,0-0.2,0.1-0.2s0.1,0,0.2,0l3.8,3.8l0.1,0.1c0,0.1,0,0.1-0.1,0.1l-3.9,3.9C27.2,169,27.1,169,27,169z"/>
		<path class="st4" d="M17.5,164.9c0.1,0,0.1-0.1,0.1-0.2v-2.1h4.8c0.1,0,0.2-0.1,0.2-0.2v-3.1c0-0.1-0.1-0.2-0.2-0.2h-4.8V157
			c0-0.1,0-0.1-0.1-0.2c-0.1,0-0.2,0-0.2,0l-3.8,3.8l-0.1,0.1c0,0.1,0,0.1,0.1,0.1l3.9,3.9C17.3,164.9,17.4,164.9,17.5,164.9z"/>
		<path class="st4" d="M17.5,172.7c0.1,0,0.1-0.1,0.1-0.2v-2.1h4.8c0.1,0,0.2-0.1,0.2-0.2v-3.1c0-0.1-0.1-0.2-0.2-0.2h-4.8v-2.1
			c0-0.1,0-0.2-0.1-0.2s-0.2,0-0.2,0l-3.8,3.8l-0.1,0.1c0,0,0,0.1,0.1,0.1l3.9,3.8C17.3,172.7,17.4,172.7,17.5,172.7z"/>
	</g>
</g>
<g>
	<path class="st3" d="M63.8,116.4c0,8.5-6.9,15.3-15.3,15.3s-15.3-6.9-15.3-15.3s6.9-15.3,15.3-15.3S63.8,107.9,63.8,116.4z"/>
	<g>
		<path class="st4" d="M52.5,110.8c0-0.1-0.1-0.1-0.2-0.1h-2.1v-4.8c0-0.1-0.1-0.2-0.2-0.2h-3.1c-0.1,0-0.2,0.1-0.2,0.2v4.8h-2.1
			c-0.1,0-0.2,0.1-0.2,0.1v0.2l3.8,3.8l0.1,0.1c0,0,0.1,0,0.1-0.1l3.8-3.8C52.5,111,52.5,110.9,52.5,110.8z"/>
		<path class="st4" d="M52.5,122c0,0.1-0.1,0.1-0.2,0.1h-2.1v4.8c0,0.1-0.1,0.2-0.2,0.2h-3.1c-0.1,0-0.2-0.1-0.2-0.2v-4.8h-2.1
			c-0.1,0-0.2-0.1-0.2-0.1v-0.2l3.8-3.9l0.1-0.1c0,0,0.1,0,0.1,0.1l3.8,3.9C52.5,121.9,52.5,121.9,52.5,122z"/>
		<path class="st4" d="M55,120.5c-0.1,0-0.1-0.1-0.1-0.2v-2.1h-4.8c-0.1,0-0.2-0.1-0.2-0.2v-3.1c0-0.1,0.1-0.2,0.2-0.2h4.8v-2.1
			c0-0.1,0-0.2,0.1-0.2s0.2,0,0.2,0l3.8,3.8l0.1,0.1c0,0,0,0.1-0.1,0.1l-3.8,3.8C55.1,120.5,55,120.5,55,120.5z"/>
		<path class="st4" d="M42,120.5c0.1,0,0.1-0.1,0.1-0.2v-2.1h4.8c0.1,0,0.2-0.1,0.2-0.2v-3.1c0-0.1-0.1-0.2-0.2-0.2h-4.8v-2.1
			c0-0.1,0-0.2-0.1-0.2s-0.2,0-0.2,0l-3.8,3.8l-0.1,0.1c0,0,0,0.1,0.1,0.1l3.7,4.1C41.8,120.5,41.9,120.5,42,120.5z"/>
	</g>
</g>
<g>
	<path class="st3" d="M157.2,116.4c0,8.5-6.9,15.3-15.3,15.3s-15.3-6.9-15.3-15.3s6.9-15.3,15.3-15.3S157.2,107.9,157.2,116.4z"/>
	<g>
		<path class="st4" d="M145.9,110.8c0-0.1-0.1-0.1-0.2-0.1h-2.1v-4.8c0-0.1-0.1-0.2-0.2-0.2h-3.1c-0.1,0-0.2,0.1-0.2,0.2v4.8H138
			c-0.1,0-0.1,0.1-0.2,0.1s0,0.2,0,0.2l3.8,3.8l0.1,0.1c0,0,0.1,0,0.1-0.1l3.9-3.8C145.9,111,145.9,110.9,145.9,110.8z"/>
		<path class="st4" d="M145.9,122c0,0.1-0.1,0.1-0.2,0.1h-2.1v4.8c0,0.1-0.1,0.2-0.2,0.2h-3.1c-0.1,0-0.2-0.1-0.2-0.2v-4.8H138
			c-0.1,0-0.1-0.1-0.2-0.1s0-0.2,0-0.2l3.8-3.9l0.1-0.1c0,0,0.1,0,0.1,0.1l3.9,3.9C145.9,121.9,145.9,121.9,145.9,122z"/>
		<path class="st4" d="M148.3,120.5c-0.1,0-0.1-0.1-0.1-0.2v-2.1h-4.8c-0.1,0-0.2-0.1-0.2-0.2v-3.1c0-0.1,0.1-0.2,0.2-0.2h4.8v-2.1
			c0-0.1,0.1-0.2,0.1-0.2c0.1,0,0.2,0,0.2,0l3.9,3.8l0.1,0.1c0,0,0,0.1-0.1,0.1l-3.9,3.8C148.5,120.5,148.4,120.5,148.3,120.5z"/>
		<path class="st4" d="M135.3,120.5c0.1,0,0.1-0.1,0.1-0.2v-2.1h4.8c0.1,0,0.2-0.1,0.2-0.2v-3.1c0-0.1-0.1-0.2-0.2-0.2h-4.8v-2.1
			c0-0.1-0.1-0.2-0.1-0.2c-0.1,0-0.2,0-0.2,0l-3.9,3.8l-0.1,0.1c0,0,0,0.1,0.1,0.1l3.9,3.8C135.2,120.5,135.3,120.5,135.3,120.5z"/>
	</g>
</g>
<line class="st5" x1="70" y1="140.3" x2="76.3" y2="134"/>
<text transform="matrix(1 0 0 1 38.9456 139.7335)" class="st4 st6 st7">DMZ</text>
<text transform="matrix(1 0 0 1 133.2825 139.7335)" class="st4 st6 st7">LAN</text>
<text transform="matrix(1 0 0 1 77.9114 98.5093)" class="st4 st6 st7">Gateway</text>
<text transform="matrix(6.123234e-17 -1 1 6.123234e-17 7.6616 172.4469)" class="st4 st6 st7">Labs</text>
<text transform="matrix(6.123234e-17 -1 1 6.123234e-17 59.6162 177.7262)" class="st4 st6 st7">Servers</text>
<text transform="matrix(6.123234e-17 -1 1 6.123234e-17 102.1417 176.7731)" class="st4 st6 st7">Guests</text>
<text transform="matrix(6.123234e-17 -1 1 6.123234e-17 154.3988 176.0367)" class="st4 st6 st7">Dorms</text>
<path class="st5" d="M79.9,58.6"/>
<g>
	<circle class="st8" cx="164.9" cy="199" r="0.5"/>
	<circle class="st8" cx="168.4" cy="199" r="0.5"/>
	<circle class="st8" cx="172" cy="199" r="0.5"/>
</g>
<path id="path3" class="st9" d="M127.4,213.6c1.2,0,2.2-1,2.2-2.2v-17.3c0-1.2-1-2.2-2.2-2.2h-25.9c-1.2,0-2.2,1-2.2,2.2v17.3
	c0,1.2,1,2.2,2.2,2.2h-4.3v2.2c0,1.2,1,2.2,2.2,2.2h30.2c1.2,0,2.2-1,2.2-2.2v-2.2H127.4z M101.5,194.2h25.9v17.3h-25.9V194.2z
	 M118.8,216.3h-8.6v-1h8.6V216.3z M123.1,216.9c-0.6,0-1.1-0.5-1.1-1.1s0.5-1.1,1.1-1.1s1.1,0.5,1.1,1.1S123.7,216.9,123.1,216.9z
	 M127.4,216.9c-0.6,0-1.1-0.5-1.1-1.1s0.5-1.1,1.1-1.1s1.1,0.5,1.1,1.1S128,216.9,127.4,216.9z"/>
<path id="path3_1_" class="st9" d="M235.4,213.6c1.2,0,2.2-1,2.2-2.2v-17.3c0-1.2-1-2.2-2.2-2.2h-25.9c-1.2,0-2.2,1-2.2,2.2v17.3
	c0,1.2,1,2.2,2.2,2.2h-4.3v2.2c0,1.2,1,2.2,2.2,2.2h30.2c1.2,0,2.2-1,2.2-2.2v-2.2H235.4z M209.5,194.2h25.9v17.3h-25.9V194.2z
	 M226.7,216.3h-8.6v-1h8.6V216.3z M231.1,216.9c-0.6,0-1.1-0.5-1.1-1.1s0.5-1.1,1.1-1.1s1.1,0.5,1.1,1.1S231.7,216.9,231.1,216.9z
	 M235.4,216.9c-0.6,0-1.1-0.5-1.1-1.1s0.5-1.1,1.1-1.1s1.1,0.5,1.1,1.1S236,216.9,235.4,216.9z"/>
<path id="path3_2_" class="st9" d="M163.4,224.7c1.2,0,2.2-1,2.2-2.2v-17.2c0-1.2-1-2.2-2.2-2.2h-25.9c-1.2,0-2.2,1-2.2,2.2v17.3
	c0,1.2,1,2.2,2.2,2.2h-4.3v2.2c0,1.2,1,2.2,2.2,2.2h30.2c1.2,0,2.2-1,2.2-2.2v-2.2h-4.4V224.7z M137.5,205.3h25.9v17.3h-25.9V205.3z
	 M154.8,227.4h-8.6v-1.1h8.6V227.4z M159.1,227.9c-0.6,0-1.1-0.5-1.1-1.1s0.5-1.1,1.1-1.1s1.1,0.5,1.1,1.1S159.7,227.9,159.1,227.9z
	 M163.4,227.9c-0.6,0-1.1-0.5-1.1-1.1s0.5-1.1,1.1-1.1s1.1,0.5,1.1,1.1S164,227.9,163.4,227.9z"/>
<path id="path3_3_" class="st9" d="M199.4,224.7c1.2,0,2.2-1,2.2-2.2v-17.2c0-1.2-1-2.2-2.2-2.2h-25.9c-1.2,0-2.2,1-2.2,2.2v17.3
	c0,1.2,1,2.2,2.2,2.2h-4.3v2.2c0,1.2,1,2.2,2.2,2.2h30.2c1.2,0,2.2-1,2.2-2.2v-2.2h-4.4V224.7z M173.5,205.3h25.9v17.3h-25.9V205.3z
	 M190.8,227.4h-8.6v-1.1h8.6V227.4z M195.1,227.9c-0.6,0-1.1-0.5-1.1-1.1s0.5-1.1,1.1-1.1s1.1,0.5,1.1,1.1S195.7,227.9,195.1,227.9z
	 M199.4,227.9c-0.6,0-1.1-0.5-1.1-1.1s0.5-1.1,1.1-1.1s1.1,0.5,1.1,1.1S200,227.9,199.4,227.9z"/>
<path class="st0" d="M116.5,64.5"/>
<path class="st0" d="M116.1,57.1"/>
<text transform="matrix(1 0 0 1 139.7178 77.6462)" class="st4 st6 st7">10 Gb/wk</text>
<g>
	<g>
		<path class="st10" d="M111,50.2c2.9,12.6,8.6,20.8,12.1,25.2c7.1,8.7,15.3,13.6,19.1,15.9c12.5,7.4,16.4,5.1,20.5,10.7
			c4.5,6.3,1.3,11.4,4.2,25.6c0.9,4.3,2,8.1,3.1,11.3"/>
		<g>
			<polygon class="st11" points="165.4,139.3 172.5,144.9 173.8,136 			"/>
		</g>
	</g>
</g>
<g>
	<g>
		<path class="st12" d="M146.7,176.1c-4.2,3.6-8.4,7.2-12.6,10.9"/>
		<g>
			<polygon class="st11" points="132.1,182.7 129.1,191.2 138,189.5 			"/>
		</g>
	</g>
</g>
<g>
	<g>
		<path class="st12" d="M162.4,177.5c-2.6,6-5.3,12-7.9,18.1"/>
		<g>
			<polygon class="st11" points="150.9,192.6 151.9,201.5 159.2,196.2 			"/>
		</g>
	</g>
</g>
<g>
	<g>
		<path class="st12" d="M174.6,177.9c2.6,5.5,5.2,11.1,7.8,16.6"/>
		<g>
			<polygon class="st11" points="177.8,195.3 185.1,200.4 185.9,191.5 			"/>
		</g>
	</g>
</g>
<g>
	<g>
		<path class="st12" d="M187,174.2c5.2,4.1,10.4,8.3,15.6,12.4"/>
		<g>
			<polygon class="st11" points="198.8,189.3 207.6,190.6 204.3,182.3 			"/>
		</g>
	</g>
</g>
<text transform="matrix(1 0 0 1 79.8795 32.461)" class="st4 st6 st7">Internet</text>
<g>
	<g>
		<g>
			<defs>
				<rect id="SVGID_1_" x="52.2" y="3.9" width="86.2" height="45"/>
			</defs>
			<clipPath id="SVGID_2_">
				<use xlink:href="#SVGID_1_"  style="overflow:visible;"/>
			</clipPath>
			<g class="st13">
				<g>
					<g>
						<defs>
							<rect id="SVGID_3_" x="52.6" y="3.9" width="86.1" height="44.9"/>
						</defs>
						<clipPath id="SVGID_4_">
							<use xlink:href="#SVGID_3_"  style="overflow:visible;"/>
						</clipPath>
						<g class="st14">
							<g>
								<defs>
									<rect id="SVGID_5_" x="52.6" y="3.9" width="86.1" height="44.9"/>
								</defs>
								<clipPath id="SVGID_6_">
									<use xlink:href="#SVGID_5_"  style="overflow:visible;"/>
								</clipPath>
								<g style="clip-path:url(#SVGID_6_);">
									
										<use xlink:href="#cloud"  width="86.1" height="44.9" x="-43" y="-22.4" transform="matrix(1 0 0 -1 95.5704 26.327)" style="overflow:visible;"/>
								</g>
							</g>
						</g>
					</g>
				</g>
			</g>
		</g>
	</g>
</g>
<image style="overflow:visible;" width="1228" height="526" xlink:href="../../../../../../Downloads/Icons/png/hbo.png"  transform="matrix(1.710620e-02 0 0 1.710620e-02 103.9968 198.3188)">
</image>
<image style="overflow:visible;" width="1228" height="526" xlink:href="../../../../../../Downloads/Icons/png/hbo.png"  transform="matrix(1.710620e-02 0 0 1.710620e-02 211.9968 198.3188)">
</image>
<image style="overflow:visible;" width="1228" height="526" xlink:href="../../../../../../Downloads/Icons/png/hbo.png"  transform="matrix(1.710620e-02 0 0 1.710620e-02 175.9968 209.4084)">
</image>
<image style="overflow:visible;" width="1228" height="526" xlink:href="../../../../../../Downloads/Icons/png/hbo.png"  transform="matrix(1.710620e-02 0 0 1.710620e-02 139.9968 209.4084)">
</image>
</svg>
