<?xml version="1.0" encoding="utf-8"?>
<!-- Generator: Adobe Illustrator 23.1.0, SVG Export Plug-In . SVG Version: 6.00 Build 0)  -->
<svg version="1.1" id="Layer_1" xmlns="http://www.w3.org/2000/svg" xmlns:xlink="http://www.w3.org/1999/xlink" x="0px" y="0px"
	 viewBox="0 0 195 234" style="enable-background:new 0 0 195 234;" xml:space="preserve">
<style type="text/css">
	.st0{fill:none;stroke:#000000;stroke-width:0.744;}
	.st1{fill:none;stroke:#000000;stroke-width:0.75;}
	.st2{fill:#DCDEDC;}
	.st3{fill:#343F3E;}
	.st4{fill:none;}
	.st5{clip-path:url(#SVGID_2_);}
	.st6{clip-path:url(#SVGID_4_);}
	.st7{clip-path:url(#SVGID_6_);}
	.st8{clip-path:url(#SVGID_8_);}
	.st9{fill:none;stroke:#000000;stroke-width:0.7512;stroke-miterlimit:11.3386;}
	.st10{font-family:'Roboto-Regular';}
	.st11{font-size:9px;}
	.st12{stroke:#000000;stroke-width:0.5;}
	.st13{fill:#A0A0A0;stroke:#000000;stroke-width:0.5;}
	.st14{fill:none;stroke:#94B0DA;stroke-width:2;stroke-miterlimit:10;stroke-dasharray:3,3;}
	.st15{fill:#94B0DA;}
	.st16{fill:none;stroke:#94B0DA;stroke-width:2;stroke-miterlimit:10;stroke-dasharray:8;}
	.st17{fill:#5ACF5F;}
</style>
<line class="st0" x1="159.5" y1="202.5" x2="127.6" y2="176.5"/>
<g>
	<line class="st1" x1="134.5" y1="106.8" x2="110.6" y2="82.8"/>
	<line class="st1" x1="59.8" y1="106.8" x2="83.7" y2="82.8"/>
</g>
<line class="st1" x1="97.3" y1="61.6" x2="97.3" y2="50.3"/>
<line class="st0" x1="75.6" y1="151.5" x2="61.9" y2="127.8"/>
<line class="st1" x1="24.8" y1="151.5" x2="38.5" y2="127.8"/>
<g>
	<path class="st2" d="M112.5,77c0,8.5-6.9,15.3-15.3,15.3S81.8,85.4,81.8,77c0-8.5,6.9-15.3,15.3-15.3S112.5,68.5,112.5,77z"/>
	<g>
		<path class="st3" d="M101.2,71.4c0-0.1-0.1-0.1-0.2-0.1h-2.1v-4.8c0-0.1-0.1-0.2-0.2-0.2h-3.1c-0.1,0-0.2,0.1-0.2,0.2v4.8h-2.1
			c-0.1,0-0.2,0-0.2,0.1s0,0.2,0,0.2l3.8,3.9l0.1,0.1c0,0,0.1,0,0.1-0.1l3.8-3.9C101.2,71.5,101.2,71.4,101.2,71.4z"/>
		<path class="st3" d="M101.2,82.6c0,0.1-0.1,0.1-0.2,0.1h-2.1v4.8c0,0.1-0.1,0.2-0.2,0.2h-3.1c-0.1,0-0.2-0.1-0.2-0.2v-4.8h-2.1
			c-0.1,0-0.2,0-0.2-0.1s0-0.2,0-0.2l3.8-3.9l0.1-0.1c0,0,0.1,0,0.1,0.1l3.8,3.9C101.2,82.4,101.2,82.5,101.2,82.6z"/>
		<path class="st3" d="M103.6,81c-0.1,0-0.1-0.1-0.1-0.2v-2.1h-4.8c-0.1,0-0.2-0.1-0.2-0.2v-3.1c0-0.1,0.1-0.2,0.2-0.2h4.8v-2.1
			c0-0.1,0.1-0.2,0.1-0.2h0.2l3.8,3.8l0.1,0.1c0,0.1,0,0.1-0.1,0.1l-3.9,3.8C103.8,81.1,103.7,81.1,103.6,81z"/>
		<path class="st3" d="M90.6,81c0.1,0,0.1-0.1,0.1-0.2v-2.1h4.8c0.1,0,0.2-0.1,0.2-0.2v-3.1c0-0.1-0.1-0.2-0.2-0.2h-4.8v-2.1
			c0-0.1-0.1-0.2-0.1-0.2h-0.2l-3.8,3.8l-0.1,0.1c0,0.1,0,0.1,0.1,0.1l3.8,3.8C90.5,81.1,90.6,81.1,90.6,81z"/>
	</g>
</g>
<line class="st1" x1="169.2" y1="152" x2="154.5" y2="126.6"/>
<line class="st1" x1="118.3" y1="152" x2="132.8" y2="126.9"/>
<line class="st0" x1="127.2" y1="204.1" x2="119.6" y2="176.6"/>
<line class="st0" x1="109.5" y1="204.1" x2="117.2" y2="176.6"/>
<line class="st0" x1="79.7" y1="200.2" x2="108.9" y2="176.5"/>
<g>
	<rect x="157.7" y="151.4" class="st2" width="25.8" height="25.8"/>
	<g>
		<path class="st3" d="M175.4,162.4c-0.1,0-0.1-0.1-0.1-0.2v-2.1h-4.8c-0.1,0-0.2-0.1-0.2-0.2v-3.1c0-0.1,0.1-0.2,0.2-0.2h4.8v-2.1
			c0-0.1,0.1-0.1,0.1-0.2c0.1,0,0.2,0,0.2,0l3.9,3.8l0.1,0.1c0,0.1,0,0.1-0.1,0.1l-3.9,3.8C175.6,162.4,175.5,162.4,175.4,162.4z"/>
		<path class="st3" d="M175.4,170.5c-0.1,0-0.1-0.1-0.1-0.2v-2.1h-4.8c-0.1,0-0.2-0.1-0.2-0.2v-3.1c0-0.1,0.1-0.2,0.2-0.2h4.8v-2.1
			c0-0.1,0.1-0.2,0.1-0.2c0.1,0,0.2,0,0.2,0l3.9,3.8l0.1,0.1c0,0.1,0,0.1-0.1,0.1l-3.9,3.9C175.6,170.5,175.5,170.5,175.4,170.5z"/>
		<path class="st3" d="M165.8,166.4c0.1,0,0.1-0.1,0.1-0.2v-2.1h4.8c0.1,0,0.2-0.1,0.2-0.2v-3.1c0-0.1-0.1-0.2-0.2-0.2h-4.8v-2.1
			c0-0.1-0.1-0.1-0.1-0.2c-0.1,0-0.1,0-0.2,0l-3.9,3.8l-0.1,0.1c0,0.1,0,0.1,0.1,0.1l3.9,3.9C165.7,166.4,165.8,166.4,165.8,166.4z"
			/>
		<path class="st3" d="M165.8,174.2c0.1,0,0.1-0.1,0.1-0.2v-2.1h4.8c0.1,0,0.2-0.1,0.2-0.2v-3.1c0-0.1-0.1-0.2-0.2-0.2h-4.8v-2.1
			c0-0.1-0.1-0.2-0.1-0.2c-0.1,0-0.1,0-0.2,0l-3.9,3.8l-0.1,0.1c0,0,0,0.1,0.1,0.1l3.9,3.8C165.7,174.2,165.8,174.2,165.8,174.2z"/>
	</g>
</g>
<g>
	<rect x="105.5" y="151.4" class="st2" width="25.8" height="25.8"/>
	<g>
		<path class="st3" d="M123.2,162.4c-0.1,0-0.1-0.1-0.1-0.2v-2.1h-4.8c-0.1,0-0.2-0.1-0.2-0.2v-3.1c0-0.1,0.1-0.2,0.2-0.2h4.8v-2.1
			c0-0.1,0.1-0.1,0.1-0.2s0.2,0,0.2,0l3.9,3.8l0.1,0.1c0,0.1,0,0.1-0.1,0.1l-3.8,3.8C123.4,162.4,123.3,162.4,123.2,162.4z"/>
		<path class="st3" d="M123.2,170.5c-0.1,0-0.1-0.1-0.1-0.2v-2.1h-4.8c-0.1,0-0.2-0.1-0.2-0.2v-3.1c0-0.1,0.1-0.2,0.2-0.2h4.8v-2.1
			c0-0.1,0.1-0.2,0.1-0.2h0.2l3.9,3.8l0.1,0.1c0,0.1,0,0.1-0.1,0.1l-3.8,3.9C123.4,170.5,123.3,170.5,123.2,170.5z"/>
		<path class="st3" d="M113.7,166.4c0.1,0,0.1-0.1,0.1-0.2v-2.1h4.8c0.1,0,0.2-0.1,0.2-0.2v-3.1c0-0.1-0.1-0.2-0.2-0.2h-4.8v-2.1
			c0-0.1-0.1-0.1-0.1-0.2s-0.2,0-0.2,0l-3.8,3.8l-0.1,0.1c0,0.1,0,0.1,0.1,0.1l3.8,3.9C113.5,166.4,113.6,166.4,113.7,166.4z"/>
		<path class="st3" d="M113.7,174.2c0.1,0,0.1-0.1,0.1-0.2v-2.1h4.8c0.1,0,0.2-0.1,0.2-0.2v-3.1c0-0.1-0.1-0.2-0.2-0.2h-4.8v-2.1
			c0-0.1-0.1-0.2-0.1-0.2h-0.2l-3.8,3.8l-0.1,0.1c0,0,0,0.1,0.1,0.1l3.8,3.8C113.5,174.2,113.6,174.2,113.7,174.2z"/>
	</g>
</g>
<g>
	<rect x="63.5" y="151.4" class="st2" width="25.8" height="25.8"/>
	<g>
		<path class="st3" d="M81.2,162.4c-0.1,0-0.1-0.1-0.1-0.2v-2.1h-4.8c-0.1,0-0.2-0.1-0.2-0.2v-3.1c0-0.1,0.1-0.2,0.2-0.2h4.8v-2.1
			c0-0.1,0.1-0.1,0.1-0.2s0.2,0,0.2,0l3.9,3.8l0.1,0.1c0,0.1,0,0.1-0.1,0.1l-3.8,3.8C81.4,162.4,81.3,162.4,81.2,162.4z"/>
		<path class="st3" d="M81.2,170.5c-0.1,0-0.1-0.1-0.1-0.2v-2.1h-4.8c-0.1,0-0.2-0.1-0.2-0.2v-3.1c0-0.1,0.1-0.2,0.2-0.2h4.8v-2.1
			c0-0.1,0.1-0.2,0.1-0.2h0.2l3.9,3.8l0.1,0.1c0,0.1,0,0.1-0.1,0.1l-3.8,3.9C81.4,170.5,81.3,170.5,81.2,170.5z"/>
		<path class="st3" d="M71.7,166.4c0.1,0,0.1-0.1,0.1-0.2v-2.1h4.8c0.1,0,0.2-0.1,0.2-0.2v-3.1c0-0.1-0.1-0.2-0.2-0.2h-4.8v-2.1
			c0-0.1-0.1-0.1-0.1-0.2s-0.2,0-0.2,0l-3.8,3.8l-0.1,0.1c0,0.1,0,0.1,0.1,0.1l3.8,3.9C71.5,166.4,71.6,166.4,71.7,166.4z"/>
		<path class="st3" d="M71.7,174.2c0.1,0,0.1-0.1,0.1-0.2v-2.1h4.8c0.1,0,0.2-0.1,0.2-0.2v-3.1c0-0.1-0.1-0.2-0.2-0.2h-4.8v-2.1
			c0-0.1-0.1-0.2-0.1-0.2h-0.2l-3.8,3.8l-0.1,0.1c0,0,0,0.1,0.1,0.1l3.8,3.8C71.5,174.2,71.6,174.2,71.7,174.2z"/>
	</g>
</g>
<g>
	<rect x="11.3" y="151.4" class="st2" width="25.8" height="25.8"/>
	<g>
		<path class="st3" d="M29,162.4c-0.1,0-0.1-0.1-0.1-0.2v-2.1h-4.8c-0.1,0-0.2-0.1-0.2-0.2v-3.1c0-0.1,0.1-0.2,0.2-0.2h4.8v-2.1
			c0-0.1,0-0.1,0.1-0.2c0.1,0,0.1,0,0.2,0l3.8,3.8l0.1,0.1c0,0.1,0,0.1-0.1,0.1l-3.9,3.8C29.2,162.4,29.1,162.4,29,162.4z"/>
		<path class="st3" d="M29,170.5c-0.1,0-0.1-0.1-0.1-0.2v-2.1h-4.8c-0.1,0-0.2-0.1-0.2-0.2v-3.1c0-0.1,0.1-0.2,0.2-0.2h4.8v-2.1
			c0-0.1,0-0.2,0.1-0.2s0.1,0,0.2,0l3.8,3.8l0.1,0.1c0,0.1,0,0.1-0.1,0.1l-3.9,3.9C29.2,170.5,29.1,170.5,29,170.5z"/>
		<path class="st3" d="M19.5,166.4c0.1,0,0.1-0.1,0.1-0.2v-2.1h4.8c0.1,0,0.2-0.1,0.2-0.2v-3.1c0-0.1-0.1-0.2-0.2-0.2h-4.8v-2.1
			c0-0.1,0-0.1-0.1-0.2c-0.1,0-0.2,0-0.2,0l-3.8,3.8l-0.1,0.1c0,0.1,0,0.1,0.1,0.1l3.9,3.9C19.3,166.4,19.4,166.4,19.5,166.4z"/>
		<path class="st3" d="M19.5,174.2c0.1,0,0.1-0.1,0.1-0.2v-2.1h4.8c0.1,0,0.2-0.1,0.2-0.2v-3.1c0-0.1-0.1-0.2-0.2-0.2h-4.8v-2.1
			c0-0.1,0-0.2-0.1-0.2s-0.2,0-0.2,0l-3.8,3.8l-0.1,0.1c0,0,0,0.1,0.1,0.1l3.9,3.8C19.3,174.2,19.4,174.2,19.5,174.2z"/>
	</g>
</g>
<g>
	<path class="st2" d="M65.8,117.9c0,8.5-6.9,15.3-15.3,15.3s-15.3-6.9-15.3-15.3s6.9-15.3,15.3-15.3S65.8,109.4,65.8,117.9z"/>
	<g>
		<path class="st3" d="M54.5,112.3c0-0.1-0.1-0.1-0.2-0.1h-2.1v-4.8c0-0.1-0.1-0.2-0.2-0.2h-3.1c-0.1,0-0.2,0.1-0.2,0.2v4.8h-2.1
			c-0.1,0-0.2,0.1-0.2,0.1v0.2l3.8,3.8l0.1,0.1c0,0,0.1,0,0.1-0.1l3.8-3.8C54.5,112.5,54.5,112.4,54.5,112.3z"/>
		<path class="st3" d="M54.5,123.5c0,0.1-0.1,0.1-0.2,0.1h-2.1v4.8c0,0.1-0.1,0.2-0.2,0.2h-3.1c-0.1,0-0.2-0.1-0.2-0.2v-4.8h-2.1
			c-0.1,0-0.2-0.1-0.2-0.1v-0.2l3.8-3.9l0.1-0.1c0,0,0.1,0,0.1,0.1l3.8,3.9C54.5,123.4,54.5,123.4,54.5,123.5z"/>
		<path class="st3" d="M57,122c-0.1,0-0.1-0.1-0.1-0.2v-2.1h-4.8c-0.1,0-0.2-0.1-0.2-0.2v-3.1c0-0.1,0.1-0.2,0.2-0.2h4.8v-2.1
			c0-0.1,0-0.2,0.1-0.2s0.2,0,0.2,0l3.8,3.8l0.1,0.1c0,0,0,0.1-0.1,0.1l-3.8,3.8C57.1,122,57,122,57,122z"/>
		<path class="st3" d="M44,122c0.1,0,0.1-0.1,0.1-0.2v-2.1h4.8c0.1,0,0.2-0.1,0.2-0.2v-3.1c0-0.1-0.1-0.2-0.2-0.2h-4.8v-2.1
			c0-0.1,0-0.2-0.1-0.2s-0.2,0-0.2,0l-3.8,3.8l-0.1,0.1c0,0,0,0.1,0.1,0.1l3.7,4.1C43.8,122,43.9,122,44,122z"/>
	</g>
</g>
<g>
	<path class="st2" d="M159.2,117.9c0,8.5-6.9,15.3-15.3,15.3s-15.3-6.9-15.3-15.3s6.9-15.3,15.3-15.3S159.2,109.4,159.2,117.9z"/>
	<g>
		<path class="st3" d="M147.9,112.3c0-0.1-0.1-0.1-0.2-0.1h-2.1v-4.8c0-0.1-0.1-0.2-0.2-0.2h-3.1c-0.1,0-0.2,0.1-0.2,0.2v4.8H140
			c-0.1,0-0.1,0.1-0.2,0.1s0,0.2,0,0.2l3.8,3.8l0.1,0.1c0,0,0.1,0,0.1-0.1l3.9-3.8C147.9,112.5,147.9,112.4,147.9,112.3z"/>
		<path class="st3" d="M147.9,123.5c0,0.1-0.1,0.1-0.2,0.1h-2.1v4.8c0,0.1-0.1,0.2-0.2,0.2h-3.1c-0.1,0-0.2-0.1-0.2-0.2v-4.8H140
			c-0.1,0-0.1-0.1-0.2-0.1s0-0.2,0-0.2l3.8-3.9l0.1-0.1c0,0,0.1,0,0.1,0.1l3.9,3.9C147.9,123.4,147.9,123.4,147.9,123.5z"/>
		<path class="st3" d="M150.3,122c-0.1,0-0.1-0.1-0.1-0.2v-2.1h-4.8c-0.1,0-0.2-0.1-0.2-0.2v-3.1c0-0.1,0.1-0.2,0.2-0.2h4.8v-2.1
			c0-0.1,0.1-0.2,0.1-0.2c0.1,0,0.2,0,0.2,0l3.9,3.8l0.1,0.1c0,0,0,0.1-0.1,0.1l-3.9,3.8C150.5,122,150.4,122,150.3,122z"/>
		<path class="st3" d="M137.3,122c0.1,0,0.1-0.1,0.1-0.2v-2.1h4.8c0.1,0,0.2-0.1,0.2-0.2v-3.1c0-0.1-0.1-0.2-0.2-0.2h-4.8v-2.1
			c0-0.1-0.1-0.2-0.1-0.2c-0.1,0-0.2,0-0.2,0l-3.9,3.8l-0.1,0.1c0,0,0,0.1,0.1,0.1l3.9,3.8C137.2,122,137.3,122,137.3,122z"/>
	</g>
</g>
<line class="st4" x1="72" y1="141.8" x2="78.3" y2="135.5"/>
<g>
	<g>
		<g>
			<g>
				<g>
					<g>
						<defs>
							<path id="SVGID_1_" d="M54.9,50.2c10.1,0,20.1,0,30.2,0c18.7,0,37.3,0,56,0c0-15,0-30,0-45H54.9V50.2z"/>
						</defs>
						<clipPath id="SVGID_2_">
							<use xlink:href="#SVGID_1_"  style="overflow:visible;"/>
						</clipPath>
						<g class="st5">
							<g>
								<g>
									<g>
										<g>
											<g>
												<defs>
													<rect id="SVGID_3_" x="55.3" y="5.2" width="86.1" height="44.9"/>
												</defs>
												<clipPath id="SVGID_4_">
													<use xlink:href="#SVGID_3_"  style="overflow:visible;"/>
												</clipPath>
												<g class="st6">
													<g>
														<g>
															<g>
																<g>
																	<defs>
																		<rect id="SVGID_5_" x="55.3" y="5.2" width="86.1" height="44.9"/>
																	</defs>
																	<clipPath id="SVGID_6_">
																		<use xlink:href="#SVGID_5_"  style="overflow:visible;"/>
																	</clipPath>
																	<g class="st7">
																		<g>
																			<g>
																				<g>
																					<defs>
																						<rect id="SVGID_7_" x="55.3" y="5.1" width="86.1" height="44.9"/>
																					</defs>
																					<clipPath id="SVGID_8_">
																						<use xlink:href="#SVGID_7_"  style="overflow:visible;"/>
																					</clipPath>
																					<g class="st8">
																						<g id="layer1_1_" transform="translate(-54.754156,-85.921738)">
																							<path id="path10_1_" class="st9" d="M153.7,91.6c5.2-0.9,10.9,1.3,14,5.4c0.7,0.7,1,1.6,1.6,2.5
																								c0.2,0.3,0.7,0.3,1.1,0.3c3.8,0.2,7.4,2,9.9,4.8c0.2,0.3,0.6,0.6,1,0.5c2.2,0,4.3,0.5,6.2,1.4
																								c3.3,1.5,5.9,4.3,7.2,7.5c1.1,2.8,1.3,5.9,0.5,8.7c-0.8,3-2.8,5.8-5.4,7.6c-3.1,2.2-7.1,3.1-10.8,2.4
																								c-0.4-0.1-0.9-0.1-1.3,0.1c-3.6,1.7-8,1.9-11.7,0.3c-0.9-0.3-1.7-0.9-2.6-1.3c-0.4-0.3-0.8,0.1-1.2,0.3
																								c-2.7,2.3-6.4,3.5-10,3.4c-3.3-0.1-6.4-1.4-8.9-3.5c-0.3-0.4-0.9-0.2-1.3-0.1c-2.4,0.6-4.9,0.7-7.3,0.1
																								c-0.4-0.1-0.7-0.2-1.1-0.3c-0.4,0.1-0.7,0.4-1,0.6c-2.5,1.6-5.5,2.4-8.4,2.3c-3.4-0.1-6.8-1.4-9.3-3.7
																								c-2.7-2.4-4.3-5.8-4.5-9.3c-0.2-2.9,0.6-5.9,2.2-8.4c2-3,5.2-5.2,8.8-6c0.3-0.1,0.6-0.1,0.8-0.3
																								c0.2-0.3,0.2-0.6,0.3-0.9c0.8-3.8,3.4-7.3,6.9-9.2c3.8-2.2,8.6-2.4,12.6-0.8c0.9,0.3,1.7,0.9,2.6,1.2
																								c0.5,0,0.8-0.5,1.1-0.8C147.4,93.8,150.4,92.1,153.7,91.6L153.7,91.6z"/>
																						</g>
																					</g>
																				</g>
																			</g>
																		</g>
																	</g>
																</g>
															</g>
														</g>
													</g>
												</g>
											</g>
										</g>
									</g>
								</g>
							</g>
						</g>
					</g>
				</g>
			</g>
		</g>
	</g>
</g>
<text transform="matrix(1 0 0 1 40.8695 141.2479)" class="st3 st10 st11">DMZ</text>
<text transform="matrix(1 0 0 1 135.2065 141.2479)" class="st3 st10 st11">LAN</text>
<text transform="matrix(1 0 0 1 79.8353 100.0237)" class="st3 st10 st11">Gateway</text>
<text transform="matrix(6.123234e-17 -1 1 6.123234e-17 9.5855 173.9619)" class="st3 st10 st11">Labs</text>
<text transform="matrix(1 0 0 1 82.6088 31.2993)" class="st3 st10 st11">Internet</text>
<text transform="matrix(6.123234e-17 -1 1 6.123234e-17 61.5403 179.2412)" class="st3 st10 st11">Servers</text>
<text transform="matrix(6.123234e-17 -1 1 6.123234e-17 104.0656 178.2881)" class="st3 st10 st11">Guests</text>
<text transform="matrix(6.123234e-17 -1 1 6.123234e-17 156.3228 177.5518)" class="st3 st10 st11">Dorms</text>
<line class="st4" x1="36.8" y1="32.9" x2="36.8" y2="78.9"/>
<path class="st4" d="M81.9,60.1"/>
<g>
	<circle class="st12" cx="114.9" cy="200.5" r="0.5"/>
	<circle class="st12" cx="118.4" cy="200.5" r="0.5"/>
	<circle class="st12" cx="121.9" cy="200.5" r="0.5"/>
</g>
<path id="path3" class="st13" d="M77.4,215.1c1.2,0,2.2-1,2.2-2.2v-17.3c0-1.2-1-2.2-2.2-2.2h-26c-1.2,0-2.2,1-2.2,2.2V213
	c0,1.2,1,2.2,2.2,2.2h-4.3v2.2c0,1.2,1,2.2,2.2,2.2h30.2c1.2,0,2.2-1,2.2-2.2v-2.2L77.4,215.1L77.4,215.1z M51.4,195.7h25.9V213
	H51.4V195.7z M68.7,217.8h-8.6v-1.1h8.6V217.8z M73,218.4c-0.6,0-1.1-0.5-1.1-1.1s0.5-1.1,1.1-1.1s1.1,0.5,1.1,1.1
	S73.6,218.4,73,218.4z M77.4,218.4c-0.6,0-1.1-0.5-1.1-1.1s0.5-1.1,1.1-1.1s1.1,0.5,1.1,1.1S78,218.4,77.4,218.4z"/>
<path id="path3_4_" class="st13" d="M185.3,215.1c1.2,0,2.2-1,2.2-2.2v-17.3c0-1.2-1-2.2-2.2-2.2h-25.9c-1.2,0-2.2,1-2.2,2.2V213
	c0,1.2,1,2.2,2.2,2.2h-4.3v2.2c0,1.2,1,2.2,2.2,2.2h30.2c1.2,0,2.2-1,2.2-2.2v-2.2L185.3,215.1L185.3,215.1z M159.4,195.7h25.9V213
	h-25.9V195.7z M176.7,217.8H168v-1.1h8.6L176.7,217.8L176.7,217.8z M181,218.4c-0.6,0-1.1-0.5-1.1-1.1s0.5-1.1,1.1-1.1
	s1.1,0.5,1.1,1.1S181.6,218.4,181,218.4z M185.3,218.4c-0.6,0-1.1-0.5-1.1-1.1s0.5-1.1,1.1-1.1s1.1,0.5,1.1,1.1
	S185.9,218.4,185.3,218.4z"/>
<path id="path3_1_" class="st13" d="M113.3,226.2c1.2,0,2.2-1,2.2-2.2v-17.3c0-1.2-1-2.2-2.2-2.2H87.4c-1.2,0-2.2,1-2.2,2.2V224
	c0,1.2,1,2.2,2.2,2.2h-4.3v2.2c0,1.2,1,2.2,2.2,2.2h30.2c1.2,0,2.2-1,2.2-2.2v-2.2H113.3z M87.4,206.7h25.9V224H87.4V206.7z
	 M104.7,228.9h-8.6v-1.1h8.6V228.9z M109,229.4c-0.6,0-1.1-0.5-1.1-1.1s0.5-1.1,1.1-1.1s1.1,0.5,1.1,1.1S109.6,229.4,109,229.4z
	 M113.3,229.4c-0.6,0-1.1-0.5-1.1-1.1s0.5-1.1,1.1-1.1s1.1,0.5,1.1,1.1S113.9,229.4,113.3,229.4z"/>
<path id="path3_3_" class="st13" d="M149.3,226.2c1.2,0,2.2-1,2.2-2.2v-17.3c0-1.2-1-2.2-2.2-2.2h-25.9c-1.2,0-2.2,1-2.2,2.2V224
	c0,1.2,1,2.2,2.2,2.2h-4.3v2.2c0,1.2,1,2.2,2.2,2.2h30.2c1.2,0,2.2-1,2.2-2.2v-2.2H149.3z M123.4,206.7h25.9V224h-25.9V206.7z
	 M140.7,228.9h-8.6v-1.1h8.6V228.9z M145,229.4c-0.6,0-1.1-0.5-1.1-1.1s0.5-1.1,1.1-1.1s1.1,0.5,1.1,1.1S145.6,229.4,145,229.4z
	 M149.3,229.4c-0.6,0-1.1-0.5-1.1-1.1s0.5-1.1,1.1-1.1s1.1,0.5,1.1,1.1S149.9,229.4,149.3,229.4z"/>
<text transform="matrix(1 0 0 1 128.4875 78.3586)" class="st3 st10 st11">100 Mbps</text>
<g>
	<g>
		<path class="st14" d="M113.7,51.3c-0.3,6.2,0.2,15.2,5.3,23.9c6.3,10.9,15.4,13.9,14.8,21.4c-0.4,6-6.3,5.7-10.6,15.2
			c-3,6.5-1.5,9.3-3.8,20.7c-0.9,4.5-2.1,8.4-3.1,11.6"/>
		<g>
			<polygon class="st15" points="113.7,142.3 114.9,148.2 119.4,144.3 			"/>
		</g>
	</g>
</g>
<g>
	<g>
		<path class="st14" d="M110.1,179.1c-2.2,6.3-4.5,12.7-6.7,19"/>
		<g>
			<polygon class="st15" points="100.9,196.2 101.9,202.1 106.5,198.2 			"/>
		</g>
	</g>
</g>
<path class="st16" d="M93.1,205.7"/>
<g>
	<g>
		<path class="st14" d="M125.9,179.1c2.2,6.3,4.5,12.7,6.7,19"/>
		<g>
			<polygon class="st15" points="129.5,198.2 134.1,202.1 135.2,196.2 			"/>
		</g>
	</g>
</g>
<g>
	<g>
		<path class="st14" d="M135.3,175.6c6.2,4.6,12.4,9.2,18.5,13.8"/>
		<g>
			<polygon class="st15" points="151.4,191.2 157.3,191.9 154.9,186.4 			"/>
		</g>
	</g>
</g>
<g>
	<g>
		<path class="st14" d="M96.9,175.6c-6.2,4.6-12.4,9.2-18.5,13.8"/>
		<g>
			<polygon class="st15" points="77.3,186.4 74.9,191.9 80.8,191.2 			"/>
		</g>
	</g>
</g>
<g id="_x31_4-utorrent">
	<g>
		<g>
			<path class="st17" d="M70.1,206.1c-0.4,0-0.7,0-1-0.1c-0.7-0.2-0.9-0.5-0.9-0.5c0-0.1-0.1-0.1-0.2-0.1c-0.1,0-0.2,0.1-0.2,0.2
				c0,0-0.3,1-1.2,1.4c-0.9,0.4-2.4,0.3-2.5,0.3c-0.1,0-0.2,0-0.2,0.1c0,0.1-0.1,0.2,0,0.2l1.2,2.7c0,0.1,0.1,0.1,0.2,0.1
				c0,0,0,0,0,0c2.3-0.4,4.1-1.9,4.9-4.1c0-0.1,0-0.2,0-0.2C70.3,206.1,70.2,206,70.1,206.1L70.1,206.1z"/>
			<path class="st17" d="M64.4,197.9c-3.5,0-6.3,2.8-6.3,6.3c0,2.8,1.8,5.3,4.5,6.1c0,0,0,0,0.1,0c0.1,0,0.1,0,0.2-0.1
				c0.1-0.1,0.1-0.2,0-0.2c-2.5-6.3-2.9-7.8-3-8.1c0.3-0.2,1.5-0.4,1.8-0.4c0.1,0.1,0.3,0.6,0.4,1c0.6,1.5,1.5,3.8,2.8,3.9
				c0.9,0.1,1.7-0.3,2.2-0.9c0.3-0.4,0.4-0.8,0.3-1.2c-0.2-0.5-1.1-2.5-1.4-3.3l1.4-0.4c0.3,0.7,1.4,3.3,1.9,4
				c0.2,0.3,0.6,0.4,1.2,0.5c0.1,0,0.2-0.1,0.3-0.2c0-0.2,0-0.5,0-0.7C70.7,200.7,67.9,197.9,64.4,197.9L64.4,197.9z"/>
		</g>
	</g>
</g>
<g id="_x31_4-utorrent_1_">
	<g>
		<g>
			<path class="st17" d="M178.1,206.1c-0.4,0-0.7,0-1-0.1c-0.7-0.2-0.9-0.5-0.9-0.5c0-0.1-0.1-0.1-0.2-0.1c-0.1,0-0.2,0.1-0.2,0.2
				c0,0-0.3,1-1.2,1.4c-0.9,0.4-2.4,0.3-2.5,0.3c-0.1,0-0.2,0-0.2,0.1c0,0.1-0.1,0.2,0,0.2l1.2,2.7c0,0.1,0.1,0.1,0.2,0.1
				c0,0,0,0,0,0c2.3-0.4,4.1-1.9,4.9-4.1c0-0.1,0-0.2,0-0.2C178.3,206.1,178.2,206,178.1,206.1L178.1,206.1z"/>
			<path class="st17" d="M172.4,197.9c-3.5,0-6.3,2.8-6.3,6.3c0,2.8,1.8,5.3,4.5,6.1c0,0,0,0,0.1,0c0.1,0,0.1,0,0.2-0.1
				c0.1-0.1,0.1-0.2,0-0.2c-2.5-6.3-2.9-7.8-3-8.1c0.3-0.2,1.5-0.4,1.8-0.4c0.1,0.1,0.3,0.6,0.4,1c0.6,1.5,1.5,3.8,2.8,3.9
				c0.9,0.1,1.7-0.3,2.2-0.9c0.3-0.4,0.4-0.8,0.3-1.2c-0.2-0.5-1.1-2.5-1.4-3.3l1.4-0.4c0.3,0.7,1.4,3.3,1.9,4
				c0.2,0.3,0.6,0.4,1.2,0.5c0.1,0,0.2-0.1,0.3-0.2c0-0.2,0-0.5,0-0.7C178.7,200.7,175.9,197.9,172.4,197.9L172.4,197.9z"/>
		</g>
	</g>
</g>
<g id="_x31_4-utorrent_2_">
	<g>
		<g>
			<path class="st17" d="M106.1,217.1c-0.4,0-0.7,0-1-0.1c-0.7-0.2-0.9-0.5-0.9-0.5c0-0.1-0.1-0.1-0.2-0.1c-0.1,0-0.2,0.1-0.2,0.2
				c0,0-0.3,1-1.2,1.4c-0.9,0.4-2.4,0.3-2.5,0.3c-0.1,0-0.2,0-0.2,0.1c0,0.1-0.1,0.2,0,0.2l1.2,2.7c0,0.1,0.1,0.1,0.2,0.1
				c0,0,0,0,0,0c2.3-0.4,4.1-1.9,4.9-4.1c0-0.1,0-0.2,0-0.2C106.3,217.1,106.2,217.1,106.1,217.1L106.1,217.1z"/>
			<path class="st17" d="M100.4,208.9c-3.5,0-6.3,2.8-6.3,6.3c0,2.8,1.8,5.3,4.5,6.1c0,0,0,0,0.1,0c0.1,0,0.1,0,0.2-0.1
				c0.1-0.1,0.1-0.2,0-0.2c-2.5-6.3-2.9-7.8-3-8.1c0.3-0.2,1.5-0.4,1.8-0.4c0.1,0.1,0.3,0.6,0.4,1c0.6,1.5,1.5,3.8,2.8,3.9
				c0.9,0.1,1.7-0.3,2.2-0.9c0.3-0.4,0.4-0.8,0.3-1.2c-0.2-0.5-1.1-2.5-1.4-3.3l1.4-0.4c0.3,0.7,1.4,3.3,1.9,4
				c0.2,0.3,0.6,0.4,1.2,0.5c0.1,0,0.2-0.1,0.3-0.2c0-0.2,0-0.5,0-0.7C106.7,211.7,103.9,208.9,100.4,208.9L100.4,208.9z"/>
		</g>
	</g>
</g>
<g id="_x31_4-utorrent_3_">
	<g>
		<g>
			<path class="st17" d="M142.1,217.1c-0.4,0-0.7,0-1-0.1c-0.7-0.2-0.9-0.5-0.9-0.5c0-0.1-0.1-0.1-0.2-0.1c-0.1,0-0.2,0.1-0.2,0.2
				c0,0-0.3,1-1.2,1.4c-0.9,0.4-2.4,0.3-2.5,0.3c-0.1,0-0.2,0-0.2,0.1c0,0.1-0.1,0.2,0,0.2l1.2,2.7c0,0.1,0.1,0.1,0.2,0.1
				c0,0,0,0,0,0c2.3-0.4,4.1-1.9,4.9-4.1c0-0.1,0-0.2,0-0.2C142.3,217.1,142.2,217.1,142.1,217.1L142.1,217.1z"/>
			<path class="st17" d="M136.4,208.9c-3.5,0-6.3,2.8-6.3,6.3c0,2.8,1.8,5.3,4.5,6.1c0,0,0,0,0.1,0c0.1,0,0.1,0,0.2-0.1
				c0.1-0.1,0.1-0.2,0-0.2c-2.5-6.3-2.9-7.8-3-8.1c0.3-0.2,1.5-0.4,1.8-0.4c0.1,0.1,0.3,0.6,0.4,1c0.6,1.5,1.5,3.8,2.8,3.9
				c0.9,0.1,1.7-0.3,2.2-0.9c0.3-0.4,0.4-0.8,0.3-1.2c-0.2-0.5-1.1-2.5-1.4-3.3l1.4-0.4c0.3,0.7,1.4,3.3,1.9,4
				c0.2,0.3,0.6,0.4,1.2,0.5c0.1,0,0.2-0.1,0.3-0.2c0-0.2,0-0.5,0-0.7C142.7,211.7,139.9,208.9,136.4,208.9L136.4,208.9z"/>
		</g>
	</g>
</g>
</svg>
