<?xml version="1.0" encoding="utf-8"?>
<!-- Generator: Adobe Illustrator 23.1.0, SVG Export Plug-In . SVG Version: 6.00 Build 0)  -->
<svg version="1.1" id="Layer_1" xmlns="http://www.w3.org/2000/svg" xmlns:xlink="http://www.w3.org/1999/xlink" x="0px" y="0px"
	 viewBox="0 0 185.2 215.9" style="enable-background:new 0 0 185.2 215.9;" xml:space="preserve">
<style type="text/css">
	.st0{fill:none;stroke:#000000;stroke-width:0.7512;stroke-miterlimit:11.3386;}
	.st1{fill:none;stroke:#000000;stroke-width:0.75;}
	.st2{fill:none;stroke:#000000;stroke-width:0.744;}
	.st3{fill:#DCDEDC;}
	.st4{fill:#343F3E;}
	.st5{fill:none;}
	.st6{font-family:'Roboto-Regular';}
	.st7{font-size:9px;}
	.st8{font-family:'Roboto-Bold';}
	.st9{fill:none;stroke:#94B0DA;stroke-width:3;stroke-miterlimit:11.3386;stroke-dasharray:3,3;}
	.st10{fill:#94B0DA;}
</style>
<symbol  id="cloud" viewBox="-43 -22.4 86.1 44.9">
	<g id="layer1_1_" transform="translate(-54.754156,-85.921738)">
		<path id="path10_1_" class="st0" d="M55.4,107.8c5.2,0.9,10.9-1.3,14-5.4c0.7-0.7,1-1.6,1.6-2.5c0.2-0.3,0.7-0.3,1.1-0.3
			c3.8-0.2,7.4-2,9.9-4.8c0.2-0.3,0.6-0.6,1-0.5c2.2,0,4.3-0.5,6.2-1.4c3.3-1.5,5.9-4.3,7.2-7.5c1.1-2.8,1.3-5.9,0.5-8.7
			c-0.8-3-2.8-5.8-5.4-7.6c-3.1-2.2-7.1-3.1-10.8-2.4c-0.4,0.1-0.9,0.1-1.3-0.1c-3.6-1.7-8-1.9-11.7-0.3c-0.9,0.3-1.7,0.9-2.6,1.3
			c-0.4,0.3-0.8-0.1-1.2-0.3c-2.7-2.3-6.4-3.5-10-3.4c-3.3,0.1-6.4,1.4-8.9,3.5c-0.3,0.4-0.9,0.2-1.3,0.1c-2.4-0.6-4.9-0.7-7.3-0.1
			c-0.4,0.1-0.7,0.2-1.1,0.3c-0.4-0.1-0.7-0.4-1-0.6c-2.5-1.6-5.5-2.4-8.4-2.3c-3.4,0.1-6.8,1.4-9.3,3.7c-2.7,2.4-4.3,5.8-4.5,9.3
			c-0.2,2.9,0.6,5.9,2.2,8.4c2,3,5.2,5.2,8.8,6c0.3,0.1,0.6,0.1,0.8,0.3c0.2,0.3,0.2,0.6,0.3,0.9c0.8,3.8,3.4,7.3,6.9,9.2
			c3.8,2.2,8.6,2.4,12.6,0.8c0.9-0.3,1.7-0.9,2.6-1.2c0.5,0,0.8,0.5,1.1,0.8C49.1,105.6,52.1,107.3,55.4,107.8L55.4,107.8z"/>
	</g>
</symbol>
<g>
	<line class="st1" x1="133.8" y1="102.8" x2="109.9" y2="78.8"/>
	<line class="st1" x1="59.1" y1="102.8" x2="83" y2="78.8"/>
</g>
<line class="st1" x1="96.6" y1="57.6" x2="96.6" y2="46.3"/>
<line class="st2" x1="74.9" y1="147.5" x2="61.2" y2="123.8"/>
<line class="st1" x1="24.1" y1="147.5" x2="37.8" y2="123.8"/>
<g>
	<path class="st3" d="M111.8,73c0,8.5-6.9,15.3-15.3,15.3S81.1,81.4,81.1,73c0-8.5,6.9-15.3,15.3-15.3S111.8,64.5,111.8,73z"/>
	<g>
		<path class="st4" d="M100.5,67.4c0-0.1-0.1-0.1-0.2-0.1h-2.1v-4.8c0-0.1-0.1-0.2-0.2-0.2h-3.1c-0.1,0-0.2,0.1-0.2,0.2v4.8h-2.1
			c-0.1,0-0.2,0-0.2,0.1s0,0.2,0,0.2l3.8,3.9l0.1,0.1c0,0,0.1,0,0.1-0.1l3.8-3.9C100.5,67.5,100.5,67.4,100.5,67.4z"/>
		<path class="st4" d="M100.5,78.6c0,0.1-0.1,0.1-0.2,0.1h-2.1v4.8c0,0.1-0.1,0.2-0.2,0.2h-3.1c-0.1,0-0.2-0.1-0.2-0.2v-4.8h-2.1
			c-0.1,0-0.2,0-0.2-0.1s0-0.2,0-0.2l3.8-3.9l0.1-0.1c0,0,0.1,0,0.1,0.1l3.8,3.9C100.5,78.4,100.5,78.5,100.5,78.6z"/>
		<path class="st4" d="M102.9,77c-0.1,0-0.1-0.1-0.1-0.2v-2.1H98c-0.1,0-0.2-0.1-0.2-0.2v-3.1c0-0.1,0.1-0.2,0.2-0.2h4.8v-2.1
			c0-0.1,0.1-0.2,0.1-0.2h0.2l3.8,3.8l0.1,0.1c0,0.1,0,0.1-0.1,0.1l-3.9,3.8C103.1,77.1,103,77.1,102.9,77z"/>
		<path class="st4" d="M89.9,77c0.1,0,0.1-0.1,0.1-0.2v-2.1h4.8c0.1,0,0.2-0.1,0.2-0.2v-3.1c0-0.1-0.1-0.2-0.2-0.2H90v-2.1
			c0-0.1-0.1-0.2-0.1-0.2h-0.2l-3.8,3.8l-0.1,0.1c0,0.1,0,0.1,0.1,0.1l3.8,3.8C89.8,77.1,89.9,77.1,89.9,77z"/>
	</g>
</g>
<line class="st1" x1="168.5" y1="148" x2="153.8" y2="122.6"/>
<line class="st1" x1="117.6" y1="148" x2="132.1" y2="122.9"/>
<line class="st2" x1="75.7" y1="189" x2="75.7" y2="173.2"/>
<polygon class="st3" points="64.5,207.6 64.5,194.7 75.6,188.2 86.8,194.7 86.8,207.6 75.6,214.1 "/>
<g>
	<rect x="157" y="147.4" class="st3" width="25.8" height="25.8"/>
	<g>
		<path class="st4" d="M174.7,158.4c-0.1,0-0.1-0.1-0.1-0.2v-2.1h-4.8c-0.1,0-0.2-0.1-0.2-0.2v-3.1c0-0.1,0.1-0.2,0.2-0.2h4.8v-2.1
			c0-0.1,0.1-0.1,0.1-0.2c0.1,0,0.2,0,0.2,0l3.9,3.8l0.1,0.1c0,0.1,0,0.1-0.1,0.1l-3.9,3.8C174.9,158.4,174.8,158.4,174.7,158.4z"/>
		<path class="st4" d="M174.7,166.5c-0.1,0-0.1-0.1-0.1-0.2v-2.1h-4.8c-0.1,0-0.2-0.1-0.2-0.2v-3.1c0-0.1,0.1-0.2,0.2-0.2h4.8v-2.1
			c0-0.1,0.1-0.2,0.1-0.2c0.1,0,0.2,0,0.2,0l3.9,3.8l0.1,0.1c0,0.1,0,0.1-0.1,0.1l-3.9,3.9C174.9,166.5,174.8,166.5,174.7,166.5z"/>
		<path class="st4" d="M165.1,162.4c0.1,0,0.1-0.1,0.1-0.2v-2.1h4.8c0.1,0,0.2-0.1,0.2-0.2v-3.1c0-0.1-0.1-0.2-0.2-0.2h-4.8v-2.1
			c0-0.1-0.1-0.1-0.1-0.2c-0.1,0-0.1,0-0.2,0l-3.9,3.8l-0.1,0.1c0,0.1,0,0.1,0.1,0.1l3.9,3.9C165,162.4,165.1,162.4,165.1,162.4z"/>
		<path class="st4" d="M165.1,170.2c0.1,0,0.1-0.1,0.1-0.2v-2.1h4.8c0.1,0,0.2-0.1,0.2-0.2v-3.1c0-0.1-0.1-0.2-0.2-0.2h-4.8v-2.1
			c0-0.1-0.1-0.2-0.1-0.2c-0.1,0-0.1,0-0.2,0l-3.9,3.8l-0.1,0.1c0,0,0,0.1,0.1,0.1l3.9,3.8C165,170.2,165.1,170.2,165.1,170.2z"/>
	</g>
</g>
<g>
	<rect x="104.8" y="147.4" class="st3" width="25.8" height="25.8"/>
	<g>
		<path class="st4" d="M122.5,158.4c-0.1,0-0.1-0.1-0.1-0.2v-2.1h-4.8c-0.1,0-0.2-0.1-0.2-0.2v-3.1c0-0.1,0.1-0.2,0.2-0.2h4.8v-2.1
			c0-0.1,0.1-0.1,0.1-0.2s0.2,0,0.2,0l3.9,3.8l0.1,0.1c0,0.1,0,0.1-0.1,0.1l-3.8,3.8C122.7,158.4,122.6,158.4,122.5,158.4z"/>
		<path class="st4" d="M122.5,166.5c-0.1,0-0.1-0.1-0.1-0.2v-2.1h-4.8c-0.1,0-0.2-0.1-0.2-0.2v-3.1c0-0.1,0.1-0.2,0.2-0.2h4.8v-2.1
			c0-0.1,0.1-0.2,0.1-0.2h0.2l3.9,3.8l0.1,0.1c0,0.1,0,0.1-0.1,0.1l-3.8,3.9C122.7,166.5,122.6,166.5,122.5,166.5z"/>
		<path class="st4" d="M113,162.4c0.1,0,0.1-0.1,0.1-0.2v-2.1h4.8c0.1,0,0.2-0.1,0.2-0.2v-3.1c0-0.1-0.1-0.2-0.2-0.2h-4.8v-2.1
			c0-0.1-0.1-0.1-0.1-0.2s-0.2,0-0.2,0l-3.8,3.8l-0.1,0.1c0,0.1,0,0.1,0.1,0.1l3.8,3.9C112.8,162.4,112.9,162.4,113,162.4z"/>
		<path class="st4" d="M113,170.2c0.1,0,0.1-0.1,0.1-0.2v-2.1h4.8c0.1,0,0.2-0.1,0.2-0.2v-3.1c0-0.1-0.1-0.2-0.2-0.2h-4.8v-2.1
			c0-0.1-0.1-0.2-0.1-0.2h-0.2l-3.8,3.8l-0.1,0.1c0,0,0,0.1,0.1,0.1l3.8,3.8C112.8,170.2,112.9,170.2,113,170.2z"/>
	</g>
</g>
<g>
	<rect x="62.8" y="147.4" class="st3" width="25.8" height="25.8"/>
	<g>
		<path class="st4" d="M80.5,158.4c-0.1,0-0.1-0.1-0.1-0.2v-2.1h-4.8c-0.1,0-0.2-0.1-0.2-0.2v-3.1c0-0.1,0.1-0.2,0.2-0.2h4.8v-2.1
			c0-0.1,0.1-0.1,0.1-0.2s0.2,0,0.2,0l3.9,3.8l0.1,0.1c0,0.1,0,0.1-0.1,0.1l-3.8,3.8C80.7,158.4,80.6,158.4,80.5,158.4z"/>
		<path class="st4" d="M80.5,166.5c-0.1,0-0.1-0.1-0.1-0.2v-2.1h-4.8c-0.1,0-0.2-0.1-0.2-0.2v-3.1c0-0.1,0.1-0.2,0.2-0.2h4.8v-2.1
			c0-0.1,0.1-0.2,0.1-0.2h0.2l3.9,3.8l0.1,0.1c0,0.1,0,0.1-0.1,0.1l-3.8,3.9C80.7,166.5,80.6,166.5,80.5,166.5z"/>
		<path class="st4" d="M71,162.4c0.1,0,0.1-0.1,0.1-0.2v-2.1h4.8c0.1,0,0.2-0.1,0.2-0.2v-3.1c0-0.1-0.1-0.2-0.2-0.2h-4.8v-2.1
			c0-0.1-0.1-0.1-0.1-0.2s-0.2,0-0.2,0l-3.8,3.8l-0.1,0.1c0,0.1,0,0.1,0.1,0.1l3.8,3.9C70.8,162.4,70.9,162.4,71,162.4z"/>
		<path class="st4" d="M71,170.2c0.1,0,0.1-0.1,0.1-0.2v-2.1h4.8c0.1,0,0.2-0.1,0.2-0.2v-3.1c0-0.1-0.1-0.2-0.2-0.2h-4.8v-2.1
			c0-0.1-0.1-0.2-0.1-0.2h-0.2l-3.8,3.8l-0.1,0.1c0,0,0,0.1,0.1,0.1l3.8,3.8C70.8,170.2,70.9,170.2,71,170.2z"/>
	</g>
</g>
<g>
	<rect x="10.6" y="147.4" class="st3" width="25.8" height="25.8"/>
	<g>
		<path class="st4" d="M28.3,158.4c-0.1,0-0.1-0.1-0.1-0.2v-2.1h-4.8c-0.1,0-0.2-0.1-0.2-0.2v-3.1c0-0.1,0.1-0.2,0.2-0.2h4.8v-2.1
			c0-0.1,0-0.1,0.1-0.2c0.1,0,0.1,0,0.2,0l3.8,3.8l0.1,0.1c0,0.1,0,0.1-0.1,0.1l-3.9,3.8C28.5,158.4,28.4,158.4,28.3,158.4z"/>
		<path class="st4" d="M28.3,166.5c-0.1,0-0.1-0.1-0.1-0.2v-2.1h-4.8c-0.1,0-0.2-0.1-0.2-0.2v-3.1c0-0.1,0.1-0.2,0.2-0.2h4.8v-2.1
			c0-0.1,0-0.2,0.1-0.2s0.1,0,0.2,0l3.8,3.8l0.1,0.1c0,0.1,0,0.1-0.1,0.1l-3.9,3.9C28.5,166.5,28.4,166.5,28.3,166.5z"/>
		<path class="st4" d="M18.8,162.4c0.1,0,0.1-0.1,0.1-0.2v-2.1h4.8c0.1,0,0.2-0.1,0.2-0.2v-3.1c0-0.1-0.1-0.2-0.2-0.2h-4.8v-2.1
			c0-0.1,0-0.1-0.1-0.2c-0.1,0-0.2,0-0.2,0l-3.8,3.8l-0.1,0.1c0,0.1,0,0.1,0.1,0.1l3.9,3.9C18.6,162.4,18.7,162.4,18.8,162.4z"/>
		<path class="st4" d="M18.8,170.2c0.1,0,0.1-0.1,0.1-0.2v-2.1h4.8c0.1,0,0.2-0.1,0.2-0.2v-3.1c0-0.1-0.1-0.2-0.2-0.2h-4.8v-2.1
			c0-0.1,0-0.2-0.1-0.2s-0.2,0-0.2,0l-3.8,3.8l-0.1,0.1c0,0,0,0.1,0.1,0.1l3.9,3.8C18.6,170.2,18.7,170.2,18.8,170.2z"/>
	</g>
</g>
<g>
	<path class="st3" d="M65.1,113.9c0,8.5-6.9,15.3-15.3,15.3s-15.3-6.9-15.3-15.3s6.9-15.3,15.3-15.3S65.1,105.4,65.1,113.9z"/>
	<g>
		<path class="st4" d="M53.8,108.3c0-0.1-0.1-0.1-0.2-0.1h-2.1v-4.8c0-0.1-0.1-0.2-0.2-0.2h-3.1c-0.1,0-0.2,0.1-0.2,0.2v4.8h-2.1
			c-0.1,0-0.2,0.1-0.2,0.1v0.2l3.8,3.8l0.1,0.1c0,0,0.1,0,0.1-0.1l3.8-3.8C53.8,108.5,53.8,108.4,53.8,108.3z"/>
		<path class="st4" d="M53.8,119.5c0,0.1-0.1,0.1-0.2,0.1h-2.1v4.8c0,0.1-0.1,0.2-0.2,0.2h-3.1c-0.1,0-0.2-0.1-0.2-0.2v-4.8h-2.1
			c-0.1,0-0.2-0.1-0.2-0.1v-0.2l3.8-3.9l0.1-0.1c0,0,0.1,0,0.1,0.1l3.8,3.9C53.8,119.4,53.8,119.4,53.8,119.5z"/>
		<path class="st4" d="M56.3,118c-0.1,0-0.1-0.1-0.1-0.2v-2.1h-4.8c-0.1,0-0.2-0.1-0.2-0.2v-3.1c0-0.1,0.1-0.2,0.2-0.2h4.8v-2.1
			c0-0.1,0-0.2,0.1-0.2s0.2,0,0.2,0l3.8,3.8l0.1,0.1c0,0,0,0.1-0.1,0.1l-3.8,3.8C56.4,118,56.3,118,56.3,118z"/>
		<path class="st4" d="M43.3,118c0.1,0,0.1-0.1,0.1-0.2v-2.1h4.8c0.1,0,0.2-0.1,0.2-0.2v-3.1c0-0.1-0.1-0.2-0.2-0.2h-4.8v-2.1
			c0-0.1,0-0.2-0.1-0.2s-0.2,0-0.2,0l-3.8,3.8l-0.1,0.1c0,0,0,0.1,0.1,0.1L43,118C43.1,118,43.2,118,43.3,118z"/>
	</g>
</g>
<g>
	<path class="st3" d="M158.5,113.9c0,8.5-6.9,15.3-15.3,15.3s-15.3-6.9-15.3-15.3s6.9-15.3,15.3-15.3S158.5,105.4,158.5,113.9z"/>
	<g>
		<path class="st4" d="M147.2,108.3c0-0.1-0.1-0.1-0.2-0.1h-2.1v-4.8c0-0.1-0.1-0.2-0.2-0.2h-3.1c-0.1,0-0.2,0.1-0.2,0.2v4.8h-2.1
			c-0.1,0-0.1,0.1-0.2,0.1s0,0.2,0,0.2l3.8,3.8l0.1,0.1c0,0,0.1,0,0.1-0.1l3.9-3.8C147.2,108.5,147.2,108.4,147.2,108.3z"/>
		<path class="st4" d="M147.2,119.5c0,0.1-0.1,0.1-0.2,0.1h-2.1v4.8c0,0.1-0.1,0.2-0.2,0.2h-3.1c-0.1,0-0.2-0.1-0.2-0.2v-4.8h-2.1
			c-0.1,0-0.1-0.1-0.2-0.1s0-0.2,0-0.2l3.8-3.9l0.1-0.1c0,0,0.1,0,0.1,0.1l3.9,3.9C147.2,119.4,147.2,119.4,147.2,119.5z"/>
		<path class="st4" d="M149.6,118c-0.1,0-0.1-0.1-0.1-0.2v-2.1h-4.8c-0.1,0-0.2-0.1-0.2-0.2v-3.1c0-0.1,0.1-0.2,0.2-0.2h4.8v-2.1
			c0-0.1,0.1-0.2,0.1-0.2c0.1,0,0.2,0,0.2,0l3.9,3.8l0.1,0.1c0,0,0,0.1-0.1,0.1l-3.9,3.8C149.8,118,149.7,118,149.6,118z"/>
		<path class="st4" d="M136.6,118c0.1,0,0.1-0.1,0.1-0.2v-2.1h4.8c0.1,0,0.2-0.1,0.2-0.2v-3.1c0-0.1-0.1-0.2-0.2-0.2h-4.8v-2.1
			c0-0.1-0.1-0.2-0.1-0.2c-0.1,0-0.2,0-0.2,0l-3.9,3.8l-0.1,0.1c0,0,0,0.1,0.1,0.1l3.9,3.8C136.5,118,136.6,118,136.6,118z"/>
	</g>
</g>
<line class="st5" x1="71.3" y1="137.8" x2="77.6" y2="131.5"/>
<g>
	<defs>
		<rect id="SVGID_1_" x="54.2" y="1.2" width="86.2" height="45"/>
	</defs>
	<clipPath id="SVGID_2_">
		<use xlink:href="#SVGID_1_"  style="overflow:visible;"/>
	</clipPath>
	<g style="clip-path:url(#SVGID_2_);">
		
			<use xlink:href="#cloud"  width="86.1" height="44.9" x="-43" y="-22.4" transform="matrix(1 0 0 -1 97.6224 23.6776)" style="overflow:visible;"/>
	</g>
</g>
<text transform="matrix(1 0 0 1 40.1889 137.2812)" class="st4 st6 st7">DMZ</text>
<text transform="matrix(1 0 0 1 68.6282 203.7466)" class="st4 st8 st7">DPI</text>
<text transform="matrix(1 0 0 1 134.5259 137.2812)" class="st4 st6 st7">LAN</text>
<text transform="matrix(1 0 0 1 79.1547 96.057)" class="st4 st6 st7">Gateway</text>
<text transform="matrix(6.123234e-17 -1 1 6.123234e-17 8.9049 169.9961)" class="st4 st6 st7">Labs</text>
<text transform="matrix(1 0 0 1 81.9282 27.3326)" class="st4 st6 st7">Internet</text>
<text transform="matrix(6.123234e-17 -1 1 6.123234e-17 60.8597 175.2754)" class="st4 st6 st7">Servers</text>
<text transform="matrix(6.123234e-17 -1 1 6.123234e-17 103.385 174.3223)" class="st4 st6 st7">Guests</text>
<text transform="matrix(6.123234e-17 -1 1 6.123234e-17 155.6422 173.5859)" class="st4 st6 st7">Dorms</text>
<line class="st5" x1="36.1" y1="28.9" x2="36.1" y2="74.9"/>
<g>
	<g>
		<path class="st9" d="M82.5,43.3c-0.6,11.9-3.3,27.5-14,38.2c-12,12-24.9,8.6-37.4,19.8c-6.7,6-13.9,16.8-16.3,37.7"/>
		<g>
			<polygon class="st10" points="10.5,137.4 14.2,145.5 19.5,138.2 			"/>
		</g>
	</g>
</g>
</svg>
